%TF.GenerationSoftware,KiCad,Pcbnew,9.0.7*%
%TF.CreationDate,2026-03-29T11:59:00-07:00*%
%TF.ProjectId,Devboard,44657662-6f61-4726-942e-6b696361645f,rev?*%
%TF.SameCoordinates,Original*%
%TF.FileFunction,Legend,Bot*%
%TF.FilePolarity,Positive*%
%FSLAX46Y46*%
G04 Gerber Fmt 4.6, Leading zero omitted, Abs format (unit mm)*
G04 Created by KiCad (PCBNEW 9.0.7) date 2026-03-29 11:59:00*
%MOMM*%
%LPD*%
G01*
G04 APERTURE LIST*
%ADD10C,0.000000*%
G04 APERTURE END LIST*
D10*
%TO.C,G\u002A\u002A\u002A*%
G36*
X162460958Y-51242549D02*
G01*
X162460958Y-53296081D01*
X162211743Y-53296081D01*
X161962528Y-53296082D01*
X161962528Y-51242549D01*
X161962528Y-49189016D01*
X162211744Y-49189016D01*
X162460958Y-49189016D01*
X162460958Y-51242549D01*
G37*
G36*
X160365693Y-66092500D02*
G01*
X160536148Y-66107391D01*
X160680185Y-66131554D01*
X160811777Y-66164805D01*
X161024024Y-66236947D01*
X161210137Y-66328063D01*
X161377597Y-66442109D01*
X161533878Y-66583041D01*
X161601293Y-66654330D01*
X161713571Y-66792325D01*
X161802269Y-66934253D01*
X161876137Y-67093161D01*
X161913614Y-67196891D01*
X161958394Y-67349333D01*
X161995753Y-67508076D01*
X162020859Y-67654383D01*
X162038936Y-67872195D01*
X162038957Y-68139378D01*
X162018174Y-68417103D01*
X161977524Y-68693515D01*
X161917945Y-68956756D01*
X161852874Y-69196003D01*
X161591444Y-69201546D01*
X161330014Y-69207090D01*
X161395459Y-69011706D01*
X161454018Y-68812701D01*
X161504736Y-68575167D01*
X161535782Y-68339544D01*
X161546500Y-68113619D01*
X161536231Y-67905177D01*
X161504319Y-67722005D01*
X161474650Y-67621083D01*
X161387542Y-67418311D01*
X161271013Y-67241916D01*
X161126021Y-67092635D01*
X160953524Y-66971204D01*
X160754481Y-66878360D01*
X160529850Y-66814839D01*
X160280591Y-66781379D01*
X160262397Y-66780239D01*
X160095359Y-66779374D01*
X159918874Y-66793127D01*
X159749016Y-66819701D01*
X159601873Y-66857296D01*
X159561214Y-66871189D01*
X159357596Y-66963111D01*
X159182724Y-67082191D01*
X159037543Y-67227084D01*
X158923001Y-67396443D01*
X158840041Y-67588921D01*
X158789611Y-67803172D01*
X158772656Y-68037849D01*
X158776453Y-68172022D01*
X158791040Y-68329492D01*
X158817858Y-68495299D01*
X158858265Y-68676294D01*
X158913618Y-68879333D01*
X158985274Y-69111269D01*
X158987165Y-69123688D01*
X158979221Y-69133870D01*
X158954850Y-69140423D01*
X158908191Y-69144133D01*
X158833383Y-69145783D01*
X158724564Y-69146159D01*
X158626284Y-69146953D01*
X158548666Y-69146290D01*
X158494125Y-69138915D01*
X158456958Y-69119566D01*
X158431458Y-69082982D01*
X158411921Y-69023900D01*
X158392644Y-68937058D01*
X158367919Y-68817195D01*
X158352531Y-68741855D01*
X158298987Y-68398301D01*
X158276389Y-68074367D01*
X158284270Y-67771033D01*
X158322161Y-67489279D01*
X158389597Y-67230086D01*
X158486107Y-66994432D01*
X158611229Y-66783297D01*
X158764490Y-66597661D01*
X158945427Y-66438505D01*
X159153571Y-66306807D01*
X159388455Y-66203547D01*
X159649612Y-66129705D01*
X159667101Y-66126101D01*
X159819525Y-66103682D01*
X159995012Y-66090623D01*
X160181192Y-66086904D01*
X160365693Y-66092500D01*
G37*
G36*
X160317419Y-78161060D02*
G01*
X160555023Y-78180302D01*
X160771322Y-78218260D01*
X160975621Y-78276281D01*
X161151305Y-78347163D01*
X161366155Y-78469365D01*
X161555087Y-78620469D01*
X161716118Y-78798196D01*
X161847268Y-79000267D01*
X161946554Y-79224403D01*
X162011997Y-79468325D01*
X162012331Y-79470107D01*
X162024765Y-79568001D01*
X162031918Y-79691414D01*
X162034001Y-79829481D01*
X162031220Y-79971338D01*
X162023786Y-80106119D01*
X162011907Y-80222959D01*
X161995793Y-80310994D01*
X161970185Y-80400989D01*
X161877893Y-80637506D01*
X161756173Y-80847331D01*
X161604862Y-81030606D01*
X161423799Y-81187484D01*
X161212820Y-81318114D01*
X160971764Y-81422645D01*
X160700469Y-81501225D01*
X160649557Y-81510326D01*
X160546594Y-81521471D01*
X160419442Y-81529624D01*
X160277231Y-81534699D01*
X160129088Y-81536610D01*
X159984143Y-81535274D01*
X159851524Y-81530605D01*
X159740361Y-81522518D01*
X159659781Y-81510928D01*
X159632611Y-81504953D01*
X159360369Y-81427762D01*
X159118945Y-81325529D01*
X158907892Y-81197940D01*
X158726764Y-81044681D01*
X158575117Y-80865437D01*
X158452505Y-80659896D01*
X158402020Y-80551679D01*
X158355412Y-80430202D01*
X158322743Y-80309632D01*
X158301958Y-80179877D01*
X158290997Y-80030844D01*
X158287801Y-79852439D01*
X158773299Y-79852439D01*
X158788676Y-80035402D01*
X158839034Y-80211466D01*
X158923974Y-80368338D01*
X159043017Y-80505473D01*
X159195683Y-80622324D01*
X159381493Y-80718347D01*
X159599969Y-80792997D01*
X159627294Y-80800212D01*
X159686692Y-80813746D01*
X159747459Y-80823478D01*
X159817295Y-80830007D01*
X159903900Y-80833930D01*
X160014971Y-80835845D01*
X160158211Y-80836351D01*
X160224886Y-80836266D01*
X160353204Y-80835222D01*
X160452701Y-80832507D01*
X160531075Y-80827526D01*
X160596025Y-80819679D01*
X160655251Y-80808368D01*
X160716453Y-80792996D01*
X160784631Y-80773145D01*
X160995073Y-80691766D01*
X161172376Y-80589080D01*
X161316259Y-80465314D01*
X161426440Y-80320696D01*
X161502639Y-80155457D01*
X161513460Y-80120051D01*
X161540264Y-79969683D01*
X161543801Y-79807440D01*
X161525210Y-79645098D01*
X161485635Y-79494427D01*
X161426216Y-79367200D01*
X161384990Y-79311806D01*
X161312317Y-79234155D01*
X161225475Y-79154803D01*
X161135621Y-79083815D01*
X161053909Y-79031259D01*
X161036270Y-79022230D01*
X160961526Y-78989295D01*
X160869391Y-78954034D01*
X160775827Y-78922678D01*
X160738199Y-78911279D01*
X160682375Y-78895775D01*
X160630069Y-78884425D01*
X160574048Y-78876561D01*
X160507080Y-78871516D01*
X160421934Y-78868622D01*
X160311378Y-78867213D01*
X160168180Y-78866620D01*
X160146189Y-78866571D01*
X160005613Y-78866665D01*
X159896816Y-78867966D01*
X159812678Y-78871017D01*
X159746078Y-78876365D01*
X159689895Y-78884554D01*
X159637009Y-78896131D01*
X159580298Y-78911638D01*
X159487072Y-78940791D01*
X159315919Y-79009747D01*
X159171366Y-79092821D01*
X159044899Y-79194513D01*
X159000197Y-79238646D01*
X158897092Y-79368079D01*
X158826724Y-79509123D01*
X158786368Y-79668376D01*
X158773299Y-79852439D01*
X158287801Y-79852439D01*
X158290055Y-79698812D01*
X158299639Y-79546662D01*
X158318699Y-79415078D01*
X158349323Y-79293851D01*
X158393600Y-79172774D01*
X158453617Y-79041637D01*
X158568620Y-78846067D01*
X158719272Y-78664526D01*
X158900061Y-78508891D01*
X159111508Y-78378640D01*
X159279952Y-78300875D01*
X159471897Y-78235865D01*
X159677040Y-78191471D01*
X159903204Y-78166045D01*
X160146189Y-78158319D01*
X160158211Y-78157937D01*
X160317419Y-78161060D01*
G37*
G36*
X160519639Y-90496121D02*
G01*
X160674669Y-90507644D01*
X160803105Y-90525134D01*
X160818839Y-90528108D01*
X160986948Y-90568693D01*
X161158835Y-90624315D01*
X161319950Y-90689743D01*
X161455745Y-90759748D01*
X161465674Y-90765751D01*
X161610585Y-90871996D01*
X161742912Y-91002525D01*
X161856104Y-91148946D01*
X161943613Y-91302866D01*
X161998892Y-91455892D01*
X162004775Y-91479755D01*
X162020014Y-91541814D01*
X162030648Y-91585484D01*
X162033362Y-91610246D01*
X162035206Y-91669871D01*
X162035107Y-91751380D01*
X162032975Y-91844667D01*
X162032274Y-91864106D01*
X162023446Y-91994575D01*
X162007320Y-92098943D01*
X161982143Y-92189094D01*
X161950271Y-92268770D01*
X161856513Y-92438297D01*
X161730941Y-92604720D01*
X161578687Y-92761692D01*
X161404884Y-92902867D01*
X161295826Y-92981088D01*
X161629177Y-92986555D01*
X161962528Y-92992021D01*
X161962528Y-93320503D01*
X161962528Y-93648985D01*
X159340786Y-93648985D01*
X156719043Y-93648985D01*
X156719043Y-93320021D01*
X156719043Y-92991057D01*
X157738127Y-92991057D01*
X158757210Y-92991057D01*
X158638154Y-92863786D01*
X158531705Y-92738435D01*
X158413957Y-92556382D01*
X158330751Y-92363035D01*
X158329899Y-92360461D01*
X158298351Y-92224569D01*
X158284380Y-92083914D01*
X158783222Y-92083914D01*
X158783332Y-92110201D01*
X158784964Y-92202358D01*
X158790125Y-92269573D01*
X158801032Y-92323952D01*
X158819905Y-92377606D01*
X158848963Y-92442641D01*
X158896642Y-92532430D01*
X158967574Y-92644515D01*
X159048173Y-92756227D01*
X159129729Y-92855583D01*
X159203537Y-92930601D01*
X159272393Y-92991057D01*
X160030827Y-92991057D01*
X160789262Y-92991057D01*
X160902571Y-92903868D01*
X160913815Y-92895104D01*
X161010899Y-92811681D01*
X161111344Y-92713702D01*
X161206286Y-92610723D01*
X161286861Y-92512293D01*
X161344201Y-92427967D01*
X161371477Y-92375931D01*
X161412166Y-92284388D01*
X161444369Y-92196453D01*
X161474876Y-92067639D01*
X161483789Y-91899529D01*
X161456434Y-91743007D01*
X161394368Y-91601339D01*
X161299152Y-91477789D01*
X161172343Y-91375622D01*
X161015500Y-91298103D01*
X160850239Y-91248679D01*
X160648721Y-91211165D01*
X160428139Y-91188836D01*
X160197736Y-91181951D01*
X159966751Y-91190770D01*
X159744424Y-91215553D01*
X159539997Y-91256562D01*
X159385539Y-91305404D01*
X159207942Y-91388444D01*
X159055012Y-91492095D01*
X158931301Y-91613154D01*
X158841366Y-91748416D01*
X158834889Y-91761298D01*
X158810809Y-91813478D01*
X158795548Y-91860601D01*
X158787161Y-91913895D01*
X158783701Y-91984588D01*
X158783222Y-92083914D01*
X158284380Y-92083914D01*
X158282625Y-92066248D01*
X158282727Y-91899371D01*
X158298662Y-91737815D01*
X158330436Y-91595453D01*
X158363709Y-91500600D01*
X158464650Y-91297333D01*
X158599211Y-91114186D01*
X158766413Y-90951901D01*
X158965277Y-90811220D01*
X159194822Y-90692884D01*
X159454071Y-90597634D01*
X159742042Y-90526216D01*
X159856157Y-90509470D01*
X160006274Y-90497239D01*
X160174313Y-90490931D01*
X160197736Y-90490879D01*
X160349144Y-90490553D01*
X160519639Y-90496121D01*
G37*
G36*
X161098908Y-61913622D02*
G01*
X161111455Y-61914298D01*
X161206403Y-61921927D01*
X161280536Y-61935263D01*
X161350999Y-61958498D01*
X161434936Y-61995828D01*
X161575827Y-62079172D01*
X161718766Y-62204637D01*
X161838265Y-62357476D01*
X161930719Y-62532964D01*
X161992525Y-62726379D01*
X161997772Y-62752086D01*
X162013008Y-62882351D01*
X162016482Y-63032294D01*
X162008799Y-63187305D01*
X161990564Y-63332773D01*
X161962384Y-63454087D01*
X161934786Y-63533680D01*
X161857640Y-63713190D01*
X161763077Y-63891304D01*
X161660278Y-64049921D01*
X161643752Y-64072809D01*
X161599800Y-64135394D01*
X161567495Y-64183926D01*
X161552888Y-64209419D01*
X161557266Y-64221344D01*
X161588268Y-64247273D01*
X161640007Y-64275921D01*
X161669911Y-64290613D01*
X161805472Y-64380218D01*
X161907979Y-64491833D01*
X161977201Y-64624882D01*
X162012914Y-64778792D01*
X162014893Y-64952989D01*
X161982911Y-65146900D01*
X161971377Y-65193728D01*
X161951398Y-65270017D01*
X161934936Y-65326938D01*
X161924718Y-65354751D01*
X161919498Y-65359275D01*
X161886440Y-65364427D01*
X161822188Y-65360047D01*
X161723019Y-65345975D01*
X161673908Y-65337961D01*
X161601478Y-65325679D01*
X161550955Y-65316492D01*
X161531081Y-65311948D01*
X161531319Y-65302358D01*
X161537214Y-65263132D01*
X161548079Y-65204675D01*
X161549832Y-65195505D01*
X161558072Y-65069824D01*
X161533203Y-64965036D01*
X161475687Y-64882225D01*
X161385986Y-64822483D01*
X161369839Y-64816417D01*
X161343465Y-64810039D01*
X161306467Y-64804559D01*
X161255590Y-64799851D01*
X161187589Y-64795788D01*
X161099213Y-64792246D01*
X160987211Y-64789097D01*
X160848335Y-64786215D01*
X160679334Y-64783475D01*
X160476959Y-64780749D01*
X160237960Y-64777913D01*
X160215963Y-64777661D01*
X159974307Y-64774716D01*
X159768874Y-64771773D01*
X159596293Y-64768712D01*
X159453196Y-64765409D01*
X159336214Y-64761739D01*
X159241976Y-64757583D01*
X159167113Y-64752815D01*
X159108257Y-64747313D01*
X159062037Y-64740953D01*
X159025084Y-64733612D01*
X158876389Y-64690161D01*
X158719438Y-64618707D01*
X158589034Y-64525079D01*
X158483599Y-64406969D01*
X158401554Y-64262065D01*
X158341320Y-64088057D01*
X158301316Y-63882636D01*
X158279965Y-63643490D01*
X158277379Y-63569416D01*
X158284173Y-63309010D01*
X158315746Y-63034399D01*
X158372829Y-62740526D01*
X158456150Y-62422338D01*
X158518559Y-62208012D01*
X158805315Y-62208012D01*
X159092073Y-62208012D01*
X159024351Y-62342588D01*
X159020614Y-62350052D01*
X158934158Y-62548663D01*
X158864867Y-62759301D01*
X158813845Y-62974630D01*
X158782197Y-63187311D01*
X158771029Y-63390007D01*
X158781444Y-63575379D01*
X158814548Y-63736092D01*
X158844925Y-63820324D01*
X158885110Y-63891244D01*
X158941648Y-63954778D01*
X158998462Y-64003947D01*
X159064349Y-64045336D01*
X159140634Y-64075210D01*
X159234655Y-64095675D01*
X159353753Y-64108847D01*
X159505268Y-64116830D01*
X159789373Y-64127006D01*
X159789373Y-63946010D01*
X160188117Y-63946010D01*
X160188117Y-64121982D01*
X160646714Y-64121982D01*
X161105311Y-64121982D01*
X161197138Y-63997375D01*
X161244204Y-63930134D01*
X161360044Y-63730331D01*
X161447753Y-63523957D01*
X161478674Y-63401897D01*
X161494540Y-63261779D01*
X161493015Y-63124231D01*
X161473299Y-63005500D01*
X161470001Y-62994034D01*
X161410089Y-62850229D01*
X161324790Y-62737101D01*
X161214883Y-62655240D01*
X161081148Y-62605240D01*
X160924361Y-62587694D01*
X160876593Y-62588672D01*
X160726549Y-62612588D01*
X160597825Y-62669524D01*
X160487709Y-62761018D01*
X160393490Y-62888605D01*
X160356659Y-62958826D01*
X160299158Y-63109950D01*
X160252363Y-63290359D01*
X160217464Y-63493925D01*
X160195652Y-63714518D01*
X160188117Y-63946010D01*
X159789373Y-63946010D01*
X159789373Y-63787006D01*
X159789776Y-63718212D01*
X159792401Y-63590385D01*
X159797067Y-63469196D01*
X159803299Y-63365725D01*
X159810621Y-63291049D01*
X159843033Y-63103410D01*
X159909450Y-62855207D01*
X159998430Y-62630469D01*
X160108392Y-62431920D01*
X160237753Y-62262285D01*
X160384932Y-62124285D01*
X160548348Y-62020647D01*
X160645489Y-61976764D01*
X160784531Y-61933451D01*
X160924361Y-61914228D01*
X160930941Y-61913323D01*
X161098908Y-61913622D01*
G37*
G36*
X161098908Y-82349259D02*
G01*
X161111455Y-82349935D01*
X161206403Y-82357564D01*
X161280536Y-82370898D01*
X161350999Y-82394134D01*
X161434937Y-82431464D01*
X161575827Y-82514807D01*
X161718765Y-82640273D01*
X161838265Y-82793111D01*
X161930719Y-82968600D01*
X161992525Y-83162015D01*
X161997772Y-83187722D01*
X162013008Y-83317987D01*
X162016482Y-83467930D01*
X162008800Y-83622941D01*
X161990564Y-83768409D01*
X161962384Y-83889723D01*
X161934786Y-83969317D01*
X161857640Y-84148825D01*
X161763077Y-84326939D01*
X161660278Y-84485558D01*
X161643752Y-84508445D01*
X161599800Y-84571029D01*
X161567495Y-84619562D01*
X161552888Y-84645055D01*
X161557266Y-84656981D01*
X161588268Y-84682908D01*
X161640007Y-84711557D01*
X161669911Y-84726247D01*
X161805472Y-84815854D01*
X161907979Y-84927470D01*
X161977201Y-85060518D01*
X162012914Y-85214427D01*
X162014893Y-85388625D01*
X161982911Y-85582536D01*
X161971377Y-85629364D01*
X161951398Y-85705652D01*
X161934937Y-85762574D01*
X161924718Y-85790387D01*
X161919498Y-85794911D01*
X161886441Y-85800063D01*
X161822188Y-85795683D01*
X161723019Y-85781611D01*
X161673908Y-85773598D01*
X161601478Y-85761315D01*
X161550955Y-85752129D01*
X161531081Y-85747585D01*
X161531320Y-85737994D01*
X161537214Y-85698768D01*
X161548079Y-85640311D01*
X161549832Y-85631141D01*
X161558072Y-85505461D01*
X161533202Y-85400671D01*
X161475687Y-85317861D01*
X161385986Y-85258119D01*
X161369839Y-85252054D01*
X161343465Y-85245675D01*
X161306467Y-85240194D01*
X161255590Y-85235486D01*
X161187589Y-85231424D01*
X161099213Y-85227882D01*
X160987211Y-85224733D01*
X160848335Y-85221852D01*
X160679334Y-85219111D01*
X160476959Y-85216385D01*
X160237960Y-85213549D01*
X160215963Y-85213298D01*
X159974307Y-85210351D01*
X159768873Y-85207409D01*
X159596293Y-85204348D01*
X159453196Y-85201044D01*
X159336214Y-85197376D01*
X159241976Y-85193219D01*
X159167113Y-85188451D01*
X159108257Y-85182948D01*
X159062037Y-85176589D01*
X159025084Y-85169248D01*
X158876389Y-85125797D01*
X158719438Y-85054343D01*
X158589034Y-84960716D01*
X158483599Y-84842605D01*
X158401554Y-84697701D01*
X158341319Y-84523693D01*
X158301316Y-84318272D01*
X158279965Y-84079126D01*
X158277380Y-84005052D01*
X158284173Y-83744646D01*
X158315746Y-83470034D01*
X158372829Y-83176162D01*
X158456150Y-82857972D01*
X158518559Y-82643647D01*
X158805315Y-82643647D01*
X159092073Y-82643647D01*
X159024351Y-82778224D01*
X159020615Y-82785688D01*
X158934158Y-82984299D01*
X158864867Y-83194938D01*
X158813845Y-83410266D01*
X158782197Y-83622947D01*
X158771029Y-83825642D01*
X158781444Y-84011015D01*
X158814548Y-84171728D01*
X158844925Y-84255959D01*
X158885110Y-84326880D01*
X158941648Y-84390414D01*
X158998462Y-84439583D01*
X159064349Y-84480973D01*
X159140635Y-84510845D01*
X159234655Y-84531311D01*
X159353753Y-84544481D01*
X159505268Y-84552466D01*
X159789373Y-84562641D01*
X159789373Y-84381647D01*
X160188117Y-84381647D01*
X160188117Y-84557619D01*
X160646714Y-84557619D01*
X161105311Y-84557619D01*
X161197138Y-84433012D01*
X161244204Y-84365770D01*
X161360044Y-84165967D01*
X161447753Y-83959592D01*
X161478674Y-83837533D01*
X161494540Y-83697416D01*
X161493015Y-83559867D01*
X161473298Y-83441136D01*
X161470001Y-83429670D01*
X161410089Y-83285865D01*
X161324790Y-83172737D01*
X161214884Y-83090876D01*
X161081148Y-83040876D01*
X160924361Y-83023329D01*
X160876593Y-83024309D01*
X160726549Y-83048224D01*
X160597825Y-83105160D01*
X160487709Y-83196652D01*
X160393490Y-83324241D01*
X160356659Y-83394462D01*
X160299158Y-83545586D01*
X160252363Y-83725995D01*
X160217464Y-83929562D01*
X160195652Y-84150154D01*
X160188117Y-84381647D01*
X159789373Y-84381647D01*
X159789373Y-84222640D01*
X159789776Y-84153848D01*
X159792401Y-84026019D01*
X159797067Y-83904832D01*
X159803300Y-83801361D01*
X159810621Y-83726683D01*
X159843032Y-83539046D01*
X159909450Y-83290842D01*
X159998430Y-83066104D01*
X160108392Y-82867556D01*
X160237753Y-82697919D01*
X160384932Y-82559921D01*
X160548348Y-82456282D01*
X160645489Y-82412399D01*
X160784531Y-82369086D01*
X160924361Y-82349865D01*
X160930941Y-82348959D01*
X161098908Y-82349259D01*
G37*
G36*
X158869523Y-53894197D02*
G01*
X159829247Y-53894197D01*
X160705405Y-53894197D01*
X161962528Y-53894198D01*
X161962323Y-54716607D01*
X161962013Y-54906162D01*
X161960419Y-55156516D01*
X161957142Y-55373099D01*
X161951812Y-55559554D01*
X161944057Y-55719517D01*
X161933509Y-55856629D01*
X161919798Y-55974528D01*
X161902552Y-56076853D01*
X161881403Y-56167243D01*
X161855980Y-56249338D01*
X161825913Y-56326777D01*
X161790832Y-56403199D01*
X161710737Y-56541300D01*
X161585725Y-56690729D01*
X161436931Y-56808866D01*
X161266169Y-56894611D01*
X161075248Y-56946864D01*
X160865982Y-56964527D01*
X160755307Y-56960128D01*
X160563190Y-56927720D01*
X160391076Y-56863093D01*
X160238014Y-56765413D01*
X160103051Y-56633846D01*
X159985237Y-56467557D01*
X159883621Y-56265713D01*
X159797247Y-56027478D01*
X159791989Y-56010502D01*
X159763342Y-55923003D01*
X159742518Y-55870544D01*
X159728034Y-55849941D01*
X159718411Y-55858012D01*
X159654492Y-56020520D01*
X159553248Y-56224926D01*
X159440379Y-56393544D01*
X159314019Y-56528252D01*
X159172303Y-56630930D01*
X159013363Y-56703459D01*
X158835336Y-56747719D01*
X158785689Y-56754638D01*
X158594740Y-56758263D01*
X158415346Y-56725192D01*
X158250837Y-56657121D01*
X158104534Y-56555748D01*
X157979765Y-56422772D01*
X157879851Y-56259888D01*
X157863173Y-56224659D01*
X157825507Y-56135025D01*
X157793706Y-56040957D01*
X157767317Y-55938521D01*
X157745889Y-55823785D01*
X157728974Y-55692815D01*
X157716121Y-55541678D01*
X157706877Y-55366441D01*
X157700795Y-55163170D01*
X157697423Y-54927933D01*
X157696312Y-54656795D01*
X157696265Y-54552124D01*
X158188922Y-54552124D01*
X158200661Y-54995728D01*
X158201364Y-55021189D01*
X158210645Y-55244456D01*
X158225230Y-55432118D01*
X158246127Y-55587843D01*
X158274341Y-55715299D01*
X158310878Y-55818152D01*
X158356744Y-55900070D01*
X158412946Y-55964720D01*
X158480488Y-56015770D01*
X158489815Y-56021473D01*
X158542636Y-56049745D01*
X158594999Y-56067280D01*
X158660345Y-56077435D01*
X158752118Y-56083563D01*
X158803017Y-56085227D01*
X158935788Y-56078860D01*
X159044565Y-56052977D01*
X159138952Y-56004488D01*
X159228553Y-55930303D01*
X159260069Y-55897622D01*
X159342252Y-55787660D01*
X159408869Y-55654901D01*
X159461319Y-55495393D01*
X159500999Y-55305182D01*
X159529310Y-55080316D01*
X159534438Y-55021460D01*
X159542488Y-54906158D01*
X159548038Y-54795364D01*
X159550110Y-54706638D01*
X159550126Y-54552125D01*
X159942624Y-54552125D01*
X159955606Y-54866136D01*
X159958126Y-54920452D01*
X159976389Y-55151339D01*
X160006385Y-55352143D01*
X160049391Y-55529833D01*
X160106681Y-55691379D01*
X160164554Y-55814412D01*
X160268815Y-55976661D01*
X160390153Y-56103235D01*
X160528283Y-56193917D01*
X160682923Y-56248486D01*
X160853786Y-56266723D01*
X160961052Y-56261094D01*
X161096582Y-56231001D01*
X161206989Y-56172840D01*
X161295144Y-56084260D01*
X161363919Y-55962911D01*
X161416186Y-55806441D01*
X161421049Y-55785874D01*
X161430910Y-55729483D01*
X161438936Y-55657393D01*
X161445425Y-55564770D01*
X161450672Y-55446778D01*
X161454976Y-55298583D01*
X161458632Y-55115351D01*
X161468185Y-54552125D01*
X160705404Y-54552125D01*
X159942624Y-54552125D01*
X159550126Y-54552125D01*
X158869524Y-54552125D01*
X158188922Y-54552124D01*
X157696265Y-54552124D01*
X157695967Y-53894197D01*
X158869523Y-53894197D01*
G37*
G36*
X157217473Y-58639253D02*
G01*
X157217473Y-59337054D01*
X159590001Y-59337055D01*
X161962528Y-59337055D01*
X161962528Y-59666018D01*
X161962528Y-59994982D01*
X159340786Y-59994981D01*
X156719043Y-59994982D01*
X156719043Y-58968216D01*
X156719043Y-57941450D01*
X156968258Y-57941450D01*
X157217473Y-57941450D01*
X157217473Y-58639253D01*
G37*
G36*
X161962528Y-70651223D02*
G01*
X161962528Y-70979992D01*
X161021781Y-70985172D01*
X160081033Y-70990351D01*
X161020888Y-71837681D01*
X161960743Y-72685013D01*
X161961636Y-73130773D01*
X161962529Y-73576534D01*
X161788078Y-73418242D01*
X161784466Y-73414966D01*
X161732042Y-73367478D01*
X161654064Y-73296929D01*
X161554220Y-73206650D01*
X161436194Y-73099973D01*
X161303675Y-72980229D01*
X161160346Y-72850749D01*
X161009897Y-72714865D01*
X160856013Y-72575909D01*
X160819889Y-72543290D01*
X160672316Y-72409989D01*
X160532858Y-72283942D01*
X160404586Y-72167930D01*
X160290571Y-72064732D01*
X160193881Y-71977126D01*
X160117586Y-71907894D01*
X160064757Y-71859814D01*
X160038462Y-71835668D01*
X159978525Y-71779467D01*
X159400472Y-72289258D01*
X159275532Y-72399488D01*
X159133986Y-72524466D01*
X158996279Y-72646150D01*
X158867626Y-72759926D01*
X158753244Y-72861181D01*
X158658350Y-72945302D01*
X158588156Y-73007677D01*
X158353894Y-73216306D01*
X158353894Y-72858969D01*
X158353894Y-72501633D01*
X159212649Y-71745992D01*
X160071403Y-70990351D01*
X158395224Y-70985253D01*
X156719043Y-70980156D01*
X156719043Y-70651305D01*
X156719043Y-70322454D01*
X159340786Y-70322454D01*
X161962528Y-70322453D01*
X161962528Y-70651223D01*
G37*
G36*
X158869524Y-74329833D02*
G01*
X159829247Y-74329833D01*
X160705404Y-74329833D01*
X161962528Y-74329833D01*
X161962323Y-75152242D01*
X161962012Y-75341798D01*
X161960419Y-75592152D01*
X161957142Y-75808736D01*
X161951812Y-75995190D01*
X161944058Y-76155153D01*
X161933509Y-76292265D01*
X161919798Y-76410164D01*
X161902552Y-76512489D01*
X161881403Y-76602880D01*
X161855980Y-76684974D01*
X161825913Y-76762414D01*
X161790833Y-76838834D01*
X161710737Y-76976936D01*
X161585725Y-77126365D01*
X161436931Y-77244502D01*
X161266169Y-77330247D01*
X161075248Y-77382500D01*
X160865982Y-77400162D01*
X160755307Y-77395764D01*
X160563190Y-77363355D01*
X160391076Y-77298729D01*
X160238014Y-77201049D01*
X160103051Y-77069482D01*
X159985238Y-76903193D01*
X159883620Y-76701348D01*
X159797247Y-76463114D01*
X159791989Y-76446137D01*
X159763343Y-76358639D01*
X159742518Y-76306180D01*
X159728034Y-76285577D01*
X159718411Y-76293647D01*
X159654492Y-76456156D01*
X159553248Y-76660562D01*
X159440379Y-76829179D01*
X159314019Y-76963887D01*
X159172303Y-77066566D01*
X159013363Y-77139095D01*
X158835336Y-77183355D01*
X158785689Y-77190274D01*
X158594739Y-77193899D01*
X158415346Y-77160829D01*
X158250838Y-77092757D01*
X158104534Y-76991384D01*
X157979764Y-76858408D01*
X157879851Y-76695524D01*
X157863172Y-76660295D01*
X157825506Y-76570661D01*
X157793706Y-76476593D01*
X157767317Y-76374157D01*
X157745889Y-76259421D01*
X157728974Y-76128451D01*
X157716120Y-75977314D01*
X157706877Y-75802077D01*
X157700795Y-75598806D01*
X157697423Y-75363569D01*
X157696312Y-75092431D01*
X157696265Y-74987760D01*
X158188923Y-74987760D01*
X158200661Y-75431363D01*
X158201364Y-75456826D01*
X158210645Y-75680093D01*
X158225230Y-75867754D01*
X158246127Y-76023479D01*
X158274341Y-76150934D01*
X158310878Y-76253787D01*
X158356744Y-76335706D01*
X158412946Y-76400356D01*
X158480488Y-76451406D01*
X158489816Y-76457109D01*
X158542636Y-76485381D01*
X158594998Y-76502916D01*
X158660345Y-76513071D01*
X158752118Y-76519199D01*
X158803017Y-76520863D01*
X158935788Y-76514496D01*
X159044565Y-76488613D01*
X159138952Y-76440123D01*
X159228553Y-76365939D01*
X159260069Y-76333258D01*
X159342252Y-76223296D01*
X159408868Y-76090537D01*
X159461319Y-75931029D01*
X159501000Y-75740817D01*
X159529310Y-75515952D01*
X159534438Y-75457097D01*
X159542488Y-75341793D01*
X159548038Y-75231000D01*
X159550110Y-75142274D01*
X159550126Y-74987760D01*
X159942624Y-74987760D01*
X159955606Y-75301771D01*
X159958126Y-75356087D01*
X159976389Y-75586974D01*
X160006385Y-75787778D01*
X160049390Y-75965469D01*
X160106681Y-76127014D01*
X160164554Y-76250048D01*
X160268815Y-76412297D01*
X160390153Y-76538871D01*
X160528283Y-76629553D01*
X160682923Y-76684122D01*
X160853786Y-76702360D01*
X160961052Y-76696730D01*
X161096582Y-76666637D01*
X161206989Y-76608475D01*
X161295144Y-76519896D01*
X161363919Y-76398546D01*
X161416186Y-76242077D01*
X161421049Y-76221509D01*
X161430910Y-76165119D01*
X161438936Y-76093029D01*
X161445425Y-76000406D01*
X161450672Y-75882414D01*
X161454976Y-75734219D01*
X161458632Y-75550987D01*
X161468185Y-74987760D01*
X160705404Y-74987760D01*
X159942624Y-74987760D01*
X159550126Y-74987760D01*
X158869524Y-74987760D01*
X158188923Y-74987760D01*
X157696265Y-74987760D01*
X157695966Y-74329833D01*
X158869524Y-74329833D01*
G37*
G36*
X161962528Y-86989959D02*
G01*
X161962528Y-87318922D01*
X161962528Y-87647886D01*
X160786990Y-87647886D01*
X159611452Y-87647886D01*
X159431489Y-87797669D01*
X159284609Y-87928198D01*
X159140766Y-88080904D01*
X159029597Y-88233392D01*
X158947723Y-88390418D01*
X158891763Y-88556732D01*
X158877158Y-88625299D01*
X158860561Y-88749403D01*
X158852472Y-88880000D01*
X158853632Y-89002124D01*
X158864785Y-89100810D01*
X158877246Y-89163114D01*
X159133937Y-89163114D01*
X159390629Y-89163114D01*
X159390629Y-89412329D01*
X159390629Y-89661544D01*
X158873675Y-89661544D01*
X158356721Y-89661545D01*
X158335815Y-89556874D01*
X158302038Y-89359816D01*
X158277309Y-89092075D01*
X158282278Y-88846692D01*
X158317250Y-88620807D01*
X158382530Y-88411561D01*
X158478421Y-88216096D01*
X158514060Y-88161876D01*
X158586130Y-88068823D01*
X158674669Y-87966912D01*
X158770968Y-87865593D01*
X158866317Y-87774306D01*
X158952010Y-87702497D01*
X159021791Y-87649759D01*
X158687842Y-87648822D01*
X158353894Y-87647885D01*
X158353894Y-87318922D01*
X158353894Y-86989958D01*
X160158211Y-86989958D01*
X161962528Y-86989959D01*
G37*
%TD*%
M02*
