%TF.GenerationSoftware,KiCad,Pcbnew,9.0.7*%
%TF.CreationDate,2026-03-29T11:59:00-07:00*%
%TF.ProjectId,Devboard,44657662-6f61-4726-942e-6b696361645f,rev?*%
%TF.SameCoordinates,Original*%
%TF.FileFunction,Copper,L2,Bot*%
%TF.FilePolarity,Positive*%
%FSLAX46Y46*%
G04 Gerber Fmt 4.6, Leading zero omitted, Abs format (unit mm)*
G04 Created by KiCad (PCBNEW 9.0.7) date 2026-03-29 11:59:00*
%MOMM*%
%LPD*%
G01*
G04 APERTURE LIST*
%TA.AperFunction,ComponentPad*%
%ADD10R,1.700000X1.700000*%
%TD*%
%TA.AperFunction,ComponentPad*%
%ADD11C,1.700000*%
%TD*%
%TA.AperFunction,HeatsinkPad*%
%ADD12O,1.000000X2.100000*%
%TD*%
%TA.AperFunction,HeatsinkPad*%
%ADD13O,1.000000X1.600000*%
%TD*%
%TA.AperFunction,ViaPad*%
%ADD14C,0.600000*%
%TD*%
%TA.AperFunction,Conductor*%
%ADD15C,0.200000*%
%TD*%
G04 APERTURE END LIST*
D10*
%TO.P,J3,1,Pin_1*%
%TO.N,VBUS*%
X169540000Y-47620000D03*
D11*
%TO.P,J3,2,Pin_2*%
%TO.N,GPIO29_ADC3*%
X169540000Y-50160000D03*
%TO.P,J3,3,Pin_3*%
%TO.N,GND*%
X169540000Y-52700000D03*
%TO.P,J3,4,Pin_4*%
%TO.N,GPIO28_ADC2*%
X169540000Y-55240000D03*
%TO.P,J3,5,Pin_5*%
%TO.N,+3V3*%
X169540000Y-57780000D03*
%TO.P,J3,6,Pin_6*%
%TO.N,GPIO27_ADC1*%
X169540000Y-60320000D03*
%TO.P,J3,7,Pin_7*%
%TO.N,GPIO26_ADC0*%
X169540000Y-62860000D03*
%TO.P,J3,8,Pin_8*%
%TO.N,GND*%
X169540000Y-65400000D03*
%TO.P,J3,9,Pin_9*%
%TO.N,GPIO24*%
X169540000Y-67940000D03*
%TO.P,J3,10,Pin_10*%
%TO.N,GPIO23*%
X169540000Y-70480000D03*
%TO.P,J3,11,Pin_11*%
%TO.N,RUN*%
X169540000Y-73020000D03*
%TO.P,J3,12,Pin_12*%
%TO.N,GPIO22*%
X169540000Y-75560000D03*
%TO.P,J3,13,Pin_13*%
%TO.N,GND*%
X169540000Y-78100000D03*
%TO.P,J3,14,Pin_14*%
%TO.N,GPIO21*%
X169540000Y-80640000D03*
%TO.P,J3,15,Pin_15*%
%TO.N,GPIO20*%
X169540000Y-83180000D03*
%TO.P,J3,16,Pin_16*%
%TO.N,GPIO19*%
X169540000Y-85720000D03*
%TO.P,J3,17,Pin_17*%
%TO.N,GPIO18*%
X169540000Y-88260000D03*
%TO.P,J3,18,Pin_18*%
%TO.N,GND*%
X169540000Y-90800000D03*
%TO.P,J3,19,Pin_19*%
%TO.N,GPIO17*%
X169540000Y-93340000D03*
%TO.P,J3,20,Pin_20*%
%TO.N,GPIO16*%
X169540000Y-95880000D03*
%TD*%
D12*
%TO.P,J1,S1,SHIELD*%
%TO.N,GND*%
X164750000Y-52150000D03*
D13*
X164750000Y-47970000D03*
D12*
X156110000Y-52150000D03*
D13*
X156110000Y-47970000D03*
%TD*%
D10*
%TO.P,J4,1,Pin_1*%
%TO.N,SWCLK*%
X158110000Y-96640000D03*
D11*
%TO.P,J4,2,Pin_2*%
%TO.N,GND*%
X160650000Y-96640000D03*
%TO.P,J4,3,Pin_3*%
%TO.N,SWD*%
X163190000Y-96640000D03*
%TD*%
D10*
%TO.P,J2,1,Pin_1*%
%TO.N,GPIO0*%
X151760000Y-47620000D03*
D11*
%TO.P,J2,2,Pin_2*%
%TO.N,GPIO1*%
X151760000Y-50160000D03*
%TO.P,J2,3,Pin_3*%
%TO.N,GND*%
X151760000Y-52700000D03*
%TO.P,J2,4,Pin_4*%
%TO.N,GPIO2*%
X151760000Y-55240000D03*
%TO.P,J2,5,Pin_5*%
%TO.N,GPIO3*%
X151760000Y-57780000D03*
%TO.P,J2,6,Pin_6*%
%TO.N,GPIO4*%
X151760000Y-60320000D03*
%TO.P,J2,7,Pin_7*%
%TO.N,GPIO5*%
X151760000Y-62860000D03*
%TO.P,J2,8,Pin_8*%
%TO.N,GND*%
X151760000Y-65400000D03*
%TO.P,J2,9,Pin_9*%
%TO.N,GPIO6*%
X151760000Y-67940000D03*
%TO.P,J2,10,Pin_10*%
%TO.N,GPIO7*%
X151760000Y-70480000D03*
%TO.P,J2,11,Pin_11*%
%TO.N,GPIO8*%
X151760000Y-73020000D03*
%TO.P,J2,12,Pin_12*%
%TO.N,GPIO9*%
X151760000Y-75560000D03*
%TO.P,J2,13,Pin_13*%
%TO.N,GND*%
X151760000Y-78100000D03*
%TO.P,J2,14,Pin_14*%
%TO.N,GPIO10*%
X151760000Y-80640000D03*
%TO.P,J2,15,Pin_15*%
%TO.N,GPIO11*%
X151760000Y-83180000D03*
%TO.P,J2,16,Pin_16*%
%TO.N,GPIO12*%
X151760000Y-85720000D03*
%TO.P,J2,17,Pin_17*%
%TO.N,GPIO13*%
X151760000Y-88260000D03*
%TO.P,J2,18,Pin_18*%
%TO.N,GND*%
X151760000Y-90800000D03*
%TO.P,J2,19,Pin_19*%
%TO.N,GPIO14*%
X151760000Y-93340000D03*
%TO.P,J2,20,Pin_20*%
%TO.N,GPIO15*%
X151760000Y-95880000D03*
%TD*%
D14*
%TO.N,GND*%
X165550000Y-70850000D03*
X165650000Y-53450000D03*
X158111475Y-69504369D03*
%TO.N,QSPI_SD3*%
X158650001Y-73442894D03*
X157550000Y-71500000D03*
%TO.N,GND*%
X164250000Y-75100000D03*
X164000000Y-73750000D03*
X165150000Y-66700000D03*
X153548000Y-73200000D03*
X167850000Y-60750000D03*
X165361362Y-72428822D03*
X156850000Y-92050000D03*
%TO.N,+3V3*%
X159700000Y-75720000D03*
X158390000Y-80105890D03*
X164403554Y-81446446D03*
X163597964Y-83602501D03*
%TO.N,GND*%
X155500000Y-78200000D03*
X160250000Y-69550000D03*
X156200000Y-68600000D03*
X167850000Y-58200000D03*
X168600000Y-64100000D03*
X158933982Y-85582304D03*
X155800000Y-86900000D03*
X156850000Y-68350000D03*
X163700000Y-54450000D03*
X168050000Y-79250000D03*
X154650000Y-78000000D03*
%TO.N,+1V1*%
X163500000Y-71000000D03*
X161206488Y-75720000D03*
X164550000Y-83609000D03*
X161249655Y-80920027D03*
X163031368Y-74044539D03*
%TO.N,GND*%
X156650000Y-71200000D03*
%TO.N,+3V3*%
X163500000Y-65750000D03*
X165950000Y-72050000D03*
X161290000Y-74179140D03*
X161290000Y-71000000D03*
%TO.N,USB_D+*%
X163015393Y-70015393D03*
X162000000Y-71000000D03*
%TO.N,GPIO1*%
X154800000Y-56500000D03*
X156900000Y-67550000D03*
X153548000Y-70654232D03*
X157300000Y-60500000D03*
X158463556Y-76428830D03*
X154995768Y-72054232D03*
%TO.N,GPIO5*%
X158400000Y-78400000D03*
X154850000Y-69100000D03*
%TO.N,GPIO0*%
X158600000Y-65700000D03*
X156401431Y-76348569D03*
X155300000Y-55500000D03*
X154900000Y-72900000D03*
X158150000Y-60050000D03*
X153450000Y-71350000D03*
%TO.N,GPIO2*%
X156000000Y-67700000D03*
X158650000Y-77200000D03*
%TO.N,GPIO3*%
X160250000Y-80320002D03*
X155500000Y-68700000D03*
%TO.N,GPIO4*%
X156715001Y-77369246D03*
X154748555Y-68291447D03*
%TO.N,GPIO29_ADC3*%
X165850000Y-76150000D03*
%TO.N,GPIO22*%
X163742114Y-78908440D03*
X166412518Y-78561573D03*
%TO.N,GPIO24*%
X165704939Y-77854939D03*
%TO.N,RUN*%
X162965753Y-80108646D03*
%TO.N,SWCLK*%
X161950000Y-80950000D03*
%TO.N,QSPI_SS*%
X159750000Y-66200000D03*
X164440893Y-62859107D03*
X156999998Y-69250000D03*
%TO.N,GND*%
X153300000Y-79600000D03*
%TO.N,GPIO28_ADC2*%
X166603876Y-76103232D03*
%TD*%
D15*
%TO.N,GND*%
X165550000Y-70850000D02*
X165550000Y-53550000D01*
X165550000Y-53550000D02*
X165650000Y-53450000D01*
%TO.N,QSPI_SD3*%
X158650001Y-72600001D02*
X158650001Y-73442894D01*
X157550000Y-71500000D02*
X158650001Y-72600001D01*
%TO.N,GPIO5*%
X155062839Y-69312839D02*
X154850000Y-69100000D01*
X155587161Y-69312839D02*
X155062839Y-69312839D01*
X156275322Y-70001000D02*
X155587161Y-69312839D01*
X156616798Y-70001000D02*
X156275322Y-70001000D01*
X157383197Y-70001000D02*
X157332197Y-70052000D01*
X157332197Y-70052000D02*
X156667799Y-70052000D01*
X157475322Y-70001000D02*
X157383197Y-70001000D01*
X159150000Y-71675678D02*
X157475322Y-70001000D01*
X158400000Y-78400000D02*
X158950000Y-78400000D01*
X158950000Y-78400000D02*
X159150000Y-78200000D01*
X159150000Y-78200000D02*
X159150000Y-71675678D01*
X156667799Y-70052000D02*
X156616798Y-70001000D01*
%TO.N,GPIO3*%
X155600000Y-68800000D02*
X155500000Y-68700000D01*
X155600000Y-68900000D02*
X155600000Y-68800000D01*
X156400000Y-69700000D02*
X155600000Y-68900000D01*
X156792477Y-69751000D02*
X156741477Y-69700000D01*
X157207519Y-69751000D02*
X156792477Y-69751000D01*
X157258519Y-69700000D02*
X157207519Y-69751000D01*
X157600000Y-69700000D02*
X157258519Y-69700000D01*
X160200000Y-72300000D02*
X157600000Y-69700000D01*
X160789000Y-78639000D02*
X160789000Y-76089000D01*
X161700000Y-80044004D02*
X161700000Y-79550000D01*
X160200000Y-75050000D02*
X160200000Y-72300000D01*
X160450000Y-75300000D02*
X160200000Y-75050000D01*
X160789000Y-76089000D02*
X160450000Y-75750000D01*
X161424002Y-80320002D02*
X161700000Y-80044004D01*
X160450000Y-75750000D02*
X160450000Y-75300000D01*
X156741477Y-69700000D02*
X156400000Y-69700000D01*
X160250000Y-80320002D02*
X161424002Y-80320002D01*
X161700000Y-79550000D02*
X160789000Y-78639000D01*
%TO.N,GND*%
X164000000Y-74850000D02*
X164250000Y-75100000D01*
X164000000Y-73750000D02*
X164000000Y-74850000D01*
X153050000Y-73500000D02*
X153050000Y-76810000D01*
X153050000Y-76810000D02*
X151760000Y-78100000D01*
X153548000Y-73200000D02*
X153350000Y-73200000D01*
X153350000Y-73200000D02*
X153050000Y-73500000D01*
X167850000Y-60750000D02*
X167850000Y-58200000D01*
X156850000Y-92050000D02*
X155800000Y-91000000D01*
X155800000Y-91000000D02*
X155800000Y-86900000D01*
X159400000Y-86048322D02*
X159400000Y-95390000D01*
%TO.N,+3V3*%
X159650000Y-75770000D02*
X159700000Y-75720000D01*
X159650000Y-80400000D02*
X159650000Y-75770000D01*
X159400000Y-80650000D02*
X159650000Y-80400000D01*
X158900000Y-80650000D02*
X159400000Y-80650000D01*
X158390000Y-80140000D02*
X158900000Y-80650000D01*
X158390000Y-80105890D02*
X158390000Y-80140000D01*
%TO.N,RUN*%
X168400000Y-74160000D02*
X169540000Y-73020000D01*
X165150000Y-80600000D02*
X168400000Y-77350000D01*
X163731733Y-80600000D02*
X165150000Y-80600000D01*
X163357724Y-80500617D02*
X163632350Y-80500617D01*
X163632350Y-80500617D02*
X163731733Y-80600000D01*
X162965753Y-80108646D02*
X163357724Y-80500617D01*
X168400000Y-77350000D02*
X168400000Y-74160000D01*
%TO.N,+1V1*%
X162829260Y-80679260D02*
X162829260Y-81120740D01*
X163800000Y-78142033D02*
X163241114Y-78700919D01*
X163800000Y-76250000D02*
X163800000Y-78142033D01*
X163241114Y-78700919D02*
X163241114Y-79117406D01*
X163241114Y-79117406D02*
X162358520Y-80000000D01*
X163270000Y-75720000D02*
X163800000Y-76250000D01*
X161206488Y-75720000D02*
X163270000Y-75720000D01*
X162358520Y-80000000D02*
X162150000Y-80000000D01*
X162150000Y-80000000D02*
X162829260Y-80679260D01*
%TO.N,+3V3*%
X165051000Y-82093892D02*
X164403554Y-81446446D01*
X164757521Y-84110000D02*
X165051000Y-83816521D01*
X165051000Y-83816521D02*
X165051000Y-82093892D01*
X164105463Y-84110000D02*
X164757521Y-84110000D01*
X163597964Y-83602501D02*
X164105463Y-84110000D01*
%TO.N,GPIO4*%
X154349000Y-68691002D02*
X154748555Y-68291447D01*
X154349000Y-73149000D02*
X154349000Y-68691002D01*
X154599000Y-73399000D02*
X154349000Y-73149000D01*
X154690479Y-73399000D02*
X154599000Y-73399000D01*
X154725322Y-73401000D02*
X154692479Y-73401000D01*
X154999000Y-73674678D02*
X154725322Y-73401000D01*
X155924678Y-73674678D02*
X154999000Y-73674678D01*
X155999000Y-73749000D02*
X155924678Y-73674678D01*
X154692479Y-73401000D02*
X154690479Y-73399000D01*
X155991479Y-75708521D02*
X155999000Y-75701000D01*
X155900431Y-76141048D02*
X155991479Y-76050000D01*
X155991479Y-76050000D02*
X155991479Y-75708521D01*
X156193910Y-76849569D02*
X155900431Y-76556090D01*
X156195324Y-76849569D02*
X156193910Y-76849569D01*
X155900431Y-76556090D02*
X155900431Y-76141048D01*
X156715001Y-77369246D02*
X156195324Y-76849569D01*
X155999000Y-75701000D02*
X155999000Y-73749000D01*
%TO.N,GPIO0*%
X155150000Y-73150000D02*
X154900000Y-72900000D01*
X156300000Y-73150000D02*
X155150000Y-73150000D01*
X156550000Y-73400000D02*
X156300000Y-73150000D01*
X156300000Y-75350000D02*
X156550000Y-75100000D01*
X156300000Y-76247138D02*
X156300000Y-75350000D01*
X156401431Y-76348569D02*
X156300000Y-76247138D01*
X156550000Y-75100000D02*
X156550000Y-73400000D01*
%TO.N,GND*%
X159850000Y-69950000D02*
X160250000Y-69550000D01*
X158500000Y-69950000D02*
X159850000Y-69950000D01*
X157150000Y-68600000D02*
X158500000Y-69950000D01*
X156200000Y-68600000D02*
X157150000Y-68600000D01*
X167850000Y-63350000D02*
X167850000Y-60750000D01*
X168600000Y-64100000D02*
X167850000Y-63350000D01*
X158933982Y-85582304D02*
X159400000Y-86048322D01*
X159400000Y-95390000D02*
X160650000Y-96640000D01*
%TO.N,+1V1*%
X161249655Y-80920027D02*
X161720682Y-80449000D01*
X162157521Y-80449000D02*
X162829260Y-81120740D01*
X163500000Y-71000000D02*
X163500000Y-73575907D01*
X163031368Y-74044539D02*
X161355907Y-75720000D01*
X162829260Y-81120740D02*
X164550000Y-82841479D01*
X161355907Y-75720000D02*
X161206488Y-75720000D01*
X164550000Y-82841479D02*
X164550000Y-83609000D01*
X163500000Y-73575907D02*
X163031368Y-74044539D01*
X161720682Y-80449000D02*
X162157521Y-80449000D01*
%TO.N,+3V3*%
X163500000Y-69600000D02*
X165950000Y-72050000D01*
X161290000Y-71000000D02*
X161290000Y-74179140D01*
X163500000Y-65750000D02*
X163500000Y-69600000D01*
%TO.N,USB_D+*%
X162984607Y-70015393D02*
X162000000Y-71000000D01*
X163015393Y-70015393D02*
X162984607Y-70015393D01*
%TO.N,GPIO1*%
X157300000Y-59000000D02*
X154800000Y-56500000D01*
X158800000Y-76092386D02*
X158800000Y-75050000D01*
X154706803Y-67199000D02*
X156549000Y-67199000D01*
X153548000Y-68357803D02*
X154706803Y-67199000D01*
X157300000Y-60500000D02*
X157300000Y-59000000D01*
X158463556Y-76428830D02*
X158800000Y-76092386D01*
X153548000Y-70654232D02*
X153548000Y-68357803D01*
X158800000Y-75050000D02*
X155804232Y-72054232D01*
X155804232Y-72054232D02*
X154995768Y-72054232D01*
X156549000Y-67199000D02*
X156900000Y-67550000D01*
%TO.N,GPIO0*%
X158150000Y-60050000D02*
X158150000Y-58350000D01*
X153047000Y-68433125D02*
X155780125Y-65700000D01*
X153450000Y-71350000D02*
X153047000Y-70947000D01*
X158150000Y-58350000D02*
X155300000Y-55500000D01*
X155780125Y-65700000D02*
X158600000Y-65700000D01*
X153047000Y-70947000D02*
X153047000Y-68433125D01*
%TO.N,GPIO2*%
X156800000Y-78700000D02*
X154048000Y-75948000D01*
X158051000Y-77899000D02*
X157250000Y-78700000D01*
X154631481Y-67700000D02*
X156000000Y-67700000D01*
X154048000Y-68283481D02*
X154631481Y-67700000D01*
X157250000Y-78700000D02*
X156800000Y-78700000D01*
X158501000Y-77899000D02*
X158350000Y-77899000D01*
X158350000Y-77899000D02*
X158051000Y-77899000D01*
X158650000Y-77200000D02*
X158650000Y-77800000D01*
X158600000Y-77800000D02*
X158501000Y-77899000D01*
X154048000Y-75948000D02*
X154048000Y-68283481D01*
X158650000Y-77800000D02*
X158600000Y-77800000D01*
%TO.N,GPIO29_ADC3*%
X166451000Y-75549000D02*
X166451000Y-53249000D01*
X165850000Y-76150000D02*
X166451000Y-75549000D01*
X166451000Y-53249000D02*
X169540000Y-50160000D01*
%TO.N,GPIO22*%
X166065651Y-78908440D02*
X166412518Y-78561573D01*
X163742114Y-78908440D02*
X166065651Y-78908440D01*
%TO.N,GPIO28_ADC2*%
X166900000Y-57880000D02*
X169540000Y-55240000D01*
%TO.N,GPIO24*%
X167850000Y-75709878D02*
X167850000Y-69630000D01*
X167850000Y-69630000D02*
X169540000Y-67940000D01*
X165704939Y-77854939D02*
X167850000Y-75709878D01*
%TO.N,SWCLK*%
X161950000Y-80950000D02*
X158110000Y-84790000D01*
X158110000Y-84790000D02*
X158110000Y-96640000D01*
%TO.N,QSPI_SS*%
X161100000Y-66200000D02*
X159750000Y-66200000D01*
X164440893Y-62859107D02*
X161100000Y-66200000D01*
%TO.N,GND*%
X155500000Y-78200000D02*
X154100000Y-79600000D01*
X154100000Y-79600000D02*
X153300000Y-79600000D01*
%TO.N,GPIO28_ADC2*%
X166603876Y-76103232D02*
X166900000Y-75807108D01*
X166900000Y-75807108D02*
X166900000Y-57880000D01*
%TD*%
%TA.AperFunction,Conductor*%
%TO.N,GND*%
G36*
X150855703Y-71025426D02*
G01*
X150877600Y-71050246D01*
X150888054Y-71065891D01*
X150944024Y-71149657D01*
X151090342Y-71295975D01*
X151090345Y-71295977D01*
X151262402Y-71410941D01*
X151453580Y-71490130D01*
X151624697Y-71524167D01*
X151656530Y-71530499D01*
X151656534Y-71530500D01*
X151656535Y-71530500D01*
X151863466Y-71530500D01*
X151863467Y-71530499D01*
X152066420Y-71490130D01*
X152257598Y-71410941D01*
X152429655Y-71295977D01*
X152575977Y-71149655D01*
X152594499Y-71121934D01*
X152648107Y-71077130D01*
X152717432Y-71068420D01*
X152780460Y-71098573D01*
X152787621Y-71105545D01*
X152797677Y-71116160D01*
X152803816Y-71126793D01*
X152806540Y-71131511D01*
X152914386Y-71239357D01*
X152915520Y-71240554D01*
X152930692Y-71270220D01*
X152946666Y-71299474D01*
X152946935Y-71301980D01*
X152947334Y-71302760D01*
X152947183Y-71304285D01*
X152949500Y-71325833D01*
X152949500Y-71415892D01*
X152954541Y-71434705D01*
X152983608Y-71543187D01*
X152996717Y-71565892D01*
X153049500Y-71657314D01*
X153142686Y-71750500D01*
X153256814Y-71816392D01*
X153384108Y-71850500D01*
X153384110Y-71850500D01*
X153515889Y-71850500D01*
X153515892Y-71850500D01*
X153591410Y-71830265D01*
X153661256Y-71831928D01*
X153719118Y-71871090D01*
X153746623Y-71935318D01*
X153747500Y-71950040D01*
X153747500Y-75987562D01*
X153750786Y-75999824D01*
X153767979Y-76063990D01*
X153767980Y-76063991D01*
X153801192Y-76121516D01*
X153807540Y-76132511D01*
X156615489Y-78940460D01*
X156674829Y-78974720D01*
X156684008Y-78980020D01*
X156684012Y-78980022D01*
X156760438Y-79000500D01*
X156760440Y-79000500D01*
X157289560Y-79000500D01*
X157289562Y-79000500D01*
X157365989Y-78980021D01*
X157434511Y-78940460D01*
X157490460Y-78884511D01*
X157763768Y-78611201D01*
X157825091Y-78577717D01*
X157894782Y-78582701D01*
X157950716Y-78624572D01*
X157958835Y-78636881D01*
X157999500Y-78707314D01*
X158092686Y-78800500D01*
X158206814Y-78866392D01*
X158334108Y-78900500D01*
X158334110Y-78900500D01*
X158465890Y-78900500D01*
X158465892Y-78900500D01*
X158593186Y-78866392D01*
X158707314Y-78800500D01*
X158770995Y-78736819D01*
X158832318Y-78703334D01*
X158858676Y-78700500D01*
X158989560Y-78700500D01*
X158989562Y-78700500D01*
X159065989Y-78680021D01*
X159134511Y-78640460D01*
X159137819Y-78637152D01*
X159199142Y-78603667D01*
X159268834Y-78608651D01*
X159324767Y-78650523D01*
X159349184Y-78715987D01*
X159349500Y-78724833D01*
X159349500Y-80224167D01*
X159340855Y-80253607D01*
X159334332Y-80283594D01*
X159330577Y-80288609D01*
X159329815Y-80291206D01*
X159313181Y-80311848D01*
X159311848Y-80313181D01*
X159250525Y-80346666D01*
X159224167Y-80349500D01*
X159075833Y-80349500D01*
X159008794Y-80329815D01*
X158988152Y-80313181D01*
X158926819Y-80251848D01*
X158893334Y-80190525D01*
X158890500Y-80164167D01*
X158890500Y-80040000D01*
X158890500Y-80039998D01*
X158856392Y-79912704D01*
X158790500Y-79798576D01*
X158697314Y-79705390D01*
X158630691Y-79666925D01*
X158583187Y-79639498D01*
X158506107Y-79618845D01*
X158455892Y-79605390D01*
X158324108Y-79605390D01*
X158196812Y-79639498D01*
X158082686Y-79705390D01*
X158082683Y-79705392D01*
X157989502Y-79798573D01*
X157989500Y-79798576D01*
X157923608Y-79912702D01*
X157908163Y-79970345D01*
X157889500Y-80039998D01*
X157889500Y-80171782D01*
X157891818Y-80180432D01*
X157923608Y-80299077D01*
X157941355Y-80329815D01*
X157989500Y-80413204D01*
X158082686Y-80506390D01*
X158196814Y-80572282D01*
X158324108Y-80606390D01*
X158380057Y-80606390D01*
X158447096Y-80626075D01*
X158467738Y-80642709D01*
X158659540Y-80834511D01*
X158715489Y-80890460D01*
X158715491Y-80890461D01*
X158715495Y-80890464D01*
X158766974Y-80920185D01*
X158784011Y-80930021D01*
X158860438Y-80950500D01*
X158860440Y-80950500D01*
X159439560Y-80950500D01*
X159439562Y-80950500D01*
X159515989Y-80930021D01*
X159584511Y-80890460D01*
X159640460Y-80834511D01*
X159760898Y-80714072D01*
X159822218Y-80680589D01*
X159891910Y-80685573D01*
X159936258Y-80714074D01*
X159942686Y-80720502D01*
X160041521Y-80777565D01*
X160053552Y-80784511D01*
X160056814Y-80786394D01*
X160184108Y-80820502D01*
X160184110Y-80820502D01*
X160315890Y-80820502D01*
X160315892Y-80820502D01*
X160443186Y-80786394D01*
X160557314Y-80720502D01*
X160557315Y-80720500D01*
X160564352Y-80716438D01*
X160565569Y-80718546D01*
X160619229Y-80697793D01*
X160687676Y-80711823D01*
X160737672Y-80760631D01*
X160753344Y-80828720D01*
X160749339Y-80853448D01*
X160749155Y-80854132D01*
X160749155Y-80985918D01*
X160783263Y-81113214D01*
X160798227Y-81139132D01*
X160849155Y-81227341D01*
X160942341Y-81320527D01*
X160942344Y-81320529D01*
X160948790Y-81325475D01*
X160946928Y-81327901D01*
X160985118Y-81367964D01*
X160998332Y-81436573D01*
X160972355Y-81501435D01*
X160962576Y-81512451D01*
X157925489Y-84549540D01*
X157869541Y-84605487D01*
X157869535Y-84605495D01*
X157829982Y-84674004D01*
X157829979Y-84674009D01*
X157809500Y-84750439D01*
X157809500Y-95465500D01*
X157789815Y-95532539D01*
X157737011Y-95578294D01*
X157685500Y-95589500D01*
X157240247Y-95589500D01*
X157181770Y-95601131D01*
X157181769Y-95601132D01*
X157115447Y-95645447D01*
X157071132Y-95711769D01*
X157071131Y-95711770D01*
X157059500Y-95770247D01*
X157059500Y-97509752D01*
X157071131Y-97568228D01*
X157075198Y-97578045D01*
X157082668Y-97647514D01*
X157051395Y-97709994D01*
X156991306Y-97745648D01*
X156960638Y-97749500D01*
X150774500Y-97749500D01*
X150707461Y-97729815D01*
X150661706Y-97677011D01*
X150650500Y-97625500D01*
X150650500Y-96519139D01*
X150670185Y-96452100D01*
X150722989Y-96406345D01*
X150792147Y-96396401D01*
X150855703Y-96425426D01*
X150877600Y-96450246D01*
X150901713Y-96486333D01*
X150944024Y-96549657D01*
X151090342Y-96695975D01*
X151090345Y-96695977D01*
X151262402Y-96810941D01*
X151453580Y-96890130D01*
X151656530Y-96930499D01*
X151656534Y-96930500D01*
X151656535Y-96930500D01*
X151863466Y-96930500D01*
X151863467Y-96930499D01*
X152066420Y-96890130D01*
X152257598Y-96810941D01*
X152429655Y-96695977D01*
X152575977Y-96549655D01*
X152690941Y-96377598D01*
X152770130Y-96186420D01*
X152810500Y-95983465D01*
X152810500Y-95776535D01*
X152770130Y-95573580D01*
X152690941Y-95382402D01*
X152575977Y-95210345D01*
X152575976Y-95210344D01*
X152575975Y-95210342D01*
X152429657Y-95064024D01*
X152343626Y-95006541D01*
X152257598Y-94949059D01*
X152066420Y-94869870D01*
X152066412Y-94869868D01*
X151863469Y-94829500D01*
X151863465Y-94829500D01*
X151656535Y-94829500D01*
X151656530Y-94829500D01*
X151453587Y-94869868D01*
X151453579Y-94869870D01*
X151262403Y-94949058D01*
X151090342Y-95064024D01*
X150944022Y-95210344D01*
X150877602Y-95309751D01*
X150823990Y-95354556D01*
X150754665Y-95363263D01*
X150691638Y-95333109D01*
X150654918Y-95273666D01*
X150650500Y-95240860D01*
X150650500Y-93979139D01*
X150670185Y-93912100D01*
X150722989Y-93866345D01*
X150792147Y-93856401D01*
X150855703Y-93885426D01*
X150877600Y-93910246D01*
X150901713Y-93946333D01*
X150944024Y-94009657D01*
X151090342Y-94155975D01*
X151090345Y-94155977D01*
X151262402Y-94270941D01*
X151453580Y-94350130D01*
X151656530Y-94390499D01*
X151656534Y-94390500D01*
X151656535Y-94390500D01*
X151863466Y-94390500D01*
X151863467Y-94390499D01*
X152066420Y-94350130D01*
X152257598Y-94270941D01*
X152429655Y-94155977D01*
X152575977Y-94009655D01*
X152690941Y-93837598D01*
X152770130Y-93646420D01*
X152810500Y-93443465D01*
X152810500Y-93236535D01*
X152770130Y-93033580D01*
X152690941Y-92842402D01*
X152575977Y-92670345D01*
X152575976Y-92670344D01*
X152575975Y-92670342D01*
X152429657Y-92524024D01*
X152343626Y-92466541D01*
X152257598Y-92409059D01*
X152066420Y-92329870D01*
X152066412Y-92329868D01*
X151863469Y-92289500D01*
X151863465Y-92289500D01*
X151656535Y-92289500D01*
X151656530Y-92289500D01*
X151453587Y-92329868D01*
X151453579Y-92329870D01*
X151262403Y-92409058D01*
X151090342Y-92524024D01*
X150944022Y-92670344D01*
X150877602Y-92769751D01*
X150823990Y-92814556D01*
X150754665Y-92823263D01*
X150691638Y-92793109D01*
X150654918Y-92733666D01*
X150650500Y-92700860D01*
X150650500Y-91438239D01*
X150670185Y-91371200D01*
X150722989Y-91325445D01*
X150792147Y-91315501D01*
X150855653Y-91344503D01*
X150861378Y-91345067D01*
X151277037Y-90929408D01*
X151294075Y-90992993D01*
X151359901Y-91107007D01*
X151452993Y-91200099D01*
X151567007Y-91265925D01*
X151630590Y-91282962D01*
X151214931Y-91698620D01*
X151214932Y-91698621D01*
X151262633Y-91730495D01*
X151262639Y-91730498D01*
X151453725Y-91809649D01*
X151453733Y-91809651D01*
X151656579Y-91849999D01*
X151656583Y-91850000D01*
X151863417Y-91850000D01*
X151863420Y-91849999D01*
X152066266Y-91809651D01*
X152066274Y-91809649D01*
X152257366Y-91730495D01*
X152305066Y-91698621D01*
X152305067Y-91698620D01*
X151889409Y-91282962D01*
X151952993Y-91265925D01*
X152067007Y-91200099D01*
X152160099Y-91107007D01*
X152225925Y-90992993D01*
X152242962Y-90929409D01*
X152658620Y-91345067D01*
X152658621Y-91345066D01*
X152690495Y-91297366D01*
X152769649Y-91106274D01*
X152769651Y-91106266D01*
X152809999Y-90903420D01*
X152810000Y-90903417D01*
X152810000Y-90696583D01*
X152809999Y-90696579D01*
X152769651Y-90493733D01*
X152769649Y-90493725D01*
X152690498Y-90302639D01*
X152690495Y-90302633D01*
X152658621Y-90254932D01*
X152658620Y-90254931D01*
X152242962Y-90670590D01*
X152225925Y-90607007D01*
X152160099Y-90492993D01*
X152067007Y-90399901D01*
X151952993Y-90334075D01*
X151889409Y-90317037D01*
X152305067Y-89901378D01*
X152305067Y-89901377D01*
X152257359Y-89869500D01*
X152066274Y-89790350D01*
X152066266Y-89790348D01*
X151863420Y-89750000D01*
X151656579Y-89750000D01*
X151453733Y-89790348D01*
X151453725Y-89790350D01*
X151262641Y-89869500D01*
X151262631Y-89869505D01*
X151214932Y-89901377D01*
X151214932Y-89901378D01*
X151630591Y-90317037D01*
X151567007Y-90334075D01*
X151452993Y-90399901D01*
X151359901Y-90492993D01*
X151294075Y-90607007D01*
X151277037Y-90670591D01*
X150861378Y-90254932D01*
X150847022Y-90256346D01*
X150826011Y-90274553D01*
X150824872Y-90274716D01*
X150823989Y-90275455D01*
X150790384Y-90279675D01*
X150756853Y-90284497D01*
X150755805Y-90284018D01*
X150754664Y-90284162D01*
X150724120Y-90269548D01*
X150693297Y-90255472D01*
X150692674Y-90254503D01*
X150691637Y-90254007D01*
X150673839Y-90225194D01*
X150655523Y-90196694D01*
X150655307Y-90195194D01*
X150654918Y-90194564D01*
X150650500Y-90161759D01*
X150650500Y-88899139D01*
X150670185Y-88832100D01*
X150722989Y-88786345D01*
X150792147Y-88776401D01*
X150855703Y-88805426D01*
X150877600Y-88830246D01*
X150901713Y-88866333D01*
X150944024Y-88929657D01*
X151090342Y-89075975D01*
X151090345Y-89075977D01*
X151262402Y-89190941D01*
X151453580Y-89270130D01*
X151656530Y-89310499D01*
X151656534Y-89310500D01*
X151656535Y-89310500D01*
X151863466Y-89310500D01*
X151863467Y-89310499D01*
X152066420Y-89270130D01*
X152257598Y-89190941D01*
X152429655Y-89075977D01*
X152575977Y-88929655D01*
X152690941Y-88757598D01*
X152770130Y-88566420D01*
X152810500Y-88363465D01*
X152810500Y-88156535D01*
X152770130Y-87953580D01*
X152690941Y-87762402D01*
X152575977Y-87590345D01*
X152575976Y-87590344D01*
X152575975Y-87590342D01*
X152429657Y-87444024D01*
X152343626Y-87386541D01*
X152257598Y-87329059D01*
X152066420Y-87249870D01*
X152066412Y-87249868D01*
X151863469Y-87209500D01*
X151863465Y-87209500D01*
X151656535Y-87209500D01*
X151656530Y-87209500D01*
X151453587Y-87249868D01*
X151453579Y-87249870D01*
X151262403Y-87329058D01*
X151090342Y-87444024D01*
X150944022Y-87590344D01*
X150877602Y-87689751D01*
X150823990Y-87734556D01*
X150754665Y-87743263D01*
X150691638Y-87713109D01*
X150654918Y-87653666D01*
X150650500Y-87620860D01*
X150650500Y-86359139D01*
X150670185Y-86292100D01*
X150722989Y-86246345D01*
X150792147Y-86236401D01*
X150855703Y-86265426D01*
X150877600Y-86290246D01*
X150901713Y-86326333D01*
X150944024Y-86389657D01*
X151090342Y-86535975D01*
X151090345Y-86535977D01*
X151262402Y-86650941D01*
X151453580Y-86730130D01*
X151656530Y-86770499D01*
X151656534Y-86770500D01*
X151656535Y-86770500D01*
X151863466Y-86770500D01*
X151863467Y-86770499D01*
X152066420Y-86730130D01*
X152257598Y-86650941D01*
X152429655Y-86535977D01*
X152575977Y-86389655D01*
X152690941Y-86217598D01*
X152770130Y-86026420D01*
X152810500Y-85823465D01*
X152810500Y-85616535D01*
X152770130Y-85413580D01*
X152690941Y-85222402D01*
X152575977Y-85050345D01*
X152575976Y-85050344D01*
X152575975Y-85050342D01*
X152429657Y-84904024D01*
X152343626Y-84846541D01*
X152257598Y-84789059D01*
X152066420Y-84709870D01*
X152066412Y-84709868D01*
X151863469Y-84669500D01*
X151863465Y-84669500D01*
X151656535Y-84669500D01*
X151656530Y-84669500D01*
X151453587Y-84709868D01*
X151453579Y-84709870D01*
X151262403Y-84789058D01*
X151090342Y-84904024D01*
X150944022Y-85050344D01*
X150877602Y-85149751D01*
X150823990Y-85194556D01*
X150754665Y-85203263D01*
X150691638Y-85173109D01*
X150654918Y-85113666D01*
X150650500Y-85080860D01*
X150650500Y-83819139D01*
X150670185Y-83752100D01*
X150722989Y-83706345D01*
X150792147Y-83696401D01*
X150855703Y-83725426D01*
X150877600Y-83750246D01*
X150901713Y-83786333D01*
X150944024Y-83849657D01*
X151090342Y-83995975D01*
X151090345Y-83995977D01*
X151262402Y-84110941D01*
X151453580Y-84190130D01*
X151656530Y-84230499D01*
X151656534Y-84230500D01*
X151656535Y-84230500D01*
X151863466Y-84230500D01*
X151863467Y-84230499D01*
X152066420Y-84190130D01*
X152257598Y-84110941D01*
X152429655Y-83995977D01*
X152575977Y-83849655D01*
X152690941Y-83677598D01*
X152770130Y-83486420D01*
X152810500Y-83283465D01*
X152810500Y-83076535D01*
X152770130Y-82873580D01*
X152690941Y-82682402D01*
X152575977Y-82510345D01*
X152575976Y-82510344D01*
X152575975Y-82510342D01*
X152429657Y-82364024D01*
X152343626Y-82306541D01*
X152257598Y-82249059D01*
X152066420Y-82169870D01*
X152066412Y-82169868D01*
X151863469Y-82129500D01*
X151863465Y-82129500D01*
X151656535Y-82129500D01*
X151656530Y-82129500D01*
X151453587Y-82169868D01*
X151453579Y-82169870D01*
X151262403Y-82249058D01*
X151090342Y-82364024D01*
X150944022Y-82510344D01*
X150877602Y-82609751D01*
X150823990Y-82654556D01*
X150754665Y-82663263D01*
X150691638Y-82633109D01*
X150654918Y-82573666D01*
X150650500Y-82540860D01*
X150650500Y-81279139D01*
X150670185Y-81212100D01*
X150722989Y-81166345D01*
X150792147Y-81156401D01*
X150855703Y-81185426D01*
X150877600Y-81210246D01*
X150901713Y-81246333D01*
X150944024Y-81309657D01*
X151090342Y-81455975D01*
X151090345Y-81455977D01*
X151262402Y-81570941D01*
X151453580Y-81650130D01*
X151656530Y-81690499D01*
X151656534Y-81690500D01*
X151656535Y-81690500D01*
X151863466Y-81690500D01*
X151863467Y-81690499D01*
X152066420Y-81650130D01*
X152257598Y-81570941D01*
X152429655Y-81455977D01*
X152575977Y-81309655D01*
X152690941Y-81137598D01*
X152770130Y-80946420D01*
X152810500Y-80743465D01*
X152810500Y-80536535D01*
X152770130Y-80333580D01*
X152690941Y-80142402D01*
X152575977Y-79970345D01*
X152575976Y-79970344D01*
X152575975Y-79970342D01*
X152429657Y-79824024D01*
X152273941Y-79719979D01*
X152257598Y-79709059D01*
X152248745Y-79705392D01*
X152066420Y-79629870D01*
X152066412Y-79629868D01*
X151863469Y-79589500D01*
X151863465Y-79589500D01*
X151656535Y-79589500D01*
X151656530Y-79589500D01*
X151453587Y-79629868D01*
X151453579Y-79629870D01*
X151262403Y-79709058D01*
X151090342Y-79824024D01*
X150944022Y-79970344D01*
X150877602Y-80069751D01*
X150823990Y-80114556D01*
X150754665Y-80123263D01*
X150691638Y-80093109D01*
X150654918Y-80033666D01*
X150650500Y-80000860D01*
X150650500Y-78738239D01*
X150670185Y-78671200D01*
X150722989Y-78625445D01*
X150792147Y-78615501D01*
X150855653Y-78644503D01*
X150861378Y-78645067D01*
X151277037Y-78229408D01*
X151294075Y-78292993D01*
X151359901Y-78407007D01*
X151452993Y-78500099D01*
X151567007Y-78565925D01*
X151630590Y-78582962D01*
X151214931Y-78998620D01*
X151214932Y-78998621D01*
X151262633Y-79030495D01*
X151262639Y-79030498D01*
X151453725Y-79109649D01*
X151453733Y-79109651D01*
X151656579Y-79149999D01*
X151656583Y-79150000D01*
X151863417Y-79150000D01*
X151863420Y-79149999D01*
X152066266Y-79109651D01*
X152066274Y-79109649D01*
X152257366Y-79030495D01*
X152305066Y-78998621D01*
X152305067Y-78998620D01*
X151889409Y-78582962D01*
X151952993Y-78565925D01*
X152067007Y-78500099D01*
X152160099Y-78407007D01*
X152225925Y-78292993D01*
X152242962Y-78229409D01*
X152658620Y-78645067D01*
X152658621Y-78645066D01*
X152690495Y-78597366D01*
X152769649Y-78406274D01*
X152769651Y-78406266D01*
X152809999Y-78203420D01*
X152810000Y-78203417D01*
X152810000Y-77996583D01*
X152809999Y-77996579D01*
X152769651Y-77793733D01*
X152769649Y-77793725D01*
X152690498Y-77602639D01*
X152690495Y-77602633D01*
X152658621Y-77554932D01*
X152658620Y-77554931D01*
X152242962Y-77970590D01*
X152225925Y-77907007D01*
X152160099Y-77792993D01*
X152067007Y-77699901D01*
X151952993Y-77634075D01*
X151889409Y-77617037D01*
X152305067Y-77201378D01*
X152305067Y-77201377D01*
X152257359Y-77169500D01*
X152066274Y-77090350D01*
X152066266Y-77090348D01*
X151863420Y-77050000D01*
X151656579Y-77050000D01*
X151453733Y-77090348D01*
X151453725Y-77090350D01*
X151262641Y-77169500D01*
X151262631Y-77169505D01*
X151214932Y-77201377D01*
X151214932Y-77201378D01*
X151630591Y-77617037D01*
X151567007Y-77634075D01*
X151452993Y-77699901D01*
X151359901Y-77792993D01*
X151294075Y-77907007D01*
X151277037Y-77970591D01*
X150861378Y-77554932D01*
X150847022Y-77556346D01*
X150826011Y-77574553D01*
X150824872Y-77574716D01*
X150823989Y-77575455D01*
X150790384Y-77579675D01*
X150756853Y-77584497D01*
X150755805Y-77584018D01*
X150754664Y-77584162D01*
X150724120Y-77569548D01*
X150693297Y-77555472D01*
X150692674Y-77554503D01*
X150691637Y-77554007D01*
X150673839Y-77525194D01*
X150655523Y-77496694D01*
X150655307Y-77495194D01*
X150654918Y-77494564D01*
X150650500Y-77461759D01*
X150650500Y-76199139D01*
X150670185Y-76132100D01*
X150722989Y-76086345D01*
X150792147Y-76076401D01*
X150855703Y-76105426D01*
X150877600Y-76130246D01*
X150901713Y-76166333D01*
X150944024Y-76229657D01*
X151090342Y-76375975D01*
X151090345Y-76375977D01*
X151262402Y-76490941D01*
X151453580Y-76570130D01*
X151656530Y-76610499D01*
X151656534Y-76610500D01*
X151656535Y-76610500D01*
X151863466Y-76610500D01*
X151863467Y-76610499D01*
X152066420Y-76570130D01*
X152257598Y-76490941D01*
X152429655Y-76375977D01*
X152575977Y-76229655D01*
X152690941Y-76057598D01*
X152770130Y-75866420D01*
X152810500Y-75663465D01*
X152810500Y-75456535D01*
X152770130Y-75253580D01*
X152690941Y-75062402D01*
X152575977Y-74890345D01*
X152575976Y-74890344D01*
X152575975Y-74890342D01*
X152429657Y-74744024D01*
X152325649Y-74674529D01*
X152257598Y-74629059D01*
X152138283Y-74579637D01*
X152066420Y-74549870D01*
X152066412Y-74549868D01*
X151863469Y-74509500D01*
X151863465Y-74509500D01*
X151656535Y-74509500D01*
X151656530Y-74509500D01*
X151453587Y-74549868D01*
X151453579Y-74549870D01*
X151262403Y-74629058D01*
X151090342Y-74744024D01*
X150944022Y-74890344D01*
X150877602Y-74989751D01*
X150823990Y-75034556D01*
X150754665Y-75043263D01*
X150691638Y-75013109D01*
X150654918Y-74953666D01*
X150650500Y-74920860D01*
X150650500Y-73659139D01*
X150670185Y-73592100D01*
X150722989Y-73546345D01*
X150792147Y-73536401D01*
X150855703Y-73565426D01*
X150877600Y-73590246D01*
X150894453Y-73615467D01*
X150944024Y-73689657D01*
X151090342Y-73835975D01*
X151090345Y-73835977D01*
X151262402Y-73950941D01*
X151453580Y-74030130D01*
X151635752Y-74066366D01*
X151656530Y-74070499D01*
X151656534Y-74070500D01*
X151656535Y-74070500D01*
X151863466Y-74070500D01*
X151863467Y-74070499D01*
X152066420Y-74030130D01*
X152257598Y-73950941D01*
X152429655Y-73835977D01*
X152575977Y-73689655D01*
X152690941Y-73517598D01*
X152770130Y-73326420D01*
X152810500Y-73123465D01*
X152810500Y-72916535D01*
X152770130Y-72713580D01*
X152690941Y-72522402D01*
X152575977Y-72350345D01*
X152575976Y-72350344D01*
X152575975Y-72350342D01*
X152429657Y-72204024D01*
X152337139Y-72142206D01*
X152257598Y-72089059D01*
X152186333Y-72059540D01*
X152066420Y-72009870D01*
X152066412Y-72009868D01*
X151863469Y-71969500D01*
X151863465Y-71969500D01*
X151656535Y-71969500D01*
X151656530Y-71969500D01*
X151453587Y-72009868D01*
X151453579Y-72009870D01*
X151262403Y-72089058D01*
X151090342Y-72204024D01*
X150944022Y-72350344D01*
X150877602Y-72449751D01*
X150823990Y-72494556D01*
X150754665Y-72503263D01*
X150691638Y-72473109D01*
X150654918Y-72413666D01*
X150650500Y-72380860D01*
X150650500Y-71119139D01*
X150670185Y-71052100D01*
X150722989Y-71006345D01*
X150792147Y-70996401D01*
X150855703Y-71025426D01*
G37*
%TD.AperFunction*%
%TA.AperFunction,Conductor*%
G36*
X168410006Y-77867478D02*
G01*
X168465939Y-77909350D01*
X168490356Y-77974814D01*
X168490076Y-77995798D01*
X168490000Y-77996570D01*
X168490000Y-78203420D01*
X168530348Y-78406266D01*
X168530350Y-78406274D01*
X168609500Y-78597359D01*
X168641377Y-78645067D01*
X169057037Y-78229408D01*
X169074075Y-78292993D01*
X169139901Y-78407007D01*
X169232993Y-78500099D01*
X169347007Y-78565925D01*
X169410590Y-78582962D01*
X168994931Y-78998620D01*
X168994932Y-78998621D01*
X169042633Y-79030495D01*
X169042639Y-79030498D01*
X169233725Y-79109649D01*
X169233733Y-79109651D01*
X169436579Y-79149999D01*
X169436583Y-79150000D01*
X169643417Y-79150000D01*
X169643420Y-79149999D01*
X169846266Y-79109651D01*
X169846274Y-79109649D01*
X170037366Y-79030495D01*
X170085066Y-78998621D01*
X170085067Y-78998620D01*
X169669409Y-78582962D01*
X169732993Y-78565925D01*
X169847007Y-78500099D01*
X169940099Y-78407007D01*
X170005925Y-78292993D01*
X170022962Y-78229408D01*
X170438620Y-78645067D01*
X170453162Y-78643634D01*
X170476013Y-78624539D01*
X170545338Y-78615833D01*
X170608365Y-78645990D01*
X170645083Y-78705434D01*
X170649500Y-78738236D01*
X170649500Y-80000860D01*
X170629815Y-80067899D01*
X170577011Y-80113654D01*
X170507853Y-80123598D01*
X170444297Y-80094573D01*
X170422398Y-80069751D01*
X170355977Y-79970344D01*
X170209657Y-79824024D01*
X170053941Y-79719979D01*
X170037598Y-79709059D01*
X170028745Y-79705392D01*
X169846420Y-79629870D01*
X169846412Y-79629868D01*
X169643469Y-79589500D01*
X169643465Y-79589500D01*
X169436535Y-79589500D01*
X169436530Y-79589500D01*
X169233587Y-79629868D01*
X169233579Y-79629870D01*
X169042403Y-79709058D01*
X168870342Y-79824024D01*
X168724024Y-79970342D01*
X168609058Y-80142403D01*
X168529870Y-80333579D01*
X168529868Y-80333587D01*
X168489500Y-80536530D01*
X168489500Y-80743469D01*
X168529868Y-80946412D01*
X168529870Y-80946420D01*
X168595847Y-81105703D01*
X168609059Y-81137598D01*
X168641995Y-81186890D01*
X168724024Y-81309657D01*
X168870342Y-81455975D01*
X168870345Y-81455977D01*
X169042402Y-81570941D01*
X169233580Y-81650130D01*
X169436530Y-81690499D01*
X169436534Y-81690500D01*
X169436535Y-81690500D01*
X169643466Y-81690500D01*
X169643467Y-81690499D01*
X169846420Y-81650130D01*
X170037598Y-81570941D01*
X170209655Y-81455977D01*
X170355977Y-81309655D01*
X170422398Y-81210248D01*
X170476009Y-81165443D01*
X170545334Y-81156736D01*
X170608362Y-81186890D01*
X170645082Y-81246333D01*
X170649500Y-81279139D01*
X170649500Y-82540860D01*
X170629815Y-82607899D01*
X170577011Y-82653654D01*
X170507853Y-82663598D01*
X170444297Y-82634573D01*
X170422398Y-82609751D01*
X170355977Y-82510344D01*
X170209657Y-82364024D01*
X170123626Y-82306541D01*
X170037598Y-82249059D01*
X169846420Y-82169870D01*
X169846412Y-82169868D01*
X169643469Y-82129500D01*
X169643465Y-82129500D01*
X169436535Y-82129500D01*
X169436530Y-82129500D01*
X169233587Y-82169868D01*
X169233579Y-82169870D01*
X169042403Y-82249058D01*
X168870342Y-82364024D01*
X168724024Y-82510342D01*
X168609058Y-82682403D01*
X168529870Y-82873579D01*
X168529868Y-82873587D01*
X168489500Y-83076530D01*
X168489500Y-83283469D01*
X168522325Y-83448489D01*
X168529870Y-83486420D01*
X168609059Y-83677598D01*
X168641995Y-83726890D01*
X168724024Y-83849657D01*
X168870342Y-83995975D01*
X168870345Y-83995977D01*
X169042402Y-84110941D01*
X169233580Y-84190130D01*
X169436530Y-84230499D01*
X169436534Y-84230500D01*
X169436535Y-84230500D01*
X169643466Y-84230500D01*
X169643467Y-84230499D01*
X169846420Y-84190130D01*
X170037598Y-84110941D01*
X170209655Y-83995977D01*
X170355977Y-83849655D01*
X170422398Y-83750248D01*
X170476009Y-83705443D01*
X170545334Y-83696736D01*
X170608362Y-83726890D01*
X170645082Y-83786333D01*
X170649500Y-83819139D01*
X170649500Y-85080860D01*
X170629815Y-85147899D01*
X170577011Y-85193654D01*
X170507853Y-85203598D01*
X170444297Y-85174573D01*
X170422398Y-85149751D01*
X170355977Y-85050344D01*
X170209657Y-84904024D01*
X170123626Y-84846541D01*
X170037598Y-84789059D01*
X169846420Y-84709870D01*
X169846412Y-84709868D01*
X169643469Y-84669500D01*
X169643465Y-84669500D01*
X169436535Y-84669500D01*
X169436530Y-84669500D01*
X169233587Y-84709868D01*
X169233579Y-84709870D01*
X169042403Y-84789058D01*
X168870342Y-84904024D01*
X168724024Y-85050342D01*
X168609058Y-85222403D01*
X168529870Y-85413579D01*
X168529868Y-85413587D01*
X168489500Y-85616530D01*
X168489500Y-85823469D01*
X168529868Y-86026412D01*
X168529870Y-86026420D01*
X168609059Y-86217598D01*
X168641995Y-86266890D01*
X168724024Y-86389657D01*
X168870342Y-86535975D01*
X168870345Y-86535977D01*
X169042402Y-86650941D01*
X169233580Y-86730130D01*
X169436530Y-86770499D01*
X169436534Y-86770500D01*
X169436535Y-86770500D01*
X169643466Y-86770500D01*
X169643467Y-86770499D01*
X169846420Y-86730130D01*
X170037598Y-86650941D01*
X170209655Y-86535977D01*
X170355977Y-86389655D01*
X170422398Y-86290248D01*
X170476009Y-86245443D01*
X170545334Y-86236736D01*
X170608362Y-86266890D01*
X170645082Y-86326333D01*
X170649500Y-86359139D01*
X170649500Y-87620860D01*
X170629815Y-87687899D01*
X170577011Y-87733654D01*
X170507853Y-87743598D01*
X170444297Y-87714573D01*
X170422398Y-87689751D01*
X170355977Y-87590344D01*
X170209657Y-87444024D01*
X170123626Y-87386541D01*
X170037598Y-87329059D01*
X169846420Y-87249870D01*
X169846412Y-87249868D01*
X169643469Y-87209500D01*
X169643465Y-87209500D01*
X169436535Y-87209500D01*
X169436530Y-87209500D01*
X169233587Y-87249868D01*
X169233579Y-87249870D01*
X169042403Y-87329058D01*
X168870342Y-87444024D01*
X168724024Y-87590342D01*
X168609058Y-87762403D01*
X168529870Y-87953579D01*
X168529868Y-87953587D01*
X168489500Y-88156530D01*
X168489500Y-88363469D01*
X168529868Y-88566412D01*
X168529870Y-88566420D01*
X168609059Y-88757598D01*
X168641995Y-88806890D01*
X168724024Y-88929657D01*
X168870342Y-89075975D01*
X168870345Y-89075977D01*
X169042402Y-89190941D01*
X169233580Y-89270130D01*
X169436530Y-89310499D01*
X169436534Y-89310500D01*
X169436535Y-89310500D01*
X169643466Y-89310500D01*
X169643467Y-89310499D01*
X169846420Y-89270130D01*
X170037598Y-89190941D01*
X170209655Y-89075977D01*
X170355977Y-88929655D01*
X170422398Y-88830248D01*
X170476009Y-88785443D01*
X170545334Y-88776736D01*
X170608362Y-88806890D01*
X170645082Y-88866333D01*
X170649500Y-88899139D01*
X170649500Y-90161762D01*
X170629815Y-90228801D01*
X170577011Y-90274556D01*
X170507853Y-90284500D01*
X170444341Y-90255495D01*
X170438620Y-90254931D01*
X170022962Y-90670590D01*
X170005925Y-90607007D01*
X169940099Y-90492993D01*
X169847007Y-90399901D01*
X169732993Y-90334075D01*
X169669409Y-90317037D01*
X170085067Y-89901378D01*
X170085067Y-89901377D01*
X170037359Y-89869500D01*
X169846274Y-89790350D01*
X169846266Y-89790348D01*
X169643420Y-89750000D01*
X169436579Y-89750000D01*
X169233733Y-89790348D01*
X169233725Y-89790350D01*
X169042641Y-89869500D01*
X169042631Y-89869505D01*
X168994932Y-89901377D01*
X168994932Y-89901378D01*
X169410591Y-90317037D01*
X169347007Y-90334075D01*
X169232993Y-90399901D01*
X169139901Y-90492993D01*
X169074075Y-90607007D01*
X169057037Y-90670591D01*
X168641378Y-90254932D01*
X168641377Y-90254932D01*
X168609505Y-90302631D01*
X168609500Y-90302641D01*
X168530350Y-90493725D01*
X168530348Y-90493733D01*
X168490000Y-90696579D01*
X168490000Y-90903420D01*
X168530348Y-91106266D01*
X168530350Y-91106274D01*
X168609500Y-91297359D01*
X168641377Y-91345067D01*
X168641378Y-91345067D01*
X169057037Y-90929408D01*
X169074075Y-90992993D01*
X169139901Y-91107007D01*
X169232993Y-91200099D01*
X169347007Y-91265925D01*
X169410590Y-91282962D01*
X168994931Y-91698620D01*
X168994932Y-91698621D01*
X169042633Y-91730495D01*
X169042639Y-91730498D01*
X169233725Y-91809649D01*
X169233733Y-91809651D01*
X169436579Y-91849999D01*
X169436583Y-91850000D01*
X169643417Y-91850000D01*
X169643420Y-91849999D01*
X169846266Y-91809651D01*
X169846274Y-91809649D01*
X170037366Y-91730495D01*
X170085066Y-91698621D01*
X170085067Y-91698620D01*
X169669409Y-91282962D01*
X169732993Y-91265925D01*
X169847007Y-91200099D01*
X169940099Y-91107007D01*
X170005925Y-90992993D01*
X170022962Y-90929408D01*
X170438620Y-91345067D01*
X170453162Y-91343634D01*
X170476013Y-91324539D01*
X170545338Y-91315833D01*
X170608365Y-91345990D01*
X170645083Y-91405434D01*
X170649500Y-91438236D01*
X170649500Y-92700860D01*
X170629815Y-92767899D01*
X170577011Y-92813654D01*
X170507853Y-92823598D01*
X170444297Y-92794573D01*
X170422398Y-92769751D01*
X170355977Y-92670344D01*
X170209657Y-92524024D01*
X170123626Y-92466541D01*
X170037598Y-92409059D01*
X169846420Y-92329870D01*
X169846412Y-92329868D01*
X169643469Y-92289500D01*
X169643465Y-92289500D01*
X169436535Y-92289500D01*
X169436530Y-92289500D01*
X169233587Y-92329868D01*
X169233579Y-92329870D01*
X169042403Y-92409058D01*
X168870342Y-92524024D01*
X168724024Y-92670342D01*
X168609058Y-92842403D01*
X168529870Y-93033579D01*
X168529868Y-93033587D01*
X168489500Y-93236530D01*
X168489500Y-93443469D01*
X168529868Y-93646412D01*
X168529870Y-93646420D01*
X168609059Y-93837598D01*
X168641995Y-93886890D01*
X168724024Y-94009657D01*
X168870342Y-94155975D01*
X168870345Y-94155977D01*
X169042402Y-94270941D01*
X169233580Y-94350130D01*
X169436530Y-94390499D01*
X169436534Y-94390500D01*
X169436535Y-94390500D01*
X169643466Y-94390500D01*
X169643467Y-94390499D01*
X169846420Y-94350130D01*
X170037598Y-94270941D01*
X170209655Y-94155977D01*
X170355977Y-94009655D01*
X170422398Y-93910248D01*
X170476009Y-93865443D01*
X170545334Y-93856736D01*
X170608362Y-93886890D01*
X170645082Y-93946333D01*
X170649500Y-93979139D01*
X170649500Y-95240860D01*
X170629815Y-95307899D01*
X170577011Y-95353654D01*
X170507853Y-95363598D01*
X170444297Y-95334573D01*
X170422398Y-95309751D01*
X170355977Y-95210344D01*
X170209657Y-95064024D01*
X170123626Y-95006541D01*
X170037598Y-94949059D01*
X169846420Y-94869870D01*
X169846412Y-94869868D01*
X169643469Y-94829500D01*
X169643465Y-94829500D01*
X169436535Y-94829500D01*
X169436530Y-94829500D01*
X169233587Y-94869868D01*
X169233579Y-94869870D01*
X169042403Y-94949058D01*
X168870342Y-95064024D01*
X168724024Y-95210342D01*
X168609058Y-95382403D01*
X168529870Y-95573579D01*
X168529868Y-95573587D01*
X168489500Y-95776530D01*
X168489500Y-95983469D01*
X168529868Y-96186412D01*
X168529870Y-96186420D01*
X168590825Y-96333579D01*
X168609059Y-96377598D01*
X168641995Y-96426890D01*
X168724024Y-96549657D01*
X168870342Y-96695975D01*
X168870345Y-96695977D01*
X169042402Y-96810941D01*
X169233580Y-96890130D01*
X169436530Y-96930499D01*
X169436534Y-96930500D01*
X169436535Y-96930500D01*
X169643466Y-96930500D01*
X169643467Y-96930499D01*
X169846420Y-96890130D01*
X170037598Y-96810941D01*
X170209655Y-96695977D01*
X170355977Y-96549655D01*
X170422398Y-96450248D01*
X170476009Y-96405443D01*
X170545334Y-96396736D01*
X170608362Y-96426890D01*
X170645082Y-96486333D01*
X170649500Y-96519139D01*
X170649500Y-97625500D01*
X170629815Y-97692539D01*
X170577011Y-97738294D01*
X170525500Y-97749500D01*
X163829139Y-97749500D01*
X163762100Y-97729815D01*
X163716345Y-97677011D01*
X163706401Y-97607853D01*
X163735426Y-97544297D01*
X163760246Y-97522399D01*
X163859655Y-97455977D01*
X164005977Y-97309655D01*
X164120941Y-97137598D01*
X164200130Y-96946420D01*
X164240500Y-96743465D01*
X164240500Y-96536535D01*
X164200130Y-96333580D01*
X164120941Y-96142402D01*
X164005977Y-95970345D01*
X164005975Y-95970342D01*
X163859657Y-95824024D01*
X163735967Y-95741378D01*
X163687598Y-95709059D01*
X163496420Y-95629870D01*
X163496412Y-95629868D01*
X163293469Y-95589500D01*
X163293465Y-95589500D01*
X163086535Y-95589500D01*
X163086530Y-95589500D01*
X162883587Y-95629868D01*
X162883579Y-95629870D01*
X162692403Y-95709058D01*
X162520342Y-95824024D01*
X162374024Y-95970342D01*
X162259058Y-96142403D01*
X162179870Y-96333579D01*
X162179868Y-96333587D01*
X162139500Y-96536530D01*
X162139500Y-96743469D01*
X162179868Y-96946412D01*
X162179870Y-96946420D01*
X162259058Y-97137596D01*
X162374024Y-97309657D01*
X162520342Y-97455975D01*
X162520345Y-97455977D01*
X162619751Y-97522398D01*
X162664557Y-97576009D01*
X162673264Y-97645334D01*
X162643110Y-97708362D01*
X162583667Y-97745082D01*
X162550861Y-97749500D01*
X161288236Y-97749500D01*
X161221197Y-97729815D01*
X161175442Y-97677011D01*
X161165498Y-97607853D01*
X161194503Y-97544339D01*
X161195067Y-97538620D01*
X160779409Y-97122962D01*
X160842993Y-97105925D01*
X160957007Y-97040099D01*
X161050099Y-96947007D01*
X161115925Y-96832993D01*
X161132962Y-96769409D01*
X161548620Y-97185067D01*
X161548621Y-97185066D01*
X161580495Y-97137366D01*
X161659649Y-96946274D01*
X161659651Y-96946266D01*
X161699999Y-96743420D01*
X161700000Y-96743417D01*
X161700000Y-96536583D01*
X161699999Y-96536579D01*
X161659651Y-96333733D01*
X161659649Y-96333725D01*
X161580498Y-96142639D01*
X161580495Y-96142633D01*
X161548621Y-96094932D01*
X161548620Y-96094931D01*
X161132962Y-96510590D01*
X161115925Y-96447007D01*
X161050099Y-96332993D01*
X160957007Y-96239901D01*
X160842993Y-96174075D01*
X160779409Y-96157037D01*
X161195067Y-95741378D01*
X161195067Y-95741377D01*
X161147359Y-95709500D01*
X160956274Y-95630350D01*
X160956266Y-95630348D01*
X160753420Y-95590000D01*
X160546579Y-95590000D01*
X160343733Y-95630348D01*
X160343725Y-95630350D01*
X160152641Y-95709500D01*
X160152631Y-95709505D01*
X160104932Y-95741377D01*
X160104932Y-95741378D01*
X160520591Y-96157037D01*
X160457007Y-96174075D01*
X160342993Y-96239901D01*
X160249901Y-96332993D01*
X160184075Y-96447007D01*
X160167037Y-96510591D01*
X159751378Y-96094932D01*
X159751377Y-96094932D01*
X159719505Y-96142631D01*
X159719500Y-96142641D01*
X159640350Y-96333725D01*
X159640348Y-96333733D01*
X159600000Y-96536579D01*
X159600000Y-96743420D01*
X159640348Y-96946266D01*
X159640350Y-96946274D01*
X159719500Y-97137359D01*
X159751377Y-97185067D01*
X159751378Y-97185067D01*
X160167037Y-96769408D01*
X160184075Y-96832993D01*
X160249901Y-96947007D01*
X160342993Y-97040099D01*
X160457007Y-97105925D01*
X160520590Y-97122962D01*
X160104931Y-97538620D01*
X160106364Y-97553162D01*
X160125459Y-97576012D01*
X160134165Y-97645337D01*
X160104009Y-97708364D01*
X160044565Y-97745082D01*
X160011762Y-97749500D01*
X159259362Y-97749500D01*
X159192323Y-97729815D01*
X159146568Y-97677011D01*
X159136624Y-97607853D01*
X159144802Y-97578045D01*
X159148868Y-97568228D01*
X159160499Y-97509752D01*
X159160500Y-97509750D01*
X159160500Y-95770249D01*
X159160499Y-95770247D01*
X159148868Y-95711770D01*
X159148867Y-95711769D01*
X159104552Y-95645447D01*
X159038230Y-95601132D01*
X159038229Y-95601131D01*
X158979752Y-95589500D01*
X158979748Y-95589500D01*
X158534500Y-95589500D01*
X158467461Y-95569815D01*
X158421706Y-95517011D01*
X158410500Y-95465500D01*
X158410500Y-84965832D01*
X158430185Y-84898793D01*
X158446814Y-84878156D01*
X161838151Y-81486818D01*
X161899474Y-81453334D01*
X161925832Y-81450500D01*
X162015890Y-81450500D01*
X162015892Y-81450500D01*
X162143186Y-81416392D01*
X162257314Y-81350500D01*
X162350500Y-81257314D01*
X162350500Y-81257313D01*
X162356247Y-81251567D01*
X162358282Y-81253602D01*
X162403460Y-81220589D01*
X162473204Y-81216409D01*
X162533131Y-81249582D01*
X162588799Y-81305250D01*
X162588800Y-81305251D01*
X163413049Y-82129500D01*
X164213181Y-82929631D01*
X164227884Y-82956558D01*
X164244477Y-82982377D01*
X164245368Y-82988577D01*
X164246666Y-82990954D01*
X164249500Y-83017312D01*
X164249500Y-83150323D01*
X164229815Y-83217362D01*
X164213181Y-83238004D01*
X164164912Y-83286273D01*
X164103589Y-83319758D01*
X164033897Y-83314774D01*
X163989550Y-83286273D01*
X163905280Y-83202003D01*
X163905278Y-83202001D01*
X163848214Y-83169055D01*
X163791151Y-83136109D01*
X163727503Y-83119055D01*
X163663856Y-83102001D01*
X163532072Y-83102001D01*
X163404776Y-83136109D01*
X163290650Y-83202001D01*
X163290647Y-83202003D01*
X163197466Y-83295184D01*
X163197464Y-83295187D01*
X163131572Y-83409313D01*
X163121075Y-83448489D01*
X163097464Y-83536609D01*
X163097464Y-83668393D01*
X163107633Y-83706345D01*
X163131572Y-83795688D01*
X163162732Y-83849657D01*
X163197464Y-83909815D01*
X163290650Y-84003001D01*
X163404778Y-84068893D01*
X163532072Y-84103001D01*
X163532074Y-84103001D01*
X163622131Y-84103001D01*
X163689170Y-84122686D01*
X163709812Y-84139320D01*
X163865003Y-84294511D01*
X163920952Y-84350460D01*
X163920954Y-84350461D01*
X163920958Y-84350464D01*
X163989467Y-84390017D01*
X163989474Y-84390021D01*
X164065901Y-84410500D01*
X164065903Y-84410500D01*
X164797081Y-84410500D01*
X164797083Y-84410500D01*
X164873510Y-84390021D01*
X164942032Y-84350460D01*
X164997981Y-84294511D01*
X165291460Y-84001032D01*
X165295513Y-83994012D01*
X165331021Y-83932510D01*
X165351500Y-83856083D01*
X165351500Y-82054330D01*
X165331021Y-81977903D01*
X165293456Y-81912838D01*
X165291464Y-81909387D01*
X165291458Y-81909379D01*
X164940373Y-81558294D01*
X164906888Y-81496971D01*
X164904054Y-81470613D01*
X164904054Y-81380556D01*
X164904054Y-81380554D01*
X164869946Y-81253260D01*
X164804054Y-81139132D01*
X164777103Y-81112181D01*
X164743618Y-81050858D01*
X164748602Y-80981166D01*
X164790474Y-80925233D01*
X164855938Y-80900816D01*
X164864784Y-80900500D01*
X165189560Y-80900500D01*
X165189562Y-80900500D01*
X165265989Y-80880021D01*
X165334511Y-80840460D01*
X165390460Y-80784511D01*
X168278993Y-77895977D01*
X168340314Y-77862494D01*
X168410006Y-77867478D01*
G37*
%TD.AperFunction*%
%TA.AperFunction,Conductor*%
G36*
X164144658Y-70679273D02*
G01*
X164178158Y-70703129D01*
X165413181Y-71938152D01*
X165446666Y-71999475D01*
X165449500Y-72025833D01*
X165449500Y-72115892D01*
X165461865Y-72162039D01*
X165483608Y-72243187D01*
X165493568Y-72260438D01*
X165549500Y-72357314D01*
X165642686Y-72450500D01*
X165717431Y-72493654D01*
X165749499Y-72512169D01*
X165756814Y-72516392D01*
X165884108Y-72550500D01*
X165884110Y-72550500D01*
X166024019Y-72550500D01*
X166024019Y-72553373D01*
X166079334Y-72561992D01*
X166131596Y-72608364D01*
X166150500Y-72674173D01*
X166150500Y-75373166D01*
X166141855Y-75402606D01*
X166135332Y-75432593D01*
X166131577Y-75437608D01*
X166130815Y-75440205D01*
X166114181Y-75460847D01*
X165961847Y-75613181D01*
X165900524Y-75646666D01*
X165874166Y-75649500D01*
X165784108Y-75649500D01*
X165656812Y-75683608D01*
X165542686Y-75749500D01*
X165542683Y-75749502D01*
X165449502Y-75842683D01*
X165449500Y-75842686D01*
X165383608Y-75956812D01*
X165354890Y-76063991D01*
X165349500Y-76084108D01*
X165349500Y-76215892D01*
X165355551Y-76238475D01*
X165383608Y-76343187D01*
X165400093Y-76371739D01*
X165449500Y-76457314D01*
X165542686Y-76550500D01*
X165656814Y-76616392D01*
X165784108Y-76650500D01*
X165784110Y-76650500D01*
X165915890Y-76650500D01*
X165915892Y-76650500D01*
X166043186Y-76616392D01*
X166157314Y-76550500D01*
X166170652Y-76537161D01*
X166195094Y-76523814D01*
X166217777Y-76507663D01*
X166225330Y-76507303D01*
X166231971Y-76503677D01*
X166259755Y-76505663D01*
X166287567Y-76504339D01*
X166297642Y-76508372D01*
X166301663Y-76508660D01*
X166320333Y-76517456D01*
X166368748Y-76545409D01*
X166416963Y-76595977D01*
X166430185Y-76664584D01*
X166404217Y-76729449D01*
X166394428Y-76740477D01*
X165816786Y-77318120D01*
X165755463Y-77351605D01*
X165729105Y-77354439D01*
X165639047Y-77354439D01*
X165511751Y-77388547D01*
X165397625Y-77454439D01*
X165397622Y-77454441D01*
X165304441Y-77547622D01*
X165304439Y-77547625D01*
X165238547Y-77661751D01*
X165234579Y-77676562D01*
X165204439Y-77789047D01*
X165204439Y-77920831D01*
X165218145Y-77971983D01*
X165238547Y-78048126D01*
X165268497Y-78100000D01*
X165304439Y-78162253D01*
X165397625Y-78255439D01*
X165480692Y-78303398D01*
X165501930Y-78315660D01*
X165511753Y-78321331D01*
X165639047Y-78355439D01*
X165639049Y-78355439D01*
X165770820Y-78355439D01*
X165770831Y-78355439D01*
X165770841Y-78355436D01*
X165773067Y-78355143D01*
X165774966Y-78355439D01*
X165778958Y-78355439D01*
X165778958Y-78356061D01*
X165842104Y-78365902D01*
X165894364Y-78412277D01*
X165913256Y-78479544D01*
X165912205Y-78494259D01*
X165911434Y-78500118D01*
X165883171Y-78564016D01*
X165824849Y-78602491D01*
X165788494Y-78607940D01*
X164200790Y-78607940D01*
X164133751Y-78588255D01*
X164113109Y-78571621D01*
X164043681Y-78502193D01*
X164045711Y-78500162D01*
X164012690Y-78454942D01*
X164008532Y-78385196D01*
X164036866Y-78334034D01*
X164035511Y-78332995D01*
X164040455Y-78326551D01*
X164040457Y-78326546D01*
X164040460Y-78326544D01*
X164046744Y-78315660D01*
X164080021Y-78258022D01*
X164100500Y-78181595D01*
X164100500Y-76210438D01*
X164080021Y-76134011D01*
X164072805Y-76121513D01*
X164040464Y-76065495D01*
X164040458Y-76065487D01*
X163454512Y-75479541D01*
X163454507Y-75479537D01*
X163436981Y-75469419D01*
X163436980Y-75469418D01*
X163436979Y-75469418D01*
X163411484Y-75454698D01*
X163385990Y-75439979D01*
X163358425Y-75432593D01*
X163309562Y-75419500D01*
X163309560Y-75419500D01*
X162380740Y-75419500D01*
X162313701Y-75399815D01*
X162267946Y-75347011D01*
X162258002Y-75277853D01*
X162287027Y-75214297D01*
X162293059Y-75207819D01*
X162919519Y-74581358D01*
X162980842Y-74547873D01*
X163007200Y-74545039D01*
X163097258Y-74545039D01*
X163097260Y-74545039D01*
X163224554Y-74510931D01*
X163338682Y-74445039D01*
X163431868Y-74351853D01*
X163497760Y-74237725D01*
X163531868Y-74110431D01*
X163531868Y-74020371D01*
X163551553Y-73953332D01*
X163568182Y-73932695D01*
X163740460Y-73760418D01*
X163780022Y-73691895D01*
X163800500Y-73615469D01*
X163800500Y-73536345D01*
X163800500Y-71458676D01*
X163820185Y-71391637D01*
X163836819Y-71370995D01*
X163855000Y-71352814D01*
X163900500Y-71307314D01*
X163966392Y-71193186D01*
X164000500Y-71065892D01*
X164000500Y-70934108D01*
X163970702Y-70822899D01*
X163972365Y-70753054D01*
X164011527Y-70695191D01*
X164075756Y-70667687D01*
X164144658Y-70679273D01*
G37*
%TD.AperFunction*%
%TA.AperFunction,Conductor*%
G36*
X170608362Y-76106890D02*
G01*
X170645082Y-76166333D01*
X170649500Y-76199139D01*
X170649500Y-77461762D01*
X170629815Y-77528801D01*
X170577011Y-77574556D01*
X170507853Y-77584500D01*
X170444341Y-77555495D01*
X170438620Y-77554931D01*
X170022962Y-77970590D01*
X170005925Y-77907007D01*
X169940099Y-77792993D01*
X169847007Y-77699901D01*
X169732993Y-77634075D01*
X169669408Y-77617037D01*
X170085067Y-77201377D01*
X170037359Y-77169500D01*
X169846274Y-77090350D01*
X169846266Y-77090348D01*
X169643420Y-77050000D01*
X169436579Y-77050000D01*
X169233733Y-77090348D01*
X169233725Y-77090350D01*
X169042641Y-77169500D01*
X169042633Y-77169504D01*
X168893390Y-77269225D01*
X168826713Y-77290102D01*
X168759333Y-77271617D01*
X168712643Y-77219638D01*
X168700500Y-77166122D01*
X168700500Y-76494477D01*
X168720185Y-76427438D01*
X168772989Y-76381683D01*
X168842147Y-76371739D01*
X168893388Y-76391374D01*
X169042402Y-76490941D01*
X169233580Y-76570130D01*
X169436530Y-76610499D01*
X169436534Y-76610500D01*
X169436535Y-76610500D01*
X169643466Y-76610500D01*
X169643467Y-76610499D01*
X169846420Y-76570130D01*
X170037598Y-76490941D01*
X170209655Y-76375977D01*
X170355977Y-76229655D01*
X170422398Y-76130248D01*
X170476009Y-76085443D01*
X170545334Y-76076736D01*
X170608362Y-76106890D01*
G37*
%TD.AperFunction*%
%TA.AperFunction,Conductor*%
G36*
X170608362Y-55786890D02*
G01*
X170645082Y-55846333D01*
X170649500Y-55879139D01*
X170649500Y-57140860D01*
X170629815Y-57207899D01*
X170577011Y-57253654D01*
X170507853Y-57263598D01*
X170444297Y-57234573D01*
X170422398Y-57209751D01*
X170355977Y-57110344D01*
X170209657Y-56964024D01*
X170114581Y-56900497D01*
X170037598Y-56849059D01*
X169846420Y-56769870D01*
X169846412Y-56769868D01*
X169643469Y-56729500D01*
X169643465Y-56729500D01*
X169436535Y-56729500D01*
X169436530Y-56729500D01*
X169233587Y-56769868D01*
X169233579Y-56769870D01*
X169042403Y-56849058D01*
X168870342Y-56964024D01*
X168724024Y-57110342D01*
X168609058Y-57282403D01*
X168529870Y-57473579D01*
X168529868Y-57473587D01*
X168489500Y-57676530D01*
X168489500Y-57883469D01*
X168529868Y-58086412D01*
X168529870Y-58086420D01*
X168609059Y-58277598D01*
X168641995Y-58326890D01*
X168724024Y-58449657D01*
X168870342Y-58595975D01*
X168870345Y-58595977D01*
X169042402Y-58710941D01*
X169233580Y-58790130D01*
X169436530Y-58830499D01*
X169436534Y-58830500D01*
X169436535Y-58830500D01*
X169643466Y-58830500D01*
X169643467Y-58830499D01*
X169846420Y-58790130D01*
X170037598Y-58710941D01*
X170209655Y-58595977D01*
X170355977Y-58449655D01*
X170422398Y-58350248D01*
X170476009Y-58305443D01*
X170545334Y-58296736D01*
X170608362Y-58326890D01*
X170645082Y-58386333D01*
X170649500Y-58419139D01*
X170649500Y-59680860D01*
X170629815Y-59747899D01*
X170577011Y-59793654D01*
X170507853Y-59803598D01*
X170444297Y-59774573D01*
X170422398Y-59749751D01*
X170355977Y-59650344D01*
X170209657Y-59504024D01*
X170123626Y-59446541D01*
X170037598Y-59389059D01*
X169846420Y-59309870D01*
X169846412Y-59309868D01*
X169643469Y-59269500D01*
X169643465Y-59269500D01*
X169436535Y-59269500D01*
X169436530Y-59269500D01*
X169233587Y-59309868D01*
X169233579Y-59309870D01*
X169042403Y-59389058D01*
X168870342Y-59504024D01*
X168724024Y-59650342D01*
X168609058Y-59822403D01*
X168529870Y-60013579D01*
X168529868Y-60013587D01*
X168489500Y-60216530D01*
X168489500Y-60423469D01*
X168529868Y-60626412D01*
X168529870Y-60626420D01*
X168557525Y-60693186D01*
X168609059Y-60817598D01*
X168641995Y-60866890D01*
X168724024Y-60989657D01*
X168870342Y-61135975D01*
X168870345Y-61135977D01*
X169042402Y-61250941D01*
X169233580Y-61330130D01*
X169436530Y-61370499D01*
X169436534Y-61370500D01*
X169436535Y-61370500D01*
X169643466Y-61370500D01*
X169643467Y-61370499D01*
X169846420Y-61330130D01*
X170037598Y-61250941D01*
X170209655Y-61135977D01*
X170355977Y-60989655D01*
X170422398Y-60890248D01*
X170476009Y-60845443D01*
X170545334Y-60836736D01*
X170608362Y-60866890D01*
X170645082Y-60926333D01*
X170649500Y-60959139D01*
X170649500Y-62220860D01*
X170629815Y-62287899D01*
X170577011Y-62333654D01*
X170507853Y-62343598D01*
X170444297Y-62314573D01*
X170422398Y-62289751D01*
X170355977Y-62190344D01*
X170209657Y-62044024D01*
X170123626Y-61986541D01*
X170037598Y-61929059D01*
X169846420Y-61849870D01*
X169846412Y-61849868D01*
X169643469Y-61809500D01*
X169643465Y-61809500D01*
X169436535Y-61809500D01*
X169436530Y-61809500D01*
X169233587Y-61849868D01*
X169233579Y-61849870D01*
X169042403Y-61929058D01*
X168870342Y-62044024D01*
X168724024Y-62190342D01*
X168609058Y-62362403D01*
X168529870Y-62553579D01*
X168529868Y-62553587D01*
X168489500Y-62756530D01*
X168489500Y-62963469D01*
X168529868Y-63166412D01*
X168529870Y-63166420D01*
X168568469Y-63259607D01*
X168609059Y-63357598D01*
X168641995Y-63406890D01*
X168724024Y-63529657D01*
X168870342Y-63675975D01*
X168870345Y-63675977D01*
X169042402Y-63790941D01*
X169233580Y-63870130D01*
X169436530Y-63910499D01*
X169436534Y-63910500D01*
X169436535Y-63910500D01*
X169643466Y-63910500D01*
X169643467Y-63910499D01*
X169846420Y-63870130D01*
X170037598Y-63790941D01*
X170209655Y-63675977D01*
X170355977Y-63529655D01*
X170422398Y-63430248D01*
X170476009Y-63385443D01*
X170545334Y-63376736D01*
X170608362Y-63406890D01*
X170645082Y-63466333D01*
X170649500Y-63499139D01*
X170649500Y-64761762D01*
X170629815Y-64828801D01*
X170577011Y-64874556D01*
X170507853Y-64884500D01*
X170444341Y-64855495D01*
X170438620Y-64854931D01*
X170022962Y-65270590D01*
X170005925Y-65207007D01*
X169940099Y-65092993D01*
X169847007Y-64999901D01*
X169732993Y-64934075D01*
X169669409Y-64917037D01*
X170085067Y-64501378D01*
X170085067Y-64501377D01*
X170037359Y-64469500D01*
X169846274Y-64390350D01*
X169846266Y-64390348D01*
X169643420Y-64350000D01*
X169436579Y-64350000D01*
X169233733Y-64390348D01*
X169233725Y-64390350D01*
X169042641Y-64469500D01*
X169042631Y-64469505D01*
X168994932Y-64501377D01*
X168994932Y-64501378D01*
X169410591Y-64917037D01*
X169347007Y-64934075D01*
X169232993Y-64999901D01*
X169139901Y-65092993D01*
X169074075Y-65207007D01*
X169057037Y-65270591D01*
X168641378Y-64854932D01*
X168641377Y-64854932D01*
X168609505Y-64902631D01*
X168609500Y-64902641D01*
X168530350Y-65093725D01*
X168530348Y-65093733D01*
X168490000Y-65296579D01*
X168490000Y-65503420D01*
X168530348Y-65706266D01*
X168530350Y-65706274D01*
X168609500Y-65897359D01*
X168641377Y-65945067D01*
X168641378Y-65945067D01*
X169057037Y-65529408D01*
X169074075Y-65592993D01*
X169139901Y-65707007D01*
X169232993Y-65800099D01*
X169347007Y-65865925D01*
X169410590Y-65882962D01*
X168994931Y-66298620D01*
X168994932Y-66298621D01*
X169042633Y-66330495D01*
X169042639Y-66330498D01*
X169233725Y-66409649D01*
X169233733Y-66409651D01*
X169436579Y-66449999D01*
X169436583Y-66450000D01*
X169643417Y-66450000D01*
X169643420Y-66449999D01*
X169846266Y-66409651D01*
X169846274Y-66409649D01*
X170037366Y-66330495D01*
X170085066Y-66298621D01*
X170085067Y-66298620D01*
X169669409Y-65882962D01*
X169732993Y-65865925D01*
X169847007Y-65800099D01*
X169940099Y-65707007D01*
X170005925Y-65592993D01*
X170022962Y-65529408D01*
X170438620Y-65945067D01*
X170453162Y-65943634D01*
X170476013Y-65924539D01*
X170545338Y-65915833D01*
X170608365Y-65945990D01*
X170645083Y-66005434D01*
X170649500Y-66038236D01*
X170649500Y-67300860D01*
X170629815Y-67367899D01*
X170577011Y-67413654D01*
X170507853Y-67423598D01*
X170444297Y-67394573D01*
X170422398Y-67369751D01*
X170355977Y-67270344D01*
X170209657Y-67124024D01*
X170098123Y-67049500D01*
X170037598Y-67009059D01*
X169915637Y-66958541D01*
X169846420Y-66929870D01*
X169846412Y-66929868D01*
X169643469Y-66889500D01*
X169643465Y-66889500D01*
X169436535Y-66889500D01*
X169436530Y-66889500D01*
X169233587Y-66929868D01*
X169233579Y-66929870D01*
X169042403Y-67009058D01*
X168870342Y-67124024D01*
X168724024Y-67270342D01*
X168609058Y-67442403D01*
X168529870Y-67633579D01*
X168529868Y-67633587D01*
X168489500Y-67836530D01*
X168489500Y-68043469D01*
X168529868Y-68246412D01*
X168529871Y-68246424D01*
X168579803Y-68366971D01*
X168587272Y-68436440D01*
X168555997Y-68498919D01*
X168552923Y-68502104D01*
X167665489Y-69389540D01*
X167609541Y-69445487D01*
X167609535Y-69445495D01*
X167569982Y-69514004D01*
X167569979Y-69514009D01*
X167549500Y-69590439D01*
X167549500Y-75534044D01*
X167540855Y-75563484D01*
X167534332Y-75593471D01*
X167530577Y-75598486D01*
X167529815Y-75601083D01*
X167513181Y-75621725D01*
X167412181Y-75722725D01*
X167350858Y-75756210D01*
X167281166Y-75751226D01*
X167225233Y-75709354D01*
X167200816Y-75643890D01*
X167200500Y-75635044D01*
X167200500Y-58055832D01*
X167220185Y-57988793D01*
X167236814Y-57968156D01*
X168977896Y-56227073D01*
X169039217Y-56193590D01*
X169108909Y-56198574D01*
X169113007Y-56200186D01*
X169233580Y-56250130D01*
X169436530Y-56290499D01*
X169436534Y-56290500D01*
X169436535Y-56290500D01*
X169643466Y-56290500D01*
X169643467Y-56290499D01*
X169846420Y-56250130D01*
X170037598Y-56170941D01*
X170209655Y-56055977D01*
X170355977Y-55909655D01*
X170422398Y-55810248D01*
X170476009Y-55765443D01*
X170545334Y-55756736D01*
X170608362Y-55786890D01*
G37*
%TD.AperFunction*%
%TA.AperFunction,Conductor*%
G36*
X155952605Y-46770185D02*
G01*
X155998360Y-46822989D01*
X156008304Y-46892147D01*
X155979279Y-46955703D01*
X155920501Y-46993477D01*
X155909757Y-46996117D01*
X155905825Y-46996899D01*
X155905813Y-46996902D01*
X155778433Y-47049664D01*
X155778420Y-47049671D01*
X155663773Y-47126275D01*
X155566275Y-47223773D01*
X155489671Y-47338420D01*
X155489664Y-47338433D01*
X155436902Y-47465813D01*
X155436899Y-47465823D01*
X155410000Y-47601053D01*
X155410000Y-47720000D01*
X155810000Y-47720000D01*
X155810000Y-48220000D01*
X155410000Y-48220000D01*
X155410000Y-48338946D01*
X155409999Y-48338946D01*
X155436899Y-48474176D01*
X155436902Y-48474186D01*
X155489664Y-48601566D01*
X155489671Y-48601579D01*
X155566275Y-48716226D01*
X155663773Y-48813724D01*
X155778420Y-48890328D01*
X155778424Y-48890330D01*
X155860000Y-48924119D01*
X155860000Y-48436988D01*
X155869940Y-48454205D01*
X155925795Y-48510060D01*
X155994204Y-48549556D01*
X156070504Y-48570000D01*
X156149496Y-48570000D01*
X156225796Y-48549556D01*
X156294205Y-48510060D01*
X156350060Y-48454205D01*
X156360000Y-48436988D01*
X156360000Y-48924118D01*
X156441575Y-48890330D01*
X156441579Y-48890328D01*
X156556226Y-48813724D01*
X156653724Y-48716226D01*
X156730328Y-48601579D01*
X156730335Y-48601566D01*
X156783097Y-48474186D01*
X156783100Y-48474176D01*
X156810000Y-48338946D01*
X156810000Y-48220000D01*
X156410000Y-48220000D01*
X156410000Y-47720000D01*
X156810000Y-47720000D01*
X156810000Y-47601053D01*
X156783100Y-47465823D01*
X156783097Y-47465813D01*
X156730335Y-47338433D01*
X156730328Y-47338420D01*
X156653724Y-47223773D01*
X156556226Y-47126275D01*
X156441579Y-47049671D01*
X156441566Y-47049664D01*
X156314186Y-46996902D01*
X156314174Y-46996899D01*
X156310243Y-46996117D01*
X156308373Y-46995139D01*
X156308350Y-46995132D01*
X156308351Y-46995127D01*
X156248332Y-46963732D01*
X156213758Y-46903017D01*
X156217497Y-46833247D01*
X156258363Y-46776575D01*
X156323382Y-46750994D01*
X156334434Y-46750500D01*
X164525566Y-46750500D01*
X164592605Y-46770185D01*
X164638360Y-46822989D01*
X164648304Y-46892147D01*
X164619279Y-46955703D01*
X164560501Y-46993477D01*
X164549757Y-46996117D01*
X164545825Y-46996899D01*
X164545813Y-46996902D01*
X164418433Y-47049664D01*
X164418420Y-47049671D01*
X164303773Y-47126275D01*
X164206275Y-47223773D01*
X164129671Y-47338420D01*
X164129664Y-47338433D01*
X164076902Y-47465813D01*
X164076899Y-47465823D01*
X164050000Y-47601053D01*
X164050000Y-47720000D01*
X164450000Y-47720000D01*
X164450000Y-48220000D01*
X164050000Y-48220000D01*
X164050000Y-48338946D01*
X164049999Y-48338946D01*
X164076899Y-48474176D01*
X164076902Y-48474186D01*
X164129664Y-48601566D01*
X164129671Y-48601579D01*
X164206275Y-48716226D01*
X164303773Y-48813724D01*
X164418420Y-48890328D01*
X164418424Y-48890330D01*
X164500000Y-48924119D01*
X164500000Y-48436988D01*
X164509940Y-48454205D01*
X164565795Y-48510060D01*
X164634204Y-48549556D01*
X164710504Y-48570000D01*
X164789496Y-48570000D01*
X164865796Y-48549556D01*
X164934205Y-48510060D01*
X164990060Y-48454205D01*
X165000000Y-48436988D01*
X165000000Y-48924118D01*
X165081575Y-48890330D01*
X165081579Y-48890328D01*
X165196226Y-48813724D01*
X165293724Y-48716226D01*
X165370328Y-48601579D01*
X165370335Y-48601566D01*
X165423097Y-48474186D01*
X165423100Y-48474176D01*
X165450000Y-48338946D01*
X165450000Y-48220000D01*
X165050000Y-48220000D01*
X165050000Y-47720000D01*
X165450000Y-47720000D01*
X165450000Y-47601053D01*
X165423100Y-47465823D01*
X165423097Y-47465813D01*
X165370335Y-47338433D01*
X165370328Y-47338420D01*
X165293724Y-47223773D01*
X165196226Y-47126275D01*
X165081579Y-47049671D01*
X165081566Y-47049664D01*
X164954186Y-46996902D01*
X164954174Y-46996899D01*
X164950243Y-46996117D01*
X164948373Y-46995139D01*
X164948350Y-46995132D01*
X164948351Y-46995127D01*
X164888332Y-46963732D01*
X164853758Y-46903017D01*
X164857497Y-46833247D01*
X164898363Y-46776575D01*
X164963382Y-46750994D01*
X164974434Y-46750500D01*
X168365500Y-46750500D01*
X168432539Y-46770185D01*
X168478294Y-46822989D01*
X168489500Y-46874500D01*
X168489500Y-48489752D01*
X168501131Y-48548229D01*
X168501132Y-48548230D01*
X168545447Y-48614552D01*
X168611769Y-48658867D01*
X168611770Y-48658868D01*
X168670247Y-48670499D01*
X168670250Y-48670500D01*
X168670252Y-48670500D01*
X170409750Y-48670500D01*
X170409751Y-48670499D01*
X170429418Y-48666587D01*
X170468228Y-48658868D01*
X170468229Y-48658867D01*
X170468231Y-48658867D01*
X170468231Y-48658866D01*
X170478045Y-48654802D01*
X170547514Y-48647332D01*
X170609994Y-48678605D01*
X170645648Y-48738694D01*
X170649500Y-48769362D01*
X170649500Y-49520860D01*
X170629815Y-49587899D01*
X170577011Y-49633654D01*
X170507853Y-49643598D01*
X170444297Y-49614573D01*
X170422398Y-49589751D01*
X170355977Y-49490344D01*
X170209657Y-49344024D01*
X170123626Y-49286541D01*
X170037598Y-49229059D01*
X169846420Y-49149870D01*
X169846412Y-49149868D01*
X169643469Y-49109500D01*
X169643465Y-49109500D01*
X169436535Y-49109500D01*
X169436530Y-49109500D01*
X169233587Y-49149868D01*
X169233579Y-49149870D01*
X169042403Y-49229058D01*
X168870342Y-49344024D01*
X168724024Y-49490342D01*
X168609058Y-49662403D01*
X168529870Y-49853579D01*
X168529868Y-49853587D01*
X168489500Y-50056530D01*
X168489500Y-50263469D01*
X168529868Y-50466412D01*
X168529871Y-50466424D01*
X168579803Y-50586971D01*
X168587272Y-50656440D01*
X168555997Y-50718919D01*
X168552923Y-50722104D01*
X166266489Y-53008540D01*
X166210541Y-53064487D01*
X166210535Y-53064495D01*
X166170982Y-53133004D01*
X166170979Y-53133009D01*
X166150500Y-53209439D01*
X166150500Y-71425826D01*
X166147892Y-71434705D01*
X166149180Y-71443870D01*
X166138205Y-71467696D01*
X166130815Y-71492865D01*
X166123821Y-71498925D01*
X166119949Y-71507332D01*
X166097832Y-71521444D01*
X166078011Y-71538620D01*
X166067289Y-71540934D01*
X166061049Y-71544916D01*
X166042208Y-71546347D01*
X166026098Y-71549825D01*
X166016994Y-71549795D01*
X166015892Y-71549500D01*
X165925740Y-71549500D01*
X165925431Y-71549499D01*
X165892044Y-71539578D01*
X165858794Y-71529815D01*
X165858564Y-71529630D01*
X165858456Y-71529598D01*
X165858300Y-71529417D01*
X165838152Y-71513181D01*
X163836819Y-69511848D01*
X163803334Y-69450525D01*
X163800500Y-69424167D01*
X163800500Y-66208676D01*
X163820185Y-66141637D01*
X163836819Y-66120995D01*
X163857317Y-66100497D01*
X163900500Y-66057314D01*
X163966392Y-65943186D01*
X164000500Y-65815892D01*
X164000500Y-65684108D01*
X163966392Y-65556814D01*
X163900500Y-65442686D01*
X163807314Y-65349500D01*
X163750250Y-65316554D01*
X163693187Y-65283608D01*
X163629539Y-65266554D01*
X163565892Y-65249500D01*
X163434108Y-65249500D01*
X163306812Y-65283608D01*
X163192686Y-65349500D01*
X163192683Y-65349502D01*
X163099502Y-65442683D01*
X163099500Y-65442686D01*
X163033608Y-65556812D01*
X162999500Y-65684108D01*
X162999500Y-65815891D01*
X163033608Y-65943187D01*
X163066554Y-66000250D01*
X163099500Y-66057314D01*
X163099502Y-66057316D01*
X163163181Y-66120995D01*
X163196666Y-66182318D01*
X163199500Y-66208676D01*
X163199500Y-69390893D01*
X163179815Y-69457932D01*
X163127011Y-69503687D01*
X163075500Y-69514893D01*
X162949501Y-69514893D01*
X162822205Y-69549001D01*
X162708079Y-69614893D01*
X162708076Y-69614895D01*
X162614895Y-69708076D01*
X162614893Y-69708079D01*
X162549001Y-69822205D01*
X162514893Y-69949501D01*
X162514893Y-70008773D01*
X162495208Y-70075812D01*
X162478574Y-70096454D01*
X162111847Y-70463181D01*
X162050524Y-70496666D01*
X162024166Y-70499500D01*
X161934108Y-70499500D01*
X161806814Y-70533608D01*
X161806813Y-70533608D01*
X161806811Y-70533609D01*
X161806810Y-70533609D01*
X161707000Y-70591235D01*
X161639100Y-70607708D01*
X161583000Y-70591235D01*
X161483189Y-70533609D01*
X161483186Y-70533608D01*
X161355892Y-70499500D01*
X161224108Y-70499500D01*
X161096812Y-70533608D01*
X160982686Y-70599500D01*
X160982683Y-70599502D01*
X160889502Y-70692683D01*
X160889500Y-70692686D01*
X160823608Y-70806812D01*
X160816575Y-70833060D01*
X160789500Y-70934108D01*
X160789500Y-71065892D01*
X160792511Y-71077130D01*
X160823608Y-71193187D01*
X160846739Y-71233250D01*
X160889500Y-71307314D01*
X160889502Y-71307316D01*
X160953181Y-71370995D01*
X160986666Y-71432318D01*
X160989500Y-71458676D01*
X160989500Y-73720463D01*
X160969815Y-73787502D01*
X160953182Y-73808144D01*
X160889500Y-73871826D01*
X160823608Y-73985952D01*
X160789500Y-74113248D01*
X160789500Y-74245031D01*
X160823608Y-74372327D01*
X160825248Y-74375167D01*
X160889500Y-74486454D01*
X160982686Y-74579640D01*
X161096814Y-74645532D01*
X161224108Y-74679640D01*
X161224110Y-74679640D01*
X161355890Y-74679640D01*
X161355892Y-74679640D01*
X161483186Y-74645532D01*
X161597314Y-74579640D01*
X161690500Y-74486454D01*
X161756392Y-74372326D01*
X161790500Y-74245032D01*
X161790500Y-74113248D01*
X161756392Y-73985954D01*
X161750170Y-73975178D01*
X161738346Y-73954698D01*
X161690500Y-73871826D01*
X161626818Y-73808144D01*
X161593334Y-73746820D01*
X161590500Y-73720463D01*
X161590500Y-71556277D01*
X161610185Y-71489238D01*
X161662989Y-71443483D01*
X161732147Y-71433539D01*
X161776500Y-71448890D01*
X161785597Y-71454142D01*
X161806811Y-71466391D01*
X161806813Y-71466391D01*
X161806814Y-71466392D01*
X161934108Y-71500500D01*
X161934110Y-71500500D01*
X162065890Y-71500500D01*
X162065892Y-71500500D01*
X162193186Y-71466392D01*
X162307314Y-71400500D01*
X162400500Y-71307314D01*
X162466392Y-71193186D01*
X162500500Y-71065892D01*
X162500500Y-70975832D01*
X162520185Y-70908793D01*
X162536819Y-70888151D01*
X162872758Y-70552212D01*
X162899685Y-70537508D01*
X162925504Y-70520916D01*
X162931704Y-70520024D01*
X162934081Y-70518727D01*
X162960439Y-70515893D01*
X162986797Y-70515893D01*
X163053836Y-70535578D01*
X163099591Y-70588382D01*
X163109535Y-70657540D01*
X163094184Y-70701893D01*
X163033609Y-70806810D01*
X163033609Y-70806811D01*
X163033609Y-70806812D01*
X163033608Y-70806814D01*
X162999500Y-70934108D01*
X162999500Y-71065892D01*
X163002511Y-71077130D01*
X163033608Y-71193187D01*
X163056739Y-71233250D01*
X163099500Y-71307314D01*
X163099502Y-71307316D01*
X163163181Y-71370995D01*
X163196666Y-71432318D01*
X163199500Y-71458676D01*
X163199500Y-73400072D01*
X163190855Y-73429512D01*
X163184332Y-73459499D01*
X163180577Y-73464514D01*
X163179815Y-73467111D01*
X163163181Y-73487753D01*
X163143214Y-73507720D01*
X163081891Y-73541205D01*
X163055533Y-73544039D01*
X162965476Y-73544039D01*
X162838180Y-73578147D01*
X162724054Y-73644039D01*
X162724051Y-73644041D01*
X162630870Y-73737222D01*
X162630868Y-73737225D01*
X162564976Y-73851351D01*
X162530868Y-73978647D01*
X162530868Y-74068705D01*
X162511183Y-74135744D01*
X162494549Y-74156386D01*
X161448445Y-75202489D01*
X161387122Y-75235974D01*
X161328671Y-75234583D01*
X161296015Y-75225833D01*
X161272380Y-75219500D01*
X161140596Y-75219500D01*
X161013302Y-75253608D01*
X161013301Y-75253608D01*
X161013299Y-75253609D01*
X161013298Y-75253609D01*
X160924073Y-75305124D01*
X160856173Y-75321597D01*
X160790146Y-75298745D01*
X160746955Y-75243823D01*
X160742301Y-75229841D01*
X160730021Y-75184011D01*
X160719616Y-75165989D01*
X160690464Y-75115495D01*
X160690458Y-75115487D01*
X160536819Y-74961848D01*
X160503334Y-74900525D01*
X160500500Y-74874167D01*
X160500500Y-72260439D01*
X160500500Y-72260438D01*
X160480021Y-72184011D01*
X160467336Y-72162039D01*
X160440464Y-72115495D01*
X160440458Y-72115487D01*
X157784512Y-69459541D01*
X157784507Y-69459537D01*
X157780006Y-69456939D01*
X157780005Y-69456938D01*
X157768853Y-69450500D01*
X157715989Y-69419979D01*
X157639562Y-69399500D01*
X157604702Y-69399500D01*
X157585889Y-69393336D01*
X157572752Y-69384305D01*
X157557459Y-69379815D01*
X157544553Y-69364921D01*
X157528311Y-69353756D01*
X157522141Y-69339056D01*
X157511704Y-69327011D01*
X157505911Y-69300386D01*
X157501272Y-69289331D01*
X157502270Y-69283646D01*
X157500498Y-69275500D01*
X157500498Y-69184110D01*
X157500498Y-69184108D01*
X157466390Y-69056814D01*
X157400498Y-68942686D01*
X157307312Y-68849500D01*
X157250248Y-68816554D01*
X157193185Y-68783608D01*
X157127055Y-68765889D01*
X157065890Y-68749500D01*
X156934106Y-68749500D01*
X156806810Y-68783608D01*
X156692684Y-68849500D01*
X156692681Y-68849502D01*
X156599500Y-68942683D01*
X156599498Y-68942686D01*
X156533606Y-69056812D01*
X156514845Y-69126831D01*
X156478479Y-69186492D01*
X156415632Y-69217020D01*
X156346257Y-69208725D01*
X156307389Y-69182418D01*
X156027953Y-68902982D01*
X155994468Y-68841659D01*
X155995859Y-68783209D01*
X156000500Y-68765892D01*
X156000500Y-68634108D01*
X155966392Y-68506814D01*
X155900500Y-68392686D01*
X155900497Y-68392683D01*
X155896928Y-68386501D01*
X155880455Y-68318601D01*
X155903307Y-68252574D01*
X155958228Y-68209383D01*
X156004315Y-68200500D01*
X156065890Y-68200500D01*
X156065892Y-68200500D01*
X156193186Y-68166392D01*
X156307314Y-68100500D01*
X156400500Y-68007314D01*
X156411536Y-67988198D01*
X156462101Y-67939983D01*
X156530708Y-67926759D01*
X156584735Y-67948016D01*
X156585648Y-67946436D01*
X156592684Y-67950498D01*
X156592686Y-67950500D01*
X156657984Y-67988200D01*
X156691083Y-68007310D01*
X156706814Y-68016392D01*
X156834108Y-68050500D01*
X156834110Y-68050500D01*
X156965890Y-68050500D01*
X156965892Y-68050500D01*
X157093186Y-68016392D01*
X157207314Y-67950500D01*
X157300500Y-67857314D01*
X157366392Y-67743186D01*
X157400500Y-67615892D01*
X157400500Y-67484108D01*
X157366392Y-67356814D01*
X157300500Y-67242686D01*
X157207314Y-67149500D01*
X157150250Y-67116554D01*
X157093187Y-67083608D01*
X157029539Y-67066554D01*
X156965892Y-67049500D01*
X156875833Y-67049500D01*
X156808794Y-67029815D01*
X156788152Y-67013181D01*
X156733512Y-66958541D01*
X156733504Y-66958535D01*
X156664995Y-66918982D01*
X156664990Y-66918979D01*
X156639513Y-66912152D01*
X156588562Y-66898500D01*
X156588560Y-66898500D01*
X155305958Y-66898500D01*
X155238919Y-66878815D01*
X155193164Y-66826011D01*
X155183220Y-66756853D01*
X155212245Y-66693297D01*
X155218277Y-66686819D01*
X155868277Y-66036819D01*
X155929600Y-66003334D01*
X155955958Y-66000500D01*
X158141324Y-66000500D01*
X158208363Y-66020185D01*
X158229005Y-66036819D01*
X158292686Y-66100500D01*
X158406814Y-66166392D01*
X158534108Y-66200500D01*
X158534110Y-66200500D01*
X158665890Y-66200500D01*
X158665892Y-66200500D01*
X158793186Y-66166392D01*
X158849103Y-66134108D01*
X159249500Y-66134108D01*
X159249500Y-66265891D01*
X159283608Y-66393187D01*
X159310902Y-66440460D01*
X159349500Y-66507314D01*
X159442686Y-66600500D01*
X159556814Y-66666392D01*
X159684108Y-66700500D01*
X159684110Y-66700500D01*
X159815890Y-66700500D01*
X159815892Y-66700500D01*
X159943186Y-66666392D01*
X160057314Y-66600500D01*
X160120995Y-66536819D01*
X160182318Y-66503334D01*
X160208676Y-66500500D01*
X161139560Y-66500500D01*
X161139562Y-66500500D01*
X161215989Y-66480021D01*
X161284511Y-66440460D01*
X161340460Y-66384511D01*
X164329044Y-63395925D01*
X164390367Y-63362441D01*
X164416725Y-63359607D01*
X164506783Y-63359607D01*
X164506785Y-63359607D01*
X164634079Y-63325499D01*
X164748207Y-63259607D01*
X164841393Y-63166421D01*
X164907285Y-63052293D01*
X164941393Y-62924999D01*
X164941393Y-62793215D01*
X164907285Y-62665921D01*
X164841393Y-62551793D01*
X164748207Y-62458607D01*
X164691143Y-62425661D01*
X164634080Y-62392715D01*
X164570432Y-62375661D01*
X164506785Y-62358607D01*
X164375001Y-62358607D01*
X164247705Y-62392715D01*
X164133579Y-62458607D01*
X164133576Y-62458609D01*
X164040395Y-62551790D01*
X164040393Y-62551793D01*
X163974501Y-62665919D01*
X163940393Y-62793215D01*
X163940393Y-62883273D01*
X163920708Y-62950312D01*
X163904074Y-62970954D01*
X161011848Y-65863181D01*
X160950525Y-65896666D01*
X160924167Y-65899500D01*
X160208676Y-65899500D01*
X160141637Y-65879815D01*
X160120995Y-65863181D01*
X160057316Y-65799502D01*
X160057314Y-65799500D01*
X159999098Y-65765889D01*
X159943187Y-65733608D01*
X159879539Y-65716554D01*
X159815892Y-65699500D01*
X159684108Y-65699500D01*
X159556812Y-65733608D01*
X159442686Y-65799500D01*
X159442683Y-65799502D01*
X159349502Y-65892683D01*
X159349495Y-65892692D01*
X159294501Y-65987943D01*
X159294488Y-65987968D01*
X159283608Y-66006814D01*
X159281637Y-66014169D01*
X159281635Y-66014174D01*
X159249500Y-66134108D01*
X158849103Y-66134108D01*
X158907314Y-66100500D01*
X159000500Y-66007314D01*
X159066392Y-65893186D01*
X159100500Y-65765892D01*
X159100500Y-65634108D01*
X159066392Y-65506814D01*
X159064432Y-65503420D01*
X159057563Y-65491521D01*
X159000500Y-65392686D01*
X158907314Y-65299500D01*
X158820712Y-65249500D01*
X158793187Y-65233608D01*
X158729539Y-65216554D01*
X158665892Y-65199500D01*
X158534108Y-65199500D01*
X158406812Y-65233608D01*
X158292686Y-65299500D01*
X158292683Y-65299502D01*
X158229005Y-65363181D01*
X158167682Y-65396666D01*
X158141324Y-65399500D01*
X155740563Y-65399500D01*
X155702349Y-65409739D01*
X155664134Y-65419979D01*
X155630048Y-65439659D01*
X155613004Y-65449500D01*
X155613002Y-65449500D01*
X155613002Y-65449501D01*
X155595617Y-65459537D01*
X155595612Y-65459541D01*
X153022181Y-68032973D01*
X152960858Y-68066458D01*
X152891166Y-68061474D01*
X152835233Y-68019602D01*
X152810816Y-67954138D01*
X152810500Y-67945292D01*
X152810500Y-67836534D01*
X152810499Y-67836530D01*
X152770131Y-67633587D01*
X152770130Y-67633580D01*
X152690941Y-67442402D01*
X152575977Y-67270345D01*
X152575976Y-67270344D01*
X152575975Y-67270342D01*
X152429657Y-67124024D01*
X152318123Y-67049500D01*
X152257598Y-67009059D01*
X152135637Y-66958541D01*
X152066420Y-66929870D01*
X152066412Y-66929868D01*
X151863469Y-66889500D01*
X151863465Y-66889500D01*
X151656535Y-66889500D01*
X151656530Y-66889500D01*
X151453587Y-66929868D01*
X151453579Y-66929870D01*
X151262403Y-67009058D01*
X151090342Y-67124024D01*
X150944022Y-67270344D01*
X150877602Y-67369751D01*
X150823990Y-67414556D01*
X150754665Y-67423263D01*
X150691638Y-67393109D01*
X150654918Y-67333666D01*
X150650500Y-67300860D01*
X150650500Y-66038239D01*
X150670185Y-65971200D01*
X150722989Y-65925445D01*
X150792147Y-65915501D01*
X150855653Y-65944503D01*
X150861378Y-65945067D01*
X151277037Y-65529408D01*
X151294075Y-65592993D01*
X151359901Y-65707007D01*
X151452993Y-65800099D01*
X151567007Y-65865925D01*
X151630590Y-65882962D01*
X151214931Y-66298620D01*
X151214932Y-66298621D01*
X151262633Y-66330495D01*
X151262639Y-66330498D01*
X151453725Y-66409649D01*
X151453733Y-66409651D01*
X151656579Y-66449999D01*
X151656583Y-66450000D01*
X151863417Y-66450000D01*
X151863420Y-66449999D01*
X152066266Y-66409651D01*
X152066274Y-66409649D01*
X152257366Y-66330495D01*
X152305066Y-66298621D01*
X152305067Y-66298620D01*
X151889409Y-65882962D01*
X151952993Y-65865925D01*
X152067007Y-65800099D01*
X152160099Y-65707007D01*
X152225925Y-65592993D01*
X152242962Y-65529409D01*
X152658620Y-65945067D01*
X152658621Y-65945066D01*
X152690495Y-65897366D01*
X152769649Y-65706274D01*
X152769651Y-65706266D01*
X152809999Y-65503420D01*
X152810000Y-65503417D01*
X152810000Y-65296583D01*
X152809999Y-65296579D01*
X152769651Y-65093733D01*
X152769649Y-65093725D01*
X152690498Y-64902639D01*
X152690495Y-64902633D01*
X152658621Y-64854932D01*
X152658620Y-64854931D01*
X152242962Y-65270590D01*
X152225925Y-65207007D01*
X152160099Y-65092993D01*
X152067007Y-64999901D01*
X151952993Y-64934075D01*
X151889409Y-64917037D01*
X152305067Y-64501378D01*
X152305067Y-64501377D01*
X152257359Y-64469500D01*
X152066274Y-64390350D01*
X152066266Y-64390348D01*
X151863420Y-64350000D01*
X151656579Y-64350000D01*
X151453733Y-64390348D01*
X151453725Y-64390350D01*
X151262641Y-64469500D01*
X151262631Y-64469505D01*
X151214932Y-64501377D01*
X151214932Y-64501378D01*
X151630591Y-64917037D01*
X151567007Y-64934075D01*
X151452993Y-64999901D01*
X151359901Y-65092993D01*
X151294075Y-65207007D01*
X151277037Y-65270591D01*
X150861378Y-64854932D01*
X150847022Y-64856346D01*
X150826011Y-64874553D01*
X150824872Y-64874716D01*
X150823989Y-64875455D01*
X150790384Y-64879675D01*
X150756853Y-64884497D01*
X150755805Y-64884018D01*
X150754664Y-64884162D01*
X150724120Y-64869548D01*
X150693297Y-64855472D01*
X150692674Y-64854503D01*
X150691637Y-64854007D01*
X150673839Y-64825194D01*
X150655523Y-64796694D01*
X150655307Y-64795194D01*
X150654918Y-64794564D01*
X150650500Y-64761759D01*
X150650500Y-63499139D01*
X150670185Y-63432100D01*
X150722989Y-63386345D01*
X150792147Y-63376401D01*
X150855703Y-63405426D01*
X150877600Y-63430246D01*
X150901713Y-63466333D01*
X150944024Y-63529657D01*
X151090342Y-63675975D01*
X151090345Y-63675977D01*
X151262402Y-63790941D01*
X151453580Y-63870130D01*
X151656530Y-63910499D01*
X151656534Y-63910500D01*
X151656535Y-63910500D01*
X151863466Y-63910500D01*
X151863467Y-63910499D01*
X152066420Y-63870130D01*
X152257598Y-63790941D01*
X152429655Y-63675977D01*
X152575977Y-63529655D01*
X152690941Y-63357598D01*
X152770130Y-63166420D01*
X152810500Y-62963465D01*
X152810500Y-62756535D01*
X152770130Y-62553580D01*
X152690941Y-62362402D01*
X152575977Y-62190345D01*
X152575976Y-62190344D01*
X152575975Y-62190342D01*
X152429657Y-62044024D01*
X152343626Y-61986541D01*
X152257598Y-61929059D01*
X152066420Y-61849870D01*
X152066412Y-61849868D01*
X151863469Y-61809500D01*
X151863465Y-61809500D01*
X151656535Y-61809500D01*
X151656530Y-61809500D01*
X151453587Y-61849868D01*
X151453579Y-61849870D01*
X151262403Y-61929058D01*
X151090342Y-62044024D01*
X150944022Y-62190344D01*
X150877602Y-62289751D01*
X150823990Y-62334556D01*
X150754665Y-62343263D01*
X150691638Y-62313109D01*
X150654918Y-62253666D01*
X150650500Y-62220860D01*
X150650500Y-60959139D01*
X150670185Y-60892100D01*
X150722989Y-60846345D01*
X150792147Y-60836401D01*
X150855703Y-60865426D01*
X150877600Y-60890246D01*
X150884452Y-60900500D01*
X150944024Y-60989657D01*
X151090342Y-61135975D01*
X151090345Y-61135977D01*
X151262402Y-61250941D01*
X151453580Y-61330130D01*
X151656530Y-61370499D01*
X151656534Y-61370500D01*
X151656535Y-61370500D01*
X151863466Y-61370500D01*
X151863467Y-61370499D01*
X152066420Y-61330130D01*
X152257598Y-61250941D01*
X152429655Y-61135977D01*
X152575977Y-60989655D01*
X152690941Y-60817598D01*
X152770130Y-60626420D01*
X152810500Y-60423465D01*
X152810500Y-60216535D01*
X152770130Y-60013580D01*
X152690941Y-59822402D01*
X152575977Y-59650345D01*
X152575976Y-59650344D01*
X152575975Y-59650342D01*
X152429657Y-59504024D01*
X152343626Y-59446541D01*
X152257598Y-59389059D01*
X152066420Y-59309870D01*
X152066412Y-59309868D01*
X151863469Y-59269500D01*
X151863465Y-59269500D01*
X151656535Y-59269500D01*
X151656530Y-59269500D01*
X151453587Y-59309868D01*
X151453579Y-59309870D01*
X151262403Y-59389058D01*
X151090342Y-59504024D01*
X150944022Y-59650344D01*
X150877602Y-59749751D01*
X150823990Y-59794556D01*
X150754665Y-59803263D01*
X150691638Y-59773109D01*
X150654918Y-59713666D01*
X150650500Y-59680860D01*
X150650500Y-58419139D01*
X150670185Y-58352100D01*
X150722989Y-58306345D01*
X150792147Y-58296401D01*
X150855703Y-58325426D01*
X150877600Y-58350246D01*
X150901713Y-58386333D01*
X150944024Y-58449657D01*
X151090342Y-58595975D01*
X151090345Y-58595977D01*
X151262402Y-58710941D01*
X151453580Y-58790130D01*
X151656530Y-58830499D01*
X151656534Y-58830500D01*
X151656535Y-58830500D01*
X151863466Y-58830500D01*
X151863467Y-58830499D01*
X152066420Y-58790130D01*
X152257598Y-58710941D01*
X152429655Y-58595977D01*
X152575977Y-58449655D01*
X152690941Y-58277598D01*
X152770130Y-58086420D01*
X152810500Y-57883465D01*
X152810500Y-57676535D01*
X152770130Y-57473580D01*
X152690941Y-57282402D01*
X152575977Y-57110345D01*
X152575976Y-57110344D01*
X152575975Y-57110342D01*
X152429657Y-56964024D01*
X152334581Y-56900497D01*
X152257598Y-56849059D01*
X152066420Y-56769870D01*
X152066412Y-56769868D01*
X151863469Y-56729500D01*
X151863465Y-56729500D01*
X151656535Y-56729500D01*
X151656530Y-56729500D01*
X151453587Y-56769868D01*
X151453579Y-56769870D01*
X151262403Y-56849058D01*
X151090342Y-56964024D01*
X150944022Y-57110344D01*
X150877602Y-57209751D01*
X150823990Y-57254556D01*
X150754665Y-57263263D01*
X150691638Y-57233109D01*
X150654918Y-57173666D01*
X150650500Y-57140860D01*
X150650500Y-56434108D01*
X154299500Y-56434108D01*
X154299500Y-56565892D01*
X154311814Y-56611848D01*
X154333608Y-56693187D01*
X154354574Y-56729500D01*
X154399500Y-56807314D01*
X154492686Y-56900500D01*
X154591521Y-56957563D01*
X154602712Y-56964024D01*
X154606814Y-56966392D01*
X154734108Y-57000500D01*
X154734110Y-57000500D01*
X154824167Y-57000500D01*
X154891206Y-57020185D01*
X154911848Y-57036819D01*
X156963181Y-59088152D01*
X156996666Y-59149475D01*
X156999500Y-59175833D01*
X156999500Y-60041323D01*
X156979815Y-60108362D01*
X156963182Y-60129004D01*
X156899500Y-60192686D01*
X156833608Y-60306812D01*
X156799500Y-60434108D01*
X156799500Y-60565891D01*
X156833608Y-60693187D01*
X156866554Y-60750250D01*
X156899500Y-60807314D01*
X156992686Y-60900500D01*
X157106814Y-60966392D01*
X157234108Y-61000500D01*
X157234110Y-61000500D01*
X157365890Y-61000500D01*
X157365892Y-61000500D01*
X157493186Y-60966392D01*
X157607314Y-60900500D01*
X157700500Y-60807314D01*
X157766392Y-60693186D01*
X157791459Y-60599633D01*
X157827823Y-60539974D01*
X157890669Y-60509445D01*
X157948501Y-60516010D01*
X157948963Y-60514288D01*
X157956812Y-60516391D01*
X157956814Y-60516392D01*
X158084108Y-60550500D01*
X158084110Y-60550500D01*
X158215890Y-60550500D01*
X158215892Y-60550500D01*
X158343186Y-60516392D01*
X158457314Y-60450500D01*
X158550500Y-60357314D01*
X158616392Y-60243186D01*
X158650500Y-60115892D01*
X158650500Y-59984108D01*
X158616392Y-59856814D01*
X158550500Y-59742686D01*
X158486818Y-59679004D01*
X158453334Y-59617680D01*
X158450500Y-59591323D01*
X158450500Y-58310440D01*
X158450500Y-58310438D01*
X158430022Y-58234012D01*
X158390460Y-58165489D01*
X155836819Y-55611848D01*
X155803334Y-55550525D01*
X155800500Y-55524167D01*
X155800500Y-55434110D01*
X155800500Y-55434108D01*
X155766392Y-55306814D01*
X155700500Y-55192686D01*
X155607314Y-55099500D01*
X155550250Y-55066554D01*
X155493187Y-55033608D01*
X155429539Y-55016554D01*
X155365892Y-54999500D01*
X155234108Y-54999500D01*
X155106812Y-55033608D01*
X154992686Y-55099500D01*
X154992683Y-55099502D01*
X154899502Y-55192683D01*
X154899500Y-55192686D01*
X154833608Y-55306812D01*
X154823787Y-55343465D01*
X154799500Y-55434108D01*
X154799500Y-55565892D01*
X154811814Y-55611848D01*
X154833608Y-55693187D01*
X154857814Y-55735112D01*
X154899500Y-55807314D01*
X154899502Y-55807316D01*
X154903072Y-55813499D01*
X154919545Y-55881399D01*
X154896693Y-55947426D01*
X154841772Y-55990617D01*
X154795685Y-55999500D01*
X154734108Y-55999500D01*
X154606812Y-56033608D01*
X154492686Y-56099500D01*
X154492683Y-56099502D01*
X154399502Y-56192683D01*
X154399500Y-56192686D01*
X154333608Y-56306812D01*
X154299500Y-56434108D01*
X150650500Y-56434108D01*
X150650500Y-55879139D01*
X150670185Y-55812100D01*
X150722989Y-55766345D01*
X150792147Y-55756401D01*
X150855703Y-55785426D01*
X150877600Y-55810246D01*
X150901713Y-55846333D01*
X150944024Y-55909657D01*
X151090342Y-56055975D01*
X151090345Y-56055977D01*
X151262402Y-56170941D01*
X151453580Y-56250130D01*
X151656530Y-56290499D01*
X151656534Y-56290500D01*
X151656535Y-56290500D01*
X151863466Y-56290500D01*
X151863467Y-56290499D01*
X152066420Y-56250130D01*
X152257598Y-56170941D01*
X152429655Y-56055977D01*
X152575977Y-55909655D01*
X152690941Y-55737598D01*
X152770130Y-55546420D01*
X152810500Y-55343465D01*
X152810500Y-55136535D01*
X152770130Y-54933580D01*
X152690941Y-54742402D01*
X152575977Y-54570345D01*
X152575976Y-54570344D01*
X152575975Y-54570342D01*
X152429657Y-54424024D01*
X152343626Y-54366541D01*
X152257598Y-54309059D01*
X152066420Y-54229870D01*
X152066412Y-54229868D01*
X151863469Y-54189500D01*
X151863465Y-54189500D01*
X151656535Y-54189500D01*
X151656530Y-54189500D01*
X151453587Y-54229868D01*
X151453579Y-54229870D01*
X151262403Y-54309058D01*
X151090342Y-54424024D01*
X150944022Y-54570344D01*
X150877602Y-54669751D01*
X150823990Y-54714556D01*
X150754665Y-54723263D01*
X150691638Y-54693109D01*
X150654918Y-54633666D01*
X150650500Y-54600860D01*
X150650500Y-53338239D01*
X150670185Y-53271200D01*
X150722989Y-53225445D01*
X150792147Y-53215501D01*
X150855653Y-53244503D01*
X150861378Y-53245067D01*
X151277037Y-52829408D01*
X151294075Y-52892993D01*
X151359901Y-53007007D01*
X151452993Y-53100099D01*
X151567007Y-53165925D01*
X151630590Y-53182962D01*
X151214931Y-53598620D01*
X151214932Y-53598621D01*
X151262633Y-53630495D01*
X151262639Y-53630498D01*
X151453725Y-53709649D01*
X151453733Y-53709651D01*
X151656579Y-53749999D01*
X151656583Y-53750000D01*
X151863417Y-53750000D01*
X151863420Y-53749999D01*
X152066266Y-53709651D01*
X152066274Y-53709649D01*
X152257366Y-53630495D01*
X152305066Y-53598621D01*
X152305067Y-53598620D01*
X151889409Y-53182962D01*
X151952993Y-53165925D01*
X152067007Y-53100099D01*
X152160099Y-53007007D01*
X152225925Y-52892993D01*
X152242962Y-52829409D01*
X152658620Y-53245067D01*
X152658621Y-53245066D01*
X152690495Y-53197366D01*
X152769649Y-53006274D01*
X152769651Y-53006266D01*
X152809999Y-52803420D01*
X152810000Y-52803417D01*
X152810000Y-52768946D01*
X155409999Y-52768946D01*
X155436899Y-52904176D01*
X155436902Y-52904186D01*
X155489664Y-53031566D01*
X155489671Y-53031579D01*
X155566275Y-53146226D01*
X155663773Y-53243724D01*
X155778420Y-53320328D01*
X155778424Y-53320330D01*
X155860000Y-53354119D01*
X155860000Y-52866988D01*
X155869940Y-52884205D01*
X155925795Y-52940060D01*
X155994204Y-52979556D01*
X156070504Y-53000000D01*
X156149496Y-53000000D01*
X156225796Y-52979556D01*
X156294205Y-52940060D01*
X156350060Y-52884205D01*
X156360000Y-52866988D01*
X156360000Y-53354118D01*
X156441575Y-53320330D01*
X156441579Y-53320328D01*
X156556226Y-53243724D01*
X156653724Y-53146226D01*
X156730328Y-53031579D01*
X156730335Y-53031566D01*
X156783097Y-52904186D01*
X156783100Y-52904176D01*
X156810000Y-52768946D01*
X156810000Y-52400000D01*
X156410000Y-52400000D01*
X156410000Y-51900000D01*
X156809998Y-51900000D01*
X156839723Y-51870275D01*
X156901046Y-51836790D01*
X156970738Y-51841774D01*
X157026672Y-51883645D01*
X157034792Y-51895955D01*
X157042716Y-51909680D01*
X157079485Y-51973365D01*
X157186635Y-52080515D01*
X157300281Y-52146129D01*
X157316503Y-52155495D01*
X157317865Y-52156281D01*
X157464234Y-52195500D01*
X157464236Y-52195500D01*
X157615764Y-52195500D01*
X157615766Y-52195500D01*
X157762135Y-52156281D01*
X157893365Y-52080515D01*
X158000515Y-51973365D01*
X158076281Y-51842135D01*
X158115500Y-51695766D01*
X158115500Y-51544234D01*
X162744500Y-51544234D01*
X162744500Y-51695765D01*
X162783719Y-51842136D01*
X162821602Y-51907750D01*
X162859485Y-51973365D01*
X162966635Y-52080515D01*
X163080281Y-52146129D01*
X163096503Y-52155495D01*
X163097865Y-52156281D01*
X163244234Y-52195500D01*
X163244236Y-52195500D01*
X163395764Y-52195500D01*
X163395766Y-52195500D01*
X163542135Y-52156281D01*
X163673365Y-52080515D01*
X163780515Y-51973365D01*
X163825207Y-51895955D01*
X163875774Y-51847740D01*
X163944381Y-51834517D01*
X164009246Y-51860485D01*
X164020275Y-51870275D01*
X164050000Y-51900000D01*
X164450000Y-51900000D01*
X164450000Y-52400000D01*
X164050000Y-52400000D01*
X164050000Y-52768946D01*
X164049999Y-52768946D01*
X164076899Y-52904176D01*
X164076902Y-52904186D01*
X164129664Y-53031566D01*
X164129671Y-53031579D01*
X164206275Y-53146226D01*
X164303773Y-53243724D01*
X164418420Y-53320328D01*
X164418424Y-53320330D01*
X164500000Y-53354119D01*
X164500000Y-52866988D01*
X164509940Y-52884205D01*
X164565795Y-52940060D01*
X164634204Y-52979556D01*
X164710504Y-53000000D01*
X164789496Y-53000000D01*
X164865796Y-52979556D01*
X164934205Y-52940060D01*
X164990060Y-52884205D01*
X165000000Y-52866988D01*
X165000000Y-53354118D01*
X165081575Y-53320330D01*
X165081579Y-53320328D01*
X165196226Y-53243724D01*
X165293724Y-53146226D01*
X165370328Y-53031579D01*
X165370335Y-53031566D01*
X165423097Y-52904186D01*
X165423100Y-52904176D01*
X165450000Y-52768946D01*
X165450000Y-52400000D01*
X165050000Y-52400000D01*
X165050000Y-51900000D01*
X165450000Y-51900000D01*
X165450000Y-51531053D01*
X165423100Y-51395823D01*
X165423097Y-51395813D01*
X165370335Y-51268433D01*
X165370328Y-51268420D01*
X165293724Y-51153773D01*
X165196226Y-51056275D01*
X165081573Y-50979667D01*
X165000000Y-50945879D01*
X165000000Y-51433011D01*
X164990060Y-51415795D01*
X164934205Y-51359940D01*
X164865796Y-51320444D01*
X164789496Y-51300000D01*
X164710504Y-51300000D01*
X164634204Y-51320444D01*
X164565795Y-51359940D01*
X164509940Y-51415795D01*
X164500000Y-51433011D01*
X164500000Y-50945879D01*
X164499999Y-50945879D01*
X164418426Y-50979667D01*
X164303773Y-51056275D01*
X164206275Y-51153773D01*
X164129671Y-51268420D01*
X164129666Y-51268430D01*
X164080470Y-51387199D01*
X164036628Y-51441603D01*
X163970334Y-51463667D01*
X163902635Y-51446387D01*
X163858522Y-51401746D01*
X163834385Y-51359940D01*
X163780515Y-51266635D01*
X163673365Y-51159485D01*
X163593873Y-51113590D01*
X163542136Y-51083719D01*
X163439711Y-51056275D01*
X163395766Y-51044500D01*
X163244234Y-51044500D01*
X163097863Y-51083719D01*
X162966635Y-51159485D01*
X162966632Y-51159487D01*
X162859487Y-51266632D01*
X162859485Y-51266635D01*
X162783719Y-51397863D01*
X162744500Y-51544234D01*
X158115500Y-51544234D01*
X158076281Y-51397865D01*
X158000515Y-51266635D01*
X157893365Y-51159485D01*
X157813873Y-51113590D01*
X157762136Y-51083719D01*
X157659711Y-51056275D01*
X157615766Y-51044500D01*
X157464234Y-51044500D01*
X157317863Y-51083719D01*
X157186635Y-51159485D01*
X157186632Y-51159487D01*
X157079487Y-51266632D01*
X157079485Y-51266635D01*
X157001477Y-51401747D01*
X156950909Y-51449962D01*
X156882302Y-51463184D01*
X156817437Y-51437216D01*
X156779529Y-51387199D01*
X156730333Y-51268429D01*
X156730328Y-51268420D01*
X156653724Y-51153773D01*
X156556226Y-51056275D01*
X156441573Y-50979667D01*
X156360000Y-50945879D01*
X156360000Y-51433011D01*
X156350060Y-51415795D01*
X156294205Y-51359940D01*
X156225796Y-51320444D01*
X156149496Y-51300000D01*
X156070504Y-51300000D01*
X155994204Y-51320444D01*
X155925795Y-51359940D01*
X155869940Y-51415795D01*
X155860000Y-51433011D01*
X155860000Y-50945879D01*
X155859999Y-50945879D01*
X155778426Y-50979667D01*
X155663773Y-51056275D01*
X155566275Y-51153773D01*
X155489671Y-51268420D01*
X155489664Y-51268433D01*
X155436902Y-51395813D01*
X155436899Y-51395823D01*
X155410000Y-51531053D01*
X155410000Y-51900000D01*
X155810000Y-51900000D01*
X155810000Y-52400000D01*
X155410000Y-52400000D01*
X155410000Y-52768946D01*
X155409999Y-52768946D01*
X152810000Y-52768946D01*
X152810000Y-52596583D01*
X152809999Y-52596579D01*
X152769651Y-52393733D01*
X152769650Y-52393729D01*
X152690498Y-52202639D01*
X152690495Y-52202633D01*
X152658621Y-52154932D01*
X152658620Y-52154931D01*
X152242962Y-52570590D01*
X152225925Y-52507007D01*
X152160099Y-52392993D01*
X152067007Y-52299901D01*
X151952993Y-52234075D01*
X151889409Y-52217037D01*
X152305067Y-51801378D01*
X152305067Y-51801377D01*
X152257359Y-51769500D01*
X152066274Y-51690350D01*
X152066266Y-51690348D01*
X151863420Y-51650000D01*
X151656579Y-51650000D01*
X151453733Y-51690348D01*
X151453725Y-51690350D01*
X151262641Y-51769500D01*
X151262631Y-51769505D01*
X151214932Y-51801377D01*
X151214932Y-51801378D01*
X151630591Y-52217037D01*
X151567007Y-52234075D01*
X151452993Y-52299901D01*
X151359901Y-52392993D01*
X151294075Y-52507007D01*
X151277037Y-52570591D01*
X150861378Y-52154932D01*
X150847022Y-52156346D01*
X150826011Y-52174553D01*
X150824872Y-52174716D01*
X150823989Y-52175455D01*
X150790384Y-52179675D01*
X150756853Y-52184497D01*
X150755805Y-52184018D01*
X150754664Y-52184162D01*
X150724120Y-52169548D01*
X150693297Y-52155472D01*
X150692674Y-52154503D01*
X150691637Y-52154007D01*
X150673839Y-52125194D01*
X150655523Y-52096694D01*
X150655307Y-52095194D01*
X150654918Y-52094564D01*
X150650500Y-52061759D01*
X150650500Y-50799139D01*
X150670185Y-50732100D01*
X150722989Y-50686345D01*
X150792147Y-50676401D01*
X150855703Y-50705426D01*
X150877600Y-50730246D01*
X150901713Y-50766333D01*
X150944024Y-50829657D01*
X151090342Y-50975975D01*
X151090345Y-50975977D01*
X151262402Y-51090941D01*
X151453580Y-51170130D01*
X151656530Y-51210499D01*
X151656534Y-51210500D01*
X151656535Y-51210500D01*
X151863466Y-51210500D01*
X151863467Y-51210499D01*
X152066420Y-51170130D01*
X152257598Y-51090941D01*
X152429655Y-50975977D01*
X152575977Y-50829655D01*
X152690941Y-50657598D01*
X152770130Y-50466420D01*
X152810500Y-50263465D01*
X152810500Y-50056535D01*
X152770130Y-49853580D01*
X152690941Y-49662402D01*
X152575977Y-49490345D01*
X152575976Y-49490344D01*
X152575975Y-49490342D01*
X152429657Y-49344024D01*
X152343626Y-49286541D01*
X152257598Y-49229059D01*
X152066420Y-49149870D01*
X152066412Y-49149868D01*
X151863469Y-49109500D01*
X151863465Y-49109500D01*
X151656535Y-49109500D01*
X151656530Y-49109500D01*
X151453587Y-49149868D01*
X151453579Y-49149870D01*
X151262403Y-49229058D01*
X151090342Y-49344024D01*
X150944022Y-49490344D01*
X150877602Y-49589751D01*
X150823990Y-49634556D01*
X150754665Y-49643263D01*
X150691638Y-49613109D01*
X150654918Y-49553666D01*
X150650500Y-49520860D01*
X150650500Y-48769362D01*
X150670185Y-48702323D01*
X150722989Y-48656568D01*
X150792147Y-48646624D01*
X150821955Y-48654802D01*
X150831771Y-48658868D01*
X150890247Y-48670499D01*
X150890250Y-48670500D01*
X150890252Y-48670500D01*
X152629750Y-48670500D01*
X152629751Y-48670499D01*
X152644568Y-48667552D01*
X152688229Y-48658868D01*
X152688229Y-48658867D01*
X152688231Y-48658867D01*
X152754552Y-48614552D01*
X152798867Y-48548231D01*
X152798867Y-48548229D01*
X152798868Y-48548229D01*
X152810499Y-48489752D01*
X152810500Y-48489750D01*
X152810500Y-46874500D01*
X152830185Y-46807461D01*
X152882989Y-46761706D01*
X152934500Y-46750500D01*
X155885566Y-46750500D01*
X155952605Y-46770185D01*
G37*
%TD.AperFunction*%
%TA.AperFunction,Conductor*%
G36*
X154977720Y-69601131D02*
G01*
X155023277Y-69613339D01*
X155411328Y-69613339D01*
X155478367Y-69633024D01*
X155499009Y-69649658D01*
X156090811Y-70241460D01*
X156159334Y-70281022D01*
X156235760Y-70301500D01*
X156465721Y-70301500D01*
X156491328Y-70304173D01*
X156510632Y-70308247D01*
X156551810Y-70332021D01*
X156551814Y-70332023D01*
X156628240Y-70352501D01*
X156707364Y-70352500D01*
X156720308Y-70352500D01*
X157350489Y-70352500D01*
X157417528Y-70372185D01*
X157438170Y-70388819D01*
X157882411Y-70833060D01*
X157915896Y-70894383D01*
X157910912Y-70964075D01*
X157869040Y-71020008D01*
X157803576Y-71044425D01*
X157747285Y-71035305D01*
X157743192Y-71033610D01*
X157743187Y-71033608D01*
X157743186Y-71033608D01*
X157615892Y-70999500D01*
X157484108Y-70999500D01*
X157356812Y-71033608D01*
X157242686Y-71099500D01*
X157242683Y-71099502D01*
X157149502Y-71192683D01*
X157149500Y-71192686D01*
X157083608Y-71306812D01*
X157054381Y-71415891D01*
X157049500Y-71434108D01*
X157049500Y-71565892D01*
X157054247Y-71583608D01*
X157083608Y-71693187D01*
X157107199Y-71734047D01*
X157149500Y-71807314D01*
X157242686Y-71900500D01*
X157356814Y-71966392D01*
X157484108Y-72000500D01*
X157484110Y-72000500D01*
X157574167Y-72000500D01*
X157641206Y-72020185D01*
X157661848Y-72036819D01*
X158313182Y-72688153D01*
X158327885Y-72715080D01*
X158344478Y-72740899D01*
X158345369Y-72747099D01*
X158346667Y-72749476D01*
X158349501Y-72775834D01*
X158349501Y-72984217D01*
X158329816Y-73051256D01*
X158313183Y-73071898D01*
X158249501Y-73135580D01*
X158183609Y-73249706D01*
X158163056Y-73326412D01*
X158149501Y-73377002D01*
X158149501Y-73508786D01*
X158180997Y-73626333D01*
X158183610Y-73636082D01*
X158183610Y-73636083D01*
X158221596Y-73701876D01*
X158238069Y-73769776D01*
X158215217Y-73835803D01*
X158160295Y-73878993D01*
X158090742Y-73885635D01*
X158028639Y-73853619D01*
X158026528Y-73851557D01*
X155988742Y-71813771D01*
X155965147Y-71800149D01*
X155950454Y-71791666D01*
X155950453Y-71791665D01*
X155920226Y-71774213D01*
X155920225Y-71774212D01*
X155881479Y-71763830D01*
X155843794Y-71753732D01*
X155843792Y-71753732D01*
X155454444Y-71753732D01*
X155387405Y-71734047D01*
X155366763Y-71717413D01*
X155303084Y-71653734D01*
X155303082Y-71653732D01*
X155230537Y-71611848D01*
X155188955Y-71587840D01*
X155107038Y-71565891D01*
X155061660Y-71553732D01*
X154929876Y-71553732D01*
X154805593Y-71587033D01*
X154735743Y-71585370D01*
X154677881Y-71546207D01*
X154650377Y-71481978D01*
X154649500Y-71467258D01*
X154649500Y-69724173D01*
X154669185Y-69657134D01*
X154721989Y-69611379D01*
X154775981Y-69603291D01*
X154775981Y-69600500D01*
X154915891Y-69600500D01*
X154915892Y-69600500D01*
X154915892Y-69600499D01*
X154923949Y-69599439D01*
X154924172Y-69601135D01*
X154929555Y-69601135D01*
X154942676Y-69596941D01*
X154977720Y-69601131D01*
G37*
%TD.AperFunction*%
%TA.AperFunction,Conductor*%
G36*
X170608362Y-50706890D02*
G01*
X170645082Y-50766333D01*
X170649500Y-50799139D01*
X170649500Y-52061762D01*
X170629815Y-52128801D01*
X170577011Y-52174556D01*
X170507853Y-52184500D01*
X170444341Y-52155495D01*
X170438620Y-52154931D01*
X170022962Y-52570590D01*
X170005925Y-52507007D01*
X169940099Y-52392993D01*
X169847007Y-52299901D01*
X169732993Y-52234075D01*
X169669409Y-52217037D01*
X170085067Y-51801378D01*
X170085067Y-51801377D01*
X170037359Y-51769500D01*
X169846274Y-51690350D01*
X169846266Y-51690348D01*
X169643420Y-51650000D01*
X169436579Y-51650000D01*
X169233733Y-51690348D01*
X169233725Y-51690350D01*
X169042641Y-51769500D01*
X169042631Y-51769505D01*
X168994932Y-51801377D01*
X168994932Y-51801378D01*
X169410591Y-52217037D01*
X169347007Y-52234075D01*
X169232993Y-52299901D01*
X169139901Y-52392993D01*
X169074075Y-52507007D01*
X169057037Y-52570591D01*
X168641378Y-52154932D01*
X168641377Y-52154932D01*
X168609505Y-52202631D01*
X168609500Y-52202641D01*
X168530350Y-52393725D01*
X168530348Y-52393733D01*
X168490000Y-52596579D01*
X168490000Y-52803420D01*
X168530348Y-53006266D01*
X168530350Y-53006274D01*
X168609500Y-53197359D01*
X168641377Y-53245067D01*
X168641378Y-53245067D01*
X169057037Y-52829408D01*
X169074075Y-52892993D01*
X169139901Y-53007007D01*
X169232993Y-53100099D01*
X169347007Y-53165925D01*
X169410590Y-53182962D01*
X168994931Y-53598620D01*
X168994932Y-53598621D01*
X169042633Y-53630495D01*
X169042639Y-53630498D01*
X169233725Y-53709649D01*
X169233733Y-53709651D01*
X169436579Y-53749999D01*
X169436583Y-53750000D01*
X169643417Y-53750000D01*
X169643420Y-53749999D01*
X169846266Y-53709651D01*
X169846274Y-53709649D01*
X170037366Y-53630495D01*
X170085066Y-53598621D01*
X170085067Y-53598620D01*
X169669409Y-53182962D01*
X169732993Y-53165925D01*
X169847007Y-53100099D01*
X169940099Y-53007007D01*
X170005925Y-52892993D01*
X170022962Y-52829408D01*
X170438620Y-53245067D01*
X170453162Y-53243634D01*
X170476013Y-53224539D01*
X170545338Y-53215833D01*
X170608365Y-53245990D01*
X170645083Y-53305434D01*
X170649500Y-53338236D01*
X170649500Y-54600860D01*
X170629815Y-54667899D01*
X170577011Y-54713654D01*
X170507853Y-54723598D01*
X170444297Y-54694573D01*
X170422398Y-54669751D01*
X170355977Y-54570344D01*
X170209657Y-54424024D01*
X170123626Y-54366541D01*
X170037598Y-54309059D01*
X169846420Y-54229870D01*
X169846412Y-54229868D01*
X169643469Y-54189500D01*
X169643465Y-54189500D01*
X169436535Y-54189500D01*
X169436530Y-54189500D01*
X169233587Y-54229868D01*
X169233579Y-54229870D01*
X169042403Y-54309058D01*
X168870342Y-54424024D01*
X168724024Y-54570342D01*
X168609058Y-54742403D01*
X168529870Y-54933579D01*
X168529868Y-54933587D01*
X168489500Y-55136530D01*
X168489500Y-55343469D01*
X168529868Y-55546412D01*
X168529871Y-55546424D01*
X168579803Y-55666971D01*
X168587272Y-55736440D01*
X168555997Y-55798919D01*
X168552923Y-55802104D01*
X166963181Y-57391847D01*
X166901858Y-57425332D01*
X166832166Y-57420348D01*
X166776233Y-57378476D01*
X166751816Y-57313012D01*
X166751500Y-57304166D01*
X166751500Y-53424832D01*
X166771185Y-53357793D01*
X166787814Y-53337156D01*
X168977896Y-51147073D01*
X169039217Y-51113590D01*
X169108909Y-51118574D01*
X169113007Y-51120186D01*
X169233580Y-51170130D01*
X169436530Y-51210499D01*
X169436534Y-51210500D01*
X169436535Y-51210500D01*
X169643466Y-51210500D01*
X169643467Y-51210499D01*
X169846420Y-51170130D01*
X170037598Y-51090941D01*
X170209655Y-50975977D01*
X170355977Y-50829655D01*
X170422398Y-50730248D01*
X170476009Y-50685443D01*
X170545334Y-50676736D01*
X170608362Y-50706890D01*
G37*
%TD.AperFunction*%
%TD*%
M02*
