M48
; DRILL file {KiCad 9.0.7} date 2026-03-29T11:59:03-0700
; FORMAT={-:-/ absolute / metric / decimal}
; #@! TF.CreationDate,2026-03-29T11:59:03-07:00
; #@! TF.GenerationSoftware,Kicad,Pcbnew,9.0.7
; #@! TF.FileFunction,Plated,1,2,PTH
FMAT,2
METRIC
; #@! TA.AperFunction,Plated,PTH,ViaDrill
T1C0.300
; #@! TA.AperFunction,Plated,PTH,ComponentDrill
T2C0.600
; #@! TA.AperFunction,Plated,PTH,ComponentDrill
T3C1.000
%
G90
G05
T1
X153.3Y-79.6
X153.45Y-71.35
X153.548Y-70.654
X153.548Y-73.2
X154.65Y-78.0
X154.749Y-68.291
X154.8Y-56.5
X154.85Y-69.1
X154.9Y-72.9
X154.996Y-72.054
X155.3Y-55.5
X155.5Y-68.7
X155.5Y-78.2
X155.8Y-86.9
X156.0Y-67.7
X156.2Y-68.6
X156.401Y-76.349
X156.65Y-71.2
X156.715Y-77.369
X156.85Y-68.35
X156.85Y-92.05
X156.9Y-67.55
X157.0Y-69.25
X157.3Y-60.5
X157.55Y-71.5
X158.111Y-69.504
X158.15Y-60.05
X158.39Y-80.106
X158.4Y-78.4
X158.464Y-76.429
X158.6Y-65.7
X158.65Y-77.2
X158.65Y-73.443
X158.934Y-85.582
X159.7Y-75.72
X159.75Y-66.2
X160.25Y-69.55
X160.25Y-80.32
X161.206Y-75.72
X161.25Y-80.92
X161.29Y-71.0
X161.29Y-74.179
X161.95Y-80.95
X162.0Y-71.0
X162.966Y-80.109
X163.015Y-70.015
X163.031Y-74.045
X163.5Y-65.75
X163.5Y-71.0
X163.598Y-83.603
X163.7Y-54.45
X163.742Y-78.908
X164.0Y-73.75
X164.25Y-75.1
X164.404Y-81.446
X164.441Y-62.859
X164.55Y-83.609
X165.15Y-66.7
X165.361Y-72.429
X165.55Y-70.85
X165.65Y-53.45
X165.705Y-77.855
X165.85Y-76.15
X165.95Y-72.05
X166.413Y-78.562
X166.604Y-76.103
X167.85Y-58.2
X167.85Y-60.75
X168.05Y-79.25
X168.6Y-64.1
T3
X151.76Y-47.62
X151.76Y-50.16
X151.76Y-52.7
X151.76Y-55.24
X151.76Y-57.78
X151.76Y-60.32
X151.76Y-62.86
X151.76Y-65.4
X151.76Y-67.94
X151.76Y-70.48
X151.76Y-73.02
X151.76Y-75.56
X151.76Y-78.1
X151.76Y-80.64
X151.76Y-83.18
X151.76Y-85.72
X151.76Y-88.26
X151.76Y-90.8
X151.76Y-93.34
X151.76Y-95.88
X158.11Y-96.64
X160.65Y-96.64
X163.19Y-96.64
X169.54Y-47.62
X169.54Y-50.16
X169.54Y-52.7
X169.54Y-55.24
X169.54Y-57.78
X169.54Y-60.32
X169.54Y-62.86
X169.54Y-65.4
X169.54Y-67.94
X169.54Y-70.48
X169.54Y-73.02
X169.54Y-75.56
X169.54Y-78.1
X169.54Y-80.64
X169.54Y-83.18
X169.54Y-85.72
X169.54Y-88.26
X169.54Y-90.8
X169.54Y-93.34
X169.54Y-95.88
T2
G00X156.11Y-48.27
M15
G01X156.11Y-47.67
M16
G05
G00X156.11Y-52.7
M15
G01X156.11Y-51.6
M16
G05
G00X164.75Y-48.27
M15
G01X164.75Y-47.67
M16
G05
G00X164.75Y-52.7
M15
G01X164.75Y-51.6
M16
G05
M30
