%TF.GenerationSoftware,KiCad,Pcbnew,9.0.7*%
%TF.CreationDate,2026-03-29T11:59:00-07:00*%
%TF.ProjectId,Devboard,44657662-6f61-4726-942e-6b696361645f,rev?*%
%TF.SameCoordinates,Original*%
%TF.FileFunction,Copper,L1,Top*%
%TF.FilePolarity,Positive*%
%FSLAX46Y46*%
G04 Gerber Fmt 4.6, Leading zero omitted, Abs format (unit mm)*
G04 Created by KiCad (PCBNEW 9.0.7) date 2026-03-29 11:59:00*
%MOMM*%
%LPD*%
G01*
G04 APERTURE LIST*
G04 Aperture macros list*
%AMRoundRect*
0 Rectangle with rounded corners*
0 $1 Rounding radius*
0 $2 $3 $4 $5 $6 $7 $8 $9 X,Y pos of 4 corners*
0 Add a 4 corners polygon primitive as box body*
4,1,4,$2,$3,$4,$5,$6,$7,$8,$9,$2,$3,0*
0 Add four circle primitives for the rounded corners*
1,1,$1+$1,$2,$3*
1,1,$1+$1,$4,$5*
1,1,$1+$1,$6,$7*
1,1,$1+$1,$8,$9*
0 Add four rect primitives between the rounded corners*
20,1,$1+$1,$2,$3,$4,$5,0*
20,1,$1+$1,$4,$5,$6,$7,0*
20,1,$1+$1,$6,$7,$8,$9,0*
20,1,$1+$1,$8,$9,$2,$3,0*%
G04 Aperture macros list end*
%TA.AperFunction,SMDPad,CuDef*%
%ADD10RoundRect,0.140000X0.140000X0.170000X-0.140000X0.170000X-0.140000X-0.170000X0.140000X-0.170000X0*%
%TD*%
%TA.AperFunction,HeatsinkPad*%
%ADD11R,0.200000X1.600000*%
%TD*%
%TA.AperFunction,SMDPad,CuDef*%
%ADD12RoundRect,0.062500X-0.387500X-0.062500X0.387500X-0.062500X0.387500X0.062500X-0.387500X0.062500X0*%
%TD*%
%TA.AperFunction,SMDPad,CuDef*%
%ADD13RoundRect,0.140000X-0.170000X0.140000X-0.170000X-0.140000X0.170000X-0.140000X0.170000X0.140000X0*%
%TD*%
%TA.AperFunction,SMDPad,CuDef*%
%ADD14RoundRect,0.140000X0.021213X-0.219203X0.219203X-0.021213X-0.021213X0.219203X-0.219203X0.021213X0*%
%TD*%
%TA.AperFunction,SMDPad,CuDef*%
%ADD15RoundRect,0.140000X-0.140000X-0.170000X0.140000X-0.170000X0.140000X0.170000X-0.140000X0.170000X0*%
%TD*%
%TA.AperFunction,SMDPad,CuDef*%
%ADD16RoundRect,0.150000X0.150000X-0.587500X0.150000X0.587500X-0.150000X0.587500X-0.150000X-0.587500X0*%
%TD*%
%TA.AperFunction,ComponentPad*%
%ADD17R,1.700000X1.700000*%
%TD*%
%TA.AperFunction,ComponentPad*%
%ADD18C,1.700000*%
%TD*%
%TA.AperFunction,SMDPad,CuDef*%
%ADD19R,0.600000X1.450000*%
%TD*%
%TA.AperFunction,SMDPad,CuDef*%
%ADD20R,0.300000X1.450000*%
%TD*%
%TA.AperFunction,HeatsinkPad*%
%ADD21O,1.000000X2.100000*%
%TD*%
%TA.AperFunction,HeatsinkPad*%
%ADD22O,1.000000X1.600000*%
%TD*%
%TA.AperFunction,SMDPad,CuDef*%
%ADD23RoundRect,0.100000X0.130000X0.100000X-0.130000X0.100000X-0.130000X-0.100000X0.130000X-0.100000X0*%
%TD*%
%TA.AperFunction,SMDPad,CuDef*%
%ADD24RoundRect,0.050000X-0.387500X-0.050000X0.387500X-0.050000X0.387500X0.050000X-0.387500X0.050000X0*%
%TD*%
%TA.AperFunction,SMDPad,CuDef*%
%ADD25RoundRect,0.050000X-0.050000X-0.387500X0.050000X-0.387500X0.050000X0.387500X-0.050000X0.387500X0*%
%TD*%
%TA.AperFunction,HeatsinkPad*%
%ADD26R,3.200000X3.200000*%
%TD*%
%TA.AperFunction,SMDPad,CuDef*%
%ADD27RoundRect,0.250000X-0.450000X-0.350000X0.450000X-0.350000X0.450000X0.350000X-0.450000X0.350000X0*%
%TD*%
%TA.AperFunction,SMDPad,CuDef*%
%ADD28RoundRect,0.140000X0.170000X-0.140000X0.170000X0.140000X-0.170000X0.140000X-0.170000X-0.140000X0*%
%TD*%
%TA.AperFunction,SMDPad,CuDef*%
%ADD29RoundRect,0.140000X0.219203X0.021213X0.021213X0.219203X-0.219203X-0.021213X-0.021213X-0.219203X0*%
%TD*%
%TA.AperFunction,SMDPad,CuDef*%
%ADD30RoundRect,0.200000X-0.800000X0.200000X-0.800000X-0.200000X0.800000X-0.200000X0.800000X0.200000X0*%
%TD*%
%TA.AperFunction,ViaPad*%
%ADD31C,0.600000*%
%TD*%
%TA.AperFunction,Conductor*%
%ADD32C,0.200000*%
%TD*%
G04 APERTURE END LIST*
D10*
%TO.P,C12,2*%
%TO.N,GND*%
X155040000Y-75500000D03*
%TO.P,C12,1*%
%TO.N,+3V3*%
X156000000Y-75500000D03*
%TD*%
D11*
%TO.P,W25Q16JVZPIQ_TR1,9*%
%TO.N,N/C*%
X157500000Y-70000000D03*
D12*
%TO.P,W25Q16JVZPIQ_TR1,8,VCC*%
%TO.N,+3V3*%
X158925000Y-69250000D03*
%TO.P,W25Q16JVZPIQ_TR1,7,/HOLD/IO3*%
%TO.N,QSPI_SCLK*%
X158925000Y-69750000D03*
%TO.P,W25Q16JVZPIQ_TR1,6,CLK*%
%TO.N,QSPI_SD0*%
X158925000Y-70250000D03*
%TO.P,W25Q16JVZPIQ_TR1,5,DI/IO0*%
%TO.N,QSPI_SD1*%
X158925000Y-70750000D03*
%TO.P,W25Q16JVZPIQ_TR1,4,GND*%
%TO.N,GND*%
X156075000Y-70750000D03*
%TO.P,W25Q16JVZPIQ_TR1,3,/WP/IO2*%
%TO.N,QSPI_SD3*%
X156075000Y-70250000D03*
%TO.P,W25Q16JVZPIQ_TR1,2,DO/IO1*%
%TO.N,QSPI_SD2*%
X156075000Y-69750000D03*
%TO.P,W25Q16JVZPIQ_TR1,1,/CS*%
%TO.N,QSPI_SS*%
X156075000Y-69250000D03*
%TD*%
D13*
%TO.P,R1,1*%
%TO.N,Net-(J1-CC2)*%
X159550000Y-55950000D03*
%TO.P,R1,2*%
%TO.N,GND*%
X159550000Y-56910000D03*
%TD*%
%TO.P,R4,1*%
%TO.N,USB_D+*%
X161500000Y-72540000D03*
%TO.P,R4,2*%
%TO.N,Net-(U1-USB_DP)*%
X161500000Y-73500000D03*
%TD*%
D14*
%TO.P,C8,1*%
%TO.N,+3V3*%
X166321178Y-72928822D03*
%TO.P,C8,2*%
%TO.N,GND*%
X167000000Y-72250000D03*
%TD*%
D13*
%TO.P,R2,1*%
%TO.N,Net-(J1-CC1)*%
X161700000Y-56370000D03*
%TO.P,R2,2*%
%TO.N,GND*%
X161700000Y-57330000D03*
%TD*%
%TO.P,R3,1*%
%TO.N,USB_D-*%
X162500000Y-72540000D03*
%TO.P,R3,2*%
%TO.N,Net-(U1-USB_DM)*%
X162500000Y-73500000D03*
%TD*%
D15*
%TO.P,C7,1*%
%TO.N,+3V3*%
X165750000Y-79250000D03*
%TO.P,C7,2*%
%TO.N,GND*%
X166710000Y-79250000D03*
%TD*%
D10*
%TO.P,C6,1*%
%TO.N,+3V3*%
X156000000Y-79250000D03*
%TO.P,C6,2*%
%TO.N,GND*%
X155040000Y-79250000D03*
%TD*%
D14*
%TO.P,C11,1*%
%TO.N,+3V3*%
X161700000Y-68300000D03*
%TO.P,C11,2*%
%TO.N,GND*%
X162378822Y-67621178D03*
%TD*%
D16*
%TO.P,U2,1,GND*%
%TO.N,GND*%
X156050000Y-57937500D03*
%TO.P,U2,2,VO*%
%TO.N,+3V3*%
X157950000Y-57937500D03*
%TO.P,U2,3,VI*%
%TO.N,VBUS*%
X157000000Y-56062500D03*
%TD*%
D17*
%TO.P,J3,1,Pin_1*%
%TO.N,VBUS*%
X169540000Y-47620000D03*
D18*
%TO.P,J3,2,Pin_2*%
%TO.N,GPIO29_ADC3*%
X169540000Y-50160000D03*
%TO.P,J3,3,Pin_3*%
%TO.N,GND*%
X169540000Y-52700000D03*
%TO.P,J3,4,Pin_4*%
%TO.N,GPIO28_ADC2*%
X169540000Y-55240000D03*
%TO.P,J3,5,Pin_5*%
%TO.N,+3V3*%
X169540000Y-57780000D03*
%TO.P,J3,6,Pin_6*%
%TO.N,GPIO27_ADC1*%
X169540000Y-60320000D03*
%TO.P,J3,7,Pin_7*%
%TO.N,GPIO26_ADC0*%
X169540000Y-62860000D03*
%TO.P,J3,8,Pin_8*%
%TO.N,GND*%
X169540000Y-65400000D03*
%TO.P,J3,9,Pin_9*%
%TO.N,GPIO24*%
X169540000Y-67940000D03*
%TO.P,J3,10,Pin_10*%
%TO.N,GPIO23*%
X169540000Y-70480000D03*
%TO.P,J3,11,Pin_11*%
%TO.N,RUN*%
X169540000Y-73020000D03*
%TO.P,J3,12,Pin_12*%
%TO.N,GPIO22*%
X169540000Y-75560000D03*
%TO.P,J3,13,Pin_13*%
%TO.N,GND*%
X169540000Y-78100000D03*
%TO.P,J3,14,Pin_14*%
%TO.N,GPIO21*%
X169540000Y-80640000D03*
%TO.P,J3,15,Pin_15*%
%TO.N,GPIO20*%
X169540000Y-83180000D03*
%TO.P,J3,16,Pin_16*%
%TO.N,GPIO19*%
X169540000Y-85720000D03*
%TO.P,J3,17,Pin_17*%
%TO.N,GPIO18*%
X169540000Y-88260000D03*
%TO.P,J3,18,Pin_18*%
%TO.N,GND*%
X169540000Y-90800000D03*
%TO.P,J3,19,Pin_19*%
%TO.N,GPIO17*%
X169540000Y-93340000D03*
%TO.P,J3,20,Pin_20*%
%TO.N,GPIO16*%
X169540000Y-95880000D03*
%TD*%
D19*
%TO.P,J1,A1,GND*%
%TO.N,GND*%
X163680000Y-53065000D03*
%TO.P,J1,A4,VBUS*%
%TO.N,VBUS*%
X162880000Y-53065000D03*
D20*
%TO.P,J1,A5,CC1*%
%TO.N,Net-(J1-CC1)*%
X161680000Y-53065000D03*
%TO.P,J1,A6,D+*%
%TO.N,USB_D-*%
X160680000Y-53065000D03*
%TO.P,J1,A7,D-*%
%TO.N,USB_D+*%
X160180000Y-53065000D03*
%TO.P,J1,A8*%
%TO.N,N/C*%
X159180000Y-53065000D03*
D19*
%TO.P,J1,A9,VBUS*%
%TO.N,VBUS*%
X157980000Y-53065000D03*
%TO.P,J1,A12,GND*%
%TO.N,GND*%
X157180000Y-53065000D03*
%TO.P,J1,B1,GND*%
X157180000Y-53065000D03*
%TO.P,J1,B4,VBUS*%
%TO.N,VBUS*%
X157980000Y-53065000D03*
D20*
%TO.P,J1,B5,CC2*%
%TO.N,Net-(J1-CC2)*%
X158680000Y-53065000D03*
%TO.P,J1,B6,D+*%
%TO.N,USB_D-*%
X159680000Y-53065000D03*
%TO.P,J1,B7,D-*%
%TO.N,USB_D+*%
X161180000Y-53065000D03*
%TO.P,J1,B8*%
%TO.N,N/C*%
X162180000Y-53065000D03*
D19*
%TO.P,J1,B9,VBUS*%
%TO.N,VBUS*%
X162880000Y-53065000D03*
%TO.P,J1,B12,GND*%
%TO.N,GND*%
X163680000Y-53065000D03*
D21*
%TO.P,J1,S1,SHIELD*%
X164750000Y-52150000D03*
D22*
X164750000Y-47970000D03*
D21*
X156110000Y-52150000D03*
D22*
X156110000Y-47970000D03*
%TD*%
D23*
%TO.P,C13,1*%
%TO.N,VBUS*%
X157025000Y-54650000D03*
%TO.P,C13,2*%
%TO.N,GND*%
X156385000Y-54650000D03*
%TD*%
D10*
%TO.P,C17,1*%
%TO.N,+3V3*%
X158910000Y-68250000D03*
%TO.P,C17,2*%
%TO.N,GND*%
X157950000Y-68250000D03*
%TD*%
D13*
%TO.P,C16,1*%
%TO.N,GND*%
X158250000Y-85550000D03*
%TO.P,C16,2*%
%TO.N,XIN*%
X158250000Y-86510000D03*
%TD*%
%TO.P,C4,1*%
%TO.N,+3V3*%
X163600000Y-83590000D03*
%TO.P,C4,2*%
%TO.N,GND*%
X163600000Y-84550000D03*
%TD*%
D17*
%TO.P,J4,1,Pin_1*%
%TO.N,SWCLK*%
X158110000Y-96640000D03*
D18*
%TO.P,J4,2,Pin_2*%
%TO.N,GND*%
X160650000Y-96640000D03*
%TO.P,J4,3,Pin_3*%
%TO.N,SWD*%
X163190000Y-96640000D03*
%TD*%
D23*
%TO.P,C14,1*%
%TO.N,+3V3*%
X157475000Y-59450000D03*
%TO.P,C14,2*%
%TO.N,GND*%
X156835000Y-59450000D03*
%TD*%
D13*
%TO.P,C1,1*%
%TO.N,+1V1*%
X164550000Y-83590000D03*
%TO.P,C1,2*%
%TO.N,GND*%
X164550000Y-84550000D03*
%TD*%
D24*
%TO.P,U1,1,IOVDD*%
%TO.N,+3V3*%
X157552500Y-75720000D03*
%TO.P,U1,2,GPIO0*%
%TO.N,GPIO0*%
X157552500Y-76120000D03*
%TO.P,U1,3,GPIO1*%
%TO.N,GPIO1*%
X157552500Y-76520000D03*
%TO.P,U1,4,GPIO2*%
%TO.N,GPIO2*%
X157552500Y-76920000D03*
%TO.P,U1,5,GPIO3*%
%TO.N,GPIO3*%
X157552500Y-77320000D03*
%TO.P,U1,6,GPIO4*%
%TO.N,GPIO4*%
X157552500Y-77720000D03*
%TO.P,U1,7,GPIO5*%
%TO.N,GPIO5*%
X157552500Y-78120000D03*
%TO.P,U1,8,GPIO6*%
%TO.N,GPIO6*%
X157552500Y-78520000D03*
%TO.P,U1,9,GPIO7*%
%TO.N,GPIO7*%
X157552500Y-78920000D03*
%TO.P,U1,10,IOVDD*%
%TO.N,+3V3*%
X157552500Y-79320000D03*
%TO.P,U1,11,GPIO8*%
%TO.N,GPIO8*%
X157552500Y-79720000D03*
%TO.P,U1,12,GPIO9*%
%TO.N,GPIO9*%
X157552500Y-80120000D03*
%TO.P,U1,13,GPIO10*%
%TO.N,GPIO10*%
X157552500Y-80520000D03*
%TO.P,U1,14,GPIO11*%
%TO.N,GPIO11*%
X157552500Y-80920000D03*
D25*
%TO.P,U1,15,GPIO12*%
%TO.N,GPIO12*%
X158390000Y-81757500D03*
%TO.P,U1,16,GPIO13*%
%TO.N,GPIO13*%
X158790000Y-81757500D03*
%TO.P,U1,17,GPIO14*%
%TO.N,GPIO14*%
X159190000Y-81757500D03*
%TO.P,U1,18,GPIO15*%
%TO.N,GPIO15*%
X159590000Y-81757500D03*
%TO.P,U1,19,TESTEN*%
%TO.N,GND*%
X159990000Y-81757500D03*
%TO.P,U1,20,XIN*%
%TO.N,XIN*%
X160390000Y-81757500D03*
%TO.P,U1,21,XOUT*%
%TO.N,XOUT*%
X160790000Y-81757500D03*
%TO.P,U1,22,IOVDD*%
%TO.N,+3V3*%
X161190000Y-81757500D03*
%TO.P,U1,23,DVDD*%
%TO.N,+1V1*%
X161590000Y-81757500D03*
%TO.P,U1,24,SWCLK*%
%TO.N,SWCLK*%
X161990000Y-81757500D03*
%TO.P,U1,25,SWDIO*%
%TO.N,SWD*%
X162390000Y-81757500D03*
%TO.P,U1,26,RUN*%
%TO.N,RUN*%
X162790000Y-81757500D03*
%TO.P,U1,27,GPIO16*%
%TO.N,GPIO16*%
X163190000Y-81757500D03*
%TO.P,U1,28,GPIO17*%
%TO.N,GPIO17*%
X163590000Y-81757500D03*
D24*
%TO.P,U1,29,GPIO18*%
%TO.N,GPIO18*%
X164427500Y-80920000D03*
%TO.P,U1,30,GPIO19*%
%TO.N,GPIO19*%
X164427500Y-80520000D03*
%TO.P,U1,31,GPIO20*%
%TO.N,GPIO20*%
X164427500Y-80120000D03*
%TO.P,U1,32,GPIO21*%
%TO.N,GPIO21*%
X164427500Y-79720000D03*
%TO.P,U1,33,IOVDD*%
%TO.N,+3V3*%
X164427500Y-79320000D03*
%TO.P,U1,34,GPIO22*%
%TO.N,GPIO22*%
X164427500Y-78920000D03*
%TO.P,U1,35,GPIO23*%
%TO.N,GPIO23*%
X164427500Y-78520000D03*
%TO.P,U1,36,GPIO24*%
%TO.N,GPIO24*%
X164427500Y-78120000D03*
%TO.P,U1,37,GPIO25*%
%TO.N,unconnected-(U1-GPIO25-Pad37)*%
X164427500Y-77720000D03*
%TO.P,U1,38,GPIO26/ADC0*%
%TO.N,GPIO26_ADC0*%
X164427500Y-77320000D03*
%TO.P,U1,39,GPIO27/ADC1*%
%TO.N,GPIO27_ADC1*%
X164427500Y-76920000D03*
%TO.P,U1,40,GPIO28/ADC2*%
%TO.N,GPIO28_ADC2*%
X164427500Y-76520000D03*
%TO.P,U1,41,GPIO29/ADC3*%
%TO.N,GPIO29_ADC3*%
X164427500Y-76120000D03*
%TO.P,U1,42,IOVDD*%
%TO.N,+3V3*%
X164427500Y-75720000D03*
D25*
%TO.P,U1,43,ADC_AVDD*%
X163590000Y-74882500D03*
%TO.P,U1,44,VREG_VIN*%
X163190000Y-74882500D03*
%TO.P,U1,45,VREG_VOUT*%
%TO.N,+1V1*%
X162790000Y-74882500D03*
%TO.P,U1,46,USB_DM*%
%TO.N,Net-(U1-USB_DM)*%
X162390000Y-74882500D03*
%TO.P,U1,47,USB_DP*%
%TO.N,Net-(U1-USB_DP)*%
X161990000Y-74882500D03*
%TO.P,U1,48,USB_VDD*%
%TO.N,+3V3*%
X161590000Y-74882500D03*
%TO.P,U1,49,IOVDD*%
X161190000Y-74882500D03*
%TO.P,U1,50,DVDD*%
%TO.N,+1V1*%
X160790000Y-74882500D03*
%TO.P,U1,51,QSPI_SD3*%
%TO.N,QSPI_SCLK*%
X160390000Y-74882500D03*
%TO.P,U1,52,QSPI_SCLK*%
%TO.N,QSPI_SD0*%
X159990000Y-74882500D03*
%TO.P,U1,53,QSPI_SD0*%
%TO.N,QSPI_SD1*%
X159590000Y-74882500D03*
%TO.P,U1,54,QSPI_SD2*%
%TO.N,QSPI_SD3*%
X159190000Y-74882500D03*
%TO.P,U1,55,QSPI_SD1*%
%TO.N,QSPI_SD2*%
X158790000Y-74882500D03*
%TO.P,U1,56,~{QSPI_SS}*%
%TO.N,QSPI_SS*%
X158390000Y-74882500D03*
D26*
%TO.P,U1,57,GND*%
%TO.N,GND*%
X160990000Y-78320000D03*
%TD*%
D27*
%TO.P,Y1,1,1*%
%TO.N,XIN*%
X159900000Y-86330000D03*
%TO.P,Y1,2,G*%
%TO.N,GND*%
X162100000Y-86330000D03*
%TO.P,Y1,3,3*%
%TO.N,Net-(C15-Pad2)*%
X162100000Y-84630000D03*
%TO.P,Y1,4,G*%
%TO.N,GND*%
X159900000Y-84630000D03*
%TD*%
D14*
%TO.P,C5,1*%
%TO.N,+3V3*%
X162407107Y-69007107D03*
%TO.P,C5,2*%
%TO.N,GND*%
X163085929Y-68328285D03*
%TD*%
D17*
%TO.P,J2,1,Pin_1*%
%TO.N,GPIO0*%
X151760000Y-47620000D03*
D18*
%TO.P,J2,2,Pin_2*%
%TO.N,GPIO1*%
X151760000Y-50160000D03*
%TO.P,J2,3,Pin_3*%
%TO.N,GND*%
X151760000Y-52700000D03*
%TO.P,J2,4,Pin_4*%
%TO.N,GPIO2*%
X151760000Y-55240000D03*
%TO.P,J2,5,Pin_5*%
%TO.N,GPIO3*%
X151760000Y-57780000D03*
%TO.P,J2,6,Pin_6*%
%TO.N,GPIO4*%
X151760000Y-60320000D03*
%TO.P,J2,7,Pin_7*%
%TO.N,GPIO5*%
X151760000Y-62860000D03*
%TO.P,J2,8,Pin_8*%
%TO.N,GND*%
X151760000Y-65400000D03*
%TO.P,J2,9,Pin_9*%
%TO.N,GPIO6*%
X151760000Y-67940000D03*
%TO.P,J2,10,Pin_10*%
%TO.N,GPIO7*%
X151760000Y-70480000D03*
%TO.P,J2,11,Pin_11*%
%TO.N,GPIO8*%
X151760000Y-73020000D03*
%TO.P,J2,12,Pin_12*%
%TO.N,GPIO9*%
X151760000Y-75560000D03*
%TO.P,J2,13,Pin_13*%
%TO.N,GND*%
X151760000Y-78100000D03*
%TO.P,J2,14,Pin_14*%
%TO.N,GPIO10*%
X151760000Y-80640000D03*
%TO.P,J2,15,Pin_15*%
%TO.N,GPIO11*%
X151760000Y-83180000D03*
%TO.P,J2,16,Pin_16*%
%TO.N,GPIO12*%
X151760000Y-85720000D03*
%TO.P,J2,17,Pin_17*%
%TO.N,GPIO13*%
X151760000Y-88260000D03*
%TO.P,J2,18,Pin_18*%
%TO.N,GND*%
X151760000Y-90800000D03*
%TO.P,J2,19,Pin_19*%
%TO.N,GPIO14*%
X151760000Y-93340000D03*
%TO.P,J2,20,Pin_20*%
%TO.N,GPIO15*%
X151760000Y-95880000D03*
%TD*%
D28*
%TO.P,C9,1*%
%TO.N,+3V3*%
X164750000Y-73210000D03*
%TO.P,C9,2*%
%TO.N,GND*%
X164750000Y-72250000D03*
%TD*%
D10*
%TO.P,R6,1*%
%TO.N,+3V3*%
X159410000Y-67300000D03*
%TO.P,R6,2*%
%TO.N,QSPI_SS*%
X158450000Y-67300000D03*
%TD*%
D29*
%TO.P,C2,1*%
%TO.N,+1V1*%
X160928822Y-70228822D03*
%TO.P,C2,2*%
%TO.N,GND*%
X160250000Y-69550000D03*
%TD*%
D14*
%TO.P,C3,1*%
%TO.N,+1V1*%
X164000000Y-70500000D03*
%TO.P,C3,2*%
%TO.N,GND*%
X164678822Y-69821178D03*
%TD*%
D28*
%TO.P,C15,1*%
%TO.N,GND*%
X163700000Y-86410000D03*
%TO.P,C15,2*%
%TO.N,Net-(C15-Pad2)*%
X163700000Y-85450000D03*
%TD*%
D10*
%TO.P,R5,1*%
%TO.N,Net-(C15-Pad2)*%
X162400000Y-83250000D03*
%TO.P,R5,2*%
%TO.N,XOUT*%
X161440000Y-83250000D03*
%TD*%
D15*
%TO.P,C10,1*%
%TO.N,+3V3*%
X165770000Y-75250000D03*
%TO.P,C10,2*%
%TO.N,GND*%
X166730000Y-75250000D03*
%TD*%
%TO.P,R7,1*%
%TO.N,Net-(R7-Pad1)*%
X163590000Y-61750000D03*
%TO.P,R7,2*%
%TO.N,QSPI_SS*%
X164550000Y-61750000D03*
%TD*%
D30*
%TO.P,SW1,1,1*%
%TO.N,GND*%
X164050000Y-56150000D03*
%TO.P,SW1,2,2*%
%TO.N,Net-(R7-Pad1)*%
X164050000Y-60350000D03*
%TD*%
D31*
%TO.N,GND*%
X165550000Y-70850000D03*
X165650000Y-53450000D03*
X158111475Y-69504369D03*
%TO.N,QSPI_SD3*%
X158650001Y-73442894D03*
X157550000Y-71500000D03*
%TO.N,GND*%
X164250000Y-75100000D03*
X164000000Y-73750000D03*
X165150000Y-66700000D03*
X153548000Y-73200000D03*
X167850000Y-60750000D03*
X165361362Y-72428822D03*
X156850000Y-92050000D03*
%TO.N,+3V3*%
X159700000Y-75720000D03*
X158390000Y-80105890D03*
X164403554Y-81446446D03*
X163597964Y-83602501D03*
%TO.N,GND*%
X155500000Y-78200000D03*
X160250000Y-69550000D03*
X156200000Y-68600000D03*
X167850000Y-58200000D03*
X168600000Y-64100000D03*
X158933982Y-85582304D03*
X155800000Y-86900000D03*
X156850000Y-68350000D03*
X163700000Y-54450000D03*
X168050000Y-79250000D03*
X154650000Y-78000000D03*
%TO.N,+1V1*%
X163500000Y-71000000D03*
X161206488Y-75720000D03*
X164550000Y-83609000D03*
X161249655Y-80920027D03*
X163031368Y-74044539D03*
%TO.N,GND*%
X156650000Y-71200000D03*
%TO.N,+3V3*%
X163500000Y-65750000D03*
X165950000Y-72050000D03*
X161290000Y-74179140D03*
X161290000Y-71000000D03*
%TO.N,USB_D+*%
X163015393Y-70015393D03*
X162000000Y-71000000D03*
%TO.N,GPIO1*%
X154800000Y-56500000D03*
X156900000Y-67550000D03*
X153548000Y-70654232D03*
X157300000Y-60500000D03*
X158463556Y-76428830D03*
X154995768Y-72054232D03*
%TO.N,GPIO5*%
X158400000Y-78400000D03*
X154850000Y-69100000D03*
%TO.N,GPIO0*%
X158600000Y-65700000D03*
X156401431Y-76348569D03*
X155300000Y-55500000D03*
X154900000Y-72900000D03*
X158150000Y-60050000D03*
X153450000Y-71350000D03*
%TO.N,GPIO2*%
X156000000Y-67700000D03*
X158650000Y-77200000D03*
%TO.N,GPIO3*%
X160250000Y-80320002D03*
X155500000Y-68700000D03*
%TO.N,GPIO4*%
X156715001Y-77369246D03*
X154748555Y-68291447D03*
%TO.N,GPIO29_ADC3*%
X165850000Y-76150000D03*
%TO.N,GPIO22*%
X163742114Y-78908440D03*
X166412518Y-78561573D03*
%TO.N,GPIO24*%
X165704939Y-77854939D03*
%TO.N,RUN*%
X162965753Y-80108646D03*
%TO.N,SWCLK*%
X161950000Y-80950000D03*
%TO.N,QSPI_SS*%
X159750000Y-66200000D03*
X164440893Y-62859107D03*
X156999998Y-69250000D03*
%TO.N,GND*%
X153300000Y-79600000D03*
%TO.N,GPIO28_ADC2*%
X166603876Y-76103232D03*
%TD*%
D32*
%TO.N,GND*%
X165361362Y-71038638D02*
X165550000Y-70850000D01*
X165361362Y-72428822D02*
X165361362Y-71038638D01*
X157342479Y-72001000D02*
X157757521Y-72001000D01*
X156650000Y-71308521D02*
X157342479Y-72001000D01*
X158111475Y-71647046D02*
X158111475Y-69504369D01*
X156650000Y-71200000D02*
X156650000Y-71308521D01*
X157757521Y-72001000D02*
X158111475Y-71647046D01*
%TO.N,QSPI_SD3*%
X159190000Y-73982893D02*
X159190000Y-74882500D01*
X158650001Y-73442894D02*
X159190000Y-73982893D01*
X156524999Y-70250000D02*
X157550000Y-71275001D01*
X156075000Y-70250000D02*
X156524999Y-70250000D01*
X157550000Y-71275001D02*
X157550000Y-71500000D01*
%TO.N,GND*%
X160990000Y-78310000D02*
X160990000Y-78320000D01*
X164250000Y-75100000D02*
X164200000Y-75100000D01*
X164000000Y-73163872D02*
X164000000Y-73750000D01*
X164200000Y-75100000D02*
X160990000Y-78310000D01*
X164735050Y-72428822D02*
X164000000Y-73163872D01*
X165361362Y-72428822D02*
X164735050Y-72428822D01*
X163521715Y-68328285D02*
X165150000Y-66700000D01*
X163085929Y-68328285D02*
X163521715Y-68328285D01*
%TO.N,USB_D-*%
X162500000Y-69823678D02*
X162500000Y-72540000D01*
X162514393Y-69809285D02*
X162500000Y-69823678D01*
X162514393Y-69807872D02*
X162514393Y-69809285D01*
X162807872Y-69514393D02*
X162514393Y-69807872D01*
X162809285Y-69514393D02*
X162807872Y-69514393D01*
X163673678Y-68650000D02*
X162809285Y-69514393D01*
X163955108Y-68650000D02*
X163673678Y-68650000D01*
X164156108Y-68449000D02*
X163955108Y-68650000D01*
X165374678Y-68449000D02*
X164156108Y-68449000D01*
X165625322Y-68499000D02*
X165424678Y-68499000D01*
X165835053Y-68289269D02*
X165625322Y-68499000D01*
X164199000Y-63774678D02*
X165835053Y-65410731D01*
X164199000Y-63750000D02*
X164199000Y-63774678D01*
X160680000Y-60231000D02*
X164199000Y-63750000D01*
X165835053Y-65410731D02*
X165835053Y-68289269D01*
X165424678Y-68499000D02*
X165374678Y-68449000D01*
X160680000Y-55100000D02*
X160680000Y-60231000D01*
%TO.N,USB_D+*%
X165250000Y-68750000D02*
X164280786Y-68750000D01*
X165300000Y-68800000D02*
X165250000Y-68750000D01*
X165750000Y-68800000D02*
X165300000Y-68800000D01*
X166136053Y-68413947D02*
X165750000Y-68800000D01*
X166136053Y-65286053D02*
X166136053Y-68413947D01*
X161041000Y-60166322D02*
X164500000Y-63625322D01*
X161041000Y-55959000D02*
X161041000Y-60166322D01*
X164280786Y-68750000D02*
X163015393Y-70015393D01*
X164500000Y-63625322D02*
X164500000Y-63650000D01*
X164500000Y-63650000D02*
X166136053Y-65286053D01*
X161500000Y-55500000D02*
X161041000Y-55959000D01*
X161180000Y-53065000D02*
X161180000Y-54930000D01*
X161180000Y-54930000D02*
X161500000Y-55250000D01*
X161500000Y-55250000D02*
X161500000Y-55500000D01*
%TO.N,GND*%
X155040000Y-74692000D02*
X153548000Y-73200000D01*
X155040000Y-75500000D02*
X155040000Y-74692000D01*
%TO.N,GPIO7*%
X152900000Y-71620000D02*
X151760000Y-70480000D01*
X152900000Y-73734322D02*
X152900000Y-71620000D01*
X154402000Y-76207000D02*
X154402000Y-75236322D01*
X157115000Y-78920000D02*
X154402000Y-76207000D01*
X157552500Y-78920000D02*
X157115000Y-78920000D01*
X154402000Y-75236322D02*
X152900000Y-73734322D01*
%TO.N,GND*%
X167000000Y-74980000D02*
X166730000Y-75250000D01*
X167000000Y-72250000D02*
X167000000Y-74980000D01*
X167000000Y-61600000D02*
X167850000Y-60750000D01*
X167000000Y-72250000D02*
X167000000Y-61600000D01*
X165182540Y-72250000D02*
X165361362Y-72428822D01*
X164750000Y-72250000D02*
X165182540Y-72250000D01*
X157739000Y-91161000D02*
X156850000Y-92050000D01*
X157739000Y-86061000D02*
X157739000Y-91161000D01*
X158250000Y-85550000D02*
X157739000Y-86061000D01*
X160990000Y-80288523D02*
X160990000Y-78320000D01*
X159990000Y-81288523D02*
X160990000Y-80288523D01*
X159990000Y-81757500D02*
X159990000Y-81288523D01*
%TO.N,+3V3*%
X159700000Y-75720000D02*
X160497967Y-75720000D01*
X157990000Y-79320000D02*
X158390000Y-79720000D01*
X157552500Y-79320000D02*
X157990000Y-79320000D01*
X158390000Y-79720000D02*
X158390000Y-80105890D01*
X164160094Y-81446446D02*
X163600000Y-80886352D01*
X163600000Y-80886352D02*
X163600000Y-79420000D01*
X164403554Y-81446446D02*
X164160094Y-81446446D01*
X163600000Y-79420000D02*
X164327500Y-79420000D01*
%TO.N,RUN*%
X162790000Y-81210000D02*
X162790000Y-81757500D01*
X163055993Y-80944007D02*
X162790000Y-81210000D01*
X163055993Y-80851114D02*
X163055993Y-80944007D01*
X162965753Y-80760874D02*
X163055993Y-80851114D01*
X162965753Y-80108646D02*
X162965753Y-80760874D01*
%TO.N,+3V3*%
X163600000Y-83590000D02*
X162749000Y-82739000D01*
X163600000Y-83600465D02*
X163597964Y-83602501D01*
X163600000Y-83590000D02*
X163600000Y-83600465D01*
%TO.N,USB_D+*%
X160350000Y-52050000D02*
X160180000Y-52220000D01*
X160942000Y-52050000D02*
X160350000Y-52050000D01*
X160180000Y-52220000D02*
X160180000Y-53065000D01*
X161180000Y-52288000D02*
X160942000Y-52050000D01*
X161180000Y-53065000D02*
X161180000Y-52288000D01*
%TO.N,USB_D-*%
X159680000Y-53065000D02*
X159680000Y-54100000D01*
X159680000Y-54100000D02*
X160680000Y-55100000D01*
%TO.N,VBUS*%
X158500000Y-52000000D02*
X157980000Y-52520000D01*
X158500000Y-51000000D02*
X158500000Y-52000000D01*
X157980000Y-52520000D02*
X157980000Y-53065000D01*
X158840008Y-50659992D02*
X158500000Y-51000000D01*
X162704000Y-50659992D02*
X158840008Y-50659992D01*
X162880000Y-52380000D02*
X162880000Y-53065000D01*
X162350000Y-51300000D02*
X162350000Y-51850000D01*
X162704000Y-50946000D02*
X162350000Y-51300000D01*
X162350000Y-51850000D02*
X162880000Y-52380000D01*
X162704000Y-50659992D02*
X162704000Y-50946000D01*
X163313992Y-50050000D02*
X162704000Y-50659992D01*
X169530000Y-47620000D02*
X167100000Y-50050000D01*
X167100000Y-50050000D02*
X163313992Y-50050000D01*
X169540000Y-47620000D02*
X169530000Y-47620000D01*
X162704000Y-52889000D02*
X162880000Y-53065000D01*
%TO.N,Net-(J1-CC2)*%
X159550000Y-55950000D02*
X158680000Y-55080000D01*
X158680000Y-55080000D02*
X158680000Y-53065000D01*
%TO.N,VBUS*%
X157025000Y-56037500D02*
X157000000Y-56062500D01*
X157025000Y-54650000D02*
X157025000Y-56037500D01*
X157980000Y-53695000D02*
X157025000Y-54650000D01*
X157980000Y-53065000D02*
X157980000Y-53695000D01*
%TO.N,GND*%
X163680000Y-54430000D02*
X163700000Y-54450000D01*
X163680000Y-53065000D02*
X163680000Y-54430000D01*
%TO.N,Net-(J1-CC1)*%
X161801000Y-53186000D02*
X161801000Y-56269000D01*
X161801000Y-56269000D02*
X161700000Y-56370000D01*
X161680000Y-53065000D02*
X161801000Y-53186000D01*
%TO.N,USB_D-*%
X160680000Y-53065000D02*
X160680000Y-55100000D01*
%TO.N,GND*%
X165200000Y-54450000D02*
X163700000Y-54450000D01*
X165600000Y-54850000D02*
X165200000Y-54450000D01*
X167850000Y-58200000D02*
X165600000Y-55950000D01*
X165600000Y-55950000D02*
X165600000Y-54850000D01*
X155300000Y-78000000D02*
X155500000Y-78200000D01*
X154650000Y-78000000D02*
X155300000Y-78000000D01*
%TO.N,GPIO6*%
X151760000Y-68111356D02*
X151760000Y-67940000D01*
X155520000Y-71871356D02*
X151760000Y-68111356D01*
X155520000Y-75820000D02*
X155520000Y-71871356D01*
X155750000Y-76050000D02*
X155520000Y-75820000D01*
X155750000Y-76300000D02*
X155750000Y-76050000D01*
X155900431Y-76450431D02*
X155750000Y-76300000D01*
X156193910Y-76849569D02*
X155900431Y-76556090D01*
X155900431Y-76556090D02*
X155900431Y-76450431D01*
X156200000Y-77561352D02*
X156200000Y-76849569D01*
X157158648Y-78520000D02*
X156200000Y-77561352D01*
X156200000Y-76849569D02*
X156193910Y-76849569D01*
X157552500Y-78520000D02*
X157158648Y-78520000D01*
%TO.N,GND*%
X159990000Y-84540000D02*
X159900000Y-84630000D01*
X159990000Y-81757500D02*
X159990000Y-84540000D01*
X156450000Y-68350000D02*
X156200000Y-68600000D01*
X156850000Y-68350000D02*
X156450000Y-68350000D01*
%TO.N,+3V3*%
X160650000Y-67300000D02*
X159410000Y-67300000D01*
X160750000Y-67400000D02*
X160650000Y-67300000D01*
X160950000Y-67400000D02*
X160950000Y-67550000D01*
X160950000Y-67400000D02*
X160750000Y-67400000D01*
%TO.N,GND*%
X169540000Y-65040000D02*
X168600000Y-64100000D01*
X169540000Y-65400000D02*
X169540000Y-65040000D01*
X156050000Y-58665000D02*
X156835000Y-59450000D01*
X156050000Y-57937500D02*
X156050000Y-58665000D01*
X163600000Y-84550000D02*
X164550000Y-84550000D01*
X158901678Y-85550000D02*
X158933982Y-85582304D01*
X158250000Y-85550000D02*
X158901678Y-85550000D01*
X156950000Y-68250000D02*
X156850000Y-68350000D01*
X157950000Y-68250000D02*
X156950000Y-68250000D01*
X163740000Y-54410000D02*
X163700000Y-54450000D01*
X155040000Y-78390000D02*
X154650000Y-78000000D01*
X155040000Y-79250000D02*
X155040000Y-78390000D01*
X166710000Y-79250000D02*
X168050000Y-79250000D01*
%TO.N,+1V1*%
X162790000Y-74285907D02*
X162790000Y-74882500D01*
X161206488Y-75720000D02*
X160790000Y-75303512D01*
X163031368Y-74044539D02*
X162790000Y-74285907D01*
X161249655Y-80958176D02*
X161249655Y-80920027D01*
X161590000Y-81298521D02*
X161249655Y-80958176D01*
X160928822Y-70228822D02*
X160790000Y-70367644D01*
X160790000Y-70367644D02*
X160790000Y-74882500D01*
X164000000Y-70500000D02*
X163500000Y-71000000D01*
X161590000Y-81757500D02*
X161590000Y-81298521D01*
X160790000Y-75303512D02*
X160790000Y-74882500D01*
%TO.N,GND*%
X162100000Y-86330000D02*
X163620000Y-86330000D01*
X156075000Y-70750000D02*
X156200000Y-70750000D01*
X163620000Y-86330000D02*
X163700000Y-86410000D01*
X156200000Y-70750000D02*
X156650000Y-71200000D01*
X158250000Y-85050000D02*
X158670000Y-84630000D01*
X158670000Y-84630000D02*
X159900000Y-84630000D01*
X158250000Y-85550000D02*
X158250000Y-85050000D01*
%TO.N,+3V3*%
X165750000Y-79250000D02*
X164497500Y-79250000D01*
X158910000Y-69235000D02*
X158925000Y-69250000D01*
X161700000Y-68300000D02*
X162407107Y-69007107D01*
X161290000Y-74782500D02*
X161190000Y-74882500D01*
X162199000Y-70091000D02*
X161290000Y-71000000D01*
X166450000Y-71150000D02*
X166321178Y-71278822D01*
X161707488Y-75927521D02*
X161707488Y-75427488D01*
X166321178Y-72928822D02*
X165031178Y-72928822D01*
X165950000Y-72050000D02*
X165950000Y-72557644D01*
X161190000Y-81757500D02*
X161190000Y-82195000D01*
X162749000Y-82739000D02*
X161734000Y-82739000D01*
X157332500Y-75500000D02*
X157552500Y-75720000D01*
X163898000Y-66302000D02*
X163500000Y-66700000D01*
X165770000Y-75250000D02*
X164897500Y-75250000D01*
X159400000Y-59450000D02*
X163898000Y-63948000D01*
X164327500Y-79420000D02*
X164427500Y-79320000D01*
X164750000Y-73722500D02*
X163590000Y-74882500D01*
X163590000Y-74882500D02*
X163190000Y-74882500D01*
X157475000Y-59450000D02*
X159400000Y-59450000D01*
X163545153Y-79420000D02*
X163600000Y-79420000D01*
X161734000Y-82739000D02*
X161800000Y-82739000D01*
X160950000Y-67550000D02*
X161700000Y-68300000D01*
X165770000Y-73730000D02*
X165770000Y-75250000D01*
X162199000Y-69215214D02*
X162199000Y-70091000D01*
X163898000Y-65352000D02*
X163500000Y-65750000D01*
X163898000Y-63948000D02*
X163898000Y-65050000D01*
X165950000Y-72557644D02*
X166321178Y-72928822D01*
X161590000Y-75310000D02*
X161590000Y-74882500D01*
X159410000Y-67750000D02*
X158910000Y-68250000D01*
X161190000Y-74882500D02*
X161590000Y-74882500D01*
X161707488Y-75427488D02*
X161590000Y-75310000D01*
X166321178Y-73178822D02*
X165770000Y-73730000D01*
X163241114Y-76508886D02*
X163241114Y-79115961D01*
X160950000Y-67250000D02*
X160950000Y-67400000D01*
X156000000Y-75500000D02*
X157332500Y-75500000D01*
X165031178Y-72928822D02*
X164750000Y-73210000D01*
X163898000Y-65050000D02*
X163898000Y-65352000D01*
X163500000Y-66700000D02*
X161500000Y-66700000D01*
X159410000Y-67300000D02*
X159410000Y-67750000D01*
X157552500Y-75720000D02*
X159700000Y-75720000D01*
X157950000Y-58975000D02*
X157475000Y-59450000D01*
X163898000Y-65050000D02*
X163898000Y-66302000D01*
X166321178Y-72928822D02*
X166321178Y-73178822D01*
X158910000Y-68250000D02*
X158910000Y-69235000D01*
X169540000Y-57780000D02*
X166437053Y-60882947D01*
X162407107Y-69007107D02*
X162199000Y-69215214D01*
X164427500Y-75720000D02*
X164030000Y-75720000D01*
X161414009Y-76221000D02*
X161707488Y-75927521D01*
X157950000Y-57937500D02*
X157950000Y-58975000D01*
X166437053Y-71137053D02*
X166450000Y-71150000D01*
X156000000Y-79250000D02*
X157482500Y-79250000D01*
X166437053Y-60882947D02*
X166437053Y-71137053D01*
X164030000Y-75720000D02*
X163241114Y-76508886D01*
X164897500Y-75250000D02*
X164427500Y-75720000D01*
X161190000Y-82195000D02*
X161734000Y-82739000D01*
X163241114Y-79115961D02*
X163545153Y-79420000D01*
X160998967Y-76221000D02*
X161414009Y-76221000D01*
X157482500Y-79250000D02*
X157552500Y-79320000D01*
X165660589Y-75140589D02*
X165770000Y-75250000D01*
X161290000Y-74179140D02*
X161290000Y-74782500D01*
X164497500Y-79250000D02*
X164427500Y-79320000D01*
X166321178Y-71278822D02*
X166321178Y-72928822D01*
X160497967Y-75720000D02*
X160998967Y-76221000D01*
X161500000Y-66700000D02*
X160950000Y-67250000D01*
X164750000Y-73210000D02*
X164750000Y-73722500D01*
%TO.N,Net-(C15-Pad2)*%
X162550000Y-84180000D02*
X162100000Y-84630000D01*
X163700000Y-85450000D02*
X162920000Y-85450000D01*
X162400000Y-84330000D02*
X162100000Y-84630000D01*
X162920000Y-85450000D02*
X162100000Y-84630000D01*
X162400000Y-83250000D02*
X162400000Y-84330000D01*
%TO.N,XIN*%
X160390000Y-83675262D02*
X160801000Y-84086262D01*
X160390000Y-81757500D02*
X160390000Y-83675262D01*
X159900000Y-86330000D02*
X158430000Y-86330000D01*
X158430000Y-86330000D02*
X158250000Y-86510000D01*
X160801000Y-84086262D02*
X160801000Y-85429000D01*
X160801000Y-85429000D02*
X159900000Y-86330000D01*
%TO.N,USB_D+*%
X162000000Y-71000000D02*
X161500000Y-71500000D01*
X161500000Y-71500000D02*
X161500000Y-72540000D01*
%TO.N,GPIO14*%
X159190000Y-83258644D02*
X156900000Y-85548644D01*
X159190000Y-81757500D02*
X159190000Y-83258644D01*
X156900000Y-89350000D02*
X152910000Y-93340000D01*
X152910000Y-93340000D02*
X151760000Y-93340000D01*
X156900000Y-85548644D02*
X156900000Y-89350000D01*
%TO.N,GPIO12*%
X158390000Y-81757500D02*
X154427500Y-85720000D01*
X154427500Y-85720000D02*
X151760000Y-85720000D01*
%TO.N,GPIO11*%
X155222500Y-83250000D02*
X154850000Y-83250000D01*
X154850000Y-83250000D02*
X154780000Y-83180000D01*
X154780000Y-83180000D02*
X151760000Y-83180000D01*
X157552500Y-80920000D02*
X155222500Y-83250000D01*
%TO.N,GPIO15*%
X157300000Y-85574322D02*
X157300000Y-90340000D01*
X159590000Y-81757500D02*
X159590000Y-83284322D01*
X159590000Y-83284322D02*
X157300000Y-85574322D01*
X157300000Y-90340000D02*
X151760000Y-95880000D01*
%TO.N,GPIO9*%
X153600000Y-77950000D02*
X153600000Y-77400000D01*
X153600000Y-77400000D02*
X151760000Y-75560000D01*
X153800000Y-79300000D02*
X153800000Y-78150000D01*
X154620000Y-80120000D02*
X153800000Y-79300000D01*
X153800000Y-78150000D02*
X153600000Y-77950000D01*
X157552500Y-80120000D02*
X154620000Y-80120000D01*
%TO.N,GPIO10*%
X157552500Y-80520000D02*
X151880000Y-80520000D01*
X151880000Y-80520000D02*
X151760000Y-80640000D01*
%TO.N,GPIO1*%
X157500000Y-67550000D02*
X157550000Y-67500000D01*
X157800000Y-64300000D02*
X157800000Y-61000000D01*
X157550000Y-67500000D02*
X157800000Y-67250000D01*
X157800000Y-61000000D02*
X157300000Y-60500000D01*
X154995768Y-72054232D02*
X153595768Y-70654232D01*
X154800000Y-56500000D02*
X154250000Y-55950000D01*
X153595768Y-70654232D02*
X153548000Y-70654232D01*
X156900000Y-67550000D02*
X157500000Y-67550000D01*
X154250000Y-55950000D02*
X154250000Y-52650000D01*
X157552500Y-76520000D02*
X158372386Y-76520000D01*
X157800000Y-67250000D02*
X157800000Y-64300000D01*
X154250000Y-52650000D02*
X151760000Y-50160000D01*
X158372386Y-76520000D02*
X158463556Y-76428830D01*
%TO.N,GPIO5*%
X154100000Y-65200000D02*
X151760000Y-62860000D01*
X154850000Y-69100000D02*
X154100000Y-68350000D01*
X158120000Y-78120000D02*
X158400000Y-78400000D01*
X157552500Y-78120000D02*
X158120000Y-78120000D01*
X154100000Y-68350000D02*
X154100000Y-65200000D01*
%TO.N,GPIO0*%
X154600000Y-54800000D02*
X154600000Y-50460000D01*
X154600000Y-50460000D02*
X151760000Y-47620000D01*
X154900000Y-72900000D02*
X154900000Y-72800000D01*
X157552500Y-76120000D02*
X156630000Y-76120000D01*
X159550000Y-63900000D02*
X159550000Y-61450000D01*
X155300000Y-55500000D02*
X154600000Y-54800000D01*
X156630000Y-76120000D02*
X156401431Y-76348569D01*
X158900000Y-65700000D02*
X159550000Y-65050000D01*
X159550000Y-61450000D02*
X158150000Y-60050000D01*
X158600000Y-65700000D02*
X158900000Y-65700000D01*
X159550000Y-65050000D02*
X159550000Y-63900000D01*
X154900000Y-72800000D02*
X153450000Y-71350000D01*
%TO.N,GPIO2*%
X156000000Y-67700000D02*
X156650000Y-67050000D01*
X156650000Y-60130000D02*
X151760000Y-55240000D01*
X157552500Y-76920000D02*
X158370000Y-76920000D01*
X156650000Y-67050000D02*
X156650000Y-60130000D01*
X158370000Y-76920000D02*
X158650000Y-77200000D01*
%TO.N,GPIO3*%
X158028521Y-77320000D02*
X158989998Y-78281477D01*
X159388002Y-80320002D02*
X160250000Y-80320002D01*
X158989998Y-78281477D02*
X158989998Y-79921998D01*
X157552500Y-77320000D02*
X158028521Y-77320000D01*
X155500000Y-61520000D02*
X151760000Y-57780000D01*
X155500000Y-68700000D02*
X155500000Y-61520000D01*
X158989998Y-79921998D02*
X159388002Y-80320002D01*
%TO.N,GPIO4*%
X154748555Y-68291447D02*
X154748555Y-63308555D01*
X157552500Y-77720000D02*
X157065755Y-77720000D01*
X157065755Y-77720000D02*
X156715001Y-77369246D01*
X154748555Y-63308555D02*
X151760000Y-60320000D01*
%TO.N,GPIO13*%
X158790000Y-81757500D02*
X158790000Y-82195000D01*
X158790000Y-82195000D02*
X152725000Y-88260000D01*
X152725000Y-88260000D02*
X151760000Y-88260000D01*
%TO.N,GPIO8*%
X157453500Y-79819000D02*
X154744678Y-79819000D01*
X154101000Y-75361000D02*
X151760000Y-73020000D01*
X154744678Y-79819000D02*
X154101000Y-79175322D01*
X157552500Y-79720000D02*
X157453500Y-79819000D01*
X154101000Y-79175322D02*
X154101000Y-75361000D01*
%TO.N,GPIO27_ADC1*%
X164427500Y-76920000D02*
X164459500Y-76952000D01*
X167400000Y-62460000D02*
X169540000Y-60320000D01*
X166463629Y-76952000D02*
X167562947Y-75852682D01*
X167400000Y-63050000D02*
X167400000Y-62460000D01*
X164459500Y-76952000D02*
X166463629Y-76952000D01*
X167562947Y-75852682D02*
X167562947Y-63212947D01*
X167562947Y-63212947D02*
X167400000Y-63050000D01*
%TO.N,GPIO29_ADC3*%
X164427500Y-76120000D02*
X165820000Y-76120000D01*
X165820000Y-76120000D02*
X165850000Y-76150000D01*
%TO.N,GPIO23*%
X168250000Y-71770000D02*
X169540000Y-70480000D01*
X165746985Y-78520000D02*
X168250000Y-76016985D01*
X164427500Y-78520000D02*
X165746985Y-78520000D01*
X168250000Y-76016985D02*
X168250000Y-71770000D01*
%TO.N,GPIO22*%
X166412518Y-78561573D02*
X166538427Y-78561573D01*
X166538427Y-78561573D02*
X169540000Y-75560000D01*
X163753674Y-78920000D02*
X163742114Y-78908440D01*
X164427500Y-78920000D02*
X163753674Y-78920000D01*
%TO.N,GPIO28_ADC2*%
X165642479Y-76651000D02*
X166056108Y-76651000D01*
X164427500Y-76520000D02*
X165511479Y-76520000D01*
X166056108Y-76651000D02*
X166603876Y-76103232D01*
X165511479Y-76520000D02*
X165642479Y-76651000D01*
%TO.N,GPIO17*%
X166550000Y-82750000D02*
X166550000Y-90350000D01*
X164007500Y-81757500D02*
X164350000Y-82100000D01*
X166550000Y-90350000D02*
X169540000Y-93340000D01*
X163590000Y-81757500D02*
X164007500Y-81757500D01*
X165900000Y-82100000D02*
X166550000Y-82750000D01*
X164350000Y-82100000D02*
X165900000Y-82100000D01*
%TO.N,GPIO24*%
X164427500Y-78120000D02*
X165439878Y-78120000D01*
X165439878Y-78120000D02*
X165704939Y-77854939D01*
%TO.N,GPIO19*%
X167520000Y-80520000D02*
X167600000Y-80600000D01*
X164427500Y-80520000D02*
X167520000Y-80520000D01*
X167600000Y-83780000D02*
X169540000Y-85720000D01*
X167600000Y-80600000D02*
X167600000Y-83780000D01*
%TO.N,GPIO18*%
X167000000Y-81250000D02*
X167000000Y-85720000D01*
X167000000Y-85720000D02*
X169540000Y-88260000D01*
X166670000Y-80920000D02*
X167000000Y-81250000D01*
X164427500Y-80920000D02*
X166670000Y-80920000D01*
%TO.N,GPIO21*%
X168700000Y-79800000D02*
X169540000Y-80640000D01*
X164507500Y-79800000D02*
X168700000Y-79800000D01*
X164427500Y-79720000D02*
X164507500Y-79800000D01*
%TO.N,GPIO20*%
X164427500Y-80120000D02*
X167970000Y-80120000D01*
X167970000Y-80120000D02*
X168100000Y-80250000D01*
X168100000Y-81740000D02*
X169540000Y-83180000D01*
X168100000Y-80250000D02*
X168100000Y-81740000D01*
%TO.N,GPIO26_ADC0*%
X164427500Y-77320000D02*
X166521307Y-77320000D01*
X168550000Y-63100000D02*
X169300000Y-63100000D01*
X169300000Y-63100000D02*
X169540000Y-62860000D01*
X167863947Y-75977360D02*
X167863947Y-63786053D01*
X167863947Y-63786053D02*
X168550000Y-63100000D01*
X166521307Y-77320000D02*
X167863947Y-75977360D01*
%TO.N,GPIO16*%
X163190000Y-81757500D02*
X163190000Y-82195000D01*
X163445000Y-82450000D02*
X165750000Y-82450000D01*
X165750000Y-82450000D02*
X166249000Y-82949000D01*
X166249000Y-82949000D02*
X166249000Y-92589000D01*
X166249000Y-92589000D02*
X169540000Y-95880000D01*
X163190000Y-82195000D02*
X163445000Y-82450000D01*
%TO.N,SWD*%
X162676648Y-82438000D02*
X163007322Y-82438000D01*
X163678322Y-83109000D02*
X165057000Y-83109000D01*
X162390000Y-81757500D02*
X162390000Y-82151352D01*
X162390000Y-82151352D02*
X162676648Y-82438000D01*
X163007322Y-82438000D02*
X163678322Y-83109000D01*
X165500000Y-94330000D02*
X163190000Y-96640000D01*
X165500000Y-83552000D02*
X165500000Y-94330000D01*
X165057000Y-83109000D02*
X165500000Y-83552000D01*
%TO.N,SWCLK*%
X161990000Y-81757500D02*
X161990000Y-80990000D01*
X161990000Y-80990000D02*
X161950000Y-80950000D01*
%TO.N,Net-(U1-USB_DM)*%
X162390000Y-73610000D02*
X162390000Y-74882500D01*
X162500000Y-73500000D02*
X162390000Y-73610000D01*
%TO.N,Net-(U1-USB_DP)*%
X161500000Y-73500000D02*
X161990000Y-73990000D01*
X161990000Y-73990000D02*
X161990000Y-74882500D01*
%TO.N,XOUT*%
X161440000Y-83250000D02*
X161440000Y-83100000D01*
X160790000Y-82600000D02*
X160790000Y-81757500D01*
X161440000Y-83250000D02*
X160790000Y-82600000D01*
%TO.N,QSPI_SS*%
X157997128Y-68999000D02*
X157250998Y-68999000D01*
X155123000Y-71048678D02*
X155123000Y-69752001D01*
X156999998Y-69250000D02*
X156075000Y-69250000D01*
X159550000Y-66200000D02*
X158450000Y-67300000D01*
X158390000Y-74882500D02*
X158390000Y-74315678D01*
X159750000Y-66200000D02*
X159550000Y-66200000D01*
X164550000Y-61750000D02*
X164550000Y-62750000D01*
X158430000Y-68566128D02*
X157997128Y-68999000D01*
X155123000Y-69752001D02*
X155625001Y-69250000D01*
X164550000Y-62750000D02*
X164440893Y-62859107D01*
X158450000Y-67300000D02*
X158430000Y-67320000D01*
X158430000Y-67320000D02*
X158430000Y-68566128D01*
X158390000Y-74315678D02*
X155123000Y-71048678D01*
X155625001Y-69250000D02*
X156075000Y-69250000D01*
X157250998Y-68999000D02*
X156999998Y-69250000D01*
%TO.N,Net-(R7-Pad1)*%
X164050000Y-60350000D02*
X164050000Y-61290000D01*
X164050000Y-61290000D02*
X163590000Y-61750000D01*
%TO.N,QSPI_SD0*%
X159374999Y-70250000D02*
X158925000Y-70250000D01*
X159990000Y-70865001D02*
X159374999Y-70250000D01*
X159990000Y-74882500D02*
X159990000Y-70865001D01*
%TO.N,QSPI_SD2*%
X155625001Y-69750000D02*
X155424000Y-69951001D01*
X155424000Y-70924000D02*
X158790000Y-74290000D01*
X155424000Y-69951001D02*
X155424000Y-70924000D01*
X158790000Y-74290000D02*
X158790000Y-74882500D01*
X156075000Y-69750000D02*
X155625001Y-69750000D01*
%TO.N,QSPI_SCLK*%
X160390000Y-70765001D02*
X159374999Y-69750000D01*
X159374999Y-69750000D02*
X158925000Y-69750000D01*
X160390000Y-74882500D02*
X160390000Y-70765001D01*
%TO.N,QSPI_SD1*%
X159590000Y-71419000D02*
X159592000Y-71417000D01*
X159590000Y-71415000D02*
X158925000Y-70750000D01*
X159590000Y-74882500D02*
X159590000Y-71415000D01*
%TD*%
%TA.AperFunction,Conductor*%
%TO.N,GND*%
G36*
X164493039Y-84319685D02*
G01*
X164538794Y-84372489D01*
X164550000Y-84424000D01*
X164550000Y-84550000D01*
X164676000Y-84550000D01*
X164743039Y-84569685D01*
X164788794Y-84622489D01*
X164800000Y-84674000D01*
X164800000Y-85024711D01*
X164809355Y-85023480D01*
X164918024Y-84972807D01*
X164987819Y-84903013D01*
X165049142Y-84869528D01*
X165118834Y-84874512D01*
X165174767Y-84916384D01*
X165199184Y-84981848D01*
X165199500Y-84990694D01*
X165199500Y-94154166D01*
X165179815Y-94221205D01*
X165163181Y-94241847D01*
X163752104Y-95652923D01*
X163690781Y-95686408D01*
X163621089Y-95681424D01*
X163616971Y-95679803D01*
X163496424Y-95629871D01*
X163496412Y-95629868D01*
X163293469Y-95589500D01*
X163293465Y-95589500D01*
X163086535Y-95589500D01*
X163086530Y-95589500D01*
X162883587Y-95629868D01*
X162883579Y-95629870D01*
X162692403Y-95709058D01*
X162520342Y-95824024D01*
X162374024Y-95970342D01*
X162259058Y-96142403D01*
X162179870Y-96333579D01*
X162179868Y-96333587D01*
X162139500Y-96536530D01*
X162139500Y-96743469D01*
X162179868Y-96946412D01*
X162179870Y-96946420D01*
X162259058Y-97137596D01*
X162374024Y-97309657D01*
X162520342Y-97455975D01*
X162520345Y-97455977D01*
X162619751Y-97522398D01*
X162664557Y-97576009D01*
X162673264Y-97645334D01*
X162643110Y-97708362D01*
X162583667Y-97745082D01*
X162550861Y-97749500D01*
X161288236Y-97749500D01*
X161221197Y-97729815D01*
X161175442Y-97677011D01*
X161165498Y-97607853D01*
X161194503Y-97544339D01*
X161195067Y-97538620D01*
X160779409Y-97122962D01*
X160842993Y-97105925D01*
X160957007Y-97040099D01*
X161050099Y-96947007D01*
X161115925Y-96832993D01*
X161132962Y-96769409D01*
X161548620Y-97185067D01*
X161548621Y-97185066D01*
X161580495Y-97137366D01*
X161659649Y-96946274D01*
X161659651Y-96946266D01*
X161699999Y-96743420D01*
X161700000Y-96743417D01*
X161700000Y-96536583D01*
X161699999Y-96536579D01*
X161659651Y-96333733D01*
X161659649Y-96333725D01*
X161580498Y-96142639D01*
X161580495Y-96142633D01*
X161548621Y-96094932D01*
X161548620Y-96094931D01*
X161132962Y-96510590D01*
X161115925Y-96447007D01*
X161050099Y-96332993D01*
X160957007Y-96239901D01*
X160842993Y-96174075D01*
X160779409Y-96157037D01*
X161195067Y-95741378D01*
X161195067Y-95741377D01*
X161147359Y-95709500D01*
X160956274Y-95630350D01*
X160956266Y-95630348D01*
X160753420Y-95590000D01*
X160546579Y-95590000D01*
X160343733Y-95630348D01*
X160343725Y-95630350D01*
X160152641Y-95709500D01*
X160152631Y-95709505D01*
X160104932Y-95741377D01*
X160104932Y-95741378D01*
X160520591Y-96157037D01*
X160457007Y-96174075D01*
X160342993Y-96239901D01*
X160249901Y-96332993D01*
X160184075Y-96447007D01*
X160167037Y-96510591D01*
X159751378Y-96094932D01*
X159751377Y-96094932D01*
X159719505Y-96142631D01*
X159719500Y-96142641D01*
X159640350Y-96333725D01*
X159640348Y-96333733D01*
X159600000Y-96536579D01*
X159600000Y-96743420D01*
X159640348Y-96946266D01*
X159640350Y-96946274D01*
X159719500Y-97137359D01*
X159751377Y-97185067D01*
X159751378Y-97185067D01*
X160167037Y-96769408D01*
X160184075Y-96832993D01*
X160249901Y-96947007D01*
X160342993Y-97040099D01*
X160457007Y-97105925D01*
X160520590Y-97122962D01*
X160104931Y-97538620D01*
X160106364Y-97553162D01*
X160125459Y-97576012D01*
X160134165Y-97645337D01*
X160104009Y-97708364D01*
X160044565Y-97745082D01*
X160011762Y-97749500D01*
X159259362Y-97749500D01*
X159192323Y-97729815D01*
X159146568Y-97677011D01*
X159136624Y-97607853D01*
X159144802Y-97578045D01*
X159148868Y-97568228D01*
X159160499Y-97509752D01*
X159160500Y-97509750D01*
X159160500Y-95770249D01*
X159160499Y-95770247D01*
X159148868Y-95711770D01*
X159148867Y-95711769D01*
X159104552Y-95645447D01*
X159038230Y-95601132D01*
X159038229Y-95601131D01*
X158979752Y-95589500D01*
X158979748Y-95589500D01*
X157240252Y-95589500D01*
X157240247Y-95589500D01*
X157181770Y-95601131D01*
X157181769Y-95601132D01*
X157115447Y-95645447D01*
X157071132Y-95711769D01*
X157071131Y-95711770D01*
X157059500Y-95770247D01*
X157059500Y-97509752D01*
X157071131Y-97568228D01*
X157075198Y-97578045D01*
X157082668Y-97647514D01*
X157051395Y-97709994D01*
X156991306Y-97745648D01*
X156960638Y-97749500D01*
X150774500Y-97749500D01*
X150707461Y-97729815D01*
X150661706Y-97677011D01*
X150650500Y-97625500D01*
X150650500Y-96519139D01*
X150670185Y-96452100D01*
X150722989Y-96406345D01*
X150792147Y-96396401D01*
X150855703Y-96425426D01*
X150877600Y-96450246D01*
X150901713Y-96486333D01*
X150944024Y-96549657D01*
X151090342Y-96695975D01*
X151090345Y-96695977D01*
X151262402Y-96810941D01*
X151453580Y-96890130D01*
X151656530Y-96930499D01*
X151656534Y-96930500D01*
X151656535Y-96930500D01*
X151863466Y-96930500D01*
X151863467Y-96930499D01*
X152066420Y-96890130D01*
X152257598Y-96810941D01*
X152429655Y-96695977D01*
X152575977Y-96549655D01*
X152690941Y-96377598D01*
X152770130Y-96186420D01*
X152810500Y-95983465D01*
X152810500Y-95776535D01*
X152770130Y-95573580D01*
X152720194Y-95453026D01*
X152712726Y-95383559D01*
X152744001Y-95321080D01*
X152747047Y-95317922D01*
X157540460Y-90524511D01*
X157580021Y-90455989D01*
X157600500Y-90379562D01*
X157600500Y-86951402D01*
X157620185Y-86884363D01*
X157672989Y-86838608D01*
X157742147Y-86828664D01*
X157805703Y-86857689D01*
X157812181Y-86863721D01*
X157881684Y-86933224D01*
X157990513Y-86983972D01*
X158040099Y-86990500D01*
X158459900Y-86990499D01*
X158509487Y-86983972D01*
X158618316Y-86933224D01*
X158703224Y-86848316D01*
X158753972Y-86739487D01*
X158754001Y-86739264D01*
X158754106Y-86739027D01*
X158756628Y-86730376D01*
X158757783Y-86730712D01*
X158782262Y-86675366D01*
X158840584Y-86636891D01*
X158910449Y-86636054D01*
X158969675Y-86673122D01*
X158999459Y-86736325D01*
X159000399Y-86743861D01*
X159002353Y-86764699D01*
X159002353Y-86764701D01*
X159047124Y-86892645D01*
X159047207Y-86892882D01*
X159127850Y-87002150D01*
X159237118Y-87082793D01*
X159279845Y-87097744D01*
X159365299Y-87127646D01*
X159395730Y-87130500D01*
X159395734Y-87130500D01*
X160404270Y-87130500D01*
X160434699Y-87127646D01*
X160434701Y-87127646D01*
X160498790Y-87105219D01*
X160562882Y-87082793D01*
X160672150Y-87002150D01*
X160752793Y-86892882D01*
X160775264Y-86828664D01*
X160797646Y-86764701D01*
X160797646Y-86764699D01*
X160800500Y-86734269D01*
X160800500Y-86734196D01*
X161200001Y-86734196D01*
X161202851Y-86764606D01*
X161247653Y-86892645D01*
X161328207Y-87001792D01*
X161437354Y-87082346D01*
X161565397Y-87127149D01*
X161595792Y-87129999D01*
X161849999Y-87129999D01*
X162350000Y-87129999D01*
X162604196Y-87129999D01*
X162634606Y-87127148D01*
X162762645Y-87082346D01*
X162871792Y-87001792D01*
X162952346Y-86892645D01*
X162997148Y-86764605D01*
X162997171Y-86764359D01*
X162997445Y-86744325D01*
X163245467Y-86744325D01*
X163247192Y-86748024D01*
X163331975Y-86832807D01*
X163440644Y-86883480D01*
X163450000Y-86884711D01*
X163950000Y-86884711D01*
X163959355Y-86883480D01*
X164068024Y-86832807D01*
X164152808Y-86748023D01*
X164193854Y-86660000D01*
X163950000Y-86660000D01*
X163950000Y-86884711D01*
X163450000Y-86884711D01*
X163450000Y-86660000D01*
X163246620Y-86660000D01*
X163245467Y-86744325D01*
X162997445Y-86744325D01*
X162999690Y-86580000D01*
X162350000Y-86580000D01*
X162350000Y-87129999D01*
X161849999Y-87129999D01*
X161850000Y-87129998D01*
X161850000Y-86580000D01*
X161200001Y-86580000D01*
X161200001Y-86734196D01*
X160800500Y-86734196D01*
X160800500Y-85925731D01*
X160799833Y-85918619D01*
X160813172Y-85850035D01*
X160835610Y-85819360D01*
X160904470Y-85750500D01*
X161041460Y-85613511D01*
X161062420Y-85577207D01*
X161081021Y-85544989D01*
X161101500Y-85468562D01*
X161101500Y-85372287D01*
X161121185Y-85305248D01*
X161173989Y-85259493D01*
X161243147Y-85249549D01*
X161306703Y-85278574D01*
X161325268Y-85298652D01*
X161327586Y-85301792D01*
X161327851Y-85302151D01*
X161434065Y-85380540D01*
X161448395Y-85399414D01*
X161466011Y-85415278D01*
X161469137Y-85426732D01*
X161476316Y-85436187D01*
X161478167Y-85459816D01*
X161484409Y-85482682D01*
X161480847Y-85494006D01*
X161481775Y-85505843D01*
X161470556Y-85526724D01*
X161463446Y-85549332D01*
X161450965Y-85563190D01*
X161448708Y-85567393D01*
X161441756Y-85573415D01*
X161439827Y-85575559D01*
X161308276Y-85685214D01*
X161247653Y-85767354D01*
X161202850Y-85895395D01*
X161202850Y-85895399D01*
X161200000Y-85925793D01*
X161200000Y-86080000D01*
X163012016Y-86080000D01*
X163046862Y-86060971D01*
X163116554Y-86065954D01*
X163172488Y-86107824D01*
X163177803Y-86115512D01*
X163206145Y-86160000D01*
X164193854Y-86160000D01*
X164193853Y-86159999D01*
X164152808Y-86071976D01*
X164098867Y-86018035D01*
X164065382Y-85956712D01*
X164070366Y-85887020D01*
X164098867Y-85842673D01*
X164122180Y-85819360D01*
X164153224Y-85788316D01*
X164203972Y-85679487D01*
X164210500Y-85629901D01*
X164210499Y-85270100D01*
X164203972Y-85220513D01*
X164195935Y-85203279D01*
X164185444Y-85134204D01*
X164213963Y-85070419D01*
X164272439Y-85032179D01*
X164293438Y-85030466D01*
X164300000Y-85024712D01*
X164300000Y-84800000D01*
X163724000Y-84800000D01*
X163656961Y-84780315D01*
X163611206Y-84727511D01*
X163600000Y-84676000D01*
X163600000Y-84424000D01*
X163619685Y-84356961D01*
X163672489Y-84311206D01*
X163724000Y-84300000D01*
X164426000Y-84300000D01*
X164493039Y-84319685D01*
G37*
%TD.AperFunction*%
%TA.AperFunction,Conductor*%
G36*
X158808834Y-82703651D02*
G01*
X158864767Y-82745523D01*
X158889184Y-82810987D01*
X158889500Y-82819833D01*
X158889500Y-83082811D01*
X158869815Y-83149850D01*
X158853181Y-83170492D01*
X156659541Y-85364131D01*
X156659535Y-85364139D01*
X156619982Y-85432648D01*
X156619979Y-85432653D01*
X156599500Y-85509083D01*
X156599500Y-89174167D01*
X156579815Y-89241206D01*
X156563181Y-89261848D01*
X152907598Y-92917430D01*
X152846275Y-92950915D01*
X152776583Y-92945931D01*
X152720650Y-92904059D01*
X152705356Y-92877202D01*
X152690942Y-92842404D01*
X152688813Y-92839218D01*
X152575977Y-92670345D01*
X152575976Y-92670344D01*
X152575975Y-92670342D01*
X152429657Y-92524024D01*
X152262616Y-92412412D01*
X152257598Y-92409059D01*
X152205002Y-92387273D01*
X152066420Y-92329870D01*
X152066412Y-92329868D01*
X151863469Y-92289500D01*
X151863465Y-92289500D01*
X151656535Y-92289500D01*
X151656530Y-92289500D01*
X151453587Y-92329868D01*
X151453579Y-92329870D01*
X151262403Y-92409058D01*
X151090342Y-92524024D01*
X150944022Y-92670344D01*
X150877602Y-92769751D01*
X150823990Y-92814556D01*
X150754665Y-92823263D01*
X150691638Y-92793109D01*
X150654918Y-92733666D01*
X150650500Y-92700860D01*
X150650500Y-91438239D01*
X150670185Y-91371200D01*
X150722989Y-91325445D01*
X150792147Y-91315501D01*
X150855653Y-91344503D01*
X150861378Y-91345067D01*
X151277037Y-90929408D01*
X151294075Y-90992993D01*
X151359901Y-91107007D01*
X151452993Y-91200099D01*
X151567007Y-91265925D01*
X151630590Y-91282962D01*
X151214931Y-91698620D01*
X151214932Y-91698621D01*
X151262633Y-91730495D01*
X151262639Y-91730498D01*
X151453725Y-91809649D01*
X151453733Y-91809651D01*
X151656579Y-91849999D01*
X151656583Y-91850000D01*
X151863417Y-91850000D01*
X151863420Y-91849999D01*
X152066266Y-91809651D01*
X152066274Y-91809649D01*
X152257366Y-91730495D01*
X152305066Y-91698621D01*
X152305067Y-91698620D01*
X151889409Y-91282962D01*
X151952993Y-91265925D01*
X152067007Y-91200099D01*
X152160099Y-91107007D01*
X152225925Y-90992993D01*
X152242962Y-90929409D01*
X152658620Y-91345067D01*
X152658621Y-91345066D01*
X152690495Y-91297366D01*
X152769649Y-91106274D01*
X152769651Y-91106266D01*
X152809999Y-90903420D01*
X152810000Y-90903417D01*
X152810000Y-90696583D01*
X152809999Y-90696579D01*
X152769651Y-90493733D01*
X152769649Y-90493725D01*
X152690498Y-90302639D01*
X152690495Y-90302633D01*
X152658621Y-90254932D01*
X152658620Y-90254931D01*
X152242962Y-90670590D01*
X152225925Y-90607007D01*
X152160099Y-90492993D01*
X152067007Y-90399901D01*
X151952993Y-90334075D01*
X151889409Y-90317037D01*
X152305067Y-89901378D01*
X152305067Y-89901377D01*
X152257359Y-89869500D01*
X152066274Y-89790350D01*
X152066266Y-89790348D01*
X151863420Y-89750000D01*
X151656579Y-89750000D01*
X151453733Y-89790348D01*
X151453725Y-89790350D01*
X151262641Y-89869500D01*
X151262631Y-89869505D01*
X151214932Y-89901377D01*
X151214932Y-89901378D01*
X151630591Y-90317037D01*
X151567007Y-90334075D01*
X151452993Y-90399901D01*
X151359901Y-90492993D01*
X151294075Y-90607007D01*
X151277037Y-90670591D01*
X150861378Y-90254932D01*
X150847022Y-90256346D01*
X150826011Y-90274553D01*
X150824872Y-90274716D01*
X150823989Y-90275455D01*
X150790384Y-90279675D01*
X150756853Y-90284497D01*
X150755805Y-90284018D01*
X150754664Y-90284162D01*
X150724120Y-90269548D01*
X150693297Y-90255472D01*
X150692674Y-90254503D01*
X150691637Y-90254007D01*
X150673839Y-90225194D01*
X150655523Y-90196694D01*
X150655307Y-90195194D01*
X150654918Y-90194564D01*
X150650500Y-90161759D01*
X150650500Y-88899139D01*
X150670185Y-88832100D01*
X150722989Y-88786345D01*
X150792147Y-88776401D01*
X150855703Y-88805426D01*
X150877600Y-88830246D01*
X150901713Y-88866333D01*
X150944024Y-88929657D01*
X151090342Y-89075975D01*
X151090345Y-89075977D01*
X151262402Y-89190941D01*
X151453580Y-89270130D01*
X151656530Y-89310499D01*
X151656534Y-89310500D01*
X151656535Y-89310500D01*
X151863466Y-89310500D01*
X151863467Y-89310499D01*
X152066420Y-89270130D01*
X152257598Y-89190941D01*
X152429655Y-89075977D01*
X152575977Y-88929655D01*
X152690941Y-88757598D01*
X152750183Y-88614575D01*
X152794022Y-88560173D01*
X152832649Y-88542255D01*
X152840989Y-88540021D01*
X152840993Y-88540018D01*
X152840995Y-88540018D01*
X152909504Y-88500464D01*
X152909503Y-88500464D01*
X152909511Y-88500460D01*
X152965460Y-88444511D01*
X158677819Y-82732152D01*
X158739142Y-82698667D01*
X158808834Y-82703651D01*
G37*
%TD.AperFunction*%
%TA.AperFunction,Conductor*%
G36*
X167055703Y-86201120D02*
G01*
X167062181Y-86207152D01*
X168552924Y-87697895D01*
X168586409Y-87759218D01*
X168581425Y-87828910D01*
X168579804Y-87833029D01*
X168529870Y-87953579D01*
X168529868Y-87953587D01*
X168489500Y-88156530D01*
X168489500Y-88363469D01*
X168528627Y-88560173D01*
X168529870Y-88566420D01*
X168609059Y-88757598D01*
X168641995Y-88806890D01*
X168724024Y-88929657D01*
X168870342Y-89075975D01*
X168870345Y-89075977D01*
X169042402Y-89190941D01*
X169233580Y-89270130D01*
X169436530Y-89310499D01*
X169436534Y-89310500D01*
X169436535Y-89310500D01*
X169643466Y-89310500D01*
X169643467Y-89310499D01*
X169846420Y-89270130D01*
X170037598Y-89190941D01*
X170209655Y-89075977D01*
X170355977Y-88929655D01*
X170422398Y-88830248D01*
X170476009Y-88785443D01*
X170545334Y-88776736D01*
X170608362Y-88806890D01*
X170645082Y-88866333D01*
X170649500Y-88899139D01*
X170649500Y-90161762D01*
X170629815Y-90228801D01*
X170577011Y-90274556D01*
X170507853Y-90284500D01*
X170444341Y-90255495D01*
X170438620Y-90254931D01*
X170022962Y-90670590D01*
X170005925Y-90607007D01*
X169940099Y-90492993D01*
X169847007Y-90399901D01*
X169732993Y-90334075D01*
X169669409Y-90317037D01*
X170085067Y-89901378D01*
X170085067Y-89901377D01*
X170037359Y-89869500D01*
X169846274Y-89790350D01*
X169846266Y-89790348D01*
X169643420Y-89750000D01*
X169436579Y-89750000D01*
X169233733Y-89790348D01*
X169233725Y-89790350D01*
X169042641Y-89869500D01*
X169042631Y-89869505D01*
X168994932Y-89901377D01*
X168994932Y-89901378D01*
X169410591Y-90317037D01*
X169347007Y-90334075D01*
X169232993Y-90399901D01*
X169139901Y-90492993D01*
X169074075Y-90607007D01*
X169057037Y-90670591D01*
X168641378Y-90254932D01*
X168641377Y-90254932D01*
X168609505Y-90302631D01*
X168609500Y-90302641D01*
X168530350Y-90493725D01*
X168530348Y-90493733D01*
X168490000Y-90696579D01*
X168490000Y-90903420D01*
X168530348Y-91106266D01*
X168530350Y-91106274D01*
X168609500Y-91297359D01*
X168641377Y-91345067D01*
X168641378Y-91345067D01*
X169057037Y-90929408D01*
X169074075Y-90992993D01*
X169139901Y-91107007D01*
X169232993Y-91200099D01*
X169347007Y-91265925D01*
X169410590Y-91282962D01*
X168994931Y-91698620D01*
X168994932Y-91698621D01*
X169042633Y-91730495D01*
X169042639Y-91730498D01*
X169233725Y-91809649D01*
X169233733Y-91809651D01*
X169436579Y-91849999D01*
X169436583Y-91850000D01*
X169643417Y-91850000D01*
X169643420Y-91849999D01*
X169846266Y-91809651D01*
X169846274Y-91809649D01*
X170037366Y-91730495D01*
X170085066Y-91698621D01*
X170085067Y-91698620D01*
X169669409Y-91282962D01*
X169732993Y-91265925D01*
X169847007Y-91200099D01*
X169940099Y-91107007D01*
X170005925Y-90992993D01*
X170022962Y-90929408D01*
X170438620Y-91345067D01*
X170453162Y-91343634D01*
X170476013Y-91324539D01*
X170545338Y-91315833D01*
X170608365Y-91345990D01*
X170645083Y-91405434D01*
X170649500Y-91438236D01*
X170649500Y-92700860D01*
X170629815Y-92767899D01*
X170577011Y-92813654D01*
X170507853Y-92823598D01*
X170444297Y-92794573D01*
X170422398Y-92769751D01*
X170355977Y-92670344D01*
X170209657Y-92524024D01*
X170042616Y-92412412D01*
X170037598Y-92409059D01*
X169985002Y-92387273D01*
X169846420Y-92329870D01*
X169846412Y-92329868D01*
X169643469Y-92289500D01*
X169643465Y-92289500D01*
X169436535Y-92289500D01*
X169436530Y-92289500D01*
X169233587Y-92329868D01*
X169233579Y-92329870D01*
X169113029Y-92379804D01*
X169043559Y-92387273D01*
X168981080Y-92355998D01*
X168977895Y-92352924D01*
X166886819Y-90261848D01*
X166872115Y-90234920D01*
X166855523Y-90209102D01*
X166854631Y-90202901D01*
X166853334Y-90200525D01*
X166850500Y-90174167D01*
X166850500Y-86294833D01*
X166870185Y-86227794D01*
X166922989Y-86182039D01*
X166992147Y-86172095D01*
X167055703Y-86201120D01*
G37*
%TD.AperFunction*%
%TA.AperFunction,Conductor*%
G36*
X160042152Y-83385465D02*
G01*
X160082680Y-83442380D01*
X160089500Y-83482936D01*
X160089500Y-83714824D01*
X160096012Y-83739127D01*
X160109979Y-83791252D01*
X160120194Y-83808944D01*
X160132062Y-83829500D01*
X160132063Y-83829501D01*
X160133388Y-83831796D01*
X160150000Y-83893795D01*
X160150000Y-84506000D01*
X160130315Y-84573039D01*
X160077511Y-84618794D01*
X160026000Y-84630000D01*
X159900000Y-84630000D01*
X159900000Y-84756000D01*
X159880315Y-84823039D01*
X159827511Y-84868794D01*
X159776000Y-84880000D01*
X159000001Y-84880000D01*
X159000001Y-85034196D01*
X159002851Y-85064606D01*
X159047653Y-85192645D01*
X159128207Y-85301792D01*
X159234066Y-85379919D01*
X159276316Y-85435566D01*
X159281775Y-85505223D01*
X159248707Y-85566772D01*
X159234066Y-85579459D01*
X159127850Y-85657850D01*
X159047207Y-85767117D01*
X159047206Y-85767119D01*
X159002353Y-85895298D01*
X159002353Y-85895300D01*
X159000311Y-85917079D01*
X158999140Y-85920016D01*
X158999591Y-85923147D01*
X158986296Y-85952259D01*
X158974453Y-85981987D01*
X158971879Y-85983825D01*
X158970566Y-85986703D01*
X158943645Y-86004003D01*
X158917607Y-86022612D01*
X158913649Y-86023280D01*
X158911788Y-86024477D01*
X158876853Y-86029500D01*
X158831477Y-86029500D01*
X158764438Y-86009815D01*
X158718683Y-85957011D01*
X158708739Y-85887853D01*
X158719095Y-85853096D01*
X158743854Y-85800000D01*
X158374000Y-85800000D01*
X158306961Y-85780315D01*
X158261206Y-85727511D01*
X158250000Y-85676000D01*
X158250000Y-85424000D01*
X158269685Y-85356961D01*
X158322489Y-85311206D01*
X158374000Y-85300000D01*
X158743854Y-85300000D01*
X158743853Y-85299999D01*
X158702808Y-85211976D01*
X158618024Y-85127192D01*
X158509353Y-85076518D01*
X158509355Y-85076518D01*
X158505408Y-85075999D01*
X158501226Y-85074149D01*
X158500245Y-85073863D01*
X158500283Y-85073731D01*
X158441512Y-85047732D01*
X158403041Y-84989408D01*
X158402210Y-84919543D01*
X158433911Y-84865381D01*
X158882975Y-84416317D01*
X158944296Y-84382834D01*
X158970654Y-84380000D01*
X159650000Y-84380000D01*
X159650000Y-83830000D01*
X159647327Y-83827327D01*
X159613842Y-83766004D01*
X159618826Y-83696312D01*
X159647323Y-83651969D01*
X159830460Y-83468833D01*
X159838785Y-83454413D01*
X159858113Y-83420935D01*
X159908680Y-83372720D01*
X159977287Y-83359497D01*
X160042152Y-83385465D01*
G37*
%TD.AperFunction*%
%TA.AperFunction,Conductor*%
G36*
X158991003Y-80349214D02*
G01*
X159002033Y-80359004D01*
X159203491Y-80560462D01*
X159272014Y-80600024D01*
X159348440Y-80620502D01*
X159427564Y-80620502D01*
X159791324Y-80620502D01*
X159858363Y-80640187D01*
X159879005Y-80656821D01*
X159942686Y-80720502D01*
X160056814Y-80786394D01*
X160184108Y-80820502D01*
X160184110Y-80820502D01*
X160315890Y-80820502D01*
X160315892Y-80820502D01*
X160443186Y-80786394D01*
X160557314Y-80720502D01*
X160557315Y-80720500D01*
X160564352Y-80716438D01*
X160565569Y-80718546D01*
X160619229Y-80697793D01*
X160687676Y-80711823D01*
X160737672Y-80760631D01*
X160753554Y-80822789D01*
X160753374Y-80838387D01*
X160749155Y-80854135D01*
X160749155Y-80985919D01*
X160751572Y-80994940D01*
X160751376Y-81011990D01*
X160745919Y-81029810D01*
X160745457Y-81048442D01*
X160735903Y-81062525D01*
X160730921Y-81078799D01*
X160716695Y-81090841D01*
X160706234Y-81106264D01*
X160688601Y-81114624D01*
X160677594Y-81123943D01*
X160665612Y-81125525D01*
X160651578Y-81132180D01*
X160642258Y-81134033D01*
X160637452Y-81136025D01*
X160567983Y-81143494D01*
X160542548Y-81136025D01*
X160537740Y-81134033D01*
X160464676Y-81119500D01*
X160464674Y-81119500D01*
X160315326Y-81119500D01*
X160315324Y-81119500D01*
X160242259Y-81134033D01*
X160236783Y-81136302D01*
X160167314Y-81143769D01*
X160141875Y-81136299D01*
X160137540Y-81134503D01*
X160064627Y-81120000D01*
X159915374Y-81120000D01*
X159842453Y-81134504D01*
X159838112Y-81136303D01*
X159768643Y-81143768D01*
X159743219Y-81136302D01*
X159737743Y-81134034D01*
X159664676Y-81119500D01*
X159664674Y-81119500D01*
X159515326Y-81119500D01*
X159515324Y-81119500D01*
X159442259Y-81134033D01*
X159437452Y-81136025D01*
X159367983Y-81143494D01*
X159342548Y-81136025D01*
X159337740Y-81134033D01*
X159264676Y-81119500D01*
X159264674Y-81119500D01*
X159115326Y-81119500D01*
X159115324Y-81119500D01*
X159042259Y-81134033D01*
X159037452Y-81136025D01*
X158967983Y-81143494D01*
X158942548Y-81136025D01*
X158937740Y-81134033D01*
X158864676Y-81119500D01*
X158864674Y-81119500D01*
X158715326Y-81119500D01*
X158715324Y-81119500D01*
X158642259Y-81134033D01*
X158637452Y-81136025D01*
X158567983Y-81143494D01*
X158542548Y-81136025D01*
X158537740Y-81134033D01*
X158464676Y-81119500D01*
X158464674Y-81119500D01*
X158315326Y-81119500D01*
X158314500Y-81119500D01*
X158247461Y-81099815D01*
X158201706Y-81047011D01*
X158190500Y-80995500D01*
X158190500Y-80845323D01*
X158190499Y-80845321D01*
X158173584Y-80760281D01*
X158174980Y-80760003D01*
X158168941Y-80703878D01*
X158200211Y-80641396D01*
X158260297Y-80605739D01*
X158315954Y-80606069D01*
X158316052Y-80605329D01*
X158321947Y-80606105D01*
X158323070Y-80606111D01*
X158324108Y-80606390D01*
X158324110Y-80606390D01*
X158455890Y-80606390D01*
X158455892Y-80606390D01*
X158583186Y-80572282D01*
X158697314Y-80506390D01*
X158790500Y-80413204D01*
X158806966Y-80384684D01*
X158857531Y-80336470D01*
X158926138Y-80323246D01*
X158991003Y-80349214D01*
G37*
%TD.AperFunction*%
%TA.AperFunction,Conductor*%
G36*
X163408703Y-75496859D02*
G01*
X163412008Y-75496504D01*
X163414779Y-75497317D01*
X163416826Y-75497472D01*
X163435860Y-75501689D01*
X163442260Y-75505966D01*
X163515326Y-75520500D01*
X163520750Y-75520500D01*
X163532357Y-75523072D01*
X163556691Y-75536481D01*
X163582467Y-75546888D01*
X163586872Y-75553113D01*
X163593550Y-75556793D01*
X163606773Y-75581234D01*
X163622829Y-75603921D01*
X163623169Y-75611538D01*
X163626798Y-75618245D01*
X163624708Y-75645957D01*
X163625950Y-75673720D01*
X163622118Y-75680312D01*
X163621545Y-75687917D01*
X163593212Y-75731816D01*
X163056603Y-76268426D01*
X163000655Y-76324373D01*
X163000649Y-76324381D01*
X162961096Y-76392890D01*
X162961093Y-76392895D01*
X162950701Y-76431678D01*
X162940614Y-76469324D01*
X162940614Y-79155523D01*
X162946506Y-79177511D01*
X162961093Y-79231951D01*
X162961094Y-79231952D01*
X162994355Y-79289562D01*
X163000654Y-79300472D01*
X163000656Y-79300474D01*
X163096647Y-79396465D01*
X163130132Y-79457788D01*
X163125148Y-79527480D01*
X163083276Y-79583413D01*
X163017812Y-79607830D01*
X163008966Y-79608146D01*
X162899861Y-79608146D01*
X162772565Y-79642254D01*
X162658439Y-79708146D01*
X162658436Y-79708148D01*
X162565255Y-79801329D01*
X162565253Y-79801332D01*
X162499361Y-79915458D01*
X162481215Y-79983183D01*
X162465253Y-80042754D01*
X162465253Y-80174538D01*
X162470673Y-80194767D01*
X162499361Y-80301833D01*
X162511724Y-80323246D01*
X162565253Y-80415960D01*
X162565255Y-80415962D01*
X162628934Y-80479641D01*
X162662419Y-80540964D01*
X162665253Y-80567322D01*
X162665253Y-80743703D01*
X162645568Y-80810742D01*
X162592764Y-80856497D01*
X162523606Y-80866441D01*
X162460050Y-80837416D01*
X162422276Y-80778638D01*
X162421478Y-80775797D01*
X162416392Y-80756814D01*
X162350500Y-80642686D01*
X162257314Y-80549500D01*
X162187419Y-80509146D01*
X162143187Y-80483608D01*
X162079539Y-80466554D01*
X162015892Y-80449500D01*
X161884108Y-80449500D01*
X161756814Y-80483608D01*
X161756813Y-80483608D01*
X161756811Y-80483609D01*
X161756810Y-80483609D01*
X161687784Y-80523462D01*
X161619884Y-80539935D01*
X161563783Y-80523462D01*
X161556970Y-80519528D01*
X161556969Y-80519527D01*
X161487398Y-80479360D01*
X161442842Y-80453635D01*
X161379194Y-80436581D01*
X161315547Y-80419527D01*
X161183763Y-80419527D01*
X161056467Y-80453635D01*
X160976661Y-80499711D01*
X160942341Y-80519527D01*
X160942339Y-80519528D01*
X160935303Y-80523591D01*
X160934089Y-80521488D01*
X160880382Y-80542238D01*
X160811940Y-80528185D01*
X160761961Y-80479360D01*
X160746313Y-80411265D01*
X160750320Y-80386564D01*
X160750500Y-80385894D01*
X160750500Y-80254110D01*
X160716392Y-80126816D01*
X160650500Y-80012688D01*
X160557314Y-79919502D01*
X160500250Y-79886556D01*
X160443187Y-79853610D01*
X160332768Y-79824024D01*
X160315892Y-79819502D01*
X160184108Y-79819502D01*
X160056812Y-79853610D01*
X159942686Y-79919502D01*
X159942683Y-79919504D01*
X159879005Y-79983183D01*
X159852077Y-79997886D01*
X159826259Y-80014479D01*
X159820058Y-80015370D01*
X159817682Y-80016668D01*
X159791324Y-80019502D01*
X159563835Y-80019502D01*
X159496796Y-79999817D01*
X159476154Y-79983183D01*
X159326817Y-79833846D01*
X159293332Y-79772523D01*
X159290498Y-79746165D01*
X159290498Y-78241916D01*
X159290498Y-78241915D01*
X159270019Y-78165488D01*
X159232702Y-78100852D01*
X159230462Y-78096972D01*
X159230456Y-78096964D01*
X158930001Y-77796509D01*
X158896516Y-77735186D01*
X158901500Y-77665494D01*
X158943372Y-77609561D01*
X158955670Y-77601449D01*
X158957314Y-77600500D01*
X159050500Y-77507314D01*
X159116392Y-77393186D01*
X159150500Y-77265892D01*
X159150500Y-77134108D01*
X159116392Y-77006814D01*
X159050500Y-76892686D01*
X158957314Y-76799500D01*
X158957312Y-76799499D01*
X158953611Y-76796659D01*
X158912408Y-76740232D01*
X158908253Y-76670486D01*
X158921710Y-76636284D01*
X158929948Y-76622016D01*
X158964056Y-76494722D01*
X158964056Y-76362938D01*
X158929948Y-76235644D01*
X158913121Y-76206500D01*
X158911689Y-76200598D01*
X158907715Y-76196011D01*
X158903550Y-76167048D01*
X158896649Y-76138601D01*
X158898635Y-76132862D01*
X158897771Y-76126853D01*
X158909929Y-76100230D01*
X158919501Y-76072574D01*
X158924273Y-76068820D01*
X158926796Y-76063297D01*
X158951419Y-76047472D01*
X158974422Y-76029383D01*
X158981772Y-76027966D01*
X158985574Y-76025523D01*
X159020509Y-76020500D01*
X159241324Y-76020500D01*
X159308363Y-76040185D01*
X159329005Y-76056819D01*
X159392686Y-76120500D01*
X159506814Y-76186392D01*
X159634108Y-76220500D01*
X159634110Y-76220500D01*
X159765890Y-76220500D01*
X159765892Y-76220500D01*
X159893186Y-76186392D01*
X160007314Y-76120500D01*
X160070995Y-76056819D01*
X160097922Y-76042115D01*
X160123741Y-76025523D01*
X160129941Y-76024631D01*
X160132318Y-76023334D01*
X160158676Y-76020500D01*
X160322134Y-76020500D01*
X160389173Y-76040185D01*
X160409815Y-76056819D01*
X160758507Y-76405511D01*
X160814456Y-76461460D01*
X160814458Y-76461461D01*
X160814462Y-76461464D01*
X160865519Y-76490941D01*
X160882978Y-76501021D01*
X160959405Y-76521500D01*
X160959407Y-76521500D01*
X161453569Y-76521500D01*
X161453571Y-76521500D01*
X161529998Y-76501021D01*
X161598520Y-76461460D01*
X161654469Y-76405511D01*
X161947948Y-76112032D01*
X161952001Y-76105012D01*
X161987509Y-76043510D01*
X162007988Y-75967083D01*
X162007988Y-75633539D01*
X162015979Y-75606321D01*
X162020928Y-75578389D01*
X162025695Y-75573235D01*
X162027673Y-75566500D01*
X162049111Y-75547923D01*
X162068375Y-75527100D01*
X162076955Y-75523796D01*
X162080477Y-75520745D01*
X162100939Y-75513489D01*
X162104333Y-75512611D01*
X162137740Y-75505966D01*
X162142611Y-75502710D01*
X162158951Y-75498485D01*
X162185551Y-75499350D01*
X162212008Y-75496504D01*
X162226204Y-75500672D01*
X162228784Y-75500756D01*
X162230484Y-75501928D01*
X162237461Y-75503977D01*
X162242256Y-75505963D01*
X162242260Y-75505966D01*
X162242264Y-75505966D01*
X162242267Y-75505968D01*
X162315321Y-75520499D01*
X162315324Y-75520500D01*
X162315326Y-75520500D01*
X162464676Y-75520500D01*
X162464677Y-75520499D01*
X162499920Y-75513489D01*
X162537732Y-75505968D01*
X162537733Y-75505967D01*
X162537740Y-75505966D01*
X162537745Y-75505962D01*
X162542539Y-75503977D01*
X162612008Y-75496504D01*
X162637461Y-75503977D01*
X162642256Y-75505963D01*
X162642260Y-75505966D01*
X162642264Y-75505966D01*
X162642267Y-75505968D01*
X162715321Y-75520499D01*
X162715324Y-75520500D01*
X162715326Y-75520500D01*
X162864676Y-75520500D01*
X162864677Y-75520499D01*
X162899920Y-75513489D01*
X162937732Y-75505968D01*
X162937733Y-75505967D01*
X162937740Y-75505966D01*
X162937745Y-75505962D01*
X162942539Y-75503977D01*
X163012008Y-75496504D01*
X163037461Y-75503977D01*
X163042256Y-75505963D01*
X163042260Y-75505966D01*
X163042264Y-75505966D01*
X163042267Y-75505968D01*
X163115321Y-75520499D01*
X163115324Y-75520500D01*
X163115326Y-75520500D01*
X163264676Y-75520500D01*
X163264677Y-75520499D01*
X163299920Y-75513489D01*
X163337732Y-75505968D01*
X163337733Y-75505967D01*
X163337740Y-75505966D01*
X163337745Y-75505962D01*
X163342539Y-75503977D01*
X163362653Y-75501813D01*
X163381632Y-75494818D01*
X163408703Y-75496859D01*
G37*
%TD.AperFunction*%
%TA.AperFunction,Conductor*%
G36*
X150855703Y-76105426D02*
G01*
X150877600Y-76130246D01*
X150915115Y-76186391D01*
X150944024Y-76229657D01*
X151090342Y-76375975D01*
X151090345Y-76375977D01*
X151262402Y-76490941D01*
X151453580Y-76570130D01*
X151656530Y-76610499D01*
X151656534Y-76610500D01*
X151656535Y-76610500D01*
X151863466Y-76610500D01*
X151863467Y-76610499D01*
X152066420Y-76570130D01*
X152186974Y-76520194D01*
X152256438Y-76512726D01*
X152318918Y-76544000D01*
X152322104Y-76547075D01*
X153263181Y-77488152D01*
X153296666Y-77549475D01*
X153299500Y-77575833D01*
X153299500Y-77989562D01*
X153311454Y-78034174D01*
X153319979Y-78065990D01*
X153319980Y-78065991D01*
X153340106Y-78100851D01*
X153359540Y-78134511D01*
X153463181Y-78238152D01*
X153496666Y-78299475D01*
X153499500Y-78325833D01*
X153499500Y-79339562D01*
X153505567Y-79362203D01*
X153519979Y-79415990D01*
X153519980Y-79415991D01*
X153556670Y-79479540D01*
X153556672Y-79479543D01*
X153559539Y-79484509D01*
X153559541Y-79484512D01*
X154082848Y-80007819D01*
X154116333Y-80069142D01*
X154111349Y-80138834D01*
X154069477Y-80194767D01*
X154004013Y-80219184D01*
X153995167Y-80219500D01*
X152805730Y-80219500D01*
X152738691Y-80199815D01*
X152692936Y-80147011D01*
X152691166Y-80142946D01*
X152690941Y-80142402D01*
X152575977Y-79970345D01*
X152575976Y-79970344D01*
X152575975Y-79970342D01*
X152429657Y-79824024D01*
X152313131Y-79746165D01*
X152257598Y-79709059D01*
X152205002Y-79687273D01*
X152066420Y-79629870D01*
X152066412Y-79629868D01*
X151863469Y-79589500D01*
X151863465Y-79589500D01*
X151656535Y-79589500D01*
X151656530Y-79589500D01*
X151453587Y-79629868D01*
X151453579Y-79629870D01*
X151262403Y-79709058D01*
X151090342Y-79824024D01*
X150944022Y-79970344D01*
X150877602Y-80069751D01*
X150823990Y-80114556D01*
X150754665Y-80123263D01*
X150691638Y-80093109D01*
X150654918Y-80033666D01*
X150650500Y-80000860D01*
X150650500Y-78738239D01*
X150670185Y-78671200D01*
X150722989Y-78625445D01*
X150792147Y-78615501D01*
X150855653Y-78644503D01*
X150861378Y-78645067D01*
X151277037Y-78229408D01*
X151294075Y-78292993D01*
X151359901Y-78407007D01*
X151452993Y-78500099D01*
X151567007Y-78565925D01*
X151630590Y-78582962D01*
X151214931Y-78998620D01*
X151214932Y-78998621D01*
X151262633Y-79030495D01*
X151262639Y-79030498D01*
X151453725Y-79109649D01*
X151453733Y-79109651D01*
X151656579Y-79149999D01*
X151656583Y-79150000D01*
X151863417Y-79150000D01*
X151863420Y-79149999D01*
X152066266Y-79109651D01*
X152066274Y-79109649D01*
X152257366Y-79030495D01*
X152305066Y-78998621D01*
X152305067Y-78998620D01*
X151889409Y-78582962D01*
X151952993Y-78565925D01*
X152067007Y-78500099D01*
X152160099Y-78407007D01*
X152225925Y-78292993D01*
X152242962Y-78229409D01*
X152658620Y-78645067D01*
X152658621Y-78645066D01*
X152690495Y-78597366D01*
X152769649Y-78406274D01*
X152769651Y-78406266D01*
X152809999Y-78203420D01*
X152810000Y-78203417D01*
X152810000Y-77996583D01*
X152809999Y-77996579D01*
X152769651Y-77793733D01*
X152769649Y-77793725D01*
X152690498Y-77602639D01*
X152690495Y-77602633D01*
X152658621Y-77554932D01*
X152658620Y-77554931D01*
X152242962Y-77970590D01*
X152225925Y-77907007D01*
X152160099Y-77792993D01*
X152067007Y-77699901D01*
X151952993Y-77634075D01*
X151889409Y-77617037D01*
X152305067Y-77201378D01*
X152305067Y-77201377D01*
X152257359Y-77169500D01*
X152066274Y-77090350D01*
X152066266Y-77090348D01*
X151863420Y-77050000D01*
X151656579Y-77050000D01*
X151453733Y-77090348D01*
X151453725Y-77090350D01*
X151262641Y-77169500D01*
X151262631Y-77169505D01*
X151214932Y-77201377D01*
X151214932Y-77201378D01*
X151630591Y-77617037D01*
X151567007Y-77634075D01*
X151452993Y-77699901D01*
X151359901Y-77792993D01*
X151294075Y-77907007D01*
X151277037Y-77970591D01*
X150861378Y-77554932D01*
X150847022Y-77556346D01*
X150826011Y-77574553D01*
X150824872Y-77574716D01*
X150823989Y-77575455D01*
X150790384Y-77579675D01*
X150756853Y-77584497D01*
X150755805Y-77584018D01*
X150754664Y-77584162D01*
X150724120Y-77569548D01*
X150693297Y-77555472D01*
X150692674Y-77554503D01*
X150691637Y-77554007D01*
X150673839Y-77525194D01*
X150655523Y-77496694D01*
X150655307Y-77495194D01*
X150654918Y-77494564D01*
X150650500Y-77461759D01*
X150650500Y-76199139D01*
X150670185Y-76132100D01*
X150722989Y-76086345D01*
X150792147Y-76076401D01*
X150855703Y-76105426D01*
G37*
%TD.AperFunction*%
%TA.AperFunction,Conductor*%
G36*
X170608362Y-76106890D02*
G01*
X170645082Y-76166333D01*
X170649500Y-76199139D01*
X170649500Y-77461762D01*
X170629815Y-77528801D01*
X170577011Y-77574556D01*
X170507853Y-77584500D01*
X170444341Y-77555495D01*
X170438620Y-77554931D01*
X170022962Y-77970590D01*
X170005925Y-77907007D01*
X169940099Y-77792993D01*
X169847007Y-77699901D01*
X169732993Y-77634075D01*
X169669409Y-77617037D01*
X170085067Y-77201378D01*
X170085067Y-77201377D01*
X170037359Y-77169500D01*
X169846274Y-77090350D01*
X169846266Y-77090348D01*
X169643420Y-77050000D01*
X169436579Y-77050000D01*
X169233733Y-77090348D01*
X169233725Y-77090350D01*
X169042641Y-77169500D01*
X169042631Y-77169505D01*
X168994932Y-77201377D01*
X168994932Y-77201378D01*
X169410591Y-77617037D01*
X169347007Y-77634075D01*
X169232993Y-77699901D01*
X169139901Y-77792993D01*
X169074075Y-77907007D01*
X169057037Y-77970591D01*
X168641378Y-77554932D01*
X168641377Y-77554932D01*
X168609505Y-77602631D01*
X168609500Y-77602641D01*
X168530350Y-77793725D01*
X168530348Y-77793733D01*
X168490000Y-77996579D01*
X168490000Y-78203420D01*
X168530348Y-78406266D01*
X168530350Y-78406274D01*
X168609500Y-78597359D01*
X168641377Y-78645067D01*
X168641378Y-78645067D01*
X169057037Y-78229408D01*
X169074075Y-78292993D01*
X169139901Y-78407007D01*
X169232993Y-78500099D01*
X169347007Y-78565925D01*
X169410590Y-78582962D01*
X168994931Y-78998620D01*
X168994932Y-78998621D01*
X169042633Y-79030495D01*
X169042639Y-79030498D01*
X169233725Y-79109649D01*
X169233733Y-79109651D01*
X169436579Y-79149999D01*
X169436583Y-79150000D01*
X169643417Y-79150000D01*
X169643420Y-79149999D01*
X169846266Y-79109651D01*
X169846274Y-79109649D01*
X170037366Y-79030495D01*
X170085066Y-78998621D01*
X170085067Y-78998620D01*
X169669409Y-78582962D01*
X169732993Y-78565925D01*
X169847007Y-78500099D01*
X169940099Y-78407007D01*
X170005925Y-78292993D01*
X170022962Y-78229408D01*
X170438620Y-78645067D01*
X170453162Y-78643634D01*
X170476013Y-78624539D01*
X170545338Y-78615833D01*
X170608365Y-78645990D01*
X170645083Y-78705434D01*
X170649500Y-78738236D01*
X170649500Y-80000860D01*
X170629815Y-80067899D01*
X170577011Y-80113654D01*
X170507853Y-80123598D01*
X170444297Y-80094573D01*
X170422398Y-80069751D01*
X170355977Y-79970344D01*
X170209657Y-79824024D01*
X170093131Y-79746165D01*
X170037598Y-79709059D01*
X169985002Y-79687273D01*
X169846420Y-79629870D01*
X169846412Y-79629868D01*
X169643469Y-79589500D01*
X169643465Y-79589500D01*
X169436535Y-79589500D01*
X169436530Y-79589500D01*
X169233587Y-79629868D01*
X169233579Y-79629870D01*
X169113029Y-79679804D01*
X169097872Y-79681433D01*
X169084050Y-79687859D01*
X169063841Y-79685092D01*
X169043559Y-79687273D01*
X169028866Y-79680304D01*
X169014826Y-79678382D01*
X168992794Y-79663194D01*
X168985007Y-79659501D01*
X168981323Y-79656352D01*
X168884511Y-79559540D01*
X168843719Y-79535989D01*
X168828981Y-79527480D01*
X168815990Y-79519979D01*
X168815991Y-79519979D01*
X168776833Y-79509487D01*
X168739562Y-79499500D01*
X168739560Y-79499500D01*
X166834000Y-79499500D01*
X166766961Y-79479815D01*
X166721206Y-79427011D01*
X166710000Y-79375500D01*
X166710000Y-79124000D01*
X166729685Y-79056961D01*
X166782489Y-79011206D01*
X166834000Y-79000000D01*
X167184712Y-79000000D01*
X167183480Y-78990643D01*
X167183479Y-78990640D01*
X167132807Y-78881975D01*
X167048025Y-78797193D01*
X166990118Y-78770190D01*
X166937679Y-78724017D01*
X166918528Y-78656823D01*
X166938744Y-78589942D01*
X166954838Y-78570132D01*
X168977896Y-76547073D01*
X169039217Y-76513590D01*
X169108909Y-76518574D01*
X169113007Y-76520186D01*
X169233580Y-76570130D01*
X169436530Y-76610499D01*
X169436534Y-76610500D01*
X169436535Y-76610500D01*
X169643466Y-76610500D01*
X169643467Y-76610499D01*
X169846420Y-76570130D01*
X170037598Y-76490941D01*
X170209655Y-76375977D01*
X170355977Y-76229655D01*
X170422398Y-76130248D01*
X170476009Y-76085443D01*
X170545334Y-76076736D01*
X170608362Y-76106890D01*
G37*
%TD.AperFunction*%
%TA.AperFunction,Conductor*%
G36*
X154606703Y-76837120D02*
G01*
X154613181Y-76843152D01*
X156301204Y-78531175D01*
X156334689Y-78592498D01*
X156329705Y-78662190D01*
X156287833Y-78718123D01*
X156222369Y-78742540D01*
X156197341Y-78741796D01*
X156179901Y-78739500D01*
X156179897Y-78739500D01*
X155820105Y-78739500D01*
X155804386Y-78741569D01*
X155770513Y-78746028D01*
X155770511Y-78746029D01*
X155770509Y-78746029D01*
X155661683Y-78796776D01*
X155607327Y-78851133D01*
X155546004Y-78884618D01*
X155476312Y-78879634D01*
X155431965Y-78851133D01*
X155378025Y-78797193D01*
X155290000Y-78756145D01*
X155290000Y-79126000D01*
X155270315Y-79193039D01*
X155217511Y-79238794D01*
X155166000Y-79250000D01*
X154914000Y-79250000D01*
X154846961Y-79230315D01*
X154801206Y-79177511D01*
X154790000Y-79126000D01*
X154790000Y-78756145D01*
X154701974Y-78797193D01*
X154613181Y-78885987D01*
X154551858Y-78919472D01*
X154482166Y-78914488D01*
X154426233Y-78872616D01*
X154401816Y-78807152D01*
X154401500Y-78798306D01*
X154401500Y-76930833D01*
X154421185Y-76863794D01*
X154473989Y-76818039D01*
X154543147Y-76808095D01*
X154606703Y-76837120D01*
G37*
%TD.AperFunction*%
%TA.AperFunction,Conductor*%
G36*
X153337454Y-71840838D02*
G01*
X153342147Y-71840164D01*
X153356585Y-71843125D01*
X153384108Y-71850500D01*
X153384110Y-71850500D01*
X153474167Y-71850500D01*
X153541206Y-71870185D01*
X153561848Y-71886819D01*
X154372045Y-72697016D01*
X154405530Y-72758339D01*
X154404140Y-72816786D01*
X154399500Y-72834102D01*
X154399500Y-72834108D01*
X154399500Y-72965892D01*
X154412383Y-73013972D01*
X154433608Y-73093187D01*
X154458084Y-73135580D01*
X154499500Y-73207314D01*
X154592686Y-73300500D01*
X154706814Y-73366392D01*
X154834108Y-73400500D01*
X154834110Y-73400500D01*
X154965889Y-73400500D01*
X154965892Y-73400500D01*
X155063410Y-73374370D01*
X155133256Y-73376033D01*
X155191118Y-73415195D01*
X155218623Y-73479423D01*
X155219500Y-73494145D01*
X155219500Y-75859562D01*
X155221337Y-75866416D01*
X155239979Y-75935990D01*
X155251755Y-75956386D01*
X155269571Y-75987244D01*
X155279540Y-76004511D01*
X155414899Y-76139870D01*
X155416536Y-76141640D01*
X155431038Y-76170854D01*
X155446666Y-76199475D01*
X155447058Y-76203128D01*
X155447602Y-76204223D01*
X155447385Y-76206171D01*
X155449500Y-76225833D01*
X155449500Y-76339562D01*
X155469979Y-76415989D01*
X155483901Y-76440102D01*
X155509540Y-76484511D01*
X155573468Y-76548439D01*
X155577575Y-76553517D01*
X155585665Y-76572951D01*
X155600934Y-76599398D01*
X155620823Y-76673621D01*
X155619162Y-76743471D01*
X155580000Y-76801334D01*
X155515772Y-76828839D01*
X155446869Y-76817253D01*
X155413368Y-76793397D01*
X154791632Y-76171661D01*
X154758147Y-76110338D01*
X154763131Y-76040646D01*
X154790000Y-76004754D01*
X154790000Y-75006144D01*
X154736927Y-75030893D01*
X154667850Y-75041385D01*
X154604066Y-75012865D01*
X154596841Y-75006192D01*
X153236819Y-73646170D01*
X153203334Y-73584847D01*
X153200500Y-73558489D01*
X153200500Y-71962902D01*
X153207543Y-71938913D01*
X153210512Y-71914089D01*
X153217218Y-71905967D01*
X153220185Y-71895863D01*
X153239077Y-71879492D01*
X153254997Y-71860212D01*
X153265029Y-71857004D01*
X153272989Y-71850108D01*
X153297734Y-71846549D01*
X153321549Y-71838937D01*
X153337454Y-71840838D01*
G37*
%TD.AperFunction*%
%TA.AperFunction,Conductor*%
G36*
X165613384Y-73249007D02*
G01*
X165659139Y-73301811D01*
X165669083Y-73370969D01*
X165640058Y-73434525D01*
X165634026Y-73441003D01*
X165529541Y-73545487D01*
X165529535Y-73545495D01*
X165489982Y-73614004D01*
X165489979Y-73614009D01*
X165483163Y-73639447D01*
X165469710Y-73689657D01*
X165469500Y-73690439D01*
X165469500Y-74707598D01*
X165461488Y-74734881D01*
X165456492Y-74762887D01*
X165451041Y-74770461D01*
X165449815Y-74774637D01*
X165436419Y-74791917D01*
X165432086Y-74796588D01*
X165431684Y-74796776D01*
X165346776Y-74881684D01*
X165340312Y-74895545D01*
X165327075Y-74909819D01*
X165313107Y-74918142D01*
X165302360Y-74930348D01*
X165283446Y-74935819D01*
X165267055Y-74945588D01*
X165251495Y-74945062D01*
X165236156Y-74949500D01*
X164857938Y-74949500D01*
X164827367Y-74957691D01*
X164781508Y-74969979D01*
X164781505Y-74969981D01*
X164747699Y-74989500D01*
X164747698Y-74989501D01*
X164737385Y-74995454D01*
X164712989Y-75009539D01*
X164712987Y-75009541D01*
X164339348Y-75383181D01*
X164312420Y-75397884D01*
X164286602Y-75414477D01*
X164280401Y-75415368D01*
X164278025Y-75416666D01*
X164251667Y-75419500D01*
X164014500Y-75419500D01*
X163947461Y-75399815D01*
X163901706Y-75347011D01*
X163890500Y-75295500D01*
X163890500Y-75058333D01*
X163910185Y-74991294D01*
X163926819Y-74970652D01*
X164457322Y-74440149D01*
X164990460Y-73907011D01*
X165030022Y-73838488D01*
X165050500Y-73762062D01*
X165050500Y-73743843D01*
X165070185Y-73676804D01*
X165110767Y-73641358D01*
X165109429Y-73639447D01*
X165118313Y-73633225D01*
X165118316Y-73633224D01*
X165203224Y-73548316D01*
X165253972Y-73439487D01*
X165260500Y-73389901D01*
X165260500Y-73353322D01*
X165263050Y-73344636D01*
X165261762Y-73335675D01*
X165272740Y-73311634D01*
X165280185Y-73286283D01*
X165287025Y-73280355D01*
X165290787Y-73272119D01*
X165313021Y-73257829D01*
X165332989Y-73240528D01*
X165343503Y-73238240D01*
X165349565Y-73234345D01*
X165384500Y-73229322D01*
X165546345Y-73229322D01*
X165613384Y-73249007D01*
G37*
%TD.AperFunction*%
%TA.AperFunction,Conductor*%
G36*
X167145989Y-72800614D02*
G01*
X167165762Y-72799357D01*
X167179600Y-72807055D01*
X167195154Y-72810037D01*
X167209507Y-72823694D01*
X167226819Y-72833326D01*
X167234297Y-72847283D01*
X167245771Y-72858201D01*
X167250461Y-72877450D01*
X167259818Y-72894912D01*
X167262447Y-72920311D01*
X167262447Y-74695126D01*
X167242762Y-74762165D01*
X167189958Y-74807920D01*
X167120800Y-74817864D01*
X167078211Y-74801011D01*
X167077855Y-74801777D01*
X166980000Y-74756145D01*
X166980000Y-75126000D01*
X166960315Y-75193039D01*
X166907511Y-75238794D01*
X166856000Y-75250000D01*
X166604000Y-75250000D01*
X166536961Y-75230315D01*
X166491206Y-75177511D01*
X166480000Y-75126000D01*
X166480000Y-74756145D01*
X166391974Y-74797193D01*
X166338035Y-74851133D01*
X166330089Y-74855471D01*
X166324664Y-74862719D01*
X166299904Y-74871953D01*
X166276712Y-74884618D01*
X166267682Y-74883972D01*
X166259200Y-74887136D01*
X166233379Y-74881519D01*
X166207020Y-74879634D01*
X166197966Y-74873815D01*
X166190927Y-74872284D01*
X166162673Y-74851133D01*
X166106819Y-74795279D01*
X166073334Y-74733956D01*
X166070500Y-74707598D01*
X166070500Y-73905832D01*
X166090185Y-73838793D01*
X166106815Y-73818155D01*
X166436472Y-73488497D01*
X166481744Y-73459657D01*
X166515268Y-73447456D01*
X166554947Y-73417009D01*
X166809364Y-73162591D01*
X166839812Y-73122912D01*
X166880881Y-73010074D01*
X166880881Y-72933203D01*
X166881723Y-72930335D01*
X166881015Y-72927430D01*
X166891507Y-72897013D01*
X166900566Y-72866164D01*
X166902824Y-72864207D01*
X166903800Y-72861379D01*
X166929072Y-72841462D01*
X166953370Y-72820409D01*
X166957038Y-72819423D01*
X166958677Y-72818133D01*
X166969990Y-72815946D01*
X166992968Y-72809777D01*
X167126534Y-72796885D01*
X167145989Y-72800614D01*
G37*
%TD.AperFunction*%
%TA.AperFunction,Conductor*%
G36*
X166070673Y-69027338D02*
G01*
X166120666Y-69076149D01*
X166136553Y-69136874D01*
X166136553Y-70987114D01*
X166116868Y-71054153D01*
X166100234Y-71074795D01*
X166080719Y-71094309D01*
X166080713Y-71094317D01*
X166041160Y-71162826D01*
X166041157Y-71162831D01*
X166020678Y-71239261D01*
X166020678Y-71425500D01*
X166000993Y-71492539D01*
X165948189Y-71538294D01*
X165896678Y-71549500D01*
X165884108Y-71549500D01*
X165756812Y-71583608D01*
X165642686Y-71649500D01*
X165642683Y-71649502D01*
X165549502Y-71742683D01*
X165549500Y-71742686D01*
X165483608Y-71856812D01*
X165462896Y-71934108D01*
X165462895Y-71934114D01*
X165449500Y-71984108D01*
X165449500Y-72115892D01*
X165449737Y-72116776D01*
X165483608Y-72243187D01*
X165516554Y-72300250D01*
X165549500Y-72357314D01*
X165549502Y-72357316D01*
X165608827Y-72416641D01*
X165619439Y-72436077D01*
X165633940Y-72452811D01*
X165635856Y-72466142D01*
X165642312Y-72477964D01*
X165640732Y-72500050D01*
X165643884Y-72521969D01*
X165638288Y-72534220D01*
X165637328Y-72547656D01*
X165624057Y-72565382D01*
X165614859Y-72585525D01*
X165603527Y-72592807D01*
X165595456Y-72603589D01*
X165574710Y-72611326D01*
X165556081Y-72623299D01*
X165534162Y-72626450D01*
X165529992Y-72628006D01*
X165521146Y-72628322D01*
X165378657Y-72628322D01*
X165311618Y-72608637D01*
X165265863Y-72555833D01*
X165261910Y-72528343D01*
X165243854Y-72500000D01*
X164256146Y-72500000D01*
X164297191Y-72588023D01*
X164351133Y-72641965D01*
X164384618Y-72703288D01*
X164379634Y-72772980D01*
X164351133Y-72817327D01*
X164296776Y-72871683D01*
X164246027Y-72980514D01*
X164239500Y-73030097D01*
X164239500Y-73389894D01*
X164239501Y-73389900D01*
X164246028Y-73439487D01*
X164246029Y-73439489D01*
X164246029Y-73439490D01*
X164296776Y-73548316D01*
X164310313Y-73561853D01*
X164343798Y-73623176D01*
X164338814Y-73692868D01*
X164310313Y-73737215D01*
X163826940Y-74220587D01*
X163822685Y-74222910D01*
X163820045Y-74226979D01*
X163792310Y-74239496D01*
X163765617Y-74254072D01*
X163759565Y-74254274D01*
X163756361Y-74255721D01*
X163734937Y-74255099D01*
X163721067Y-74255564D01*
X163718034Y-74255114D01*
X163664674Y-74244500D01*
X163646468Y-74244500D01*
X163637420Y-74243158D01*
X163613672Y-74232185D01*
X163588573Y-74224815D01*
X163582463Y-74217764D01*
X163573994Y-74213851D01*
X163559947Y-74191779D01*
X163542818Y-74172011D01*
X163541418Y-74162663D01*
X163536481Y-74154906D01*
X163536589Y-74130424D01*
X163534812Y-74118558D01*
X163531868Y-74118558D01*
X163531868Y-73978649D01*
X163531868Y-73978647D01*
X163497760Y-73851353D01*
X163431868Y-73737225D01*
X163338682Y-73644039D01*
X163279467Y-73609851D01*
X163224555Y-73578147D01*
X163105866Y-73546345D01*
X163102405Y-73545417D01*
X163042745Y-73509053D01*
X163012216Y-73446206D01*
X163010499Y-73425643D01*
X163010499Y-73320105D01*
X163010499Y-73320100D01*
X163003972Y-73270513D01*
X162953224Y-73161684D01*
X162899221Y-73107681D01*
X162865736Y-73046358D01*
X162870720Y-72976666D01*
X162899221Y-72932319D01*
X162915005Y-72916535D01*
X162953224Y-72878316D01*
X163003972Y-72769487D01*
X163010500Y-72719901D01*
X163010499Y-72360100D01*
X163003972Y-72310513D01*
X162953224Y-72201684D01*
X162868316Y-72116776D01*
X162859816Y-72110824D01*
X162859816Y-72110823D01*
X162859762Y-72110787D01*
X162859374Y-72110515D01*
X162860613Y-72108747D01*
X162845334Y-72094974D01*
X162819647Y-72072351D01*
X162819438Y-72071631D01*
X162818890Y-72071137D01*
X162812311Y-72046989D01*
X162800500Y-72006155D01*
X162800500Y-71999999D01*
X164256146Y-71999999D01*
X164256146Y-72000000D01*
X164500000Y-72000000D01*
X165000000Y-72000000D01*
X165209064Y-72000000D01*
X165214010Y-71936003D01*
X165202806Y-71911974D01*
X165118024Y-71827192D01*
X165009361Y-71776521D01*
X165009355Y-71776519D01*
X165000000Y-71775287D01*
X165000000Y-72000000D01*
X164500000Y-72000000D01*
X164500000Y-71775287D01*
X164490644Y-71776519D01*
X164490638Y-71776521D01*
X164381975Y-71827192D01*
X164297191Y-71911976D01*
X164256146Y-71999999D01*
X162800500Y-71999999D01*
X162800500Y-71252206D01*
X162820185Y-71185167D01*
X162872989Y-71139412D01*
X162942147Y-71129468D01*
X163005703Y-71158493D01*
X163031887Y-71190206D01*
X163099497Y-71307310D01*
X163099499Y-71307312D01*
X163099500Y-71307314D01*
X163192686Y-71400500D01*
X163306814Y-71466392D01*
X163434108Y-71500500D01*
X163434110Y-71500500D01*
X163565890Y-71500500D01*
X163565892Y-71500500D01*
X163693186Y-71466392D01*
X163807314Y-71400500D01*
X163900500Y-71307314D01*
X163966392Y-71193186D01*
X163977790Y-71150644D01*
X164014155Y-71090985D01*
X164076034Y-71060623D01*
X164081250Y-71059703D01*
X164081252Y-71059703D01*
X164194090Y-71018634D01*
X164233769Y-70988187D01*
X164488186Y-70733769D01*
X164518634Y-70694090D01*
X164559703Y-70581252D01*
X164559703Y-70504381D01*
X164579388Y-70437342D01*
X164632192Y-70391587D01*
X164683703Y-70380381D01*
X164759985Y-70380381D01*
X164851253Y-70347161D01*
X164589726Y-70085635D01*
X164556241Y-70024312D01*
X164561225Y-69954621D01*
X164589726Y-69910272D01*
X164678820Y-69821178D01*
X165032375Y-69821178D01*
X165204805Y-69993609D01*
X165238025Y-69902341D01*
X165238025Y-69782442D01*
X165238024Y-69782439D01*
X165197016Y-69669770D01*
X165191270Y-69662282D01*
X165032375Y-69821178D01*
X164678820Y-69821178D01*
X164678821Y-69821177D01*
X164589726Y-69732082D01*
X164556241Y-69670759D01*
X164561225Y-69601067D01*
X164589726Y-69556720D01*
X164837717Y-69308728D01*
X164830231Y-69302984D01*
X164830232Y-69302984D01*
X164797365Y-69291022D01*
X164741101Y-69249596D01*
X164716165Y-69184327D01*
X164730475Y-69115938D01*
X164779487Y-69066143D01*
X164839775Y-69050500D01*
X165099652Y-69050500D01*
X165161652Y-69067113D01*
X165184008Y-69080020D01*
X165184009Y-69080020D01*
X165184012Y-69080022D01*
X165260438Y-69100500D01*
X165260440Y-69100500D01*
X165789560Y-69100500D01*
X165789562Y-69100500D01*
X165865989Y-69080021D01*
X165917121Y-69050500D01*
X165934501Y-69040466D01*
X165934502Y-69040465D01*
X165934511Y-69040460D01*
X165934518Y-69040452D01*
X165937060Y-69038503D01*
X165939610Y-69037516D01*
X165941550Y-69036397D01*
X165941724Y-69036699D01*
X166002227Y-69013305D01*
X166070673Y-69027338D01*
G37*
%TD.AperFunction*%
%TA.AperFunction,Conductor*%
G36*
X158191847Y-69277475D02*
G01*
X158203747Y-69278456D01*
X158222518Y-69292826D01*
X158243653Y-69303404D01*
X158249744Y-69313669D01*
X158259226Y-69320928D01*
X158275805Y-69352086D01*
X158278965Y-69360848D01*
X158289760Y-69415117D01*
X158308850Y-69443687D01*
X158313985Y-69457922D01*
X158318218Y-69527663D01*
X158300446Y-69568889D01*
X158289759Y-69584882D01*
X158274500Y-69661596D01*
X158274500Y-69838398D01*
X158289760Y-69915119D01*
X158300446Y-69931111D01*
X158321323Y-69997788D01*
X158302837Y-70065168D01*
X158300446Y-70068889D01*
X158289759Y-70084882D01*
X158274500Y-70161596D01*
X158274500Y-70338398D01*
X158289760Y-70415119D01*
X158300446Y-70431111D01*
X158321323Y-70497788D01*
X158302837Y-70565168D01*
X158300446Y-70568889D01*
X158289759Y-70584882D01*
X158274500Y-70661596D01*
X158274500Y-70838398D01*
X158289760Y-70915118D01*
X158289761Y-70915120D01*
X158321533Y-70962669D01*
X158347888Y-71002112D01*
X158434883Y-71060240D01*
X158434886Y-71060240D01*
X158434887Y-71060241D01*
X158463297Y-71065892D01*
X158511599Y-71075500D01*
X158774166Y-71075499D01*
X158841205Y-71095183D01*
X158861847Y-71111818D01*
X159253181Y-71503152D01*
X159286666Y-71564475D01*
X159289500Y-71590833D01*
X159289500Y-73086764D01*
X159269815Y-73153803D01*
X159217011Y-73199558D01*
X159147853Y-73209502D01*
X159084297Y-73180477D01*
X159058113Y-73148765D01*
X159050501Y-73135580D01*
X158957315Y-73042394D01*
X158900251Y-73009448D01*
X158843188Y-72976502D01*
X158779540Y-72959448D01*
X158715893Y-72942394D01*
X158584109Y-72942394D01*
X158456813Y-72976502D01*
X158342687Y-73042394D01*
X158342684Y-73042396D01*
X158243754Y-73141327D01*
X158241530Y-73139103D01*
X158197019Y-73171552D01*
X158127270Y-73175652D01*
X158067482Y-73142511D01*
X156211652Y-71286681D01*
X156178167Y-71225358D01*
X156183151Y-71155666D01*
X156225023Y-71099733D01*
X156290487Y-71075316D01*
X156299333Y-71075000D01*
X156488357Y-71075000D01*
X156488360Y-71074999D01*
X156564918Y-71059771D01*
X156564922Y-71059769D01*
X156651753Y-71001751D01*
X156660388Y-70993117D01*
X156662536Y-70995265D01*
X156701540Y-70962669D01*
X156770865Y-70953962D01*
X156833893Y-70984116D01*
X156838712Y-70988684D01*
X157048461Y-71198433D01*
X157081946Y-71259756D01*
X157080555Y-71318207D01*
X157051806Y-71425500D01*
X157049500Y-71434108D01*
X157049500Y-71565892D01*
X157061691Y-71611390D01*
X157083608Y-71693187D01*
X157094269Y-71711652D01*
X157149500Y-71807314D01*
X157242686Y-71900500D01*
X157356814Y-71966392D01*
X157484108Y-72000500D01*
X157484110Y-72000500D01*
X157615890Y-72000500D01*
X157615892Y-72000500D01*
X157743186Y-71966392D01*
X157857314Y-71900500D01*
X157950500Y-71807314D01*
X158016392Y-71693186D01*
X158050500Y-71565892D01*
X158050500Y-71434108D01*
X158016392Y-71306814D01*
X157950500Y-71192686D01*
X157857314Y-71099500D01*
X157815887Y-71075582D01*
X157767671Y-71025015D01*
X157754449Y-70956408D01*
X157774784Y-70899306D01*
X157788867Y-70878231D01*
X157800500Y-70819748D01*
X157800500Y-69423500D01*
X157820185Y-69356461D01*
X157872989Y-69310706D01*
X157924500Y-69299500D01*
X158036688Y-69299500D01*
X158036690Y-69299500D01*
X158113117Y-69279021D01*
X158113118Y-69279019D01*
X158120967Y-69276917D01*
X158121407Y-69278562D01*
X158123573Y-69278329D01*
X158134113Y-69272721D01*
X158157670Y-69274661D01*
X158181172Y-69272133D01*
X158191847Y-69277475D01*
G37*
%TD.AperFunction*%
%TA.AperFunction,Conductor*%
G36*
X170608362Y-58326890D02*
G01*
X170645082Y-58386333D01*
X170649500Y-58419139D01*
X170649500Y-59680860D01*
X170629815Y-59747899D01*
X170577011Y-59793654D01*
X170507853Y-59803598D01*
X170444297Y-59774573D01*
X170422398Y-59749751D01*
X170355977Y-59650344D01*
X170209657Y-59504024D01*
X170086138Y-59421492D01*
X170037598Y-59389059D01*
X169927964Y-59343647D01*
X169846420Y-59309870D01*
X169846412Y-59309868D01*
X169643469Y-59269500D01*
X169643465Y-59269500D01*
X169436535Y-59269500D01*
X169436530Y-59269500D01*
X169233587Y-59309868D01*
X169233579Y-59309870D01*
X169042403Y-59389058D01*
X168870342Y-59504024D01*
X168724024Y-59650342D01*
X168609058Y-59822403D01*
X168529870Y-60013579D01*
X168529868Y-60013587D01*
X168489500Y-60216530D01*
X168489500Y-60423469D01*
X168529868Y-60626412D01*
X168529871Y-60626424D01*
X168579803Y-60746971D01*
X168587272Y-60816440D01*
X168555997Y-60878919D01*
X168552923Y-60882104D01*
X167215489Y-62219540D01*
X167159541Y-62275487D01*
X167159535Y-62275495D01*
X167119982Y-62344004D01*
X167119979Y-62344009D01*
X167106326Y-62394962D01*
X167099500Y-62420438D01*
X167099500Y-63089562D01*
X167115148Y-63147961D01*
X167119979Y-63165989D01*
X167141594Y-63203428D01*
X167158272Y-63232314D01*
X167159540Y-63234511D01*
X167227789Y-63302760D01*
X167229388Y-63304485D01*
X167243951Y-63333740D01*
X167259613Y-63362422D01*
X167259994Y-63365966D01*
X167260525Y-63367033D01*
X167260314Y-63368948D01*
X167262447Y-63388780D01*
X167262447Y-71595130D01*
X167242762Y-71662169D01*
X167189958Y-71707924D01*
X167120800Y-71717868D01*
X167096037Y-71711652D01*
X167038739Y-71690797D01*
X166918834Y-71690797D01*
X166806161Y-71731807D01*
X166805312Y-71732273D01*
X166804227Y-71732511D01*
X166799726Y-71734149D01*
X166797189Y-71736348D01*
X166766935Y-71740698D01*
X166737068Y-71747255D01*
X166732671Y-71745624D01*
X166728031Y-71746292D01*
X166700223Y-71733592D01*
X166671557Y-71722963D01*
X166668739Y-71719214D01*
X166664475Y-71717267D01*
X166647946Y-71691548D01*
X166629579Y-71667109D01*
X166628532Y-71661338D01*
X166626701Y-71658489D01*
X166621678Y-71623554D01*
X166621678Y-71454655D01*
X166641363Y-71387616D01*
X166657997Y-71366974D01*
X166690460Y-71334511D01*
X166730021Y-71265988D01*
X166750500Y-71189562D01*
X166750500Y-71110438D01*
X166741778Y-71077887D01*
X166737553Y-71045794D01*
X166737553Y-61058779D01*
X166757238Y-60991740D01*
X166773867Y-60971103D01*
X168977896Y-58767073D01*
X169039217Y-58733590D01*
X169108909Y-58738574D01*
X169113007Y-58740186D01*
X169233580Y-58790130D01*
X169369053Y-58817077D01*
X169436530Y-58830499D01*
X169436534Y-58830500D01*
X169436535Y-58830500D01*
X169643466Y-58830500D01*
X169643467Y-58830499D01*
X169846420Y-58790130D01*
X170037598Y-58710941D01*
X170209655Y-58595977D01*
X170355977Y-58449655D01*
X170422398Y-58350248D01*
X170476009Y-58305443D01*
X170545334Y-58296736D01*
X170608362Y-58326890D01*
G37*
%TD.AperFunction*%
%TA.AperFunction,Conductor*%
G36*
X170608362Y-63406890D02*
G01*
X170645082Y-63466333D01*
X170649500Y-63499139D01*
X170649500Y-64761762D01*
X170629815Y-64828801D01*
X170577011Y-64874556D01*
X170507853Y-64884500D01*
X170444341Y-64855495D01*
X170438620Y-64854931D01*
X170022962Y-65270590D01*
X170005925Y-65207007D01*
X169940099Y-65092993D01*
X169847007Y-64999901D01*
X169732993Y-64934075D01*
X169669409Y-64917037D01*
X170085067Y-64501378D01*
X170085067Y-64501377D01*
X170037359Y-64469500D01*
X169846274Y-64390350D01*
X169846266Y-64390348D01*
X169643420Y-64350000D01*
X169436579Y-64350000D01*
X169233733Y-64390348D01*
X169233725Y-64390350D01*
X169042641Y-64469500D01*
X169042631Y-64469505D01*
X168994932Y-64501377D01*
X168994932Y-64501378D01*
X169410591Y-64917037D01*
X169347007Y-64934075D01*
X169232993Y-64999901D01*
X169139901Y-65092993D01*
X169074075Y-65207007D01*
X169057037Y-65270591D01*
X168641378Y-64854932D01*
X168641377Y-64854932D01*
X168609505Y-64902631D01*
X168609500Y-64902641D01*
X168530350Y-65093725D01*
X168530348Y-65093733D01*
X168490000Y-65296579D01*
X168490000Y-65503420D01*
X168530348Y-65706266D01*
X168530350Y-65706274D01*
X168609500Y-65897359D01*
X168641377Y-65945067D01*
X168641378Y-65945067D01*
X169057037Y-65529408D01*
X169074075Y-65592993D01*
X169139901Y-65707007D01*
X169232993Y-65800099D01*
X169347007Y-65865925D01*
X169410590Y-65882962D01*
X168994931Y-66298620D01*
X168994932Y-66298621D01*
X169042633Y-66330495D01*
X169042639Y-66330498D01*
X169233725Y-66409649D01*
X169233733Y-66409651D01*
X169436579Y-66449999D01*
X169436583Y-66450000D01*
X169643417Y-66450000D01*
X169643420Y-66449999D01*
X169846266Y-66409651D01*
X169846274Y-66409649D01*
X170037366Y-66330495D01*
X170085066Y-66298621D01*
X170085067Y-66298620D01*
X169669409Y-65882962D01*
X169732993Y-65865925D01*
X169847007Y-65800099D01*
X169940099Y-65707007D01*
X170005925Y-65592993D01*
X170022962Y-65529408D01*
X170438620Y-65945067D01*
X170453162Y-65943634D01*
X170476013Y-65924539D01*
X170545338Y-65915833D01*
X170608365Y-65945990D01*
X170645083Y-66005434D01*
X170649500Y-66038236D01*
X170649500Y-67300860D01*
X170629815Y-67367899D01*
X170577011Y-67413654D01*
X170507853Y-67423598D01*
X170444297Y-67394573D01*
X170422398Y-67369751D01*
X170355977Y-67270344D01*
X170209657Y-67124024D01*
X170054249Y-67020185D01*
X170037598Y-67009059D01*
X170017082Y-67000561D01*
X169846420Y-66929870D01*
X169846412Y-66929868D01*
X169643469Y-66889500D01*
X169643465Y-66889500D01*
X169436535Y-66889500D01*
X169436530Y-66889500D01*
X169233587Y-66929868D01*
X169233579Y-66929870D01*
X169042403Y-67009058D01*
X168870342Y-67124024D01*
X168724024Y-67270342D01*
X168609058Y-67442403D01*
X168529870Y-67633579D01*
X168529868Y-67633587D01*
X168489500Y-67836530D01*
X168489500Y-68043469D01*
X168529868Y-68246412D01*
X168529870Y-68246420D01*
X168601960Y-68420461D01*
X168609059Y-68437598D01*
X168641587Y-68486280D01*
X168724024Y-68609657D01*
X168870342Y-68755975D01*
X168870345Y-68755977D01*
X169042402Y-68870941D01*
X169233580Y-68950130D01*
X169369993Y-68977264D01*
X169436530Y-68990499D01*
X169436534Y-68990500D01*
X169436535Y-68990500D01*
X169643466Y-68990500D01*
X169643467Y-68990499D01*
X169846420Y-68950130D01*
X170037598Y-68870941D01*
X170209655Y-68755977D01*
X170355977Y-68609655D01*
X170422398Y-68510248D01*
X170476009Y-68465443D01*
X170545334Y-68456736D01*
X170608362Y-68486890D01*
X170645082Y-68546333D01*
X170649500Y-68579139D01*
X170649500Y-69840860D01*
X170629815Y-69907899D01*
X170577011Y-69953654D01*
X170507853Y-69963598D01*
X170444297Y-69934573D01*
X170422398Y-69909751D01*
X170355977Y-69810344D01*
X170209657Y-69664024D01*
X170114585Y-69600500D01*
X170037598Y-69549059D01*
X169920364Y-69500499D01*
X169846420Y-69469870D01*
X169846412Y-69469868D01*
X169643469Y-69429500D01*
X169643465Y-69429500D01*
X169436535Y-69429500D01*
X169436530Y-69429500D01*
X169233587Y-69469868D01*
X169233579Y-69469870D01*
X169042403Y-69549058D01*
X168870342Y-69664024D01*
X168724024Y-69810342D01*
X168609058Y-69982403D01*
X168529870Y-70173579D01*
X168529868Y-70173587D01*
X168489500Y-70376530D01*
X168489500Y-70583469D01*
X168529868Y-70786412D01*
X168529871Y-70786424D01*
X168579803Y-70906971D01*
X168587272Y-70976440D01*
X168555997Y-71038919D01*
X168552923Y-71042104D01*
X168376128Y-71218900D01*
X168314805Y-71252385D01*
X168245114Y-71247401D01*
X168189180Y-71205530D01*
X168164763Y-71140065D01*
X168164447Y-71131219D01*
X168164447Y-63961885D01*
X168184132Y-63894846D01*
X168200762Y-63874208D01*
X168546989Y-63527980D01*
X168608310Y-63494497D01*
X168678001Y-63499481D01*
X168722349Y-63527982D01*
X168870342Y-63675975D01*
X168870345Y-63675977D01*
X169042402Y-63790941D01*
X169233580Y-63870130D01*
X169357837Y-63894846D01*
X169436530Y-63910499D01*
X169436534Y-63910500D01*
X169436535Y-63910500D01*
X169643466Y-63910500D01*
X169643467Y-63910499D01*
X169846420Y-63870130D01*
X170037598Y-63790941D01*
X170209655Y-63675977D01*
X170355977Y-63529655D01*
X170422398Y-63430248D01*
X170476009Y-63385443D01*
X170545334Y-63376736D01*
X170608362Y-63406890D01*
G37*
%TD.AperFunction*%
%TA.AperFunction,Conductor*%
G36*
X150791007Y-63376564D02*
G01*
X150792147Y-63376401D01*
X150822967Y-63390476D01*
X150854018Y-63403992D01*
X150855029Y-63405118D01*
X150855703Y-63405426D01*
X150877600Y-63430246D01*
X150884660Y-63440811D01*
X150944024Y-63529657D01*
X151090342Y-63675975D01*
X151090345Y-63675977D01*
X151262402Y-63790941D01*
X151453580Y-63870130D01*
X151577837Y-63894846D01*
X151656530Y-63910499D01*
X151656534Y-63910500D01*
X151656535Y-63910500D01*
X151863466Y-63910500D01*
X151863467Y-63910499D01*
X152066420Y-63870130D01*
X152186974Y-63820194D01*
X152256438Y-63812726D01*
X152318918Y-63844000D01*
X152322104Y-63847075D01*
X153763181Y-65288152D01*
X153796666Y-65349475D01*
X153799500Y-65375833D01*
X153799500Y-68389562D01*
X153812374Y-68437607D01*
X153819979Y-68465990D01*
X153819980Y-68465991D01*
X153845122Y-68509539D01*
X153859540Y-68534511D01*
X154313181Y-68988152D01*
X154346666Y-69049475D01*
X154349500Y-69075833D01*
X154349500Y-69165891D01*
X154383608Y-69293187D01*
X154399625Y-69320928D01*
X154449500Y-69407314D01*
X154542686Y-69500500D01*
X154656814Y-69566392D01*
X154730595Y-69586161D01*
X154790253Y-69622524D01*
X154820783Y-69685371D01*
X154822500Y-69705935D01*
X154822500Y-70449523D01*
X154802815Y-70516562D01*
X154750011Y-70562317D01*
X154680853Y-70572261D01*
X154617297Y-70543236D01*
X154610819Y-70537204D01*
X152690910Y-68617295D01*
X152657425Y-68555972D01*
X152662409Y-68486280D01*
X152675491Y-68460721D01*
X152690935Y-68437607D01*
X152690935Y-68437606D01*
X152690941Y-68437598D01*
X152770130Y-68246420D01*
X152810500Y-68043465D01*
X152810500Y-67836535D01*
X152770130Y-67633580D01*
X152690941Y-67442402D01*
X152575977Y-67270345D01*
X152575976Y-67270344D01*
X152575975Y-67270342D01*
X152429657Y-67124024D01*
X152274249Y-67020185D01*
X152257598Y-67009059D01*
X152237082Y-67000561D01*
X152066420Y-66929870D01*
X152066412Y-66929868D01*
X151863469Y-66889500D01*
X151863465Y-66889500D01*
X151656535Y-66889500D01*
X151656530Y-66889500D01*
X151453587Y-66929868D01*
X151453579Y-66929870D01*
X151262403Y-67009058D01*
X151090342Y-67124024D01*
X150944022Y-67270344D01*
X150877602Y-67369751D01*
X150823990Y-67414556D01*
X150754665Y-67423263D01*
X150691638Y-67393109D01*
X150654918Y-67333666D01*
X150650500Y-67300860D01*
X150650500Y-66038239D01*
X150670185Y-65971200D01*
X150722989Y-65925445D01*
X150792147Y-65915501D01*
X150855653Y-65944503D01*
X150861378Y-65945067D01*
X151277037Y-65529408D01*
X151294075Y-65592993D01*
X151359901Y-65707007D01*
X151452993Y-65800099D01*
X151567007Y-65865925D01*
X151630590Y-65882962D01*
X151214931Y-66298620D01*
X151214932Y-66298621D01*
X151262633Y-66330495D01*
X151262639Y-66330498D01*
X151453725Y-66409649D01*
X151453733Y-66409651D01*
X151656579Y-66449999D01*
X151656583Y-66450000D01*
X151863417Y-66450000D01*
X151863420Y-66449999D01*
X152066266Y-66409651D01*
X152066274Y-66409649D01*
X152257366Y-66330495D01*
X152305066Y-66298621D01*
X152305067Y-66298620D01*
X151889409Y-65882962D01*
X151952993Y-65865925D01*
X152067007Y-65800099D01*
X152160099Y-65707007D01*
X152225925Y-65592993D01*
X152242962Y-65529409D01*
X152658620Y-65945067D01*
X152658621Y-65945066D01*
X152690495Y-65897366D01*
X152769649Y-65706274D01*
X152769651Y-65706266D01*
X152809999Y-65503420D01*
X152810000Y-65503417D01*
X152810000Y-65296583D01*
X152809999Y-65296579D01*
X152769651Y-65093733D01*
X152769649Y-65093725D01*
X152690498Y-64902639D01*
X152690495Y-64902633D01*
X152658621Y-64854932D01*
X152658620Y-64854931D01*
X152242962Y-65270590D01*
X152225925Y-65207007D01*
X152160099Y-65092993D01*
X152067007Y-64999901D01*
X151952993Y-64934075D01*
X151889409Y-64917037D01*
X152305067Y-64501378D01*
X152305067Y-64501377D01*
X152257359Y-64469500D01*
X152066274Y-64390350D01*
X152066266Y-64390348D01*
X151863420Y-64350000D01*
X151656579Y-64350000D01*
X151453733Y-64390348D01*
X151453725Y-64390350D01*
X151262641Y-64469500D01*
X151262631Y-64469505D01*
X151214932Y-64501377D01*
X151214932Y-64501378D01*
X151630591Y-64917037D01*
X151567007Y-64934075D01*
X151452993Y-64999901D01*
X151359901Y-65092993D01*
X151294075Y-65207007D01*
X151277037Y-65270591D01*
X150861378Y-64854932D01*
X150846832Y-64856365D01*
X150823989Y-64875455D01*
X150754664Y-64884162D01*
X150691637Y-64854007D01*
X150654918Y-64794564D01*
X150650500Y-64761759D01*
X150650500Y-63499139D01*
X150660039Y-63466652D01*
X150669005Y-63433971D01*
X150669861Y-63433201D01*
X150670185Y-63432100D01*
X150695753Y-63409944D01*
X150720984Y-63387282D01*
X150722120Y-63387097D01*
X150722989Y-63386345D01*
X150756520Y-63381523D01*
X150789954Y-63376106D01*
X150791007Y-63376564D01*
G37*
%TD.AperFunction*%
%TA.AperFunction,Conductor*%
G36*
X160488745Y-67604780D02*
G01*
X160503926Y-67604124D01*
X160536634Y-67617384D01*
X160550498Y-67625469D01*
X160565489Y-67640460D01*
X160634011Y-67680021D01*
X160652567Y-67684993D01*
X160666906Y-67693355D01*
X160702824Y-67729425D01*
X160704596Y-67728067D01*
X160709543Y-67734515D01*
X161103978Y-68128949D01*
X161137463Y-68190272D01*
X161140297Y-68216630D01*
X161140297Y-68338826D01*
X161179815Y-68447404D01*
X161181366Y-68451664D01*
X161181368Y-68451667D01*
X161181369Y-68451668D01*
X161211806Y-68491334D01*
X161211812Y-68491341D01*
X161211813Y-68491342D01*
X161508658Y-68788186D01*
X161548336Y-68818634D01*
X161661174Y-68859703D01*
X161661176Y-68859703D01*
X161723404Y-68859703D01*
X161790443Y-68879388D01*
X161836198Y-68932192D01*
X161844311Y-68956182D01*
X161847404Y-68969770D01*
X161847404Y-69045933D01*
X161888473Y-69158771D01*
X161891247Y-69162386D01*
X161895407Y-69180662D01*
X161894949Y-69188049D01*
X161898500Y-69208183D01*
X161898500Y-69915166D01*
X161878815Y-69982205D01*
X161862181Y-70002847D01*
X161687246Y-70177781D01*
X161625923Y-70211266D01*
X161556231Y-70206282D01*
X161500298Y-70164410D01*
X161483043Y-70132509D01*
X161465709Y-70084883D01*
X161447456Y-70034732D01*
X161417009Y-69995053D01*
X161162591Y-69740636D01*
X161162590Y-69740635D01*
X161162583Y-69740629D01*
X161122916Y-69710191D01*
X161122915Y-69710190D01*
X161122912Y-69710188D01*
X161010074Y-69669119D01*
X160933203Y-69669119D01*
X160866164Y-69649434D01*
X160820409Y-69596630D01*
X160809203Y-69545119D01*
X160809203Y-69468836D01*
X160775983Y-69377567D01*
X160514457Y-69639095D01*
X160453134Y-69672580D01*
X160383443Y-69667596D01*
X160339095Y-69639095D01*
X160250000Y-69550000D01*
X160160904Y-69639096D01*
X160099581Y-69672581D01*
X160029889Y-69667597D01*
X159985542Y-69639096D01*
X159737549Y-69391103D01*
X159707613Y-69393067D01*
X159698994Y-69391138D01*
X159690358Y-69392996D01*
X159665423Y-69383627D01*
X159639430Y-69377812D01*
X159633220Y-69371528D01*
X159624952Y-69368422D01*
X159609041Y-69347061D01*
X159590317Y-69328115D01*
X159587391Y-69317997D01*
X159583214Y-69312389D01*
X159579047Y-69289137D01*
X159575794Y-69277884D01*
X159575499Y-69273625D01*
X159575499Y-69161600D01*
X159560240Y-69084883D01*
X159560238Y-69084881D01*
X159560238Y-69084879D01*
X159536581Y-69049475D01*
X159528613Y-69037550D01*
X160091104Y-69037550D01*
X160250000Y-69196446D01*
X160422431Y-69024015D01*
X160422431Y-69024014D01*
X160331165Y-68990797D01*
X160211261Y-68990797D01*
X160098594Y-69031804D01*
X160098588Y-69031807D01*
X160091104Y-69037550D01*
X159528613Y-69037550D01*
X159502112Y-68997888D01*
X159415117Y-68939760D01*
X159415115Y-68939759D01*
X159415112Y-68939758D01*
X159338404Y-68924500D01*
X159338401Y-68924500D01*
X159334500Y-68924500D01*
X159332530Y-68923921D01*
X159332341Y-68923903D01*
X159332344Y-68923867D01*
X159325814Y-68921949D01*
X159316853Y-68923238D01*
X159292812Y-68912259D01*
X159267461Y-68904815D01*
X159261533Y-68897974D01*
X159253297Y-68894213D01*
X159239007Y-68871978D01*
X159221706Y-68852011D01*
X159219418Y-68841496D01*
X159215523Y-68835435D01*
X159210500Y-68800500D01*
X159210500Y-68792402D01*
X159230185Y-68725363D01*
X159246819Y-68704721D01*
X159258344Y-68693196D01*
X159333224Y-68618316D01*
X159383972Y-68509487D01*
X159390500Y-68459901D01*
X159390499Y-68245833D01*
X159410183Y-68178794D01*
X159426813Y-68158156D01*
X159650460Y-67934511D01*
X159690022Y-67865988D01*
X159702070Y-67821020D01*
X159738434Y-67761361D01*
X159747126Y-67754413D01*
X159748314Y-67753224D01*
X159748316Y-67753224D01*
X159833224Y-67668316D01*
X159833226Y-67668312D01*
X159839447Y-67659429D01*
X159841405Y-67660800D01*
X159877640Y-67619652D01*
X159943844Y-67600500D01*
X160474167Y-67600500D01*
X160488745Y-67604780D01*
G37*
%TD.AperFunction*%
%TA.AperFunction,Conductor*%
G36*
X157396134Y-67864192D02*
G01*
X157452068Y-67906063D01*
X157476485Y-67971527D01*
X157475740Y-67996563D01*
X157475287Y-68000000D01*
X157826000Y-68000000D01*
X157893039Y-68019685D01*
X157938794Y-68072489D01*
X157950000Y-68124000D01*
X157950000Y-68376000D01*
X157930315Y-68443039D01*
X157877511Y-68488794D01*
X157826000Y-68500000D01*
X157475288Y-68500000D01*
X157476519Y-68509355D01*
X157476522Y-68509364D01*
X157482459Y-68522096D01*
X157492951Y-68591173D01*
X157464431Y-68654957D01*
X157405954Y-68693196D01*
X157370077Y-68698500D01*
X157211436Y-68698500D01*
X157135008Y-68718978D01*
X157110917Y-68732888D01*
X157048918Y-68749500D01*
X156934106Y-68749500D01*
X156806810Y-68783608D01*
X156692684Y-68849500D01*
X156692680Y-68849503D01*
X156643100Y-68899083D01*
X156581777Y-68932567D01*
X156531230Y-68933019D01*
X156488401Y-68924500D01*
X156119601Y-68924500D01*
X156052562Y-68904815D01*
X156006807Y-68852011D01*
X155996863Y-68782853D01*
X155999825Y-68768410D01*
X156000500Y-68765892D01*
X156000500Y-68634108D01*
X155966392Y-68506814D01*
X155900500Y-68392686D01*
X155900497Y-68392683D01*
X155896928Y-68386501D01*
X155880455Y-68318601D01*
X155903307Y-68252574D01*
X155958228Y-68209383D01*
X156004315Y-68200500D01*
X156065890Y-68200500D01*
X156065892Y-68200500D01*
X156193186Y-68166392D01*
X156307314Y-68100500D01*
X156400500Y-68007314D01*
X156411536Y-67988198D01*
X156462101Y-67939983D01*
X156530708Y-67926759D01*
X156584735Y-67948016D01*
X156585648Y-67946436D01*
X156592684Y-67950498D01*
X156592686Y-67950500D01*
X156650940Y-67984133D01*
X156691083Y-68007310D01*
X156706814Y-68016392D01*
X156834108Y-68050500D01*
X156834110Y-68050500D01*
X156965890Y-68050500D01*
X156965892Y-68050500D01*
X157093186Y-68016392D01*
X157207314Y-67950500D01*
X157265123Y-67892690D01*
X157326442Y-67859208D01*
X157396134Y-67864192D01*
G37*
%TD.AperFunction*%
%TA.AperFunction,Conductor*%
G36*
X164403703Y-64404798D02*
G01*
X164410181Y-64410830D01*
X165498234Y-65498883D01*
X165531719Y-65560206D01*
X165534553Y-65586564D01*
X165534553Y-68024500D01*
X165514868Y-68091539D01*
X165462064Y-68137294D01*
X165410553Y-68148500D01*
X164116546Y-68148500D01*
X164080529Y-68158151D01*
X164040117Y-68168979D01*
X164003238Y-68190272D01*
X163988987Y-68198500D01*
X163971597Y-68208540D01*
X163864872Y-68315264D01*
X163862722Y-68317221D01*
X163833817Y-68331275D01*
X163805633Y-68346666D01*
X163801183Y-68347144D01*
X163799887Y-68347775D01*
X163797720Y-68347516D01*
X163779275Y-68349500D01*
X163753778Y-68349500D01*
X163686739Y-68329815D01*
X163640984Y-68277011D01*
X163637256Y-68267910D01*
X163604123Y-68176877D01*
X163598377Y-68169389D01*
X163598376Y-68169389D01*
X163350386Y-68417380D01*
X163289063Y-68450865D01*
X163219371Y-68445881D01*
X163175024Y-68417380D01*
X163085929Y-68328285D01*
X162996833Y-68417381D01*
X162935510Y-68450865D01*
X162865818Y-68445881D01*
X162821471Y-68417380D01*
X162654595Y-68250504D01*
X162599357Y-68195267D01*
X162599354Y-68195262D01*
X162202047Y-67797957D01*
X162202044Y-67797955D01*
X162061587Y-67657497D01*
X162061585Y-67657494D01*
X162025269Y-67621178D01*
X162732375Y-67621178D01*
X162810154Y-67698957D01*
X162810157Y-67698959D01*
X162952910Y-67841711D01*
X162952911Y-67841712D01*
X163085928Y-67974730D01*
X163244824Y-67815835D01*
X163237338Y-67810091D01*
X163237339Y-67810091D01*
X163124667Y-67769082D01*
X163062025Y-67769082D01*
X162994986Y-67749397D01*
X162949231Y-67696593D01*
X162938025Y-67645082D01*
X162938025Y-67582442D01*
X162938024Y-67582439D01*
X162897016Y-67469770D01*
X162891270Y-67462282D01*
X162732375Y-67621178D01*
X162025269Y-67621178D01*
X161852838Y-67448746D01*
X161852836Y-67448746D01*
X161819619Y-67540012D01*
X161819619Y-67616297D01*
X161817068Y-67624982D01*
X161818357Y-67633944D01*
X161807378Y-67657984D01*
X161799934Y-67683336D01*
X161793093Y-67689263D01*
X161789332Y-67697500D01*
X161767097Y-67711789D01*
X161747130Y-67729091D01*
X161736615Y-67731378D01*
X161730554Y-67735274D01*
X161695619Y-67740297D01*
X161616630Y-67740297D01*
X161549591Y-67720612D01*
X161528949Y-67703978D01*
X161312652Y-67487681D01*
X161279167Y-67426358D01*
X161284151Y-67356666D01*
X161312652Y-67312319D01*
X161588152Y-67036819D01*
X161649475Y-67003334D01*
X161675833Y-67000500D01*
X162072882Y-67000500D01*
X162139921Y-67020185D01*
X162185676Y-67072989D01*
X162185926Y-67074730D01*
X162378821Y-67267624D01*
X162546618Y-67099827D01*
X162554539Y-67064429D01*
X162604236Y-67015318D01*
X162663017Y-67000500D01*
X163539560Y-67000500D01*
X163539562Y-67000500D01*
X163615989Y-66980021D01*
X163684511Y-66940460D01*
X163740460Y-66884511D01*
X164138460Y-66486511D01*
X164142207Y-66480021D01*
X164178021Y-66417989D01*
X164198500Y-66341562D01*
X164198500Y-65010438D01*
X164198500Y-64498511D01*
X164218185Y-64431472D01*
X164270989Y-64385717D01*
X164340147Y-64375773D01*
X164403703Y-64404798D01*
G37*
%TD.AperFunction*%
%TA.AperFunction,Conductor*%
G36*
X170609994Y-48678605D02*
G01*
X170645648Y-48738694D01*
X170649500Y-48769362D01*
X170649500Y-49520860D01*
X170629815Y-49587899D01*
X170577011Y-49633654D01*
X170507853Y-49643598D01*
X170444297Y-49614573D01*
X170422398Y-49589751D01*
X170355977Y-49490344D01*
X170209657Y-49344024D01*
X170123626Y-49286541D01*
X170037598Y-49229059D01*
X169846420Y-49149870D01*
X169846412Y-49149868D01*
X169643469Y-49109500D01*
X169643465Y-49109500D01*
X169436535Y-49109500D01*
X169436530Y-49109500D01*
X169233587Y-49149868D01*
X169233579Y-49149870D01*
X169042403Y-49229058D01*
X168870342Y-49344024D01*
X168724024Y-49490342D01*
X168609058Y-49662403D01*
X168529870Y-49853579D01*
X168529868Y-49853587D01*
X168489500Y-50056530D01*
X168489500Y-50263469D01*
X168529868Y-50466412D01*
X168529870Y-50466420D01*
X168600043Y-50635833D01*
X168609059Y-50657598D01*
X168641995Y-50706890D01*
X168724024Y-50829657D01*
X168870342Y-50975975D01*
X168870345Y-50975977D01*
X169042402Y-51090941D01*
X169233580Y-51170130D01*
X169436530Y-51210499D01*
X169436534Y-51210500D01*
X169436535Y-51210500D01*
X169643466Y-51210500D01*
X169643467Y-51210499D01*
X169846420Y-51170130D01*
X170037598Y-51090941D01*
X170209655Y-50975977D01*
X170355977Y-50829655D01*
X170422398Y-50730248D01*
X170476009Y-50685443D01*
X170545334Y-50676736D01*
X170608362Y-50706890D01*
X170645082Y-50766333D01*
X170649500Y-50799139D01*
X170649500Y-52061762D01*
X170629815Y-52128801D01*
X170577011Y-52174556D01*
X170507853Y-52184500D01*
X170444341Y-52155495D01*
X170438620Y-52154931D01*
X170022962Y-52570590D01*
X170005925Y-52507007D01*
X169940099Y-52392993D01*
X169847007Y-52299901D01*
X169732993Y-52234075D01*
X169669409Y-52217037D01*
X170085067Y-51801378D01*
X170085067Y-51801377D01*
X170037359Y-51769500D01*
X169846274Y-51690350D01*
X169846266Y-51690348D01*
X169643420Y-51650000D01*
X169436579Y-51650000D01*
X169233733Y-51690348D01*
X169233725Y-51690350D01*
X169042641Y-51769500D01*
X169042631Y-51769505D01*
X168994932Y-51801377D01*
X168994932Y-51801378D01*
X169410591Y-52217037D01*
X169347007Y-52234075D01*
X169232993Y-52299901D01*
X169139901Y-52392993D01*
X169074075Y-52507007D01*
X169057037Y-52570591D01*
X168641378Y-52154932D01*
X168641377Y-52154932D01*
X168609505Y-52202631D01*
X168609500Y-52202641D01*
X168530350Y-52393725D01*
X168530348Y-52393733D01*
X168490000Y-52596579D01*
X168490000Y-52803420D01*
X168530348Y-53006266D01*
X168530350Y-53006274D01*
X168609500Y-53197359D01*
X168641377Y-53245067D01*
X168641378Y-53245067D01*
X169057037Y-52829408D01*
X169074075Y-52892993D01*
X169139901Y-53007007D01*
X169232993Y-53100099D01*
X169347007Y-53165925D01*
X169410590Y-53182962D01*
X168994931Y-53598620D01*
X168994932Y-53598621D01*
X169042633Y-53630495D01*
X169042639Y-53630498D01*
X169233725Y-53709649D01*
X169233733Y-53709651D01*
X169436579Y-53749999D01*
X169436583Y-53750000D01*
X169643417Y-53750000D01*
X169643420Y-53749999D01*
X169846266Y-53709651D01*
X169846274Y-53709649D01*
X170037366Y-53630495D01*
X170085066Y-53598621D01*
X170085067Y-53598620D01*
X169669409Y-53182962D01*
X169732993Y-53165925D01*
X169847007Y-53100099D01*
X169940099Y-53007007D01*
X170005925Y-52892993D01*
X170022962Y-52829408D01*
X170438620Y-53245067D01*
X170453162Y-53243634D01*
X170476013Y-53224539D01*
X170545338Y-53215833D01*
X170608365Y-53245990D01*
X170645083Y-53305434D01*
X170649500Y-53338236D01*
X170649500Y-54600860D01*
X170629815Y-54667899D01*
X170577011Y-54713654D01*
X170507853Y-54723598D01*
X170444297Y-54694573D01*
X170422398Y-54669751D01*
X170355977Y-54570344D01*
X170209657Y-54424024D01*
X170123626Y-54366541D01*
X170037598Y-54309059D01*
X169997942Y-54292633D01*
X169846420Y-54229870D01*
X169846412Y-54229868D01*
X169643469Y-54189500D01*
X169643465Y-54189500D01*
X169436535Y-54189500D01*
X169436530Y-54189500D01*
X169233587Y-54229868D01*
X169233579Y-54229870D01*
X169042403Y-54309058D01*
X168870342Y-54424024D01*
X168724024Y-54570342D01*
X168609058Y-54742403D01*
X168529870Y-54933579D01*
X168529868Y-54933587D01*
X168489500Y-55136530D01*
X168489500Y-55343469D01*
X168529868Y-55546412D01*
X168529870Y-55546420D01*
X168549797Y-55594529D01*
X168609059Y-55737598D01*
X168641995Y-55786890D01*
X168724024Y-55909657D01*
X168870342Y-56055975D01*
X168870345Y-56055977D01*
X169042402Y-56170941D01*
X169233580Y-56250130D01*
X169425555Y-56288316D01*
X169436530Y-56290499D01*
X169436534Y-56290500D01*
X169436535Y-56290500D01*
X169643466Y-56290500D01*
X169643467Y-56290499D01*
X169846420Y-56250130D01*
X170037598Y-56170941D01*
X170209655Y-56055977D01*
X170355977Y-55909655D01*
X170422398Y-55810248D01*
X170476009Y-55765443D01*
X170545334Y-55756736D01*
X170608362Y-55786890D01*
X170645082Y-55846333D01*
X170649500Y-55879139D01*
X170649500Y-57140860D01*
X170629815Y-57207899D01*
X170577011Y-57253654D01*
X170507853Y-57263598D01*
X170444297Y-57234573D01*
X170422398Y-57209751D01*
X170355977Y-57110344D01*
X170209657Y-56964024D01*
X170078984Y-56876712D01*
X170037598Y-56849059D01*
X169936107Y-56807020D01*
X169846420Y-56769870D01*
X169846412Y-56769868D01*
X169643469Y-56729500D01*
X169643465Y-56729500D01*
X169436535Y-56729500D01*
X169436530Y-56729500D01*
X169233587Y-56769868D01*
X169233579Y-56769870D01*
X169042403Y-56849058D01*
X168870342Y-56964024D01*
X168724024Y-57110342D01*
X168609058Y-57282403D01*
X168529870Y-57473579D01*
X168529868Y-57473587D01*
X168489500Y-57676530D01*
X168489500Y-57883469D01*
X168529868Y-58086412D01*
X168529871Y-58086424D01*
X168579803Y-58206971D01*
X168587272Y-58276440D01*
X168555997Y-58338919D01*
X168552923Y-58342104D01*
X166252542Y-60642487D01*
X166196594Y-60698434D01*
X166196588Y-60698442D01*
X166157035Y-60766951D01*
X166157032Y-60766956D01*
X166144029Y-60815486D01*
X166138425Y-60836401D01*
X166136553Y-60843386D01*
X166136553Y-64562220D01*
X166116868Y-64629259D01*
X166064064Y-64675014D01*
X165994906Y-64684958D01*
X165931350Y-64655933D01*
X165924872Y-64649901D01*
X164785714Y-63510743D01*
X164769094Y-63490123D01*
X164767490Y-63487628D01*
X164740460Y-63440811D01*
X164731857Y-63432208D01*
X164724654Y-63421005D01*
X164718407Y-63399748D01*
X164707789Y-63380302D01*
X164708748Y-63366880D01*
X164704955Y-63353970D01*
X164711192Y-63332709D01*
X164712773Y-63310610D01*
X164720899Y-63299625D01*
X164724625Y-63286926D01*
X164740428Y-63273226D01*
X164744639Y-63267533D01*
X164742460Y-63265354D01*
X164787570Y-63220244D01*
X164841393Y-63166421D01*
X164907285Y-63052293D01*
X164941393Y-62924999D01*
X164941393Y-62793215D01*
X164907285Y-62665921D01*
X164867111Y-62596338D01*
X164862961Y-62580850D01*
X164855523Y-62569275D01*
X164850500Y-62534340D01*
X164850500Y-62292402D01*
X164870185Y-62225363D01*
X164886819Y-62204721D01*
X164901198Y-62190342D01*
X164973224Y-62118316D01*
X165023972Y-62009487D01*
X165030500Y-61959901D01*
X165030499Y-61540100D01*
X165023972Y-61490513D01*
X164973224Y-61381684D01*
X164888316Y-61296776D01*
X164779487Y-61246028D01*
X164779485Y-61246027D01*
X164779486Y-61246027D01*
X164729902Y-61239500D01*
X164474500Y-61239500D01*
X164465814Y-61236949D01*
X164456853Y-61238238D01*
X164432812Y-61227259D01*
X164407461Y-61219815D01*
X164401533Y-61212974D01*
X164393297Y-61209213D01*
X164379007Y-61186978D01*
X164361706Y-61167011D01*
X164359418Y-61156496D01*
X164355523Y-61150435D01*
X164350500Y-61115500D01*
X164350500Y-61074499D01*
X164370185Y-61007460D01*
X164422989Y-60961705D01*
X164474500Y-60950499D01*
X164881517Y-60950499D01*
X164881518Y-60950499D01*
X164975304Y-60935646D01*
X165088342Y-60878050D01*
X165178050Y-60788342D01*
X165235646Y-60675304D01*
X165235646Y-60675302D01*
X165235647Y-60675301D01*
X165248688Y-60592958D01*
X165250500Y-60581519D01*
X165250499Y-60118482D01*
X165235646Y-60024696D01*
X165178050Y-59911658D01*
X165178046Y-59911654D01*
X165178045Y-59911652D01*
X165088347Y-59821954D01*
X165088344Y-59821952D01*
X165088342Y-59821950D01*
X164992487Y-59773109D01*
X164975301Y-59764352D01*
X164881524Y-59749500D01*
X163218482Y-59749500D01*
X163140128Y-59761910D01*
X163124696Y-59764354D01*
X163011658Y-59821950D01*
X163011657Y-59821951D01*
X163011652Y-59821954D01*
X162921954Y-59911652D01*
X162921951Y-59911657D01*
X162864352Y-60024698D01*
X162849500Y-60118475D01*
X162849500Y-60581517D01*
X162856612Y-60626420D01*
X162864354Y-60675304D01*
X162921950Y-60788342D01*
X162921952Y-60788344D01*
X162921954Y-60788347D01*
X163011652Y-60878045D01*
X163011654Y-60878046D01*
X163011658Y-60878050D01*
X163124694Y-60935645D01*
X163124698Y-60935647D01*
X163218475Y-60950499D01*
X163218481Y-60950500D01*
X163625500Y-60950499D01*
X163634186Y-60953049D01*
X163643147Y-60951761D01*
X163667183Y-60962738D01*
X163692539Y-60970183D01*
X163698467Y-60977025D01*
X163706703Y-60980786D01*
X163720989Y-61003017D01*
X163738294Y-61022987D01*
X163740581Y-61033502D01*
X163744477Y-61039564D01*
X163749500Y-61074499D01*
X163749500Y-61114165D01*
X163729815Y-61181204D01*
X163713181Y-61201846D01*
X163711846Y-61203181D01*
X163691853Y-61214097D01*
X163677011Y-61226959D01*
X163665186Y-61228659D01*
X163650523Y-61236666D01*
X163624166Y-61239500D01*
X163410105Y-61239500D01*
X163394386Y-61241569D01*
X163360513Y-61246028D01*
X163360511Y-61246029D01*
X163360509Y-61246029D01*
X163251683Y-61296776D01*
X163166776Y-61381683D01*
X163116027Y-61490514D01*
X163110938Y-61529173D01*
X163082672Y-61593070D01*
X163024347Y-61631541D01*
X162954482Y-61632372D01*
X162900318Y-61600669D01*
X161377819Y-60078170D01*
X161344334Y-60016847D01*
X161341500Y-59990489D01*
X161341500Y-57931820D01*
X161361185Y-57864781D01*
X161413989Y-57819026D01*
X161437738Y-57815465D01*
X161450000Y-57804712D01*
X161450000Y-57804711D01*
X161950000Y-57804711D01*
X161959355Y-57803480D01*
X162068024Y-57752807D01*
X162152808Y-57668023D01*
X162193854Y-57580000D01*
X161950000Y-57580000D01*
X161950000Y-57804711D01*
X161450000Y-57804711D01*
X161450000Y-57454000D01*
X161469685Y-57386961D01*
X161522489Y-57341206D01*
X161574000Y-57330000D01*
X161700000Y-57330000D01*
X161700000Y-57204000D01*
X161719685Y-57136961D01*
X161772489Y-57091206D01*
X161824000Y-57080000D01*
X162193854Y-57080000D01*
X162193853Y-57079999D01*
X162152808Y-56991976D01*
X162098867Y-56938035D01*
X162065382Y-56876712D01*
X162070366Y-56807020D01*
X162098867Y-56762673D01*
X162111542Y-56749998D01*
X162153224Y-56708316D01*
X162203972Y-56599487D01*
X162210500Y-56549901D01*
X162210500Y-56400000D01*
X162852935Y-56400000D01*
X162864835Y-56475149D01*
X162864837Y-56475155D01*
X162922356Y-56588041D01*
X162922363Y-56588050D01*
X163011949Y-56677636D01*
X163011953Y-56677639D01*
X163124855Y-56735166D01*
X163218514Y-56749999D01*
X163799999Y-56749999D01*
X164300000Y-56749999D01*
X164881479Y-56749999D01*
X164975149Y-56735164D01*
X164975155Y-56735162D01*
X165088041Y-56677643D01*
X165088050Y-56677636D01*
X165177636Y-56588050D01*
X165177639Y-56588046D01*
X165235166Y-56475144D01*
X165247068Y-56400000D01*
X164300000Y-56400000D01*
X164300000Y-56749999D01*
X163799999Y-56749999D01*
X163800000Y-56749998D01*
X163800000Y-56400000D01*
X162852935Y-56400000D01*
X162210500Y-56400000D01*
X162210499Y-56190100D01*
X162203972Y-56140513D01*
X162153224Y-56031684D01*
X162137819Y-56016279D01*
X162104334Y-55954956D01*
X162101500Y-55928598D01*
X162101500Y-55900000D01*
X162852932Y-55900000D01*
X163800000Y-55900000D01*
X164300000Y-55900000D01*
X165247065Y-55900000D01*
X165235164Y-55824850D01*
X165235162Y-55824844D01*
X165177643Y-55711958D01*
X165177636Y-55711949D01*
X165088050Y-55622363D01*
X165088046Y-55622360D01*
X164975144Y-55564833D01*
X164881486Y-55550000D01*
X164300000Y-55550000D01*
X164300000Y-55900000D01*
X163800000Y-55900000D01*
X163800000Y-55550000D01*
X163218520Y-55550000D01*
X163124850Y-55564835D01*
X163124844Y-55564837D01*
X163011958Y-55622356D01*
X163011949Y-55622363D01*
X162922363Y-55711949D01*
X162922360Y-55711953D01*
X162864833Y-55824855D01*
X162852932Y-55900000D01*
X162101500Y-55900000D01*
X162101500Y-54114500D01*
X162121185Y-54047461D01*
X162173989Y-54001706D01*
X162225500Y-53990500D01*
X162349750Y-53990500D01*
X162349751Y-53990499D01*
X162364485Y-53987568D01*
X162420210Y-53976485D01*
X162420464Y-53977762D01*
X162477009Y-53971680D01*
X162500899Y-53978694D01*
X162560247Y-53990499D01*
X162560250Y-53990500D01*
X162560252Y-53990500D01*
X163199749Y-53990500D01*
X163218203Y-53986829D01*
X163257090Y-53979094D01*
X163305471Y-53979094D01*
X163360297Y-53989999D01*
X163360301Y-53990000D01*
X163430000Y-53990000D01*
X163430000Y-53315000D01*
X163416819Y-53301819D01*
X163383334Y-53240496D01*
X163380500Y-53214138D01*
X163380500Y-52939000D01*
X163383050Y-52930314D01*
X163381762Y-52921353D01*
X163392740Y-52897312D01*
X163400185Y-52871961D01*
X163407025Y-52866033D01*
X163410787Y-52857797D01*
X163433021Y-52843507D01*
X163452989Y-52826206D01*
X163463503Y-52823918D01*
X163469565Y-52820023D01*
X163504500Y-52815000D01*
X163556000Y-52815000D01*
X163623039Y-52834685D01*
X163668794Y-52887489D01*
X163680000Y-52939000D01*
X163680000Y-53065000D01*
X163806000Y-53065000D01*
X163873039Y-53084685D01*
X163918794Y-53137489D01*
X163930000Y-53189000D01*
X163930000Y-53990000D01*
X163999699Y-53990000D01*
X163999702Y-53989999D01*
X164058033Y-53978397D01*
X164058034Y-53978396D01*
X164124191Y-53934191D01*
X164168396Y-53868034D01*
X164168397Y-53868033D01*
X164179999Y-53809702D01*
X164180000Y-53809699D01*
X164180000Y-53393008D01*
X164199685Y-53325969D01*
X164252489Y-53280214D01*
X164321647Y-53270270D01*
X164372891Y-53289906D01*
X164418421Y-53320328D01*
X164418424Y-53320330D01*
X164500000Y-53354119D01*
X164500000Y-52866988D01*
X164509940Y-52884205D01*
X164565795Y-52940060D01*
X164634204Y-52979556D01*
X164710504Y-53000000D01*
X164789496Y-53000000D01*
X164865796Y-52979556D01*
X164934205Y-52940060D01*
X164990060Y-52884205D01*
X165000000Y-52866988D01*
X165000000Y-53354118D01*
X165081575Y-53320330D01*
X165081579Y-53320328D01*
X165196226Y-53243724D01*
X165293724Y-53146226D01*
X165370328Y-53031579D01*
X165370335Y-53031566D01*
X165423097Y-52904186D01*
X165423100Y-52904176D01*
X165450000Y-52768946D01*
X165450000Y-52400000D01*
X165050000Y-52400000D01*
X165050000Y-51900000D01*
X165450000Y-51900000D01*
X165450000Y-51531053D01*
X165423100Y-51395823D01*
X165423097Y-51395813D01*
X165370335Y-51268433D01*
X165370328Y-51268420D01*
X165293724Y-51153773D01*
X165196226Y-51056275D01*
X165081573Y-50979667D01*
X165000000Y-50945879D01*
X165000000Y-51433011D01*
X164990060Y-51415795D01*
X164934205Y-51359940D01*
X164865796Y-51320444D01*
X164789496Y-51300000D01*
X164710504Y-51300000D01*
X164634204Y-51320444D01*
X164565795Y-51359940D01*
X164509940Y-51415795D01*
X164500000Y-51433011D01*
X164500000Y-50945879D01*
X164499999Y-50945879D01*
X164418426Y-50979667D01*
X164303773Y-51056275D01*
X164206275Y-51153773D01*
X164129671Y-51268420D01*
X164129666Y-51268430D01*
X164080470Y-51387199D01*
X164036628Y-51441603D01*
X163970334Y-51463667D01*
X163902635Y-51446387D01*
X163858522Y-51401746D01*
X163834385Y-51359940D01*
X163780515Y-51266635D01*
X163673365Y-51159485D01*
X163594107Y-51113725D01*
X163542136Y-51083719D01*
X163461033Y-51061988D01*
X163395766Y-51044500D01*
X163244234Y-51044500D01*
X163244232Y-51044500D01*
X163160592Y-51066911D01*
X163135598Y-51066315D01*
X163110853Y-51069874D01*
X163101272Y-51065498D01*
X163090743Y-51065248D01*
X163070038Y-51051234D01*
X163047297Y-51040849D01*
X163041603Y-51031988D01*
X163032880Y-51026085D01*
X163023038Y-51003101D01*
X163009523Y-50982071D01*
X163007243Y-50966213D01*
X163005377Y-50961856D01*
X163004500Y-50947136D01*
X163004500Y-50835825D01*
X163024185Y-50768786D01*
X163040819Y-50748144D01*
X163402144Y-50386819D01*
X163463467Y-50353334D01*
X163489825Y-50350500D01*
X167139560Y-50350500D01*
X167139562Y-50350500D01*
X167215989Y-50330021D01*
X167284511Y-50290460D01*
X167340460Y-50234511D01*
X168868152Y-48706819D01*
X168929475Y-48673334D01*
X168955833Y-48670500D01*
X170409750Y-48670500D01*
X170409751Y-48670499D01*
X170429418Y-48666587D01*
X170468228Y-48658868D01*
X170468229Y-48658867D01*
X170468231Y-48658867D01*
X170468231Y-48658866D01*
X170478045Y-48654802D01*
X170547514Y-48647332D01*
X170609994Y-48678605D01*
G37*
%TD.AperFunction*%
%TA.AperFunction,Conductor*%
G36*
X155952605Y-46770185D02*
G01*
X155998360Y-46822989D01*
X156008304Y-46892147D01*
X155979279Y-46955703D01*
X155920501Y-46993477D01*
X155909757Y-46996117D01*
X155905825Y-46996899D01*
X155905813Y-46996902D01*
X155778433Y-47049664D01*
X155778420Y-47049671D01*
X155663773Y-47126275D01*
X155566275Y-47223773D01*
X155489671Y-47338420D01*
X155489664Y-47338433D01*
X155436902Y-47465813D01*
X155436899Y-47465823D01*
X155410000Y-47601053D01*
X155410000Y-47720000D01*
X155810000Y-47720000D01*
X155810000Y-48220000D01*
X155410000Y-48220000D01*
X155410000Y-48338946D01*
X155409999Y-48338946D01*
X155436899Y-48474176D01*
X155436902Y-48474186D01*
X155489664Y-48601566D01*
X155489671Y-48601579D01*
X155566275Y-48716226D01*
X155663773Y-48813724D01*
X155778420Y-48890328D01*
X155778424Y-48890330D01*
X155860000Y-48924119D01*
X155860000Y-48436988D01*
X155869940Y-48454205D01*
X155925795Y-48510060D01*
X155994204Y-48549556D01*
X156070504Y-48570000D01*
X156149496Y-48570000D01*
X156225796Y-48549556D01*
X156294205Y-48510060D01*
X156350060Y-48454205D01*
X156360000Y-48436988D01*
X156360000Y-48924118D01*
X156441575Y-48890330D01*
X156441579Y-48890328D01*
X156556226Y-48813724D01*
X156653724Y-48716226D01*
X156730328Y-48601579D01*
X156730335Y-48601566D01*
X156783097Y-48474186D01*
X156783100Y-48474176D01*
X156810000Y-48338946D01*
X156810000Y-48220000D01*
X156410000Y-48220000D01*
X156410000Y-47720000D01*
X156810000Y-47720000D01*
X156810000Y-47601053D01*
X156783100Y-47465823D01*
X156783097Y-47465813D01*
X156730335Y-47338433D01*
X156730328Y-47338420D01*
X156653724Y-47223773D01*
X156556226Y-47126275D01*
X156441579Y-47049671D01*
X156441566Y-47049664D01*
X156314186Y-46996902D01*
X156314174Y-46996899D01*
X156310243Y-46996117D01*
X156308373Y-46995139D01*
X156308350Y-46995132D01*
X156308351Y-46995127D01*
X156248332Y-46963732D01*
X156213758Y-46903017D01*
X156217497Y-46833247D01*
X156258363Y-46776575D01*
X156323382Y-46750994D01*
X156334434Y-46750500D01*
X164525566Y-46750500D01*
X164592605Y-46770185D01*
X164638360Y-46822989D01*
X164648304Y-46892147D01*
X164619279Y-46955703D01*
X164560501Y-46993477D01*
X164549757Y-46996117D01*
X164545825Y-46996899D01*
X164545813Y-46996902D01*
X164418433Y-47049664D01*
X164418420Y-47049671D01*
X164303773Y-47126275D01*
X164206275Y-47223773D01*
X164129671Y-47338420D01*
X164129664Y-47338433D01*
X164076902Y-47465813D01*
X164076899Y-47465823D01*
X164050000Y-47601053D01*
X164050000Y-47720000D01*
X164450000Y-47720000D01*
X164450000Y-48220000D01*
X164050000Y-48220000D01*
X164050000Y-48338946D01*
X164049999Y-48338946D01*
X164076899Y-48474176D01*
X164076902Y-48474186D01*
X164129664Y-48601566D01*
X164129671Y-48601579D01*
X164206275Y-48716226D01*
X164303773Y-48813724D01*
X164418420Y-48890328D01*
X164418424Y-48890330D01*
X164500000Y-48924119D01*
X164500000Y-48436988D01*
X164509940Y-48454205D01*
X164565795Y-48510060D01*
X164634204Y-48549556D01*
X164710504Y-48570000D01*
X164789496Y-48570000D01*
X164865796Y-48549556D01*
X164934205Y-48510060D01*
X164990060Y-48454205D01*
X165000000Y-48436988D01*
X165000000Y-48924118D01*
X165081575Y-48890330D01*
X165081579Y-48890328D01*
X165196226Y-48813724D01*
X165293724Y-48716226D01*
X165370328Y-48601579D01*
X165370335Y-48601566D01*
X165423097Y-48474186D01*
X165423100Y-48474176D01*
X165450000Y-48338946D01*
X165450000Y-48220000D01*
X165050000Y-48220000D01*
X165050000Y-47720000D01*
X165450000Y-47720000D01*
X165450000Y-47601053D01*
X165423100Y-47465823D01*
X165423097Y-47465813D01*
X165370335Y-47338433D01*
X165370328Y-47338420D01*
X165293724Y-47223773D01*
X165196226Y-47126275D01*
X165081579Y-47049671D01*
X165081566Y-47049664D01*
X164954186Y-46996902D01*
X164954174Y-46996899D01*
X164950243Y-46996117D01*
X164948373Y-46995139D01*
X164948350Y-46995132D01*
X164948351Y-46995127D01*
X164888332Y-46963732D01*
X164853758Y-46903017D01*
X164857497Y-46833247D01*
X164898363Y-46776575D01*
X164963382Y-46750994D01*
X164974434Y-46750500D01*
X168365500Y-46750500D01*
X168432539Y-46770185D01*
X168478294Y-46822989D01*
X168489500Y-46874500D01*
X168489500Y-48184167D01*
X168469815Y-48251206D01*
X168453181Y-48271848D01*
X167011848Y-49713181D01*
X166950525Y-49746666D01*
X166924167Y-49749500D01*
X163274430Y-49749500D01*
X163223478Y-49763152D01*
X163198002Y-49769979D01*
X163138202Y-49804505D01*
X163138201Y-49804504D01*
X163129484Y-49809537D01*
X163129479Y-49809541D01*
X162615848Y-50323173D01*
X162554525Y-50356658D01*
X162528167Y-50359492D01*
X158800446Y-50359492D01*
X158762232Y-50369731D01*
X158724017Y-50379971D01*
X158724012Y-50379974D01*
X158655503Y-50419527D01*
X158655495Y-50419533D01*
X158259541Y-50815487D01*
X158259535Y-50815495D01*
X158219982Y-50884004D01*
X158219979Y-50884009D01*
X158199500Y-50960439D01*
X158199500Y-51166258D01*
X158179815Y-51233297D01*
X158127011Y-51279052D01*
X158057853Y-51288996D01*
X157994297Y-51259971D01*
X157987819Y-51253939D01*
X157893367Y-51159487D01*
X157893365Y-51159485D01*
X157814107Y-51113725D01*
X157762136Y-51083719D01*
X157681033Y-51061988D01*
X157615766Y-51044500D01*
X157464234Y-51044500D01*
X157317863Y-51083719D01*
X157186635Y-51159485D01*
X157186632Y-51159487D01*
X157079487Y-51266632D01*
X157079485Y-51266635D01*
X157001477Y-51401747D01*
X156950909Y-51449962D01*
X156882302Y-51463184D01*
X156817437Y-51437216D01*
X156779529Y-51387199D01*
X156730333Y-51268429D01*
X156730328Y-51268420D01*
X156653724Y-51153773D01*
X156556226Y-51056275D01*
X156441573Y-50979667D01*
X156360000Y-50945879D01*
X156360000Y-51433011D01*
X156350060Y-51415795D01*
X156294205Y-51359940D01*
X156225796Y-51320444D01*
X156149496Y-51300000D01*
X156070504Y-51300000D01*
X155994204Y-51320444D01*
X155925795Y-51359940D01*
X155869940Y-51415795D01*
X155860000Y-51433011D01*
X155860000Y-50945879D01*
X155859999Y-50945879D01*
X155778426Y-50979667D01*
X155663773Y-51056275D01*
X155566275Y-51153773D01*
X155489671Y-51268420D01*
X155489664Y-51268433D01*
X155436902Y-51395813D01*
X155436899Y-51395823D01*
X155410000Y-51531053D01*
X155410000Y-51900000D01*
X155810000Y-51900000D01*
X155810000Y-52400000D01*
X155410000Y-52400000D01*
X155410000Y-52768946D01*
X155409999Y-52768946D01*
X155436899Y-52904176D01*
X155436902Y-52904186D01*
X155489664Y-53031566D01*
X155489671Y-53031579D01*
X155566275Y-53146226D01*
X155663773Y-53243724D01*
X155778420Y-53320328D01*
X155778424Y-53320330D01*
X155860000Y-53354119D01*
X155860000Y-52866988D01*
X155869940Y-52884205D01*
X155925795Y-52940060D01*
X155994204Y-52979556D01*
X156070504Y-53000000D01*
X156149496Y-53000000D01*
X156225796Y-52979556D01*
X156294205Y-52940060D01*
X156350060Y-52884205D01*
X156360000Y-52866988D01*
X156360000Y-53354118D01*
X156441575Y-53320330D01*
X156441578Y-53320328D01*
X156463344Y-53305784D01*
X156550000Y-53157437D01*
X156550000Y-52939000D01*
X156569685Y-52871961D01*
X156622489Y-52826206D01*
X156674000Y-52815000D01*
X157056000Y-52815000D01*
X157123039Y-52834685D01*
X157168794Y-52887489D01*
X157180000Y-52939000D01*
X157180000Y-53065000D01*
X157306000Y-53065000D01*
X157373039Y-53084685D01*
X157418794Y-53137489D01*
X157430000Y-53189000D01*
X157430000Y-53768666D01*
X157410315Y-53835705D01*
X157393681Y-53856347D01*
X157141681Y-54108347D01*
X157080358Y-54141832D01*
X157078803Y-54141720D01*
X157074204Y-54151791D01*
X157069496Y-54173432D01*
X157056228Y-54191152D01*
X157054379Y-54195203D01*
X157048343Y-54201685D01*
X157036842Y-54213185D01*
X156975518Y-54246667D01*
X156949166Y-54249500D01*
X156850143Y-54249500D01*
X156850118Y-54249502D01*
X156825011Y-54252414D01*
X156825010Y-54252414D01*
X156754466Y-54283562D01*
X156685188Y-54292633D01*
X156654295Y-54283562D01*
X156585000Y-54252965D01*
X156585000Y-55051503D01*
X156621779Y-55094494D01*
X156631286Y-55163714D01*
X156601861Y-55227085D01*
X156596344Y-55232973D01*
X156560803Y-55268514D01*
X156509426Y-55373608D01*
X156499500Y-55441739D01*
X156499500Y-56683260D01*
X156509426Y-56751391D01*
X156560803Y-56856485D01*
X156643514Y-56939196D01*
X156643515Y-56939196D01*
X156643517Y-56939198D01*
X156748607Y-56990573D01*
X156782673Y-56995536D01*
X156816739Y-57000500D01*
X156816740Y-57000500D01*
X157183261Y-57000500D01*
X157205971Y-56997191D01*
X157251393Y-56990573D01*
X157356483Y-56939198D01*
X157439198Y-56856483D01*
X157490573Y-56751393D01*
X157500500Y-56683260D01*
X157500500Y-55441740D01*
X157490573Y-55373607D01*
X157439198Y-55268517D01*
X157439196Y-55268515D01*
X157439196Y-55268514D01*
X157361819Y-55191137D01*
X157347115Y-55164209D01*
X157330523Y-55138391D01*
X157329631Y-55132190D01*
X157328334Y-55129814D01*
X157325500Y-55103456D01*
X157325500Y-55055833D01*
X157345185Y-54988794D01*
X157361819Y-54968152D01*
X157374442Y-54955529D01*
X157407206Y-54922765D01*
X157452585Y-54819991D01*
X157455500Y-54794865D01*
X157455499Y-54695831D01*
X157475183Y-54628794D01*
X157491813Y-54608156D01*
X158073152Y-54026819D01*
X158100079Y-54012115D01*
X158125898Y-53995523D01*
X158132098Y-53994631D01*
X158134475Y-53993334D01*
X158160833Y-53990500D01*
X158255500Y-53990500D01*
X158322539Y-54010185D01*
X158368294Y-54062989D01*
X158379500Y-54114500D01*
X158379500Y-55119562D01*
X158399979Y-55195989D01*
X158411526Y-55215989D01*
X158421332Y-55232973D01*
X158439539Y-55264509D01*
X158439541Y-55264512D01*
X159003181Y-55828152D01*
X159036666Y-55889475D01*
X159039500Y-55915832D01*
X159039500Y-56129894D01*
X159039501Y-56129900D01*
X159046028Y-56179487D01*
X159046029Y-56179489D01*
X159046029Y-56179490D01*
X159096776Y-56288316D01*
X159151133Y-56342673D01*
X159184618Y-56403996D01*
X159179634Y-56473688D01*
X159151133Y-56518035D01*
X159097191Y-56571976D01*
X159056146Y-56659999D01*
X159056146Y-56660000D01*
X160043854Y-56660000D01*
X160043853Y-56659999D01*
X160002808Y-56571976D01*
X159948867Y-56518035D01*
X159915382Y-56456712D01*
X159920366Y-56387020D01*
X159948867Y-56342673D01*
X160003224Y-56288316D01*
X160053972Y-56179487D01*
X160060500Y-56129901D01*
X160060499Y-55770100D01*
X160053972Y-55720513D01*
X160003224Y-55611684D01*
X159918316Y-55526776D01*
X159809487Y-55476028D01*
X159809485Y-55476027D01*
X159809486Y-55476027D01*
X159759902Y-55469500D01*
X159759901Y-55469500D01*
X159545833Y-55469500D01*
X159478794Y-55449815D01*
X159458152Y-55433181D01*
X159016819Y-54991848D01*
X158983334Y-54930525D01*
X158980500Y-54904167D01*
X158980500Y-54114500D01*
X158983050Y-54105814D01*
X158981762Y-54096853D01*
X158992740Y-54072812D01*
X159000185Y-54047461D01*
X159007025Y-54041533D01*
X159010787Y-54033297D01*
X159033021Y-54019007D01*
X159052989Y-54001706D01*
X159063503Y-53999418D01*
X159069565Y-53995523D01*
X159104500Y-53990500D01*
X159255500Y-53990500D01*
X159322539Y-54010185D01*
X159368294Y-54062989D01*
X159379500Y-54114500D01*
X159379500Y-54139562D01*
X159382777Y-54151791D01*
X159399979Y-54215990D01*
X159399982Y-54215995D01*
X159439535Y-54284504D01*
X159439541Y-54284512D01*
X160343181Y-55188152D01*
X160376666Y-55249475D01*
X160379500Y-55275833D01*
X160379500Y-59705167D01*
X160359815Y-59772206D01*
X160307011Y-59817961D01*
X160237853Y-59827905D01*
X160174297Y-59798880D01*
X160167819Y-59792848D01*
X159584512Y-59209541D01*
X159584504Y-59209535D01*
X159515995Y-59169982D01*
X159515990Y-59169979D01*
X159490513Y-59163152D01*
X159439562Y-59149500D01*
X159439560Y-59149500D01*
X158374130Y-59149500D01*
X158365237Y-59146888D01*
X158356061Y-59148176D01*
X158332247Y-59137201D01*
X158307091Y-59129815D01*
X158301023Y-59122812D01*
X158292605Y-59118933D01*
X158278502Y-59096822D01*
X158261336Y-59077011D01*
X158259020Y-59066276D01*
X158255033Y-59060025D01*
X158253604Y-59041175D01*
X158250131Y-59025073D01*
X158250162Y-59015820D01*
X158250500Y-59014562D01*
X158250500Y-58917860D01*
X158250501Y-58917570D01*
X158260410Y-58884245D01*
X158270185Y-58850958D01*
X158270365Y-58850768D01*
X158270416Y-58850599D01*
X158271030Y-58850070D01*
X158302450Y-58817077D01*
X158306477Y-58814200D01*
X158306483Y-58814198D01*
X158389198Y-58731483D01*
X158440573Y-58626393D01*
X158450500Y-58558260D01*
X158450500Y-57316740D01*
X158440573Y-57248607D01*
X158397256Y-57160000D01*
X159056146Y-57160000D01*
X159097191Y-57248023D01*
X159181975Y-57332807D01*
X159290644Y-57383480D01*
X159300000Y-57384711D01*
X159800000Y-57384711D01*
X159809355Y-57383480D01*
X159918024Y-57332807D01*
X160002808Y-57248023D01*
X160043854Y-57160000D01*
X159800000Y-57160000D01*
X159800000Y-57384711D01*
X159300000Y-57384711D01*
X159300000Y-57160000D01*
X159056146Y-57160000D01*
X158397256Y-57160000D01*
X158389198Y-57143517D01*
X158389196Y-57143515D01*
X158389196Y-57143514D01*
X158306485Y-57060803D01*
X158201391Y-57009426D01*
X158133261Y-56999500D01*
X158133260Y-56999500D01*
X157766740Y-56999500D01*
X157766739Y-56999500D01*
X157698608Y-57009426D01*
X157593514Y-57060803D01*
X157510803Y-57143514D01*
X157459426Y-57248608D01*
X157449500Y-57316739D01*
X157449500Y-58558260D01*
X157459426Y-58626391D01*
X157510803Y-58731485D01*
X157551992Y-58772674D01*
X157556330Y-58780618D01*
X157563579Y-58786045D01*
X157572814Y-58810807D01*
X157585477Y-58833997D01*
X157584831Y-58843027D01*
X157587995Y-58851510D01*
X157582378Y-58877330D01*
X157580493Y-58903689D01*
X157574674Y-58912742D01*
X157573143Y-58919783D01*
X157551992Y-58948037D01*
X157486846Y-59013182D01*
X157425522Y-59046666D01*
X157399166Y-59049500D01*
X157300143Y-59049500D01*
X157300118Y-59049502D01*
X157275011Y-59052414D01*
X157275010Y-59052414D01*
X157204466Y-59083562D01*
X157135188Y-59092633D01*
X157104295Y-59083562D01*
X157035000Y-59052965D01*
X157035000Y-59326000D01*
X157032449Y-59334685D01*
X157033738Y-59343647D01*
X157022759Y-59367687D01*
X157015315Y-59393039D01*
X157008474Y-59398966D01*
X157004713Y-59407203D01*
X156982478Y-59421492D01*
X156962511Y-59438794D01*
X156951996Y-59441081D01*
X156945935Y-59444977D01*
X156911000Y-59450000D01*
X156759000Y-59450000D01*
X156691961Y-59430315D01*
X156646206Y-59377511D01*
X156635000Y-59326000D01*
X156635000Y-59052965D01*
X156532520Y-59098214D01*
X156453214Y-59177520D01*
X156453212Y-59177523D01*
X156425031Y-59241349D01*
X156379945Y-59294725D01*
X156313159Y-59315253D01*
X156245877Y-59296415D01*
X156223915Y-59278944D01*
X155836319Y-58891348D01*
X155822079Y-58865269D01*
X156300000Y-58865269D01*
X156301244Y-58865089D01*
X156406191Y-58813784D01*
X156488787Y-58731188D01*
X156540087Y-58626251D01*
X156540088Y-58626248D01*
X156550000Y-58558219D01*
X156550000Y-58187500D01*
X156300000Y-58187500D01*
X156300000Y-58865269D01*
X155822079Y-58865269D01*
X155802834Y-58830025D01*
X155800000Y-58803667D01*
X155800000Y-58187500D01*
X155550001Y-58187500D01*
X155550001Y-58305668D01*
X155530316Y-58372707D01*
X155477512Y-58418462D01*
X155408354Y-58428406D01*
X155344798Y-58399381D01*
X155338320Y-58393349D01*
X154261751Y-57316780D01*
X155550000Y-57316780D01*
X155550000Y-57687500D01*
X155800000Y-57687500D01*
X156300000Y-57687500D01*
X156549999Y-57687500D01*
X156549999Y-57316782D01*
X156540087Y-57248750D01*
X156488784Y-57143808D01*
X156406188Y-57061212D01*
X156301249Y-57009911D01*
X156301250Y-57009911D01*
X156300000Y-57009729D01*
X156300000Y-57687500D01*
X155800000Y-57687500D01*
X155800000Y-57009730D01*
X155799999Y-57009729D01*
X155798750Y-57009911D01*
X155693811Y-57061212D01*
X155611212Y-57143811D01*
X155559912Y-57248748D01*
X155559911Y-57248751D01*
X155550000Y-57316780D01*
X154261751Y-57316780D01*
X152747075Y-55802104D01*
X152713590Y-55740781D01*
X152718574Y-55671089D01*
X152720163Y-55667049D01*
X152770130Y-55546420D01*
X152810500Y-55343465D01*
X152810500Y-55136535D01*
X152770130Y-54933580D01*
X152690941Y-54742402D01*
X152575977Y-54570345D01*
X152575976Y-54570344D01*
X152575975Y-54570342D01*
X152429657Y-54424024D01*
X152343626Y-54366541D01*
X152257598Y-54309059D01*
X152217942Y-54292633D01*
X152066420Y-54229870D01*
X152066412Y-54229868D01*
X151863469Y-54189500D01*
X151863465Y-54189500D01*
X151656535Y-54189500D01*
X151656530Y-54189500D01*
X151453587Y-54229868D01*
X151453579Y-54229870D01*
X151262403Y-54309058D01*
X151090342Y-54424024D01*
X150944022Y-54570344D01*
X150877602Y-54669751D01*
X150823990Y-54714556D01*
X150754665Y-54723263D01*
X150691638Y-54693109D01*
X150654918Y-54633666D01*
X150650500Y-54600860D01*
X150650500Y-53338239D01*
X150670185Y-53271200D01*
X150722989Y-53225445D01*
X150792147Y-53215501D01*
X150855653Y-53244503D01*
X150861378Y-53245067D01*
X151277037Y-52829408D01*
X151294075Y-52892993D01*
X151359901Y-53007007D01*
X151452993Y-53100099D01*
X151567007Y-53165925D01*
X151630590Y-53182962D01*
X151214931Y-53598620D01*
X151214932Y-53598621D01*
X151262633Y-53630495D01*
X151262639Y-53630498D01*
X151453725Y-53709649D01*
X151453733Y-53709651D01*
X151656579Y-53749999D01*
X151656583Y-53750000D01*
X151863417Y-53750000D01*
X151863420Y-53749999D01*
X152066266Y-53709651D01*
X152066274Y-53709649D01*
X152257366Y-53630495D01*
X152305066Y-53598621D01*
X152305067Y-53598620D01*
X151889409Y-53182962D01*
X151952993Y-53165925D01*
X152067007Y-53100099D01*
X152160099Y-53007007D01*
X152225925Y-52892993D01*
X152242962Y-52829409D01*
X152658620Y-53245067D01*
X152658621Y-53245066D01*
X152690495Y-53197366D01*
X152769649Y-53006274D01*
X152769651Y-53006266D01*
X152809999Y-52803420D01*
X152810000Y-52803417D01*
X152810000Y-52596583D01*
X152809999Y-52596579D01*
X152769651Y-52393733D01*
X152769649Y-52393725D01*
X152690498Y-52202639D01*
X152690495Y-52202633D01*
X152658621Y-52154932D01*
X152658620Y-52154931D01*
X152242962Y-52570590D01*
X152225925Y-52507007D01*
X152160099Y-52392993D01*
X152067007Y-52299901D01*
X151952993Y-52234075D01*
X151889409Y-52217037D01*
X152305067Y-51801378D01*
X152305067Y-51801377D01*
X152257359Y-51769500D01*
X152066274Y-51690350D01*
X152066266Y-51690348D01*
X151863420Y-51650000D01*
X151656579Y-51650000D01*
X151453733Y-51690348D01*
X151453725Y-51690350D01*
X151262641Y-51769500D01*
X151262631Y-51769505D01*
X151214932Y-51801377D01*
X151214932Y-51801378D01*
X151630591Y-52217037D01*
X151567007Y-52234075D01*
X151452993Y-52299901D01*
X151359901Y-52392993D01*
X151294075Y-52507007D01*
X151277037Y-52570591D01*
X150861378Y-52154932D01*
X150847022Y-52156346D01*
X150826011Y-52174553D01*
X150824872Y-52174716D01*
X150823989Y-52175455D01*
X150790384Y-52179675D01*
X150756853Y-52184497D01*
X150755805Y-52184018D01*
X150754664Y-52184162D01*
X150724120Y-52169548D01*
X150693297Y-52155472D01*
X150692674Y-52154503D01*
X150691637Y-52154007D01*
X150673839Y-52125194D01*
X150655523Y-52096694D01*
X150655307Y-52095194D01*
X150654918Y-52094564D01*
X150650500Y-52061759D01*
X150650500Y-50799139D01*
X150670185Y-50732100D01*
X150722989Y-50686345D01*
X150792147Y-50676401D01*
X150855703Y-50705426D01*
X150877600Y-50730246D01*
X150897174Y-50759540D01*
X150944024Y-50829657D01*
X151090342Y-50975975D01*
X151090345Y-50975977D01*
X151262402Y-51090941D01*
X151453580Y-51170130D01*
X151656530Y-51210499D01*
X151656534Y-51210500D01*
X151656535Y-51210500D01*
X151863466Y-51210500D01*
X151863467Y-51210499D01*
X152066420Y-51170130D01*
X152186974Y-51120194D01*
X152256438Y-51112726D01*
X152318918Y-51144000D01*
X152322104Y-51147075D01*
X153913181Y-52738152D01*
X153946666Y-52799475D01*
X153949500Y-52825833D01*
X153949500Y-55989562D01*
X153966384Y-56052574D01*
X153969979Y-56065989D01*
X153990806Y-56102062D01*
X153990806Y-56102064D01*
X154009535Y-56134504D01*
X154009541Y-56134512D01*
X154263181Y-56388152D01*
X154296666Y-56449475D01*
X154299500Y-56475833D01*
X154299500Y-56565891D01*
X154333608Y-56693187D01*
X154342343Y-56708316D01*
X154399500Y-56807314D01*
X154492686Y-56900500D01*
X154559713Y-56939198D01*
X154602712Y-56964024D01*
X154606814Y-56966392D01*
X154734108Y-57000500D01*
X154734110Y-57000500D01*
X154865890Y-57000500D01*
X154865892Y-57000500D01*
X154993186Y-56966392D01*
X155107314Y-56900500D01*
X155200500Y-56807314D01*
X155266392Y-56693186D01*
X155300500Y-56565892D01*
X155300500Y-56434108D01*
X155266392Y-56306814D01*
X155200500Y-56192686D01*
X155200497Y-56192683D01*
X155196928Y-56186501D01*
X155180455Y-56118601D01*
X155203307Y-56052574D01*
X155258228Y-56009383D01*
X155304315Y-56000500D01*
X155365890Y-56000500D01*
X155365892Y-56000500D01*
X155493186Y-55966392D01*
X155607314Y-55900500D01*
X155700500Y-55807314D01*
X155766392Y-55693186D01*
X155800500Y-55565892D01*
X155800500Y-55434108D01*
X155766392Y-55306814D01*
X155700500Y-55192686D01*
X155607314Y-55099500D01*
X155524181Y-55051503D01*
X155493187Y-55033608D01*
X155429539Y-55016554D01*
X155365892Y-54999500D01*
X155275833Y-54999500D01*
X155246392Y-54990855D01*
X155216406Y-54984332D01*
X155211390Y-54980577D01*
X155208794Y-54979815D01*
X155188152Y-54963181D01*
X155074971Y-54850000D01*
X155971211Y-54850000D01*
X156003212Y-54922477D01*
X156082521Y-55001786D01*
X156185000Y-55047034D01*
X156185000Y-54850000D01*
X155971211Y-54850000D01*
X155074971Y-54850000D01*
X154936819Y-54711848D01*
X154903334Y-54650525D01*
X154900500Y-54624167D01*
X154900500Y-54450000D01*
X155971210Y-54450000D01*
X156185000Y-54450000D01*
X156185000Y-54252965D01*
X156082520Y-54298214D01*
X156003212Y-54377522D01*
X155971210Y-54450000D01*
X154900500Y-54450000D01*
X154900500Y-53426570D01*
X156680000Y-53426570D01*
X156680000Y-53809702D01*
X156691602Y-53868033D01*
X156691603Y-53868034D01*
X156735808Y-53934191D01*
X156801965Y-53978396D01*
X156801966Y-53978397D01*
X156860297Y-53989999D01*
X156860301Y-53990000D01*
X156930000Y-53990000D01*
X156930000Y-53315000D01*
X156745172Y-53315000D01*
X156680000Y-53426570D01*
X154900500Y-53426570D01*
X154900500Y-50420440D01*
X154900499Y-50420436D01*
X154900257Y-50419533D01*
X154889657Y-50379971D01*
X154880022Y-50344012D01*
X154840460Y-50275489D01*
X152846819Y-48281848D01*
X152832115Y-48254920D01*
X152815523Y-48229102D01*
X152814631Y-48222901D01*
X152813334Y-48220525D01*
X152810500Y-48194167D01*
X152810500Y-46874500D01*
X152830185Y-46807461D01*
X152882989Y-46761706D01*
X152934500Y-46750500D01*
X155885566Y-46750500D01*
X155952605Y-46770185D01*
G37*
%TD.AperFunction*%
%TD*%
M02*
