%TF.GenerationSoftware,KiCad,Pcbnew,9.0.7*%
%TF.CreationDate,2026-03-29T11:59:00-07:00*%
%TF.ProjectId,Devboard,44657662-6f61-4726-942e-6b696361645f,rev?*%
%TF.SameCoordinates,Original*%
%TF.FileFunction,Soldermask,Top*%
%TF.FilePolarity,Negative*%
%FSLAX46Y46*%
G04 Gerber Fmt 4.6, Leading zero omitted, Abs format (unit mm)*
G04 Created by KiCad (PCBNEW 9.0.7) date 2026-03-29 11:59:00*
%MOMM*%
%LPD*%
G01*
G04 APERTURE LIST*
G04 Aperture macros list*
%AMRoundRect*
0 Rectangle with rounded corners*
0 $1 Rounding radius*
0 $2 $3 $4 $5 $6 $7 $8 $9 X,Y pos of 4 corners*
0 Add a 4 corners polygon primitive as box body*
4,1,4,$2,$3,$4,$5,$6,$7,$8,$9,$2,$3,0*
0 Add four circle primitives for the rounded corners*
1,1,$1+$1,$2,$3*
1,1,$1+$1,$4,$5*
1,1,$1+$1,$6,$7*
1,1,$1+$1,$8,$9*
0 Add four rect primitives between the rounded corners*
20,1,$1+$1,$2,$3,$4,$5,0*
20,1,$1+$1,$4,$5,$6,$7,0*
20,1,$1+$1,$6,$7,$8,$9,0*
20,1,$1+$1,$8,$9,$2,$3,0*%
G04 Aperture macros list end*
%ADD10RoundRect,0.140000X0.140000X0.170000X-0.140000X0.170000X-0.140000X-0.170000X0.140000X-0.170000X0*%
%ADD11R,0.200000X1.600000*%
%ADD12RoundRect,0.062500X-0.387500X-0.062500X0.387500X-0.062500X0.387500X0.062500X-0.387500X0.062500X0*%
%ADD13RoundRect,0.140000X-0.170000X0.140000X-0.170000X-0.140000X0.170000X-0.140000X0.170000X0.140000X0*%
%ADD14RoundRect,0.140000X0.021213X-0.219203X0.219203X-0.021213X-0.021213X0.219203X-0.219203X0.021213X0*%
%ADD15RoundRect,0.140000X-0.140000X-0.170000X0.140000X-0.170000X0.140000X0.170000X-0.140000X0.170000X0*%
%ADD16RoundRect,0.150000X0.150000X-0.587500X0.150000X0.587500X-0.150000X0.587500X-0.150000X-0.587500X0*%
%ADD17R,1.700000X1.700000*%
%ADD18C,1.700000*%
%ADD19C,0.650000*%
%ADD20R,0.600000X1.450000*%
%ADD21R,0.300000X1.450000*%
%ADD22O,1.000000X2.100000*%
%ADD23O,1.000000X1.600000*%
%ADD24RoundRect,0.100000X0.130000X0.100000X-0.130000X0.100000X-0.130000X-0.100000X0.130000X-0.100000X0*%
%ADD25RoundRect,0.050000X-0.387500X-0.050000X0.387500X-0.050000X0.387500X0.050000X-0.387500X0.050000X0*%
%ADD26RoundRect,0.050000X-0.050000X-0.387500X0.050000X-0.387500X0.050000X0.387500X-0.050000X0.387500X0*%
%ADD27R,3.200000X3.200000*%
%ADD28RoundRect,0.250000X-0.450000X-0.350000X0.450000X-0.350000X0.450000X0.350000X-0.450000X0.350000X0*%
%ADD29RoundRect,0.140000X0.170000X-0.140000X0.170000X0.140000X-0.170000X0.140000X-0.170000X-0.140000X0*%
%ADD30RoundRect,0.140000X0.219203X0.021213X0.021213X0.219203X-0.219203X-0.021213X-0.021213X-0.219203X0*%
%ADD31RoundRect,0.200000X-0.800000X0.200000X-0.800000X-0.200000X0.800000X-0.200000X0.800000X0.200000X0*%
G04 APERTURE END LIST*
D10*
%TO.C,C12*%
X155040000Y-75500000D03*
X156000000Y-75500000D03*
%TD*%
D11*
%TO.C,W25Q16JVZPIQ_TR1*%
X157500000Y-70000000D03*
D12*
X158925000Y-69250000D03*
X158925000Y-69750000D03*
X158925000Y-70250000D03*
X158925000Y-70750000D03*
X156075000Y-70750000D03*
X156075000Y-70250000D03*
X156075000Y-69750000D03*
X156075000Y-69250000D03*
%TD*%
D13*
%TO.C,R1*%
X159550000Y-55950000D03*
X159550000Y-56910000D03*
%TD*%
%TO.C,R4*%
X161500000Y-72540000D03*
X161500000Y-73500000D03*
%TD*%
D14*
%TO.C,C8*%
X166321178Y-72928822D03*
X167000000Y-72250000D03*
%TD*%
D13*
%TO.C,R2*%
X161700000Y-56370000D03*
X161700000Y-57330000D03*
%TD*%
%TO.C,R3*%
X162500000Y-72540000D03*
X162500000Y-73500000D03*
%TD*%
D15*
%TO.C,C7*%
X165750000Y-79250000D03*
X166710000Y-79250000D03*
%TD*%
D10*
%TO.C,C6*%
X156000000Y-79250000D03*
X155040000Y-79250000D03*
%TD*%
D14*
%TO.C,C11*%
X161700000Y-68300000D03*
X162378822Y-67621178D03*
%TD*%
D16*
%TO.C,U2*%
X156050000Y-57937500D03*
X157950000Y-57937500D03*
X157000000Y-56062500D03*
%TD*%
D17*
%TO.C,J3*%
X169540000Y-47620000D03*
D18*
X169540000Y-50160000D03*
X169540000Y-52700000D03*
X169540000Y-55240000D03*
X169540000Y-57780000D03*
X169540000Y-60320000D03*
X169540000Y-62860000D03*
X169540000Y-65400000D03*
X169540000Y-67940000D03*
X169540000Y-70480000D03*
X169540000Y-73020000D03*
X169540000Y-75560000D03*
X169540000Y-78100000D03*
X169540000Y-80640000D03*
X169540000Y-83180000D03*
X169540000Y-85720000D03*
X169540000Y-88260000D03*
X169540000Y-90800000D03*
X169540000Y-93340000D03*
X169540000Y-95880000D03*
%TD*%
D19*
%TO.C,J1*%
X163320000Y-51620000D03*
X157540000Y-51620000D03*
D20*
X163680000Y-53065000D03*
X162880000Y-53065000D03*
D21*
X161680000Y-53065000D03*
X160680000Y-53065000D03*
X160180000Y-53065000D03*
X159180000Y-53065000D03*
D20*
X157980000Y-53065000D03*
X157180000Y-53065000D03*
X157180000Y-53065000D03*
X157980000Y-53065000D03*
D21*
X158680000Y-53065000D03*
X159680000Y-53065000D03*
X161180000Y-53065000D03*
X162180000Y-53065000D03*
D20*
X162880000Y-53065000D03*
X163680000Y-53065000D03*
D22*
X164750000Y-52150000D03*
D23*
X164750000Y-47970000D03*
D22*
X156110000Y-52150000D03*
D23*
X156110000Y-47970000D03*
%TD*%
D24*
%TO.C,C13*%
X157025000Y-54650000D03*
X156385000Y-54650000D03*
%TD*%
D10*
%TO.C,C17*%
X158910000Y-68250000D03*
X157950000Y-68250000D03*
%TD*%
D13*
%TO.C,C16*%
X158250000Y-85550000D03*
X158250000Y-86510000D03*
%TD*%
%TO.C,C4*%
X163600000Y-83590000D03*
X163600000Y-84550000D03*
%TD*%
D17*
%TO.C,J4*%
X158110000Y-96640000D03*
D18*
X160650000Y-96640000D03*
X163190000Y-96640000D03*
%TD*%
D24*
%TO.C,C14*%
X157475000Y-59450000D03*
X156835000Y-59450000D03*
%TD*%
D13*
%TO.C,C1*%
X164550000Y-83590000D03*
X164550000Y-84550000D03*
%TD*%
D25*
%TO.C,U1*%
X157552500Y-75720000D03*
X157552500Y-76120000D03*
X157552500Y-76520000D03*
X157552500Y-76920000D03*
X157552500Y-77320000D03*
X157552500Y-77720000D03*
X157552500Y-78120000D03*
X157552500Y-78520000D03*
X157552500Y-78920000D03*
X157552500Y-79320000D03*
X157552500Y-79720000D03*
X157552500Y-80120000D03*
X157552500Y-80520000D03*
X157552500Y-80920000D03*
D26*
X158390000Y-81757500D03*
X158790000Y-81757500D03*
X159190000Y-81757500D03*
X159590000Y-81757500D03*
X159990000Y-81757500D03*
X160390000Y-81757500D03*
X160790000Y-81757500D03*
X161190000Y-81757500D03*
X161590000Y-81757500D03*
X161990000Y-81757500D03*
X162390000Y-81757500D03*
X162790000Y-81757500D03*
X163190000Y-81757500D03*
X163590000Y-81757500D03*
D25*
X164427500Y-80920000D03*
X164427500Y-80520000D03*
X164427500Y-80120000D03*
X164427500Y-79720000D03*
X164427500Y-79320000D03*
X164427500Y-78920000D03*
X164427500Y-78520000D03*
X164427500Y-78120000D03*
X164427500Y-77720000D03*
X164427500Y-77320000D03*
X164427500Y-76920000D03*
X164427500Y-76520000D03*
X164427500Y-76120000D03*
X164427500Y-75720000D03*
D26*
X163590000Y-74882500D03*
X163190000Y-74882500D03*
X162790000Y-74882500D03*
X162390000Y-74882500D03*
X161990000Y-74882500D03*
X161590000Y-74882500D03*
X161190000Y-74882500D03*
X160790000Y-74882500D03*
X160390000Y-74882500D03*
X159990000Y-74882500D03*
X159590000Y-74882500D03*
X159190000Y-74882500D03*
X158790000Y-74882500D03*
X158390000Y-74882500D03*
D27*
X160990000Y-78320000D03*
%TD*%
D28*
%TO.C,Y1*%
X159900000Y-86330000D03*
X162100000Y-86330000D03*
X162100000Y-84630000D03*
X159900000Y-84630000D03*
%TD*%
D14*
%TO.C,C5*%
X162407107Y-69007107D03*
X163085929Y-68328285D03*
%TD*%
D17*
%TO.C,J2*%
X151760000Y-47620000D03*
D18*
X151760000Y-50160000D03*
X151760000Y-52700000D03*
X151760000Y-55240000D03*
X151760000Y-57780000D03*
X151760000Y-60320000D03*
X151760000Y-62860000D03*
X151760000Y-65400000D03*
X151760000Y-67940000D03*
X151760000Y-70480000D03*
X151760000Y-73020000D03*
X151760000Y-75560000D03*
X151760000Y-78100000D03*
X151760000Y-80640000D03*
X151760000Y-83180000D03*
X151760000Y-85720000D03*
X151760000Y-88260000D03*
X151760000Y-90800000D03*
X151760000Y-93340000D03*
X151760000Y-95880000D03*
%TD*%
D29*
%TO.C,C9*%
X164750000Y-73210000D03*
X164750000Y-72250000D03*
%TD*%
D10*
%TO.C,R6*%
X159410000Y-67300000D03*
X158450000Y-67300000D03*
%TD*%
D30*
%TO.C,C2*%
X160928822Y-70228822D03*
X160250000Y-69550000D03*
%TD*%
D14*
%TO.C,C3*%
X164000000Y-70500000D03*
X164678822Y-69821178D03*
%TD*%
D29*
%TO.C,C15*%
X163700000Y-86410000D03*
X163700000Y-85450000D03*
%TD*%
D10*
%TO.C,R5*%
X162400000Y-83250000D03*
X161440000Y-83250000D03*
%TD*%
D15*
%TO.C,C10*%
X165770000Y-75250000D03*
X166730000Y-75250000D03*
%TD*%
%TO.C,R7*%
X163590000Y-61750000D03*
X164550000Y-61750000D03*
%TD*%
D31*
%TO.C,SW1*%
X164050000Y-56150000D03*
X164050000Y-60350000D03*
%TD*%
M02*
